<?xml version="1.0" encoding="utf-8" standalone="no"?>
<!DOCTYPE svg PUBLIC "-//W3C//DTD SVG 1.1//EN"
  "http://www.w3.org/Graphics/SVG/1.1/DTD/svg11.dtd">
<svg xmlns:xlink="http://www.w3.org/1999/xlink" width="414.784062pt" height="145.654375pt" viewBox="0 0 414.784062 145.654375" xmlns="http://www.w3.org/2000/svg" version="1.1">
 <metadata>
  <rdf:RDF xmlns:dc="http://purl.org/dc/elements/1.1/" xmlns:cc="http://creativecommons.org/ns#" xmlns:rdf="http://www.w3.org/1999/02/22-rdf-syntax-ns#">
   <cc:Work>
    <dc:type rdf:resource="http://purl.org/dc/dcmitype/StillImage"/>
    <dc:date>2024-08-26T11:28:31.416688</dc:date>
    <dc:format>image/svg+xml</dc:format>
    <dc:creator>
     <cc:Agent>
      <dc:title>Matplotlib v3.8.4, https://matplotlib.org/</dc:title>
     </cc:Agent>
    </dc:creator>
   </cc:Work>
  </rdf:RDF>
 </metadata>
 <defs>
  <style type="text/css">*{stroke-linejoin: round; stroke-linecap: butt}</style>
 </defs>
 <g id="figure_1">
  <g id="patch_1">
   <path d="M 0 145.654375 
L 414.784062 145.654375 
L 414.784062 0 
L 0 0 
z
" style="fill: #ffffff"/>
  </g>
  <g id="axes_1">
   <g id="PolyCollection_1">
    <defs>
     <path id="m194696b02d" d="M 36.15 29.715179 
L 36.15 -97.244626 
L 36.358964 -97.202325 
L 36.567929 -97.160025 
L 36.776893 -97.117725 
L 36.985857 -97.101362 
L 37.194822 -97.105873 
L 37.403786 -97.110385 
L 37.61275 -97.114896 
L 37.821714 -97.119407 
L 38.030679 -97.123919 
L 38.239643 -97.12843 
L 38.448607 -97.132942 
L 38.657572 -97.149802 
L 38.866536 -97.180226 
L 39.0755 -97.210649 
L 39.284465 -97.241073 
L 39.493429 -97.271497 
L 39.702393 -97.301921 
L 39.911358 -97.332344 
L 40.120322 -97.366302 
L 40.329286 -97.408915 
L 40.53825 -97.451528 
L 40.747215 -97.494141 
L 40.956179 -97.536754 
L 41.165143 -97.579367 
L 41.374108 -97.62198 
L 41.583072 -97.664605 
L 41.792036 -97.707778 
L 42.001001 -97.75095 
L 42.209965 -97.794123 
L 42.418929 -97.837295 
L 42.627894 -97.880468 
L 42.836858 -97.874812 
L 43.045822 -97.866943 
L 43.254786 -97.859074 
L 43.463751 -97.851205 
L 43.672715 -97.843336 
L 43.881679 -97.835468 
L 44.090644 -97.827599 
L 44.299608 -97.81973 
L 44.508572 -97.811861 
L 44.717537 -97.803992 
L 44.926501 -97.796123 
L 45.135465 -97.807627 
L 45.344429 -97.82276 
L 45.553394 -97.837893 
L 45.762358 -97.853025 
L 45.971322 -97.868158 
L 46.180287 -97.88329 
L 46.389251 -97.898423 
L 46.598215 -97.913555 
L 46.80718 -97.929971 
L 47.016144 -97.952519 
L 47.225108 -97.975066 
L 47.434073 -97.997614 
L 47.643037 -98.020162 
L 47.852001 -98.04271 
L 48.060965 -98.065257 
L 48.26993 -98.087805 
L 48.478894 -98.110353 
L 48.687858 -98.12442 
L 48.896823 -98.137855 
L 49.105787 -98.15129 
L 49.314751 -98.164725 
L 49.523716 -98.17816 
L 49.73268 -98.191595 
L 49.941644 -98.20503 
L 50.150609 -98.218466 
L 50.359573 -98.231901 
L 50.568537 -98.242332 
L 50.777501 -98.237688 
L 50.986466 -98.233044 
L 51.19543 -98.2284 
L 51.404394 -98.223755 
L 51.613359 -98.219111 
L 51.822323 -98.214467 
L 52.031287 -98.209823 
L 52.240252 -98.205178 
L 52.449216 -98.200534 
L 52.65818 -98.19589 
L 52.867145 -98.191245 
L 53.076109 -98.186601 
L 53.285073 -98.181957 
L 53.494037 -98.177313 
L 53.703002 -98.172668 
L 53.911966 -98.168024 
L 54.12093 -98.176777 
L 54.329895 -98.191586 
L 54.538859 -98.206395 
L 54.747823 -98.221205 
L 54.956788 -98.236014 
L 55.165752 -98.250823 
L 55.374716 -98.265633 
L 55.583681 -98.280442 
L 55.792645 -98.295251 
L 56.001609 -98.31006 
L 56.210573 -98.32487 
L 56.419538 -98.339679 
L 56.628502 -98.374227 
L 56.837466 -98.411531 
L 57.046431 -98.448836 
L 57.255395 -98.48614 
L 57.464359 -98.523445 
L 57.673324 -98.560749 
L 57.882288 -98.597482 
L 58.091252 -98.63235 
L 58.300217 -98.667218 
L 58.509181 -98.702086 
L 58.718145 -98.736954 
L 58.927109 -98.762093 
L 59.136074 -98.752409 
L 59.345038 -98.742725 
L 59.554002 -98.733041 
L 59.762967 -98.723358 
L 59.971931 -98.713674 
L 60.180895 -98.70399 
L 60.38986 -98.694306 
L 60.598824 -98.694309 
L 60.807788 -98.715287 
L 61.016752 -98.736265 
L 61.225717 -98.757242 
L 61.434681 -98.77822 
L 61.643645 -98.799198 
L 61.85261 -98.822315 
L 62.061574 -98.877632 
L 62.270538 -98.932949 
L 62.479503 -98.988266 
L 62.688467 -99.018575 
L 62.897431 -99.038299 
L 63.106396 -99.058023 
L 63.31536 -99.077747 
L 63.524324 -99.097471 
L 63.733288 -99.117195 
L 63.942253 -99.13578 
L 64.151217 -99.13338 
L 64.360181 -99.130979 
L 64.569146 -99.128579 
L 64.77811 -99.126178 
L 64.987074 -99.119326 
L 65.196039 -99.107973 
L 65.405003 -99.09662 
L 65.613967 -99.085267 
L 65.822932 -99.073914 
L 66.031896 -99.062561 
L 66.24086 -99.051208 
L 66.449824 -99.039855 
L 66.658789 -99.024747 
L 66.867753 -99.008664 
L 67.076717 -98.99258 
L 67.285682 -98.976497 
L 67.494646 -98.960413 
L 67.70361 -98.94433 
L 67.912575 -98.928246 
L 68.121539 -98.912621 
L 68.330503 -98.901611 
L 68.539468 -98.890601 
L 68.748432 -98.879591 
L 68.957396 -98.868581 
L 69.16636 -98.857571 
L 69.375325 -98.846561 
L 69.584289 -98.835551 
L 69.793253 -98.825847 
L 70.002218 -98.823735 
L 70.211182 -98.821623 
L 70.420146 -98.819511 
L 70.629111 -98.817399 
L 70.838075 -98.815287 
L 71.047039 -98.848787 
L 71.256004 -98.883377 
L 71.464968 -98.917967 
L 71.673932 -98.956183 
L 71.882896 -99.011181 
L 72.091861 -99.066179 
L 72.300825 -99.121176 
L 72.509789 -99.152742 
L 72.718754 -99.178395 
L 72.927718 -99.204047 
L 73.136682 -99.229699 
L 73.345647 -99.255351 
L 73.554611 -99.238574 
L 73.763575 -99.202233 
L 73.972539 -99.165891 
L 74.181504 -99.129549 
L 74.390468 -99.093208 
L 74.599432 -99.056866 
L 74.808397 -99.020524 
L 75.017361 -98.984183 
L 75.226325 -99.05533 
L 75.43529 -99.143524 
L 75.644254 -99.231718 
L 75.853218 -99.319912 
L 76.062183 -99.408106 
L 76.271147 -99.4963 
L 76.480111 -99.584494 
L 76.689075 -99.672688 
L 76.89804 -99.760882 
L 77.107004 -99.849076 
L 77.315968 -99.93727 
L 77.524933 -100.027693 
L 77.733897 -100.120743 
L 77.942861 -100.213792 
L 78.151826 -100.306842 
L 78.36079 -100.399891 
L 78.569754 -100.492941 
L 78.778719 -100.58599 
L 78.987683 -100.67904 
L 79.196647 -100.77209 
L 79.405611 -100.865139 
L 79.614576 -100.958189 
L 79.82354 -101.051238 
L 80.032504 -101.144288 
L 80.241469 -101.237337 
L 80.450433 -101.330387 
L 80.659397 -101.42269 
L 80.868362 -101.51064 
L 81.077326 -101.59859 
L 81.28629 -101.68654 
L 81.495255 -101.77449 
L 81.704219 -101.862441 
L 81.913183 -101.950391 
L 82.122147 -102.038341 
L 82.331112 -102.126291 
L 82.540076 -102.214241 
L 82.74904 -102.302191 
L 82.958005 -102.390141 
L 83.166969 -102.372169 
L 83.375933 -102.311098 
L 83.584898 -102.250027 
L 83.793862 -102.188956 
L 84.002826 -102.127885 
L 84.211791 -102.066815 
L 84.420755 -102.045522 
L 84.629719 -102.133735 
L 84.838683 -102.221949 
L 85.047648 -102.310162 
L 85.256612 -102.398375 
L 85.465576 -102.486589 
L 85.674541 -102.574802 
L 85.883505 -102.625981 
L 86.092469 -102.669147 
L 86.301434 -102.712313 
L 86.510398 -102.755478 
L 86.719362 -102.798644 
L 86.928327 -102.84181 
L 87.137291 -102.884976 
L 87.346255 -102.928142 
L 87.555219 -102.971307 
L 87.764184 -103.014473 
L 87.973148 -103.057639 
L 88.182112 -103.100805 
L 88.391077 -103.143971 
L 88.600041 -103.187136 
L 88.809005 -103.230302 
L 89.01797 -103.273468 
L 89.226934 -103.316634 
L 89.435898 -103.3598 
L 89.644862 -103.405673 
L 89.853827 -103.46523 
L 90.062791 -103.524788 
L 90.271755 -103.584345 
L 90.48072 -103.643903 
L 90.689684 -103.70346 
L 90.898648 -103.763018 
L 91.107613 -103.822575 
L 91.316577 -103.882133 
L 91.525541 -103.94169 
L 91.734506 -103.951524 
L 91.94347 -103.930903 
L 92.152434 -103.910282 
L 92.361398 -103.889661 
L 92.570363 -103.86904 
L 92.779327 -103.848419 
L 92.988291 -103.827799 
L 93.197256 -103.807178 
L 93.40622 -103.786557 
L 93.615184 -103.799029 
L 93.824149 -103.832879 
L 94.033113 -103.866729 
L 94.242077 -103.900579 
L 94.451042 -103.934429 
L 94.660006 -103.985857 
L 94.86897 -104.059644 
L 95.077934 -104.133431 
L 95.286899 -104.203568 
L 95.495863 -104.232765 
L 95.704827 -104.261962 
L 95.913792 -104.291159 
L 96.122756 -104.320356 
L 96.33172 -104.349553 
L 96.540685 -104.374513 
L 96.749649 -104.357146 
L 96.958613 -104.33978 
L 97.167578 -104.322414 
L 97.376542 -104.305047 
L 97.585506 -104.287681 
L 97.79447 -104.293357 
L 98.003435 -104.330151 
L 98.212399 -104.366946 
L 98.421363 -104.40374 
L 98.630328 -104.440535 
L 98.839292 -104.477329 
L 99.048256 -104.509129 
L 99.257221 -104.535585 
L 99.466185 -104.562041 
L 99.675149 -104.588497 
L 99.884114 -104.614953 
L 100.093078 -104.641409 
L 100.302042 -104.667865 
L 100.511006 -104.694321 
L 100.719971 -104.720778 
L 100.928935 -104.747234 
L 101.137899 -104.77369 
L 101.346864 -104.800146 
L 101.555828 -104.838918 
L 101.764792 -104.881263 
L 101.973757 -104.923608 
L 102.182721 -104.965953 
L 102.391685 -105.008298 
L 102.60065 -105.021744 
L 102.809614 -105.016846 
L 103.018578 -105.011948 
L 103.227542 -105.007051 
L 103.436507 -105.002153 
L 103.645471 -104.997255 
L 103.854435 -104.992358 
L 104.0634 -104.98746 
L 104.272364 -104.982562 
L 104.481328 -104.977665 
L 104.690293 -104.972767 
L 104.899257 -104.967869 
L 105.108221 -104.962972 
L 105.317185 -104.960151 
L 105.52615 -104.964743 
L 105.735114 -104.969334 
L 105.944078 -104.973925 
L 106.153043 -104.978516 
L 106.362007 -104.983107 
L 106.570971 -104.987699 
L 106.779936 -104.99229 
L 106.9889 -104.996881 
L 107.197864 -105.001472 
L 107.406829 -105.01221 
L 107.615793 -105.025654 
L 107.824757 -105.039098 
L 108.033721 -105.052542 
L 108.242686 -105.065205 
L 108.45165 -105.069606 
L 108.660614 -105.074007 
L 108.869579 -105.078407 
L 109.078543 -105.082808 
L 109.287507 -105.087209 
L 109.496472 -105.09161 
L 109.705436 -105.096011 
L 109.9144 -105.100412 
L 110.123365 -105.104812 
L 110.332329 -105.106154 
L 110.541293 -105.090147 
L 110.750257 -105.074139 
L 110.959222 -105.058132 
L 111.168186 -105.042124 
L 111.37715 -105.026117 
L 111.586115 -105.010109 
L 111.795079 -104.994102 
L 112.004043 -105.029173 
L 112.213008 -105.093288 
L 112.421972 -105.157404 
L 112.630936 -105.221519 
L 112.839901 -105.285634 
L 113.048865 -105.34975 
L 113.257829 -105.413865 
L 113.466793 -105.494316 
L 113.675758 -105.578421 
L 113.884722 -105.662526 
L 114.093686 -105.746632 
L 114.302651 -105.830737 
L 114.511615 -105.914843 
L 114.720579 -105.998948 
L 114.929544 -106.062611 
L 115.138508 -106.101438 
L 115.347472 -106.140264 
L 115.556437 -106.179091 
L 115.765401 -106.217917 
L 115.974365 -106.256743 
L 116.183329 -106.29557 
L 116.392294 -106.334396 
L 116.601258 -106.373222 
L 116.810222 -106.412049 
L 117.019187 -106.450875 
L 117.228151 -106.479772 
L 117.437115 -106.465999 
L 117.64608 -106.452225 
L 117.855044 -106.438451 
L 118.064008 -106.424678 
L 118.272972 -106.410904 
L 118.481937 -106.39713 
L 118.690901 -106.383356 
L 118.899865 -106.369583 
L 119.10883 -106.355809 
L 119.317794 -106.342035 
L 119.526758 -106.354848 
L 119.735723 -106.371611 
L 119.944687 -106.388375 
L 120.153651 -106.405138 
L 120.362616 -106.421901 
L 120.57158 -106.438665 
L 120.780544 -106.455428 
L 120.989508 -106.472389 
L 121.198473 -106.493557 
L 121.407437 -106.514726 
L 121.616401 -106.535895 
L 121.825366 -106.557064 
L 122.03433 -106.578233 
L 122.243294 -106.599402 
L 122.452259 -106.620571 
L 122.661223 -106.641739 
L 122.870187 -106.663498 
L 123.079152 -106.68689 
L 123.288116 -106.710282 
L 123.49708 -106.733674 
L 123.706044 -106.757065 
L 123.915009 -106.780457 
L 124.123973 -106.788475 
L 124.332937 -106.788475 
L 124.541902 -106.788475 
L 124.750866 -106.788475 
L 124.95983 -106.788475 
L 125.168795 -106.774037 
L 125.377759 -106.75773 
L 125.586723 -106.741422 
L 125.795688 -106.725115 
L 126.004652 -106.708808 
L 126.213616 -106.692501 
L 126.42258 -106.676193 
L 126.631545 -106.659886 
L 126.840509 -106.643287 
L 127.049473 -106.626632 
L 127.258438 -106.609977 
L 127.467402 -106.593322 
L 127.676366 -106.576667 
L 127.885331 -106.560012 
L 128.094295 -106.543356 
L 128.303259 -106.526701 
L 128.512224 -106.510046 
L 128.721188 -106.493391 
L 128.930152 -106.476736 
L 129.139116 -106.454688 
L 129.348081 -106.430125 
L 129.557045 -106.405561 
L 129.766009 -106.380998 
L 129.974974 -106.356435 
L 130.183938 -106.343885 
L 130.392902 -106.354528 
L 130.601867 -106.365172 
L 130.810831 -106.375815 
L 131.019795 -106.386458 
L 131.22876 -106.397101 
L 131.437724 -106.407745 
L 131.646688 -106.418388 
L 131.855652 -106.429031 
L 132.064617 -106.439674 
L 132.273581 -106.450318 
L 132.482545 -106.459239 
L 132.69151 -106.429412 
L 132.900474 -106.399586 
L 133.109438 -106.369759 
L 133.318403 -106.339933 
L 133.527367 -106.310106 
L 133.736331 -106.28028 
L 133.945295 -106.250453 
L 134.15426 -106.220627 
L 134.363224 -106.190801 
L 134.572188 -106.160974 
L 134.781153 -106.131148 
L 134.990117 -106.083461 
L 135.199081 -105.996689 
L 135.408046 -105.909917 
L 135.61701 -105.823144 
L 135.825974 -105.736372 
L 136.034939 -105.6496 
L 136.243903 -105.589551 
L 136.452867 -105.547156 
L 136.661831 -105.50476 
L 136.870796 -105.462364 
L 137.07976 -105.419969 
L 137.288724 -105.377573 
L 137.497689 -105.335178 
L 137.706653 -105.292782 
L 137.915617 -105.274223 
L 138.124582 -105.299821 
L 138.333546 -105.32542 
L 138.54251 -105.351018 
L 138.751475 -105.376616 
L 138.960439 -105.402214 
L 139.169403 -105.427813 
L 139.378367 -105.453411 
L 139.587332 -105.479009 
L 139.796296 -105.504608 
L 140.00526 -105.436954 
L 140.214225 -105.364911 
L 140.423189 -105.292867 
L 140.632153 -105.220824 
L 140.841118 -105.14878 
L 141.050082 -105.076737 
L 141.259046 -105.004693 
L 141.468011 -104.93265 
L 141.676975 -104.863769 
L 141.885939 -104.798642 
L 142.094903 -104.733515 
L 142.303868 -104.668389 
L 142.512832 -104.603262 
L 142.721796 -104.538135 
L 142.930761 -104.473008 
L 143.139725 -104.407881 
L 143.348689 -104.342754 
L 143.557654 -104.277627 
L 143.766618 -104.2125 
L 143.975582 -104.147373 
L 144.184547 -104.082246 
L 144.393511 -104.017291 
L 144.602475 -103.953389 
L 144.811439 -103.889486 
L 145.020404 -103.825583 
L 145.229368 -103.761681 
L 145.438332 -103.697778 
L 145.647297 -103.633876 
L 145.856261 -103.569973 
L 146.065225 -103.506071 
L 146.27419 -103.442168 
L 146.483154 -103.425616 
L 146.692118 -103.446256 
L 146.901083 -103.466896 
L 147.110047 -103.487536 
L 147.319011 -103.508177 
L 147.527975 -103.528817 
L 147.73694 -103.549457 
L 147.945904 -103.570097 
L 148.154868 -103.590737 
L 148.363833 -103.611378 
L 148.572797 -103.632018 
L 148.781761 -103.652658 
L 148.990726 -103.673298 
L 149.19969 -103.693938 
L 149.408654 -103.714579 
L 149.617618 -103.735219 
L 149.826583 -103.677563 
L 150.035547 -103.581403 
L 150.244511 -103.485243 
L 150.453476 -103.389083 
L 150.66244 -103.292923 
L 150.871404 -103.196764 
L 151.080369 -103.100604 
L 151.289333 -102.961307 
L 151.498297 -102.755745 
L 151.707262 -102.550183 
L 151.916226 -102.344621 
L 152.12519 -102.139059 
L 152.334154 -102.01833 
L 152.543119 -101.960964 
L 152.752083 -101.903597 
L 152.961047 -101.84623 
L 153.170012 -101.788864 
L 153.378976 -101.731497 
L 153.58794 -101.67413 
L 153.796905 -101.616763 
L 154.005869 -101.559397 
L 154.214833 -101.50203 
L 154.423798 -101.444663 
L 154.632762 -101.387297 
L 154.841726 -101.353686 
L 155.05069 -101.359485 
L 155.259655 -101.365284 
L 155.468619 -101.371083 
L 155.677583 -101.376882 
L 155.886548 -101.382681 
L 156.095512 -101.38848 
L 156.304476 -101.394279 
L 156.513441 -101.400078 
L 156.722405 -101.405877 
L 156.931369 -101.411676 
L 157.140334 -101.417475 
L 157.349298 -101.423274 
L 157.558262 -101.429073 
L 157.767226 -101.434872 
L 157.976191 -101.440671 
L 158.185155 -101.44647 
L 158.394119 -101.452269 
L 158.603084 -101.458068 
L 158.812048 -101.463867 
L 159.021012 -101.469666 
L 159.229977 -101.475465 
L 159.438941 -101.481264 
L 159.647905 -101.491317 
L 159.85687 -101.502761 
L 160.065834 -101.514204 
L 160.274798 -101.525647 
L 160.483762 -101.53709 
L 160.692727 -101.548533 
L 160.901691 -101.559976 
L 161.110655 -101.571419 
L 161.31962 -101.582862 
L 161.528584 -101.594305 
L 161.737548 -101.605749 
L 161.946513 -101.617192 
L 162.155477 -101.628635 
L 162.364441 -101.640078 
L 162.573406 -101.651521 
L 162.78237 -101.669442 
L 162.991334 -101.694726 
L 163.200298 -101.720011 
L 163.409263 -101.745295 
L 163.618227 -101.770579 
L 163.827191 -101.795863 
L 164.036156 -101.821147 
L 164.24512 -101.846431 
L 164.454084 -101.871716 
L 164.663049 -101.897 
L 164.872013 -101.910643 
L 165.080977 -101.918489 
L 165.289941 -101.926334 
L 165.498906 -101.93418 
L 165.70787 -101.942026 
L 165.916834 -101.949871 
L 166.125799 -101.957717 
L 166.334763 -101.965563 
L 166.543727 -101.973408 
L 166.752692 -101.981254 
L 166.961656 -101.9891 
L 167.17062 -101.996945 
L 167.379585 -102.004791 
L 167.588549 -102.012636 
L 167.797513 -102.020482 
L 168.006477 -102.028328 
L 168.215442 -102.036173 
L 168.424406 -102.044019 
L 168.63337 -102.051865 
L 168.842335 -102.05971 
L 169.051299 -102.067556 
L 169.260263 -102.075402 
L 169.469228 -102.083202 
L 169.678192 -102.090927 
L 169.887156 -102.098651 
L 170.096121 -102.106376 
L 170.305085 -102.114101 
L 170.514049 -102.121825 
L 170.723013 -102.12955 
L 170.931978 -102.137275 
L 171.140942 -102.144999 
L 171.349906 -102.152724 
L 171.558871 -102.160449 
L 171.767835 -102.168174 
L 171.976799 -102.175898 
L 172.185764 -102.183623 
L 172.394728 -102.181552 
L 172.603692 -102.144854 
L 172.812657 -102.108155 
L 173.021621 -102.071456 
L 173.230585 -102.034757 
L 173.439549 -101.998059 
L 173.648514 -101.96136 
L 173.857478 -101.924661 
L 174.066442 -101.887962 
L 174.275407 -101.851264 
L 174.484371 -101.814565 
L 174.693335 -101.777866 
L 174.9023 -101.741167 
L 175.111264 -101.704469 
L 175.320228 -101.66777 
L 175.529193 -101.631071 
L 175.738157 -101.594373 
L 175.947121 -101.55348 
L 176.156085 -101.508993 
L 176.36505 -101.464507 
L 176.574014 -101.42002 
L 176.782978 -101.375534 
L 176.991943 -101.331047 
L 177.200907 -101.286561 
L 177.409871 -101.242074 
L 177.618836 -101.197588 
L 177.8278 -101.153101 
L 178.036764 -101.108615 
L 178.245728 -101.064128 
L 178.454693 -101.019642 
L 178.663657 -100.975155 
L 178.872621 -100.930669 
L 179.081586 -100.886182 
L 179.29055 -100.841696 
L 179.499514 -100.79721 
L 179.708479 -100.752723 
L 179.917443 -100.705229 
L 180.126407 -100.590711 
L 180.335372 -100.476192 
L 180.544336 -100.361674 
L 180.7533 -100.247155 
L 180.962264 -100.132637 
L 181.171229 -100.136599 
L 181.380193 -100.192058 
L 181.589157 -100.247518 
L 181.798122 -100.276529 
L 182.007086 -100.255543 
L 182.21605 -100.234557 
L 182.425015 -100.213571 
L 182.633979 -100.192584 
L 182.842943 -100.171598 
L 183.051908 -100.149568 
L 183.260872 -100.117568 
L 183.469836 -100.085567 
L 183.6788 -100.053567 
L 183.887765 -100.021567 
L 184.096729 -99.989567 
L 184.305693 -99.962336 
L 184.514658 -99.946945 
L 184.723622 -99.931553 
L 184.932586 -99.916162 
L 185.141551 -99.900771 
L 185.350515 -99.88538 
L 185.559479 -99.869989 
L 185.768444 -99.854598 
L 185.977408 -99.839206 
L 186.186372 -99.834379 
L 186.395336 -99.832822 
L 186.604301 -99.831265 
L 186.813265 -99.829709 
L 187.022229 -99.828152 
L 187.231194 -99.826595 
L 187.440158 -99.825038 
L 187.649122 -99.831878 
L 187.858087 -99.841649 
L 188.067051 -99.851421 
L 188.276015 -99.861192 
L 188.48498 -99.870964 
L 188.693944 -99.880735 
L 188.902908 -99.890506 
L 189.111872 -99.900278 
L 189.320837 -99.910049 
L 189.529801 -99.919821 
L 189.738765 -99.929592 
L 189.94773 -99.939363 
L 190.156694 -99.949135 
L 190.365658 -99.958906 
L 190.574623 -99.968678 
L 190.783587 -99.978449 
L 190.992551 -99.988221 
L 191.201516 -99.997992 
L 191.41048 -100.01186 
L 191.619444 -100.026505 
L 191.828408 -100.041151 
L 192.037373 -100.055796 
L 192.246337 -100.070442 
L 192.455301 -100.085087 
L 192.664266 -100.099732 
L 192.87323 -100.114378 
L 193.082194 -100.129023 
L 193.291159 -100.143669 
L 193.500123 -100.158314 
L 193.709087 -100.17296 
L 193.918051 -100.187605 
L 194.127016 -100.202251 
L 194.33598 -100.216896 
L 194.544944 -100.231541 
L 194.753909 -100.246187 
L 194.962873 -100.253701 
L 195.171837 -100.260602 
L 195.380802 -100.267502 
L 195.589766 -100.274402 
L 195.79873 -100.281302 
L 196.007695 -100.288202 
L 196.216659 -100.295102 
L 196.425623 -100.302002 
L 196.634587 -100.308902 
L 196.843552 -100.315802 
L 197.052516 -100.322702 
L 197.26148 -100.329602 
L 197.470445 -100.336503 
L 197.679409 -100.343403 
L 197.888373 -100.350303 
L 198.097338 -100.357203 
L 198.306302 -100.364103 
L 198.515266 -100.371003 
L 198.724231 -100.377903 
L 198.933195 -100.384803 
L 199.142159 -100.391703 
L 199.351123 -100.398603 
L 199.560088 -100.405504 
L 199.769052 -100.412404 
L 199.978016 -100.419304 
L 200.186981 -100.423601 
L 200.395945 -100.425942 
L 200.604909 -100.428283 
L 200.813874 -100.430624 
L 201.022838 -100.432964 
L 201.231802 -100.435305 
L 201.440767 -100.437646 
L 201.649731 -100.439987 
L 201.858695 -100.442328 
L 202.067659 -100.444669 
L 202.276624 -100.447009 
L 202.485588 -100.44935 
L 202.694552 -100.451691 
L 202.903517 -100.454032 
L 203.112481 -100.445479 
L 203.321445 -100.428375 
L 203.53041 -100.41127 
L 203.739374 -100.394165 
L 203.948338 -100.37706 
L 204.157303 -100.359956 
L 204.366267 -100.342851 
L 204.575231 -100.325746 
L 204.784195 -100.308641 
L 204.99316 -100.291536 
L 205.202124 -100.274432 
L 205.411088 -100.257327 
L 205.620053 -100.240222 
L 205.829017 -100.223117 
L 206.037981 -100.206012 
L 206.246946 -100.188908 
L 206.45591 -100.171803 
L 206.664874 -100.154698 
L 206.873839 -100.125343 
L 207.082803 -100.089802 
L 207.291767 -100.05426 
L 207.500731 -100.018719 
L 207.709696 -99.983178 
L 207.91866 -99.947636 
L 208.127624 -99.912095 
L 208.336589 -99.876553 
L 208.545553 -99.841012 
L 208.754517 -99.805471 
L 208.963482 -99.769929 
L 209.172446 -99.734388 
L 209.38141 -99.70629 
L 209.590374 -99.686817 
L 209.799339 -99.667343 
L 210.008303 -99.647869 
L 210.217267 -99.628395 
L 210.426232 -99.608921 
L 210.635196 -99.589447 
L 210.84416 -99.569973 
L 211.053125 -99.550499 
L 211.262089 -99.531025 
L 211.471053 -99.511551 
L 211.680018 -99.492078 
L 211.888982 -99.472604 
L 212.097946 -99.45313 
L 212.30691 -99.433656 
L 212.515875 -99.414182 
L 212.724839 -99.426749 
L 212.933803 -99.450301 
L 213.142768 -99.473854 
L 213.351732 -99.497406 
L 213.560696 -99.520958 
L 213.769661 -99.544511 
L 213.978625 -99.568063 
L 214.187589 -99.54369 
L 214.396554 -99.50597 
L 214.605518 -99.46825 
L 214.814482 -99.43053 
L 215.023446 -99.39281 
L 215.232411 -99.35509 
L 215.441375 -99.31737 
L 215.650339 -99.27965 
L 215.859304 -99.24193 
L 216.068268 -99.177101 
L 216.277232 -99.085989 
L 216.486197 -98.994876 
L 216.695161 -98.903763 
L 216.904125 -98.81265 
L 217.11309 -98.726231 
L 217.322054 -98.703763 
L 217.531018 -98.681295 
L 217.739982 -98.658827 
L 217.948947 -98.63636 
L 218.157911 -98.613892 
L 218.366875 -98.591424 
L 218.57584 -98.568956 
L 218.784804 -98.546488 
L 218.993768 -98.524021 
L 219.202733 -98.501553 
L 219.411697 -98.479085 
L 219.620661 -98.456617 
L 219.829626 -98.43415 
L 220.03859 -98.411682 
L 220.247554 -98.389214 
L 220.456518 -98.376556 
L 220.665483 -98.373786 
L 220.874447 -98.371017 
L 221.083411 -98.368248 
L 221.292376 -98.365478 
L 221.50134 -98.362709 
L 221.710304 -98.359939 
L 221.919269 -98.35717 
L 222.128233 -98.354401 
L 222.337197 -98.351631 
L 222.546161 -98.348862 
L 222.755126 -98.346092 
L 222.96409 -98.343323 
L 223.173054 -98.340554 
L 223.382019 -98.337784 
L 223.590983 -98.335015 
L 223.799947 -98.332245 
L 224.008912 -98.329476 
L 224.217876 -98.326707 
L 224.42684 -98.323937 
L 224.635805 -98.341507 
L 224.844769 -98.365486 
L 225.053733 -98.389465 
L 225.262697 -98.413444 
L 225.471662 -98.437424 
L 225.680626 -98.461403 
L 225.88959 -98.485382 
L 226.098555 -98.509362 
L 226.307519 -98.533341 
L 226.516483 -98.55732 
L 226.725448 -98.581299 
L 226.934412 -98.605279 
L 227.143376 -98.629258 
L 227.352341 -98.653237 
L 227.561305 -98.677216 
L 227.770269 -98.701196 
L 227.979233 -98.725175 
L 228.188198 -98.749154 
L 228.397162 -98.773134 
L 228.606126 -98.797113 
L 228.815091 -98.821092 
L 229.024055 -98.845071 
L 229.233019 -98.869051 
L 229.441984 -98.896243 
L 229.650948 -98.980435 
L 229.859912 -99.064627 
L 230.068877 -99.148818 
L 230.277841 -99.23301 
L 230.486805 -99.317202 
L 230.695769 -99.401394 
L 230.904734 -99.485585 
L 231.113698 -99.569777 
L 231.322662 -99.653969 
L 231.531627 -99.733802 
L 231.740591 -99.80906 
L 231.949555 -99.884317 
L 232.15852 -99.959574 
L 232.367484 -100.034832 
L 232.576448 -100.110089 
L 232.785413 -100.185346 
L 232.994377 -100.260603 
L 233.203341 -100.254687 
L 233.412305 -100.243035 
L 233.62127 -100.231384 
L 233.830234 -100.219733 
L 234.039198 -100.208081 
L 234.248163 -100.19643 
L 234.457127 -100.184779 
L 234.666091 -100.173128 
L 234.875056 -100.161476 
L 235.08402 -100.149825 
L 235.292984 -100.140155 
L 235.501949 -100.131736 
L 235.710913 -100.123318 
L 235.919877 -100.114899 
L 236.128841 -100.10648 
L 236.337806 -100.098061 
L 236.54677 -100.089643 
L 236.755734 -100.081224 
L 236.964699 -100.072805 
L 237.173663 -100.064387 
L 237.382627 -100.054376 
L 237.591592 -100.03886 
L 237.800556 -100.023345 
L 238.00952 -100.007829 
L 238.218484 -99.992313 
L 238.427449 -99.976798 
L 238.636413 -99.961282 
L 238.845377 -99.945766 
L 239.054342 -99.932151 
L 239.263306 -99.92459 
L 239.47227 -99.917029 
L 239.681235 -99.909467 
L 239.890199 -99.901906 
L 240.099163 -99.894345 
L 240.308128 -99.886783 
L 240.517092 -99.879222 
L 240.726056 -99.871661 
L 240.93502 -99.864099 
L 241.143985 -99.856538 
L 241.352949 -99.848977 
L 241.561913 -99.850124 
L 241.770878 -99.855513 
L 241.979842 -99.860903 
L 242.188806 -99.866292 
L 242.397771 -99.871682 
L 242.606735 -99.877071 
L 242.815699 -99.874571 
L 243.024664 -99.866522 
L 243.233628 -99.858472 
L 243.442592 -99.850423 
L 243.651556 -99.842373 
L 243.860521 -99.834536 
L 244.069485 -99.827859 
L 244.278449 -99.821183 
L 244.487414 -99.814506 
L 244.696378 -99.807829 
L 244.905342 -99.801153 
L 245.114307 -99.794476 
L 245.323271 -99.7878 
L 245.532235 -99.781123 
L 245.7412 -99.774446 
L 245.950164 -99.766131 
L 246.159128 -99.757584 
L 246.368092 -99.749037 
L 246.577057 -99.74049 
L 246.786021 -99.731943 
L 246.994985 -99.726519 
L 247.20395 -99.722082 
L 247.412914 -99.717645 
L 247.621878 -99.713209 
L 247.830843 -99.708772 
L 248.039807 -99.704336 
L 248.248771 -99.699899 
L 248.457736 -99.7145 
L 248.6667 -99.761881 
L 248.875664 -99.809262 
L 249.084628 -99.856643 
L 249.293593 -99.906165 
L 249.502557 -99.956713 
L 249.711521 -100.007262 
L 249.920486 -100.05781 
L 250.12945 -100.108359 
L 250.338414 -100.127319 
L 250.547379 -100.137032 
L 250.756343 -100.146745 
L 250.965307 -100.156457 
L 251.174272 -100.16617 
L 251.383236 -100.175883 
L 251.5922 -100.185596 
L 251.801164 -100.195309 
L 252.010129 -100.205021 
L 252.219093 -100.214734 
L 252.428057 -100.224447 
L 252.637022 -100.23416 
L 252.845986 -100.243873 
L 253.05495 -100.253585 
L 253.263915 -100.263298 
L 253.472879 -100.273011 
L 253.681843 -100.282724 
L 253.890807 -100.292437 
L 254.099772 -100.286266 
L 254.308736 -100.275208 
L 254.5177 -100.264151 
L 254.726665 -100.253093 
L 254.935629 -100.242036 
L 255.144593 -100.230978 
L 255.353558 -100.219921 
L 255.562522 -100.208863 
L 255.771486 -100.197806 
L 255.980451 -100.186748 
L 256.189415 -100.175691 
L 256.398379 -100.164633 
L 256.607343 -100.153576 
L 256.816308 -100.142518 
L 257.025272 -100.131461 
L 257.234236 -100.120403 
L 257.443201 -100.109345 
L 257.652165 -100.146729 
L 257.861129 -100.186271 
L 258.070094 -100.225814 
L 258.279058 -100.265356 
L 258.488022 -100.304898 
L 258.696987 -100.344441 
L 258.905951 -100.383983 
L 259.114915 -100.423525 
L 259.323879 -100.463068 
L 259.532844 -100.50261 
L 259.741808 -100.542152 
L 259.950772 -100.581695 
L 260.159737 -100.621237 
L 260.368701 -100.660779 
L 260.577665 -100.699236 
L 260.78663 -100.736909 
L 260.995594 -100.774581 
L 261.204558 -100.812254 
L 261.413523 -100.849927 
L 261.622487 -100.8876 
L 261.831451 -100.925273 
L 262.040415 -100.962946 
L 262.24938 -101.000619 
L 262.458344 -101.038291 
L 262.667308 -101.075964 
L 262.876273 -101.113637 
L 263.085237 -101.15131 
L 263.294201 -101.188983 
L 263.503166 -101.226656 
L 263.71213 -101.264329 
L 263.921094 -101.302001 
L 264.130059 -101.339674 
L 264.339023 -101.377347 
L 264.547987 -101.41502 
L 264.756951 -101.452693 
L 264.965916 -101.495526 
L 265.17488 -101.558537 
L 265.383844 -101.621547 
L 265.592809 -101.684557 
L 265.801773 -101.747567 
L 266.010737 -101.810578 
L 266.219702 -101.873588 
L 266.428666 -101.936598 
L 266.63763 -101.999609 
L 266.846594 -102.05008 
L 267.055559 -102.044086 
L 267.264523 -102.038092 
L 267.473487 -102.032098 
L 267.682452 -102.026104 
L 267.891416 -102.02011 
L 268.10038 -102.014116 
L 268.309345 -102.008122 
L 268.518309 -102.002128 
L 268.727273 -101.996134 
L 268.936238 -101.99014 
L 269.145202 -101.984146 
L 269.354166 -101.978152 
L 269.56313 -101.972158 
L 269.772095 -101.966164 
L 269.981059 -101.958099 
L 270.190023 -101.948601 
L 270.398988 -101.939103 
L 270.607952 -101.929605 
L 270.816916 -101.920106 
L 271.025881 -101.910608 
L 271.234845 -101.90111 
L 271.443809 -101.891612 
L 271.652774 -101.882113 
L 271.861738 -101.872615 
L 272.070702 -101.863117 
L 272.279666 -101.853618 
L 272.488631 -101.84412 
L 272.697595 -101.834622 
L 272.906559 -101.825124 
L 273.115524 -101.815625 
L 273.324488 -101.806127 
L 273.533452 -101.796629 
L 273.742417 -101.787131 
L 273.951381 -101.777632 
L 274.160345 -101.768134 
L 274.36931 -101.758636 
L 274.578274 -101.749137 
L 274.787238 -101.731116 
L 274.996202 -101.706702 
L 275.205167 -101.682287 
L 275.414131 -101.657872 
L 275.623095 -101.633458 
L 275.83206 -101.609043 
L 276.041024 -101.584629 
L 276.249988 -101.560214 
L 276.458953 -101.535799 
L 276.667917 -101.511385 
L 276.876881 -101.48697 
L 277.085846 -101.462556 
L 277.29481 -101.438141 
L 277.503774 -101.420346 
L 277.712738 -101.403417 
L 277.921703 -101.386487 
L 278.130667 -101.369558 
L 278.339631 -101.352628 
L 278.548596 -101.335698 
L 278.75756 -101.318769 
L 278.966524 -101.301839 
L 279.175489 -101.284909 
L 279.384453 -101.26798 
L 279.593417 -101.25105 
L 279.802382 -101.234121 
L 280.011346 -101.217191 
L 280.22031 -101.204297 
L 280.429274 -101.191529 
L 280.638239 -101.178762 
L 280.847203 -101.165994 
L 281.056167 -101.153227 
L 281.265132 -101.140459 
L 281.474096 -101.127692 
L 281.68306 -101.114924 
L 281.892025 -101.102157 
L 282.100989 -101.089389 
L 282.309953 -101.076622 
L 282.518917 -101.063854 
L 282.727882 -101.051087 
L 282.936846 -101.038319 
L 283.14581 -101.025552 
L 283.354775 -101.012784 
L 283.563739 -101.078984 
L 283.772703 -101.178928 
L 283.981668 -101.278872 
L 284.190632 -101.378815 
L 284.399596 -101.478759 
L 284.608561 -101.578703 
L 284.817525 -101.678646 
L 285.026489 -101.77859 
L 285.235453 -101.878533 
L 285.444418 -101.978477 
L 285.653382 -102.079956 
L 285.862346 -102.187585 
L 286.071311 -102.295214 
L 286.280275 -102.402843 
L 286.489239 -102.510472 
L 286.698204 -102.6181 
L 286.907168 -102.725729 
L 287.116132 -102.833358 
L 287.325097 -102.940987 
L 287.534061 -103.048616 
L 287.743025 -103.156245 
L 287.951989 -103.263874 
L 288.160954 -103.371503 
L 288.369918 -103.479132 
L 288.578882 -103.597334 
L 288.787847 -103.732372 
L 288.996811 -103.867409 
L 289.205775 -104.002447 
L 289.41474 -104.137484 
L 289.623704 -104.272522 
L 289.832668 -104.40756 
L 290.041633 -104.542597 
L 290.250597 -104.572029 
L 290.459561 -104.535036 
L 290.668525 -104.498043 
L 290.87749 -104.46105 
L 291.086454 -104.424057 
L 291.295418 -104.387064 
L 291.504383 -104.35007 
L 291.713347 -104.313077 
L 291.922311 -104.276084 
L 292.131276 -104.239091 
L 292.34024 -104.202098 
L 292.549204 -104.2368 
L 292.758169 -104.273332 
L 292.967133 -104.309865 
L 293.176097 -104.346397 
L 293.385061 -104.382929 
L 293.594026 -104.419461 
L 293.80299 -104.455994 
L 294.011954 -104.492526 
L 294.220919 -104.529058 
L 294.429883 -104.56559 
L 294.638847 -104.602122 
L 294.847812 -104.638655 
L 295.056776 -104.675187 
L 295.26574 -104.711719 
L 295.474705 -104.761335 
L 295.683669 -104.819277 
L 295.892633 -104.877218 
L 296.101597 -104.93516 
L 296.310562 -104.993101 
L 296.519526 -105.051043 
L 296.72849 -105.108984 
L 296.937455 -105.166926 
L 297.146419 -105.224867 
L 297.355383 -105.282809 
L 297.564348 -105.34075 
L 297.773312 -105.398692 
L 297.982276 -105.456633 
L 298.19124 -105.500687 
L 298.400205 -105.54085 
L 298.609169 -105.581012 
L 298.818133 -105.621174 
L 299.027098 -105.661336 
L 299.236062 -105.701498 
L 299.445026 -105.74166 
L 299.653991 -105.781822 
L 299.862955 -105.821984 
L 300.071919 -105.862146 
L 300.280884 -105.902308 
L 300.489848 -105.94247 
L 300.698812 -105.982632 
L 300.907776 -105.966251 
L 301.116741 -105.927367 
L 301.325705 -105.888482 
L 301.534669 -105.849598 
L 301.743634 -105.810714 
L 301.952598 -105.812993 
L 302.161562 -105.836987 
L 302.370527 -105.860981 
L 302.579491 -105.884975 
L 302.788455 -105.908969 
L 302.99742 -105.932963 
L 303.206384 -105.956957 
L 303.415348 -105.980951 
L 303.624312 -106.004945 
L 303.833277 -106.028939 
L 304.042241 -106.052932 
L 304.251205 -106.103402 
L 304.46017 -106.164185 
L 304.669134 -106.224968 
L 304.878098 -106.285751 
L 305.087063 -106.346534 
L 305.296027 -106.407317 
L 305.504991 -106.478689 
L 305.713956 -106.556989 
L 305.92292 -106.63529 
L 306.131884 -106.689693 
L 306.340848 -106.67378 
L 306.549813 -106.657867 
L 306.758777 -106.641954 
L 306.967741 -106.628136 
L 307.176706 -106.628136 
L 307.38567 -106.628136 
L 307.594634 -106.628136 
L 307.803599 -106.628136 
L 308.012563 -106.628136 
L 308.221527 -106.628136 
L 308.430492 -106.628136 
L 308.639456 -106.628136 
L 308.84842 -106.628136 
L 309.057384 -106.628136 
L 309.266349 -106.628136 
L 309.475313 -106.628136 
L 309.684277 -106.628136 
L 309.893242 -106.628136 
L 310.102206 -106.628136 
L 310.31117 -106.628136 
L 310.520135 -106.628136 
L 310.729099 -106.628136 
L 310.938063 -106.628136 
L 311.147028 -106.628136 
L 311.355992 -106.628136 
L 311.564956 -106.628136 
L 311.77392 -106.628136 
L 311.982885 -106.628136 
L 312.191849 -106.628136 
L 312.400813 -106.628136 
L 312.609778 -106.628136 
L 312.818742 -106.628136 
L 313.027706 -106.633466 
L 313.236671 -106.638861 
L 313.445635 -106.644255 
L 313.654599 -106.64965 
L 313.863563 -106.655044 
L 314.072528 -106.660439 
L 314.281492 -106.665833 
L 314.490456 -106.671228 
L 314.699421 -106.676622 
L 314.908385 -106.682016 
L 315.117349 -106.687411 
L 315.326314 -106.692805 
L 315.535278 -106.661284 
L 315.744242 -106.622134 
L 315.953207 -106.582983 
L 316.162171 -106.543833 
L 316.371135 -106.504682 
L 316.580099 -106.465532 
L 316.789064 -106.425904 
L 316.998028 -106.383 
L 317.206992 -106.340095 
L 317.415957 -106.297191 
L 317.624921 -106.254286 
L 317.833885 -106.211381 
L 318.04285 -106.168477 
L 318.251814 -106.125572 
L 318.460778 -106.082668 
L 318.669743 -106.044832 
L 318.878707 -106.01286 
L 319.087671 -105.980887 
L 319.296635 -105.948914 
L 319.5056 -105.916942 
L 319.714564 -105.884969 
L 319.923528 -105.852996 
L 320.132493 -105.821024 
L 320.341457 -105.80182 
L 320.550421 -105.819431 
L 320.759386 -105.837041 
L 320.96835 -105.854651 
L 321.177314 -105.872261 
L 321.386279 -105.889871 
L 321.595243 -105.907481 
L 321.804207 -105.925091 
L 322.013171 -105.942701 
L 322.222136 -105.960311 
L 322.4311 -105.905242 
L 322.640064 -105.845993 
L 322.849029 -105.786745 
L 323.057993 -105.727496 
L 323.266957 -105.668248 
L 323.475922 -105.609 
L 323.684886 -105.540676 
L 323.89385 -105.451483 
L 324.102815 -105.36229 
L 324.311779 -105.273097 
L 324.520743 -105.183904 
L 324.729707 -105.094711 
L 324.938672 -105.008328 
L 325.147636 -104.973096 
L 325.3566 -104.937863 
L 325.565565 -104.90263 
L 325.774529 -104.867398 
L 325.983493 -104.832165 
L 326.192458 -104.796932 
L 326.401422 -104.761699 
L 326.610386 -104.726467 
L 326.81935 -104.691234 
L 327.028315 -104.656001 
L 327.237279 -104.620769 
L 327.446243 -104.624642 
L 327.655208 -104.633759 
L 327.864172 -104.642876 
L 328.073136 -104.651994 
L 328.282101 -104.661111 
L 328.491065 -104.670228 
L 328.700029 -104.679345 
L 328.908994 -104.688462 
L 329.117958 -104.69758 
L 329.326922 -104.706697 
L 329.535886 -104.715814 
L 329.744851 -104.724931 
L 329.953815 -104.734049 
L 330.162779 -104.743166 
L 330.371744 -104.744843 
L 330.580708 -104.738866 
L 330.789672 -104.732888 
L 330.998637 -104.72691 
L 331.207601 -104.720933 
L 331.416565 -104.714955 
L 331.62553 -104.708977 
L 331.834494 -104.702999 
L 332.043458 -104.697022 
L 332.252422 -104.691044 
L 332.461387 -104.685066 
L 332.670351 -104.679088 
L 332.879315 -104.673111 
L 333.08828 -104.667133 
L 333.297244 -104.661155 
L 333.506208 -104.655177 
L 333.715173 -104.6492 
L 333.924137 -104.643222 
L 334.133101 -104.637244 
L 334.342066 -104.631267 
L 334.55103 -104.625289 
L 334.759994 -104.619311 
L 334.968958 -104.598876 
L 335.177923 -104.566463 
L 335.386887 -104.53405 
L 335.595851 -104.501638 
L 335.804816 -104.469225 
L 336.01378 -104.436813 
L 336.222744 -104.414666 
L 336.431709 -104.39488 
L 336.640673 -104.375094 
L 336.849637 -104.355308 
L 337.058602 -104.335522 
L 337.267566 -104.315735 
L 337.47653 -104.300756 
L 337.685494 -104.307258 
L 337.894459 -104.313759 
L 338.103423 -104.32026 
L 338.312387 -104.326761 
L 338.521352 -104.333262 
L 338.730316 -104.339764 
L 338.93928 -104.346265 
L 339.148245 -104.352766 
L 339.357209 -104.359267 
L 339.566173 -104.365768 
L 339.775138 -104.37227 
L 339.984102 -104.378771 
L 340.193066 -104.385272 
L 340.40203 -104.391773 
L 340.610995 -104.398274 
L 340.819959 -104.404776 
L 341.028923 -104.411277 
L 341.237888 -104.417778 
L 341.446852 -104.40554 
L 341.655816 -104.384706 
L 341.864781 -104.363871 
L 342.073745 -104.343037 
L 342.282709 -104.322203 
L 342.491673 -104.301369 
L 342.700638 -104.280535 
L 342.909602 -104.259701 
L 343.118566 -104.238867 
L 343.327531 -104.218033 
L 343.536495 -104.197199 
L 343.745459 -104.176365 
L 343.954424 -104.155531 
L 344.163388 -104.134697 
L 344.372352 -104.113863 
L 344.581317 -104.093029 
L 344.790281 -104.072195 
L 344.999245 -103.992949 
L 345.208209 -103.90679 
L 345.417174 -103.820632 
L 345.626138 -103.734473 
L 345.835102 -103.648315 
L 346.044067 -103.567512 
L 346.253031 -103.519055 
L 346.461995 -103.470597 
L 346.67096 -103.42214 
L 346.879924 -103.373683 
L 347.088888 -103.325226 
L 347.297853 -103.276769 
L 347.506817 -103.228311 
L 347.715781 -103.259681 
L 347.924745 -103.297743 
L 348.13371 -103.335804 
L 348.342674 -103.373866 
L 348.551638 -103.411928 
L 348.760603 -103.449989 
L 348.969567 -103.485505 
L 349.178531 -103.43654 
L 349.387496 -103.387575 
L 349.59646 -103.33861 
L 349.805424 -103.289645 
L 350.014389 -103.240681 
L 350.223353 -103.191716 
L 350.432317 -103.142751 
L 350.641281 -103.093786 
L 350.850246 -103.044821 
L 351.05921 -102.995857 
L 351.268174 -102.946892 
L 351.477139 -102.897927 
L 351.686103 -102.848962 
L 351.895067 -102.799997 
L 352.104032 -102.712489 
L 352.312996 -102.61145 
L 352.52196 -102.51041 
L 352.730925 -102.409371 
L 352.939889 -102.308331 
L 353.148853 -102.207291 
L 353.357817 -102.106252 
L 353.566782 -102.005212 
L 353.775746 -101.904173 
L 353.98471 -101.803133 
L 354.193675 -101.709837 
L 354.402639 -101.617122 
L 354.611603 -101.524406 
L 354.820568 -101.431691 
L 355.029532 -101.338975 
L 355.238496 -101.24626 
L 355.447461 -101.153544 
L 355.656425 -101.136943 
L 355.865389 -101.242509 
L 356.074353 -101.348075 
L 356.283318 -101.45364 
L 356.492282 -101.397807 
L 356.701246 -101.257246 
L 356.910211 -101.116685 
L 357.119175 -100.976123 
L 357.328139 -100.835562 
L 357.537104 -100.695001 
L 357.746068 -100.598698 
L 357.955032 -100.560186 
L 358.163996 -100.521674 
L 358.372961 -100.483162 
L 358.581925 -100.44465 
L 358.790889 -100.406137 
L 358.999854 -100.367625 
L 359.208818 -100.329113 
L 359.417782 -100.290601 
L 359.626747 -100.252088 
L 359.835711 -100.213576 
L 360.044675 -100.175064 
L 360.25364 -100.136552 
L 360.462604 -100.09804 
L 360.671568 -100.059527 
L 360.880532 -100.021015 
L 361.089497 -99.982503 
L 361.298461 -99.943991 
L 361.507425 -99.905479 
L 361.71639 -99.866966 
L 361.925354 -99.828454 
L 362.134318 -99.789942 
L 362.343283 -99.75143 
L 362.552247 -99.712918 
L 362.761211 -99.674405 
L 362.970176 -99.635893 
L 363.17914 -99.597381 
L 363.388104 -99.558869 
L 363.597068 -99.520357 
L 363.806033 -99.481844 
L 364.014997 -99.443332 
L 364.223961 -99.40482 
L 364.432926 -99.334117 
L 364.64189 -99.172925 
L 364.850854 -99.011732 
L 365.059819 -98.85054 
L 365.268783 -98.689347 
L 365.477747 -98.528155 
L 365.686712 -98.522298 
L 365.895676 -98.546757 
L 366.10464 -98.571216 
L 366.313604 -98.595674 
L 366.522569 -98.620133 
L 366.731533 -98.644592 
L 366.940497 -98.66905 
L 367.149462 -98.693509 
L 367.358426 -98.715864 
L 367.56739 -98.734214 
L 367.776355 -98.752565 
L 367.985319 -98.758301 
L 368.194283 -98.763529 
L 368.403248 -98.768758 
L 368.612212 -98.773986 
L 368.821176 -98.779214 
L 369.03014 -98.784442 
L 369.239105 -98.789671 
L 369.448069 -98.794899 
L 369.657033 -98.800127 
L 369.865998 -98.805355 
L 370.074962 -98.810583 
L 370.283926 -98.815615 
L 370.492891 -98.819092 
L 370.701855 -98.822568 
L 370.910819 -98.826045 
L 371.119783 -98.829521 
L 371.328748 -98.832998 
L 371.537712 -98.836474 
L 371.746676 -98.839951 
L 371.955641 -98.843428 
L 372.164605 -98.846904 
L 372.373569 -98.850381 
L 372.582534 -98.853857 
L 372.791498 -98.857334 
L 373.000462 -98.860894 
L 373.209427 -98.864526 
L 373.418391 -98.868159 
L 373.627355 -98.871791 
L 373.836319 -98.875424 
L 374.045284 -98.879056 
L 374.254248 -98.882689 
L 374.463212 -98.886321 
L 374.672177 -98.889954 
L 374.881141 -98.893587 
L 375.090105 -98.897219 
L 375.29907 -98.900852 
L 375.508034 -98.892636 
L 375.716998 -98.872376 
L 375.925963 -98.852117 
L 376.134927 -98.831857 
L 376.343891 -98.811597 
L 376.552855 -98.791338 
L 376.76182 -98.771078 
L 376.970784 -98.750819 
L 377.179748 -98.730559 
L 377.388713 -98.7103 
L 377.597677 -98.69004 
L 377.806641 -98.663424 
L 378.015606 -98.634131 
L 378.22457 -98.604838 
L 378.433534 -98.575545 
L 378.642499 -98.546252 
L 378.851463 -98.516959 
L 379.060427 -98.487667 
L 379.269391 -98.458374 
L 379.478356 -98.429081 
L 379.68732 -98.399788 
L 379.896284 -98.367889 
L 380.105249 -98.31848 
L 380.314213 -98.269071 
L 380.523177 -98.219662 
L 380.732142 -98.170254 
L 380.941106 -98.183373 
L 381.15007 -98.222739 
L 381.359035 -98.262105 
L 381.567999 -98.241597 
L 381.776963 -98.216392 
L 381.985927 -98.191187 
L 382.194892 -98.165982 
L 382.403856 -98.140777 
L 382.61282 -98.115572 
L 382.821785 -98.090367 
L 383.030749 -98.065162 
L 383.239713 -98.042498 
L 383.448678 -98.027354 
L 383.657642 -98.01221 
L 383.866606 -97.997066 
L 384.075571 -97.981921 
L 384.284535 -97.966777 
L 384.493499 -97.951633 
L 384.702463 -97.936488 
L 384.911428 -97.921344 
L 385.120392 -97.9062 
L 385.329356 -97.891056 
L 385.538321 -97.875911 
L 385.747285 -97.860767 
L 385.956249 -97.845623 
L 386.165214 -97.830478 
L 386.374178 -97.815334 
L 386.583142 -97.80019 
L 386.792106 -97.785046 
L 387.001071 -97.769901 
L 387.210035 -97.754757 
L 387.418999 -97.739613 
L 387.627964 -97.710233 
L 387.836928 -97.677284 
L 388.045892 -97.644335 
L 388.254857 -97.611386 
L 388.463821 -97.589935 
L 388.672785 -97.587597 
L 388.88175 -97.585258 
L 389.090714 -97.58292 
L 389.299678 -97.580581 
L 389.508642 -97.578243 
L 389.717607 -97.575905 
L 389.926571 -97.573566 
L 390.135535 -97.571228 
L 390.3445 -97.568889 
L 390.553464 -97.566551 
L 390.762428 -97.564213 
L 390.971393 -97.561874 
L 391.180357 -97.559536 
L 391.389321 -97.557198 
L 391.598286 -97.554859 
L 391.80725 -97.552521 
L 392.016214 -97.550182 
L 392.225178 -97.547844 
L 392.434143 -97.545506 
L 392.643107 -97.543167 
L 392.852071 -97.540829 
L 393.061036 -97.53849 
L 393.27 -97.536152 
L 393.27 29.715179 
L 393.27 29.715179 
L 393.061036 29.715179 
L 392.852071 29.715179 
L 392.643107 29.715179 
L 392.434143 29.715179 
L 392.225178 29.715179 
L 392.016214 29.715179 
L 391.80725 29.715179 
L 391.598286 29.715179 
L 391.389321 29.715179 
L 391.180357 29.715179 
L 390.971393 29.715179 
L 390.762428 29.715179 
L 390.553464 29.715179 
L 390.3445 29.715179 
L 390.135535 29.715179 
L 389.926571 29.715179 
L 389.717607 29.715179 
L 389.508642 29.715179 
L 389.299678 29.715179 
L 389.090714 29.715179 
L 388.88175 29.715179 
L 388.672785 29.715179 
L 388.463821 29.715179 
L 388.254857 29.715179 
L 388.045892 29.715179 
L 387.836928 29.715179 
L 387.627964 29.715179 
L 387.418999 29.715179 
L 387.210035 29.715179 
L 387.001071 29.715179 
L 386.792106 29.715179 
L 386.583142 29.715179 
L 386.374178 29.715179 
L 386.165214 29.715179 
L 385.956249 29.715179 
L 385.747285 29.715179 
L 385.538321 29.715179 
L 385.329356 29.715179 
L 385.120392 29.715179 
L 384.911428 29.715179 
L 384.702463 29.715179 
L 384.493499 29.715179 
L 384.284535 29.715179 
L 384.075571 29.715179 
L 383.866606 29.715179 
L 383.657642 29.715179 
L 383.448678 29.715179 
L 383.239713 29.715179 
L 383.030749 29.715179 
L 382.821785 29.715179 
L 382.61282 29.715179 
L 382.403856 29.715179 
L 382.194892 29.715179 
L 381.985927 29.715179 
L 381.776963 29.715179 
L 381.567999 29.715179 
L 381.359035 29.715179 
L 381.15007 29.715179 
L 380.941106 29.715179 
L 380.732142 29.715179 
L 380.523177 29.715179 
L 380.314213 29.715179 
L 380.105249 29.715179 
L 379.896284 29.715179 
L 379.68732 29.715179 
L 379.478356 29.715179 
L 379.269391 29.715179 
L 379.060427 29.715179 
L 378.851463 29.715179 
L 378.642499 29.715179 
L 378.433534 29.715179 
L 378.22457 29.715179 
L 378.015606 29.715179 
L 377.806641 29.715179 
L 377.597677 29.715179 
L 377.388713 29.715179 
L 377.179748 29.715179 
L 376.970784 29.715179 
L 376.76182 29.715179 
L 376.552855 29.715179 
L 376.343891 29.715179 
L 376.134927 29.715179 
L 375.925963 29.715179 
L 375.716998 29.715179 
L 375.508034 29.715179 
L 375.29907 29.715179 
L 375.090105 29.715179 
L 374.881141 29.715179 
L 374.672177 29.715179 
L 374.463212 29.715179 
L 374.254248 29.715179 
L 374.045284 29.715179 
L 373.836319 29.715179 
L 373.627355 29.715179 
L 373.418391 29.715179 
L 373.209427 29.715179 
L 373.000462 29.715179 
L 372.791498 29.715179 
L 372.582534 29.715179 
L 372.373569 29.715179 
L 372.164605 29.715179 
L 371.955641 29.715179 
L 371.746676 29.715179 
L 371.537712 29.715179 
L 371.328748 29.715179 
L 371.119783 29.715179 
L 370.910819 29.715179 
L 370.701855 29.715179 
L 370.492891 29.715179 
L 370.283926 29.715179 
L 370.074962 29.715179 
L 369.865998 29.715179 
L 369.657033 29.715179 
L 369.448069 29.715179 
L 369.239105 29.715179 
L 369.03014 29.715179 
L 368.821176 29.715179 
L 368.612212 29.715179 
L 368.403248 29.715179 
L 368.194283 29.715179 
L 367.985319 29.715179 
L 367.776355 29.715179 
L 367.56739 29.715179 
L 367.358426 29.715179 
L 367.149462 29.715179 
L 366.940497 29.715179 
L 366.731533 29.715179 
L 366.522569 29.715179 
L 366.313604 29.715179 
L 366.10464 29.715179 
L 365.895676 29.715179 
L 365.686712 29.715179 
L 365.477747 29.715179 
L 365.268783 29.715179 
L 365.059819 29.715179 
L 364.850854 29.715179 
L 364.64189 29.715179 
L 364.432926 29.715179 
L 364.223961 29.715179 
L 364.014997 29.715179 
L 363.806033 29.715179 
L 363.597068 29.715179 
L 363.388104 29.715179 
L 363.17914 29.715179 
L 362.970176 29.715179 
L 362.761211 29.715179 
L 362.552247 29.715179 
L 362.343283 29.715179 
L 362.134318 29.715179 
L 361.925354 29.715179 
L 361.71639 29.715179 
L 361.507425 29.715179 
L 361.298461 29.715179 
L 361.089497 29.715179 
L 360.880532 29.715179 
L 360.671568 29.715179 
L 360.462604 29.715179 
L 360.25364 29.715179 
L 360.044675 29.715179 
L 359.835711 29.715179 
L 359.626747 29.715179 
L 359.417782 29.715179 
L 359.208818 29.715179 
L 358.999854 29.715179 
L 358.790889 29.715179 
L 358.581925 29.715179 
L 358.372961 29.715179 
L 358.163996 29.715179 
L 357.955032 29.715179 
L 357.746068 29.715179 
L 357.537104 29.715179 
L 357.328139 29.715179 
L 357.119175 29.715179 
L 356.910211 29.715179 
L 356.701246 29.715179 
L 356.492282 29.715179 
L 356.283318 29.715179 
L 356.074353 29.715179 
L 355.865389 29.715179 
L 355.656425 29.715179 
L 355.447461 29.715179 
L 355.238496 29.715179 
L 355.029532 29.715179 
L 354.820568 29.715179 
L 354.611603 29.715179 
L 354.402639 29.715179 
L 354.193675 29.715179 
L 353.98471 29.715179 
L 353.775746 29.715179 
L 353.566782 29.715179 
L 353.357817 29.715179 
L 353.148853 29.715179 
L 352.939889 29.715179 
L 352.730925 29.715179 
L 352.52196 29.715179 
L 352.312996 29.715179 
L 352.104032 29.715179 
L 351.895067 29.715179 
L 351.686103 29.715179 
L 351.477139 29.715179 
L 351.268174 29.715179 
L 351.05921 29.715179 
L 350.850246 29.715179 
L 350.641281 29.715179 
L 350.432317 29.715179 
L 350.223353 29.715179 
L 350.014389 29.715179 
L 349.805424 29.715179 
L 349.59646 29.715179 
L 349.387496 29.715179 
L 349.178531 29.715179 
L 348.969567 29.715179 
L 348.760603 29.715179 
L 348.551638 29.715179 
L 348.342674 29.715179 
L 348.13371 29.715179 
L 347.924745 29.715179 
L 347.715781 29.715179 
L 347.506817 29.715179 
L 347.297853 29.715179 
L 347.088888 29.715179 
L 346.879924 29.715179 
L 346.67096 29.715179 
L 346.461995 29.715179 
L 346.253031 29.715179 
L 346.044067 29.715179 
L 345.835102 29.715179 
L 345.626138 29.715179 
L 345.417174 29.715179 
L 345.208209 29.715179 
L 344.999245 29.715179 
L 344.790281 29.715179 
L 344.581317 29.715179 
L 344.372352 29.715179 
L 344.163388 29.715179 
L 343.954424 29.715179 
L 343.745459 29.715179 
L 343.536495 29.715179 
L 343.327531 29.715179 
L 343.118566 29.715179 
L 342.909602 29.715179 
L 342.700638 29.715179 
L 342.491673 29.715179 
L 342.282709 29.715179 
L 342.073745 29.715179 
L 341.864781 29.715179 
L 341.655816 29.715179 
L 341.446852 29.715179 
L 341.237888 29.715179 
L 341.028923 29.715179 
L 340.819959 29.715179 
L 340.610995 29.715179 
L 340.40203 29.715179 
L 340.193066 29.715179 
L 339.984102 29.715179 
L 339.775138 29.715179 
L 339.566173 29.715179 
L 339.357209 29.715179 
L 339.148245 29.715179 
L 338.93928 29.715179 
L 338.730316 29.715179 
L 338.521352 29.715179 
L 338.312387 29.715179 
L 338.103423 29.715179 
L 337.894459 29.715179 
L 337.685494 29.715179 
L 337.47653 29.715179 
L 337.267566 29.715179 
L 337.058602 29.715179 
L 336.849637 29.715179 
L 336.640673 29.715179 
L 336.431709 29.715179 
L 336.222744 29.715179 
L 336.01378 29.715179 
L 335.804816 29.715179 
L 335.595851 29.715179 
L 335.386887 29.715179 
L 335.177923 29.715179 
L 334.968958 29.715179 
L 334.759994 29.715179 
L 334.55103 29.715179 
L 334.342066 29.715179 
L 334.133101 29.715179 
L 333.924137 29.715179 
L 333.715173 29.715179 
L 333.506208 29.715179 
L 333.297244 29.715179 
L 333.08828 29.715179 
L 332.879315 29.715179 
L 332.670351 29.715179 
L 332.461387 29.715179 
L 332.252422 29.715179 
L 332.043458 29.715179 
L 331.834494 29.715179 
L 331.62553 29.715179 
L 331.416565 29.715179 
L 331.207601 29.715179 
L 330.998637 29.715179 
L 330.789672 29.715179 
L 330.580708 29.715179 
L 330.371744 29.715179 
L 330.162779 29.715179 
L 329.953815 29.715179 
L 329.744851 29.715179 
L 329.535886 29.715179 
L 329.326922 29.715179 
L 329.117958 29.715179 
L 328.908994 29.715179 
L 328.700029 29.715179 
L 328.491065 29.715179 
L 328.282101 29.715179 
L 328.073136 29.715179 
L 327.864172 29.715179 
L 327.655208 29.715179 
L 327.446243 29.715179 
L 327.237279 29.715179 
L 327.028315 29.715179 
L 326.81935 29.715179 
L 326.610386 29.715179 
L 326.401422 29.715179 
L 326.192458 29.715179 
L 325.983493 29.715179 
L 325.774529 29.715179 
L 325.565565 29.715179 
L 325.3566 29.715179 
L 325.147636 29.715179 
L 324.938672 29.715179 
L 324.729707 29.715179 
L 324.520743 29.715179 
L 324.311779 29.715179 
L 324.102815 29.715179 
L 323.89385 29.715179 
L 323.684886 29.715179 
L 323.475922 29.715179 
L 323.266957 29.715179 
L 323.057993 29.715179 
L 322.849029 29.715179 
L 322.640064 29.715179 
L 322.4311 29.715179 
L 322.222136 29.715179 
L 322.013171 29.715179 
L 321.804207 29.715179 
L 321.595243 29.715179 
L 321.386279 29.715179 
L 321.177314 29.715179 
L 320.96835 29.715179 
L 320.759386 29.715179 
L 320.550421 29.715179 
L 320.341457 29.715179 
L 320.132493 29.715179 
L 319.923528 29.715179 
L 319.714564 29.715179 
L 319.5056 29.715179 
L 319.296635 29.715179 
L 319.087671 29.715179 
L 318.878707 29.715179 
L 318.669743 29.715179 
L 318.460778 29.715179 
L 318.251814 29.715179 
L 318.04285 29.715179 
L 317.833885 29.715179 
L 317.624921 29.715179 
L 317.415957 29.715179 
L 317.206992 29.715179 
L 316.998028 29.715179 
L 316.789064 29.715179 
L 316.580099 29.715179 
L 316.371135 29.715179 
L 316.162171 29.715179 
L 315.953207 29.715179 
L 315.744242 29.715179 
L 315.535278 29.715179 
L 315.326314 29.715179 
L 315.117349 29.715179 
L 314.908385 29.715179 
L 314.699421 29.715179 
L 314.490456 29.715179 
L 314.281492 29.715179 
L 314.072528 29.715179 
L 313.863563 29.715179 
L 313.654599 29.715179 
L 313.445635 29.715179 
L 313.236671 29.715179 
L 313.027706 29.715179 
L 312.818742 29.715179 
L 312.609778 29.715179 
L 312.400813 29.715179 
L 312.191849 29.715179 
L 311.982885 29.715179 
L 311.77392 29.715179 
L 311.564956 29.715179 
L 311.355992 29.715179 
L 311.147028 29.715179 
L 310.938063 29.715179 
L 310.729099 29.715179 
L 310.520135 29.715179 
L 310.31117 29.715179 
L 310.102206 29.715179 
L 309.893242 29.715179 
L 309.684277 29.715179 
L 309.475313 29.715179 
L 309.266349 29.715179 
L 309.057384 29.715179 
L 308.84842 29.715179 
L 308.639456 29.715179 
L 308.430492 29.715179 
L 308.221527 29.715179 
L 308.012563 29.715179 
L 307.803599 29.715179 
L 307.594634 29.715179 
L 307.38567 29.715179 
L 307.176706 29.715179 
L 306.967741 29.715179 
L 306.758777 29.715179 
L 306.549813 29.715179 
L 306.340848 29.715179 
L 306.131884 29.715179 
L 305.92292 29.715179 
L 305.713956 29.715179 
L 305.504991 29.715179 
L 305.296027 29.715179 
L 305.087063 29.715179 
L 304.878098 29.715179 
L 304.669134 29.715179 
L 304.46017 29.715179 
L 304.251205 29.715179 
L 304.042241 29.715179 
L 303.833277 29.715179 
L 303.624312 29.715179 
L 303.415348 29.715179 
L 303.206384 29.715179 
L 302.99742 29.715179 
L 302.788455 29.715179 
L 302.579491 29.715179 
L 302.370527 29.715179 
L 302.161562 29.715179 
L 301.952598 29.715179 
L 301.743634 29.715179 
L 301.534669 29.715179 
L 301.325705 29.715179 
L 301.116741 29.715179 
L 300.907776 29.715179 
L 300.698812 29.715179 
L 300.489848 29.715179 
L 300.280884 29.715179 
L 300.071919 29.715179 
L 299.862955 29.715179 
L 299.653991 29.715179 
L 299.445026 29.715179 
L 299.236062 29.715179 
L 299.027098 29.715179 
L 298.818133 29.715179 
L 298.609169 29.715179 
L 298.400205 29.715179 
L 298.19124 29.715179 
L 297.982276 29.715179 
L 297.773312 29.715179 
L 297.564348 29.715179 
L 297.355383 29.715179 
L 297.146419 29.715179 
L 296.937455 29.715179 
L 296.72849 29.715179 
L 296.519526 29.715179 
L 296.310562 29.715179 
L 296.101597 29.715179 
L 295.892633 29.715179 
L 295.683669 29.715179 
L 295.474705 29.715179 
L 295.26574 29.715179 
L 295.056776 29.715179 
L 294.847812 29.715179 
L 294.638847 29.715179 
L 294.429883 29.715179 
L 294.220919 29.715179 
L 294.011954 29.715179 
L 293.80299 29.715179 
L 293.594026 29.715179 
L 293.385061 29.715179 
L 293.176097 29.715179 
L 292.967133 29.715179 
L 292.758169 29.715179 
L 292.549204 29.715179 
L 292.34024 29.715179 
L 292.131276 29.715179 
L 291.922311 29.715179 
L 291.713347 29.715179 
L 291.504383 29.715179 
L 291.295418 29.715179 
L 291.086454 29.715179 
L 290.87749 29.715179 
L 290.668525 29.715179 
L 290.459561 29.715179 
L 290.250597 29.715179 
L 290.041633 29.715179 
L 289.832668 29.715179 
L 289.623704 29.715179 
L 289.41474 29.715179 
L 289.205775 29.715179 
L 288.996811 29.715179 
L 288.787847 29.715179 
L 288.578882 29.715179 
L 288.369918 29.715179 
L 288.160954 29.715179 
L 287.951989 29.715179 
L 287.743025 29.715179 
L 287.534061 29.715179 
L 287.325097 29.715179 
L 287.116132 29.715179 
L 286.907168 29.715179 
L 286.698204 29.715179 
L 286.489239 29.715179 
L 286.280275 29.715179 
L 286.071311 29.715179 
L 285.862346 29.715179 
L 285.653382 29.715179 
L 285.444418 29.715179 
L 285.235453 29.715179 
L 285.026489 29.715179 
L 284.817525 29.715179 
L 284.608561 29.715179 
L 284.399596 29.715179 
L 284.190632 29.715179 
L 283.981668 29.715179 
L 283.772703 29.715179 
L 283.563739 29.715179 
L 283.354775 29.715179 
L 283.14581 29.715179 
L 282.936846 29.715179 
L 282.727882 29.715179 
L 282.518917 29.715179 
L 282.309953 29.715179 
L 282.100989 29.715179 
L 281.892025 29.715179 
L 281.68306 29.715179 
L 281.474096 29.715179 
L 281.265132 29.715179 
L 281.056167 29.715179 
L 280.847203 29.715179 
L 280.638239 29.715179 
L 280.429274 29.715179 
L 280.22031 29.715179 
L 280.011346 29.715179 
L 279.802382 29.715179 
L 279.593417 29.715179 
L 279.384453 29.715179 
L 279.175489 29.715179 
L 278.966524 29.715179 
L 278.75756 29.715179 
L 278.548596 29.715179 
L 278.339631 29.715179 
L 278.130667 29.715179 
L 277.921703 29.715179 
L 277.712738 29.715179 
L 277.503774 29.715179 
L 277.29481 29.715179 
L 277.085846 29.715179 
L 276.876881 29.715179 
L 276.667917 29.715179 
L 276.458953 29.715179 
L 276.249988 29.715179 
L 276.041024 29.715179 
L 275.83206 29.715179 
L 275.623095 29.715179 
L 275.414131 29.715179 
L 275.205167 29.715179 
L 274.996202 29.715179 
L 274.787238 29.715179 
L 274.578274 29.715179 
L 274.36931 29.715179 
L 274.160345 29.715179 
L 273.951381 29.715179 
L 273.742417 29.715179 
L 273.533452 29.715179 
L 273.324488 29.715179 
L 273.115524 29.715179 
L 272.906559 29.715179 
L 272.697595 29.715179 
L 272.488631 29.715179 
L 272.279666 29.715179 
L 272.070702 29.715179 
L 271.861738 29.715179 
L 271.652774 29.715179 
L 271.443809 29.715179 
L 271.234845 29.715179 
L 271.025881 29.715179 
L 270.816916 29.715179 
L 270.607952 29.715179 
L 270.398988 29.715179 
L 270.190023 29.715179 
L 269.981059 29.715179 
L 269.772095 29.715179 
L 269.56313 29.715179 
L 269.354166 29.715179 
L 269.145202 29.715179 
L 268.936238 29.715179 
L 268.727273 29.715179 
L 268.518309 29.715179 
L 268.309345 29.715179 
L 268.10038 29.715179 
L 267.891416 29.715179 
L 267.682452 29.715179 
L 267.473487 29.715179 
L 267.264523 29.715179 
L 267.055559 29.715179 
L 266.846594 29.715179 
L 266.63763 29.715179 
L 266.428666 29.715179 
L 266.219702 29.715179 
L 266.010737 29.715179 
L 265.801773 29.715179 
L 265.592809 29.715179 
L 265.383844 29.715179 
L 265.17488 29.715179 
L 264.965916 29.715179 
L 264.756951 29.715179 
L 264.547987 29.715179 
L 264.339023 29.715179 
L 264.130059 29.715179 
L 263.921094 29.715179 
L 263.71213 29.715179 
L 263.503166 29.715179 
L 263.294201 29.715179 
L 263.085237 29.715179 
L 262.876273 29.715179 
L 262.667308 29.715179 
L 262.458344 29.715179 
L 262.24938 29.715179 
L 262.040415 29.715179 
L 261.831451 29.715179 
L 261.622487 29.715179 
L 261.413523 29.715179 
L 261.204558 29.715179 
L 260.995594 29.715179 
L 260.78663 29.715179 
L 260.577665 29.715179 
L 260.368701 29.715179 
L 260.159737 29.715179 
L 259.950772 29.715179 
L 259.741808 29.715179 
L 259.532844 29.715179 
L 259.323879 29.715179 
L 259.114915 29.715179 
L 258.905951 29.715179 
L 258.696987 29.715179 
L 258.488022 29.715179 
L 258.279058 29.715179 
L 258.070094 29.715179 
L 257.861129 29.715179 
L 257.652165 29.715179 
L 257.443201 29.715179 
L 257.234236 29.715179 
L 257.025272 29.715179 
L 256.816308 29.715179 
L 256.607343 29.715179 
L 256.398379 29.715179 
L 256.189415 29.715179 
L 255.980451 29.715179 
L 255.771486 29.715179 
L 255.562522 29.715179 
L 255.353558 29.715179 
L 255.144593 29.715179 
L 254.935629 29.715179 
L 254.726665 29.715179 
L 254.5177 29.715179 
L 254.308736 29.715179 
L 254.099772 29.715179 
L 253.890807 29.715179 
L 253.681843 29.715179 
L 253.472879 29.715179 
L 253.263915 29.715179 
L 253.05495 29.715179 
L 252.845986 29.715179 
L 252.637022 29.715179 
L 252.428057 29.715179 
L 252.219093 29.715179 
L 252.010129 29.715179 
L 251.801164 29.715179 
L 251.5922 29.715179 
L 251.383236 29.715179 
L 251.174272 29.715179 
L 250.965307 29.715179 
L 250.756343 29.715179 
L 250.547379 29.715179 
L 250.338414 29.715179 
L 250.12945 29.715179 
L 249.920486 29.715179 
L 249.711521 29.715179 
L 249.502557 29.715179 
L 249.293593 29.715179 
L 249.084628 29.715179 
L 248.875664 29.715179 
L 248.6667 29.715179 
L 248.457736 29.715179 
L 248.248771 29.715179 
L 248.039807 29.715179 
L 247.830843 29.715179 
L 247.621878 29.715179 
L 247.412914 29.715179 
L 247.20395 29.715179 
L 246.994985 29.715179 
L 246.786021 29.715179 
L 246.577057 29.715179 
L 246.368092 29.715179 
L 246.159128 29.715179 
L 245.950164 29.715179 
L 245.7412 29.715179 
L 245.532235 29.715179 
L 245.323271 29.715179 
L 245.114307 29.715179 
L 244.905342 29.715179 
L 244.696378 29.715179 
L 244.487414 29.715179 
L 244.278449 29.715179 
L 244.069485 29.715179 
L 243.860521 29.715179 
L 243.651556 29.715179 
L 243.442592 29.715179 
L 243.233628 29.715179 
L 243.024664 29.715179 
L 242.815699 29.715179 
L 242.606735 29.715179 
L 242.397771 29.715179 
L 242.188806 29.715179 
L 241.979842 29.715179 
L 241.770878 29.715179 
L 241.561913 29.715179 
L 241.352949 29.715179 
L 241.143985 29.715179 
L 240.93502 29.715179 
L 240.726056 29.715179 
L 240.517092 29.715179 
L 240.308128 29.715179 
L 240.099163 29.715179 
L 239.890199 29.715179 
L 239.681235 29.715179 
L 239.47227 29.715179 
L 239.263306 29.715179 
L 239.054342 29.715179 
L 238.845377 29.715179 
L 238.636413 29.715179 
L 238.427449 29.715179 
L 238.218484 29.715179 
L 238.00952 29.715179 
L 237.800556 29.715179 
L 237.591592 29.715179 
L 237.382627 29.715179 
L 237.173663 29.715179 
L 236.964699 29.715179 
L 236.755734 29.715179 
L 236.54677 29.715179 
L 236.337806 29.715179 
L 236.128841 29.715179 
L 235.919877 29.715179 
L 235.710913 29.715179 
L 235.501949 29.715179 
L 235.292984 29.715179 
L 235.08402 29.715179 
L 234.875056 29.715179 
L 234.666091 29.715179 
L 234.457127 29.715179 
L 234.248163 29.715179 
L 234.039198 29.715179 
L 233.830234 29.715179 
L 233.62127 29.715179 
L 233.412305 29.715179 
L 233.203341 29.715179 
L 232.994377 29.715179 
L 232.785413 29.715179 
L 232.576448 29.715179 
L 232.367484 29.715179 
L 232.15852 29.715179 
L 231.949555 29.715179 
L 231.740591 29.715179 
L 231.531627 29.715179 
L 231.322662 29.715179 
L 231.113698 29.715179 
L 230.904734 29.715179 
L 230.695769 29.715179 
L 230.486805 29.715179 
L 230.277841 29.715179 
L 230.068877 29.715179 
L 229.859912 29.715179 
L 229.650948 29.715179 
L 229.441984 29.715179 
L 229.233019 29.715179 
L 229.024055 29.715179 
L 228.815091 29.715179 
L 228.606126 29.715179 
L 228.397162 29.715179 
L 228.188198 29.715179 
L 227.979233 29.715179 
L 227.770269 29.715179 
L 227.561305 29.715179 
L 227.352341 29.715179 
L 227.143376 29.715179 
L 226.934412 29.715179 
L 226.725448 29.715179 
L 226.516483 29.715179 
L 226.307519 29.715179 
L 226.098555 29.715179 
L 225.88959 29.715179 
L 225.680626 29.715179 
L 225.471662 29.715179 
L 225.262697 29.715179 
L 225.053733 29.715179 
L 224.844769 29.715179 
L 224.635805 29.715179 
L 224.42684 29.715179 
L 224.217876 29.715179 
L 224.008912 29.715179 
L 223.799947 29.715179 
L 223.590983 29.715179 
L 223.382019 29.715179 
L 223.173054 29.715179 
L 222.96409 29.715179 
L 222.755126 29.715179 
L 222.546161 29.715179 
L 222.337197 29.715179 
L 222.128233 29.715179 
L 221.919269 29.715179 
L 221.710304 29.715179 
L 221.50134 29.715179 
L 221.292376 29.715179 
L 221.083411 29.715179 
L 220.874447 29.715179 
L 220.665483 29.715179 
L 220.456518 29.715179 
L 220.247554 29.715179 
L 220.03859 29.715179 
L 219.829626 29.715179 
L 219.620661 29.715179 
L 219.411697 29.715179 
L 219.202733 29.715179 
L 218.993768 29.715179 
L 218.784804 29.715179 
L 218.57584 29.715179 
L 218.366875 29.715179 
L 218.157911 29.715179 
L 217.948947 29.715179 
L 217.739982 29.715179 
L 217.531018 29.715179 
L 217.322054 29.715179 
L 217.11309 29.715179 
L 216.904125 29.715179 
L 216.695161 29.715179 
L 216.486197 29.715179 
L 216.277232 29.715179 
L 216.068268 29.715179 
L 215.859304 29.715179 
L 215.650339 29.715179 
L 215.441375 29.715179 
L 215.232411 29.715179 
L 215.023446 29.715179 
L 214.814482 29.715179 
L 214.605518 29.715179 
L 214.396554 29.715179 
L 214.187589 29.715179 
L 213.978625 29.715179 
L 213.769661 29.715179 
L 213.560696 29.715179 
L 213.351732 29.715179 
L 213.142768 29.715179 
L 212.933803 29.715179 
L 212.724839 29.715179 
L 212.515875 29.715179 
L 212.30691 29.715179 
L 212.097946 29.715179 
L 211.888982 29.715179 
L 211.680018 29.715179 
L 211.471053 29.715179 
L 211.262089 29.715179 
L 211.053125 29.715179 
L 210.84416 29.715179 
L 210.635196 29.715179 
L 210.426232 29.715179 
L 210.217267 29.715179 
L 210.008303 29.715179 
L 209.799339 29.715179 
L 209.590374 29.715179 
L 209.38141 29.715179 
L 209.172446 29.715179 
L 208.963482 29.715179 
L 208.754517 29.715179 
L 208.545553 29.715179 
L 208.336589 29.715179 
L 208.127624 29.715179 
L 207.91866 29.715179 
L 207.709696 29.715179 
L 207.500731 29.715179 
L 207.291767 29.715179 
L 207.082803 29.715179 
L 206.873839 29.715179 
L 206.664874 29.715179 
L 206.45591 29.715179 
L 206.246946 29.715179 
L 206.037981 29.715179 
L 205.829017 29.715179 
L 205.620053 29.715179 
L 205.411088 29.715179 
L 205.202124 29.715179 
L 204.99316 29.715179 
L 204.784195 29.715179 
L 204.575231 29.715179 
L 204.366267 29.715179 
L 204.157303 29.715179 
L 203.948338 29.715179 
L 203.739374 29.715179 
L 203.53041 29.715179 
L 203.321445 29.715179 
L 203.112481 29.715179 
L 202.903517 29.715179 
L 202.694552 29.715179 
L 202.485588 29.715179 
L 202.276624 29.715179 
L 202.067659 29.715179 
L 201.858695 29.715179 
L 201.649731 29.715179 
L 201.440767 29.715179 
L 201.231802 29.715179 
L 201.022838 29.715179 
L 200.813874 29.715179 
L 200.604909 29.715179 
L 200.395945 29.715179 
L 200.186981 29.715179 
L 199.978016 29.715179 
L 199.769052 29.715179 
L 199.560088 29.715179 
L 199.351123 29.715179 
L 199.142159 29.715179 
L 198.933195 29.715179 
L 198.724231 29.715179 
L 198.515266 29.715179 
L 198.306302 29.715179 
L 198.097338 29.715179 
L 197.888373 29.715179 
L 197.679409 29.715179 
L 197.470445 29.715179 
L 197.26148 29.715179 
L 197.052516 29.715179 
L 196.843552 29.715179 
L 196.634587 29.715179 
L 196.425623 29.715179 
L 196.216659 29.715179 
L 196.007695 29.715179 
L 195.79873 29.715179 
L 195.589766 29.715179 
L 195.380802 29.715179 
L 195.171837 29.715179 
L 194.962873 29.715179 
L 194.753909 29.715179 
L 194.544944 29.715179 
L 194.33598 29.715179 
L 194.127016 29.715179 
L 193.918051 29.715179 
L 193.709087 29.715179 
L 193.500123 29.715179 
L 193.291159 29.715179 
L 193.082194 29.715179 
L 192.87323 29.715179 
L 192.664266 29.715179 
L 192.455301 29.715179 
L 192.246337 29.715179 
L 192.037373 29.715179 
L 191.828408 29.715179 
L 191.619444 29.715179 
L 191.41048 29.715179 
L 191.201516 29.715179 
L 190.992551 29.715179 
L 190.783587 29.715179 
L 190.574623 29.715179 
L 190.365658 29.715179 
L 190.156694 29.715179 
L 189.94773 29.715179 
L 189.738765 29.715179 
L 189.529801 29.715179 
L 189.320837 29.715179 
L 189.111872 29.715179 
L 188.902908 29.715179 
L 188.693944 29.715179 
L 188.48498 29.715179 
L 188.276015 29.715179 
L 188.067051 29.715179 
L 187.858087 29.715179 
L 187.649122 29.715179 
L 187.440158 29.715179 
L 187.231194 29.715179 
L 187.022229 29.715179 
L 186.813265 29.715179 
L 186.604301 29.715179 
L 186.395336 29.715179 
L 186.186372 29.715179 
L 185.977408 29.715179 
L 185.768444 29.715179 
L 185.559479 29.715179 
L 185.350515 29.715179 
L 185.141551 29.715179 
L 184.932586 29.715179 
L 184.723622 29.715179 
L 184.514658 29.715179 
L 184.305693 29.715179 
L 184.096729 29.715179 
L 183.887765 29.715179 
L 183.6788 29.715179 
L 183.469836 29.715179 
L 183.260872 29.715179 
L 183.051908 29.715179 
L 182.842943 29.715179 
L 182.633979 29.715179 
L 182.425015 29.715179 
L 182.21605 29.715179 
L 182.007086 29.715179 
L 181.798122 29.715179 
L 181.589157 29.715179 
L 181.380193 29.715179 
L 181.171229 29.715179 
L 180.962264 29.715179 
L 180.7533 29.715179 
L 180.544336 29.715179 
L 180.335372 29.715179 
L 180.126407 29.715179 
L 179.917443 29.715179 
L 179.708479 29.715179 
L 179.499514 29.715179 
L 179.29055 29.715179 
L 179.081586 29.715179 
L 178.872621 29.715179 
L 178.663657 29.715179 
L 178.454693 29.715179 
L 178.245728 29.715179 
L 178.036764 29.715179 
L 177.8278 29.715179 
L 177.618836 29.715179 
L 177.409871 29.715179 
L 177.200907 29.715179 
L 176.991943 29.715179 
L 176.782978 29.715179 
L 176.574014 29.715179 
L 176.36505 29.715179 
L 176.156085 29.715179 
L 175.947121 29.715179 
L 175.738157 29.715179 
L 175.529193 29.715179 
L 175.320228 29.715179 
L 175.111264 29.715179 
L 174.9023 29.715179 
L 174.693335 29.715179 
L 174.484371 29.715179 
L 174.275407 29.715179 
L 174.066442 29.715179 
L 173.857478 29.715179 
L 173.648514 29.715179 
L 173.439549 29.715179 
L 173.230585 29.715179 
L 173.021621 29.715179 
L 172.812657 29.715179 
L 172.603692 29.715179 
L 172.394728 29.715179 
L 172.185764 29.715179 
L 171.976799 29.715179 
L 171.767835 29.715179 
L 171.558871 29.715179 
L 171.349906 29.715179 
L 171.140942 29.715179 
L 170.931978 29.715179 
L 170.723013 29.715179 
L 170.514049 29.715179 
L 170.305085 29.715179 
L 170.096121 29.715179 
L 169.887156 29.715179 
L 169.678192 29.715179 
L 169.469228 29.715179 
L 169.260263 29.715179 
L 169.051299 29.715179 
L 168.842335 29.715179 
L 168.63337 29.715179 
L 168.424406 29.715179 
L 168.215442 29.715179 
L 168.006477 29.715179 
L 167.797513 29.715179 
L 167.588549 29.715179 
L 167.379585 29.715179 
L 167.17062 29.715179 
L 166.961656 29.715179 
L 166.752692 29.715179 
L 166.543727 29.715179 
L 166.334763 29.715179 
L 166.125799 29.715179 
L 165.916834 29.715179 
L 165.70787 29.715179 
L 165.498906 29.715179 
L 165.289941 29.715179 
L 165.080977 29.715179 
L 164.872013 29.715179 
L 164.663049 29.715179 
L 164.454084 29.715179 
L 164.24512 29.715179 
L 164.036156 29.715179 
L 163.827191 29.715179 
L 163.618227 29.715179 
L 163.409263 29.715179 
L 163.200298 29.715179 
L 162.991334 29.715179 
L 162.78237 29.715179 
L 162.573406 29.715179 
L 162.364441 29.715179 
L 162.155477 29.715179 
L 161.946513 29.715179 
L 161.737548 29.715179 
L 161.528584 29.715179 
L 161.31962 29.715179 
L 161.110655 29.715179 
L 160.901691 29.715179 
L 160.692727 29.715179 
L 160.483762 29.715179 
L 160.274798 29.715179 
L 160.065834 29.715179 
L 159.85687 29.715179 
L 159.647905 29.715179 
L 159.438941 29.715179 
L 159.229977 29.715179 
L 159.021012 29.715179 
L 158.812048 29.715179 
L 158.603084 29.715179 
L 158.394119 29.715179 
L 158.185155 29.715179 
L 157.976191 29.715179 
L 157.767226 29.715179 
L 157.558262 29.715179 
L 157.349298 29.715179 
L 157.140334 29.715179 
L 156.931369 29.715179 
L 156.722405 29.715179 
L 156.513441 29.715179 
L 156.304476 29.715179 
L 156.095512 29.715179 
L 155.886548 29.715179 
L 155.677583 29.715179 
L 155.468619 29.715179 
L 155.259655 29.715179 
L 155.05069 29.715179 
L 154.841726 29.715179 
L 154.632762 29.715179 
L 154.423798 29.715179 
L 154.214833 29.715179 
L 154.005869 29.715179 
L 153.796905 29.715179 
L 153.58794 29.715179 
L 153.378976 29.715179 
L 153.170012 29.715179 
L 152.961047 29.715179 
L 152.752083 29.715179 
L 152.543119 29.715179 
L 152.334154 29.715179 
L 152.12519 29.715179 
L 151.916226 29.715179 
L 151.707262 29.715179 
L 151.498297 29.715179 
L 151.289333 29.715179 
L 151.080369 29.715179 
L 150.871404 29.715179 
L 150.66244 29.715179 
L 150.453476 29.715179 
L 150.244511 29.715179 
L 150.035547 29.715179 
L 149.826583 29.715179 
L 149.617618 29.715179 
L 149.408654 29.715179 
L 149.19969 29.715179 
L 148.990726 29.715179 
L 148.781761 29.715179 
L 148.572797 29.715179 
L 148.363833 29.715179 
L 148.154868 29.715179 
L 147.945904 29.715179 
L 147.73694 29.715179 
L 147.527975 29.715179 
L 147.319011 29.715179 
L 147.110047 29.715179 
L 146.901083 29.715179 
L 146.692118 29.715179 
L 146.483154 29.715179 
L 146.27419 29.715179 
L 146.065225 29.715179 
L 145.856261 29.715179 
L 145.647297 29.715179 
L 145.438332 29.715179 
L 145.229368 29.715179 
L 145.020404 29.715179 
L 144.811439 29.715179 
L 144.602475 29.715179 
L 144.393511 29.715179 
L 144.184547 29.715179 
L 143.975582 29.715179 
L 143.766618 29.715179 
L 143.557654 29.715179 
L 143.348689 29.715179 
L 143.139725 29.715179 
L 142.930761 29.715179 
L 142.721796 29.715179 
L 142.512832 29.715179 
L 142.303868 29.715179 
L 142.094903 29.715179 
L 141.885939 29.715179 
L 141.676975 29.715179 
L 141.468011 29.715179 
L 141.259046 29.715179 
L 141.050082 29.715179 
L 140.841118 29.715179 
L 140.632153 29.715179 
L 140.423189 29.715179 
L 140.214225 29.715179 
L 140.00526 29.715179 
L 139.796296 29.715179 
L 139.587332 29.715179 
L 139.378367 29.715179 
L 139.169403 29.715179 
L 138.960439 29.715179 
L 138.751475 29.715179 
L 138.54251 29.715179 
L 138.333546 29.715179 
L 138.124582 29.715179 
L 137.915617 29.715179 
L 137.706653 29.715179 
L 137.497689 29.715179 
L 137.288724 29.715179 
L 137.07976 29.715179 
L 136.870796 29.715179 
L 136.661831 29.715179 
L 136.452867 29.715179 
L 136.243903 29.715179 
L 136.034939 29.715179 
L 135.825974 29.715179 
L 135.61701 29.715179 
L 135.408046 29.715179 
L 135.199081 29.715179 
L 134.990117 29.715179 
L 134.781153 29.715179 
L 134.572188 29.715179 
L 134.363224 29.715179 
L 134.15426 29.715179 
L 133.945295 29.715179 
L 133.736331 29.715179 
L 133.527367 29.715179 
L 133.318403 29.715179 
L 133.109438 29.715179 
L 132.900474 29.715179 
L 132.69151 29.715179 
L 132.482545 29.715179 
L 132.273581 29.715179 
L 132.064617 29.715179 
L 131.855652 29.715179 
L 131.646688 29.715179 
L 131.437724 29.715179 
L 131.22876 29.715179 
L 131.019795 29.715179 
L 130.810831 29.715179 
L 130.601867 29.715179 
L 130.392902 29.715179 
L 130.183938 29.715179 
L 129.974974 29.715179 
L 129.766009 29.715179 
L 129.557045 29.715179 
L 129.348081 29.715179 
L 129.139116 29.715179 
L 128.930152 29.715179 
L 128.721188 29.715179 
L 128.512224 29.715179 
L 128.303259 29.715179 
L 128.094295 29.715179 
L 127.885331 29.715179 
L 127.676366 29.715179 
L 127.467402 29.715179 
L 127.258438 29.715179 
L 127.049473 29.715179 
L 126.840509 29.715179 
L 126.631545 29.715179 
L 126.42258 29.715179 
L 126.213616 29.715179 
L 126.004652 29.715179 
L 125.795688 29.715179 
L 125.586723 29.715179 
L 125.377759 29.715179 
L 125.168795 29.715179 
L 124.95983 29.715179 
L 124.750866 29.715179 
L 124.541902 29.715179 
L 124.332937 29.715179 
L 124.123973 29.715179 
L 123.915009 29.715179 
L 123.706044 29.715179 
L 123.49708 29.715179 
L 123.288116 29.715179 
L 123.079152 29.715179 
L 122.870187 29.715179 
L 122.661223 29.715179 
L 122.452259 29.715179 
L 122.243294 29.715179 
L 122.03433 29.715179 
L 121.825366 29.715179 
L 121.616401 29.715179 
L 121.407437 29.715179 
L 121.198473 29.715179 
L 120.989508 29.715179 
L 120.780544 29.715179 
L 120.57158 29.715179 
L 120.362616 29.715179 
L 120.153651 29.715179 
L 119.944687 29.715179 
L 119.735723 29.715179 
L 119.526758 29.715179 
L 119.317794 29.715179 
L 119.10883 29.715179 
L 118.899865 29.715179 
L 118.690901 29.715179 
L 118.481937 29.715179 
L 118.272972 29.715179 
L 118.064008 29.715179 
L 117.855044 29.715179 
L 117.64608 29.715179 
L 117.437115 29.715179 
L 117.228151 29.715179 
L 117.019187 29.715179 
L 116.810222 29.715179 
L 116.601258 29.715179 
L 116.392294 29.715179 
L 116.183329 29.715179 
L 115.974365 29.715179 
L 115.765401 29.715179 
L 115.556437 29.715179 
L 115.347472 29.715179 
L 115.138508 29.715179 
L 114.929544 29.715179 
L 114.720579 29.715179 
L 114.511615 29.715179 
L 114.302651 29.715179 
L 114.093686 29.715179 
L 113.884722 29.715179 
L 113.675758 29.715179 
L 113.466793 29.715179 
L 113.257829 29.715179 
L 113.048865 29.715179 
L 112.839901 29.715179 
L 112.630936 29.715179 
L 112.421972 29.715179 
L 112.213008 29.715179 
L 112.004043 29.715179 
L 111.795079 29.715179 
L 111.586115 29.715179 
L 111.37715 29.715179 
L 111.168186 29.715179 
L 110.959222 29.715179 
L 110.750257 29.715179 
L 110.541293 29.715179 
L 110.332329 29.715179 
L 110.123365 29.715179 
L 109.9144 29.715179 
L 109.705436 29.715179 
L 109.496472 29.715179 
L 109.287507 29.715179 
L 109.078543 29.715179 
L 108.869579 29.715179 
L 108.660614 29.715179 
L 108.45165 29.715179 
L 108.242686 29.715179 
L 108.033721 29.715179 
L 107.824757 29.715179 
L 107.615793 29.715179 
L 107.406829 29.715179 
L 107.197864 29.715179 
L 106.9889 29.715179 
L 106.779936 29.715179 
L 106.570971 29.715179 
L 106.362007 29.715179 
L 106.153043 29.715179 
L 105.944078 29.715179 
L 105.735114 29.715179 
L 105.52615 29.715179 
L 105.317185 29.715179 
L 105.108221 29.715179 
L 104.899257 29.715179 
L 104.690293 29.715179 
L 104.481328 29.715179 
L 104.272364 29.715179 
L 104.0634 29.715179 
L 103.854435 29.715179 
L 103.645471 29.715179 
L 103.436507 29.715179 
L 103.227542 29.715179 
L 103.018578 29.715179 
L 102.809614 29.715179 
L 102.60065 29.715179 
L 102.391685 29.715179 
L 102.182721 29.715179 
L 101.973757 29.715179 
L 101.764792 29.715179 
L 101.555828 29.715179 
L 101.346864 29.715179 
L 101.137899 29.715179 
L 100.928935 29.715179 
L 100.719971 29.715179 
L 100.511006 29.715179 
L 100.302042 29.715179 
L 100.093078 29.715179 
L 99.884114 29.715179 
L 99.675149 29.715179 
L 99.466185 29.715179 
L 99.257221 29.715179 
L 99.048256 29.715179 
L 98.839292 29.715179 
L 98.630328 29.715179 
L 98.421363 29.715179 
L 98.212399 29.715179 
L 98.003435 29.715179 
L 97.79447 29.715179 
L 97.585506 29.715179 
L 97.376542 29.715179 
L 97.167578 29.715179 
L 96.958613 29.715179 
L 96.749649 29.715179 
L 96.540685 29.715179 
L 96.33172 29.715179 
L 96.122756 29.715179 
L 95.913792 29.715179 
L 95.704827 29.715179 
L 95.495863 29.715179 
L 95.286899 29.715179 
L 95.077934 29.715179 
L 94.86897 29.715179 
L 94.660006 29.715179 
L 94.451042 29.715179 
L 94.242077 29.715179 
L 94.033113 29.715179 
L 93.824149 29.715179 
L 93.615184 29.715179 
L 93.40622 29.715179 
L 93.197256 29.715179 
L 92.988291 29.715179 
L 92.779327 29.715179 
L 92.570363 29.715179 
L 92.361398 29.715179 
L 92.152434 29.715179 
L 91.94347 29.715179 
L 91.734506 29.715179 
L 91.525541 29.715179 
L 91.316577 29.715179 
L 91.107613 29.715179 
L 90.898648 29.715179 
L 90.689684 29.715179 
L 90.48072 29.715179 
L 90.271755 29.715179 
L 90.062791 29.715179 
L 89.853827 29.715179 
L 89.644862 29.715179 
L 89.435898 29.715179 
L 89.226934 29.715179 
L 89.01797 29.715179 
L 88.809005 29.715179 
L 88.600041 29.715179 
L 88.391077 29.715179 
L 88.182112 29.715179 
L 87.973148 29.715179 
L 87.764184 29.715179 
L 87.555219 29.715179 
L 87.346255 29.715179 
L 87.137291 29.715179 
L 86.928327 29.715179 
L 86.719362 29.715179 
L 86.510398 29.715179 
L 86.301434 29.715179 
L 86.092469 29.715179 
L 85.883505 29.715179 
L 85.674541 29.715179 
L 85.465576 29.715179 
L 85.256612 29.715179 
L 85.047648 29.715179 
L 84.838683 29.715179 
L 84.629719 29.715179 
L 84.420755 29.715179 
L 84.211791 29.715179 
L 84.002826 29.715179 
L 83.793862 29.715179 
L 83.584898 29.715179 
L 83.375933 29.715179 
L 83.166969 29.715179 
L 82.958005 29.715179 
L 82.74904 29.715179 
L 82.540076 29.715179 
L 82.331112 29.715179 
L 82.122147 29.715179 
L 81.913183 29.715179 
L 81.704219 29.715179 
L 81.495255 29.715179 
L 81.28629 29.715179 
L 81.077326 29.715179 
L 80.868362 29.715179 
L 80.659397 29.715179 
L 80.450433 29.715179 
L 80.241469 29.715179 
L 80.032504 29.715179 
L 79.82354 29.715179 
L 79.614576 29.715179 
L 79.405611 29.715179 
L 79.196647 29.715179 
L 78.987683 29.715179 
L 78.778719 29.715179 
L 78.569754 29.715179 
L 78.36079 29.715179 
L 78.151826 29.715179 
L 77.942861 29.715179 
L 77.733897 29.715179 
L 77.524933 29.715179 
L 77.315968 29.715179 
L 77.107004 29.715179 
L 76.89804 29.715179 
L 76.689075 29.715179 
L 76.480111 29.715179 
L 76.271147 29.715179 
L 76.062183 29.715179 
L 75.853218 29.715179 
L 75.644254 29.715179 
L 75.43529 29.715179 
L 75.226325 29.715179 
L 75.017361 29.715179 
L 74.808397 29.715179 
L 74.599432 29.715179 
L 74.390468 29.715179 
L 74.181504 29.715179 
L 73.972539 29.715179 
L 73.763575 29.715179 
L 73.554611 29.715179 
L 73.345647 29.715179 
L 73.136682 29.715179 
L 72.927718 29.715179 
L 72.718754 29.715179 
L 72.509789 29.715179 
L 72.300825 29.715179 
L 72.091861 29.715179 
L 71.882896 29.715179 
L 71.673932 29.715179 
L 71.464968 29.715179 
L 71.256004 29.715179 
L 71.047039 29.715179 
L 70.838075 29.715179 
L 70.629111 29.715179 
L 70.420146 29.715179 
L 70.211182 29.715179 
L 70.002218 29.715179 
L 69.793253 29.715179 
L 69.584289 29.715179 
L 69.375325 29.715179 
L 69.16636 29.715179 
L 68.957396 29.715179 
L 68.748432 29.715179 
L 68.539468 29.715179 
L 68.330503 29.715179 
L 68.121539 29.715179 
L 67.912575 29.715179 
L 67.70361 29.715179 
L 67.494646 29.715179 
L 67.285682 29.715179 
L 67.076717 29.715179 
L 66.867753 29.715179 
L 66.658789 29.715179 
L 66.449824 29.715179 
L 66.24086 29.715179 
L 66.031896 29.715179 
L 65.822932 29.715179 
L 65.613967 29.715179 
L 65.405003 29.715179 
L 65.196039 29.715179 
L 64.987074 29.715179 
L 64.77811 29.715179 
L 64.569146 29.715179 
L 64.360181 29.715179 
L 64.151217 29.715179 
L 63.942253 29.715179 
L 63.733288 29.715179 
L 63.524324 29.715179 
L 63.31536 29.715179 
L 63.106396 29.715179 
L 62.897431 29.715179 
L 62.688467 29.715179 
L 62.479503 29.715179 
L 62.270538 29.715179 
L 62.061574 29.715179 
L 61.85261 29.715179 
L 61.643645 29.715179 
L 61.434681 29.715179 
L 61.225717 29.715179 
L 61.016752 29.715179 
L 60.807788 29.715179 
L 60.598824 29.715179 
L 60.38986 29.715179 
L 60.180895 29.715179 
L 59.971931 29.715179 
L 59.762967 29.715179 
L 59.554002 29.715179 
L 59.345038 29.715179 
L 59.136074 29.715179 
L 58.927109 29.715179 
L 58.718145 29.715179 
L 58.509181 29.715179 
L 58.300217 29.715179 
L 58.091252 29.715179 
L 57.882288 29.715179 
L 57.673324 29.715179 
L 57.464359 29.715179 
L 57.255395 29.715179 
L 57.046431 29.715179 
L 56.837466 29.715179 
L 56.628502 29.715179 
L 56.419538 29.715179 
L 56.210573 29.715179 
L 56.001609 29.715179 
L 55.792645 29.715179 
L 55.583681 29.715179 
L 55.374716 29.715179 
L 55.165752 29.715179 
L 54.956788 29.715179 
L 54.747823 29.715179 
L 54.538859 29.715179 
L 54.329895 29.715179 
L 54.12093 29.715179 
L 53.911966 29.715179 
L 53.703002 29.715179 
L 53.494037 29.715179 
L 53.285073 29.715179 
L 53.076109 29.715179 
L 52.867145 29.715179 
L 52.65818 29.715179 
L 52.449216 29.715179 
L 52.240252 29.715179 
L 52.031287 29.715179 
L 51.822323 29.715179 
L 51.613359 29.715179 
L 51.404394 29.715179 
L 51.19543 29.715179 
L 50.986466 29.715179 
L 50.777501 29.715179 
L 50.568537 29.715179 
L 50.359573 29.715179 
L 50.150609 29.715179 
L 49.941644 29.715179 
L 49.73268 29.715179 
L 49.523716 29.715179 
L 49.314751 29.715179 
L 49.105787 29.715179 
L 48.896823 29.715179 
L 48.687858 29.715179 
L 48.478894 29.715179 
L 48.26993 29.715179 
L 48.060965 29.715179 
L 47.852001 29.715179 
L 47.643037 29.715179 
L 47.434073 29.715179 
L 47.225108 29.715179 
L 47.016144 29.715179 
L 46.80718 29.715179 
L 46.598215 29.715179 
L 46.389251 29.715179 
L 46.180287 29.715179 
L 45.971322 29.715179 
L 45.762358 29.715179 
L 45.553394 29.715179 
L 45.344429 29.715179 
L 45.135465 29.715179 
L 44.926501 29.715179 
L 44.717537 29.715179 
L 44.508572 29.715179 
L 44.299608 29.715179 
L 44.090644 29.715179 
L 43.881679 29.715179 
L 43.672715 29.715179 
L 43.463751 29.715179 
L 43.254786 29.715179 
L 43.045822 29.715179 
L 42.836858 29.715179 
L 42.627894 29.715179 
L 42.418929 29.715179 
L 42.209965 29.715179 
L 42.001001 29.715179 
L 41.792036 29.715179 
L 41.583072 29.715179 
L 41.374108 29.715179 
L 41.165143 29.715179 
L 40.956179 29.715179 
L 40.747215 29.715179 
L 40.53825 29.715179 
L 40.329286 29.715179 
L 40.120322 29.715179 
L 39.911358 29.715179 
L 39.702393 29.715179 
L 39.493429 29.715179 
L 39.284465 29.715179 
L 39.0755 29.715179 
L 38.866536 29.715179 
L 38.657572 29.715179 
L 38.448607 29.715179 
L 38.239643 29.715179 
L 38.030679 29.715179 
L 37.821714 29.715179 
L 37.61275 29.715179 
L 37.403786 29.715179 
L 37.194822 29.715179 
L 36.985857 29.715179 
L 36.776893 29.715179 
L 36.567929 29.715179 
L 36.358964 29.715179 
L 36.15 29.715179 
z
" style="stroke: #d4edfc; stroke-opacity: 0.9"/>
    </defs>
    <g clip-path="url(#pf5d841235d)">
     <use xlink:href="#m194696b02d" x="0" y="145.654375" style="fill: #d4edfc; fill-opacity: 0.9; stroke: #d4edfc; stroke-opacity: 0.9"/>
    </g>
   </g>
   <g id="matplotlib.axis_1">
    <g id="xtick_1">
     <g id="line2d_1">
      <path d="M 97.984303 111.598125 
L 97.984303 22.318125 
" clip-path="url(#pf5d841235d)" style="fill: none"/>
     </g>
     <g id="line2d_2"/>
     <g id="text_1">
      <text style="fill: #004a80; font: 10px 'DejaVu Sans', 'Bitstream Vera Sans', 'Computer Modern Sans Serif', 'Lucida Grande', 'Verdana', 'Geneva', 'Lucid', 'Arial', 'Helvetica', 'Avant Garde', sans-serif; text-anchor: middle" x="97.984303" y="122.696563" transform="rotate(-0 97.984303 122.696563)">1.000</text>
     </g>
    </g>
    <g id="xtick_2">
     <g id="line2d_3">
      <path d="M 159.818606 111.598125 
L 159.818606 22.318125 
" clip-path="url(#pf5d841235d)" style="fill: none"/>
     </g>
     <g id="line2d_4"/>
     <g id="text_2">
      <text style="fill: #004a80; font: 10px 'DejaVu Sans', 'Bitstream Vera Sans', 'Computer Modern Sans Serif', 'Lucida Grande', 'Verdana', 'Geneva', 'Lucid', 'Arial', 'Helvetica', 'Avant Garde', sans-serif; text-anchor: middle" x="159.818606" y="122.696563" transform="rotate(-0 159.818606 122.696563)">2.000</text>
     </g>
    </g>
    <g id="xtick_3">
     <g id="line2d_5">
      <path d="M 221.652909 111.598125 
L 221.652909 22.318125 
" clip-path="url(#pf5d841235d)" style="fill: none"/>
     </g>
     <g id="line2d_6"/>
     <g id="text_3">
      <text style="fill: #004a80; font: 10px 'DejaVu Sans', 'Bitstream Vera Sans', 'Computer Modern Sans Serif', 'Lucida Grande', 'Verdana', 'Geneva', 'Lucid', 'Arial', 'Helvetica', 'Avant Garde', sans-serif; text-anchor: middle" x="221.652909" y="122.696563" transform="rotate(-0 221.652909 122.696563)">3.000</text>
     </g>
    </g>
    <g id="xtick_4">
     <g id="line2d_7">
      <path d="M 283.487212 111.598125 
L 283.487212 22.318125 
" clip-path="url(#pf5d841235d)" style="fill: none"/>
     </g>
     <g id="line2d_8"/>
     <g id="text_4">
      <text style="fill: #004a80; font: 10px 'DejaVu Sans', 'Bitstream Vera Sans', 'Computer Modern Sans Serif', 'Lucida Grande', 'Verdana', 'Geneva', 'Lucid', 'Arial', 'Helvetica', 'Avant Garde', sans-serif; text-anchor: middle" x="283.487212" y="122.696563" transform="rotate(-0 283.487212 122.696563)">4.000</text>
     </g>
    </g>
    <g id="xtick_5">
     <g id="line2d_9">
      <path d="M 345.321515 111.598125 
L 345.321515 22.318125 
" clip-path="url(#pf5d841235d)" style="fill: none"/>
     </g>
     <g id="line2d_10"/>
     <g id="text_5">
      <text style="fill: #004a80; font: 10px 'DejaVu Sans', 'Bitstream Vera Sans', 'Computer Modern Sans Serif', 'Lucida Grande', 'Verdana', 'Geneva', 'Lucid', 'Arial', 'Helvetica', 'Avant Garde', sans-serif; text-anchor: middle" x="345.321515" y="122.696563" transform="rotate(-0 345.321515 122.696563)">5.000</text>
     </g>
    </g>
    <g id="xtick_6">
     <g id="line2d_11">
      <path d="M 393.27 111.598125 
L 393.27 22.318125 
" clip-path="url(#pf5d841235d)" style="fill: none"/>
     </g>
     <g id="line2d_12"/>
     <g id="text_6">
      <text style="fill: #004a80; font: 10px 'DejaVu Sans', 'Bitstream Vera Sans', 'Computer Modern Sans Serif', 'Lucida Grande', 'Verdana', 'Geneva', 'Lucid', 'Arial', 'Helvetica', 'Avant Garde', sans-serif; text-anchor: middle" x="393.27" y="122.696563" transform="rotate(-0 393.27 122.696563)">5.775</text>
     </g>
    </g>
    <g id="text_7">
     <text style="font: 10px 'DejaVu Sans', 'Bitstream Vera Sans', 'Computer Modern Sans Serif', 'Lucida Grande', 'Verdana', 'Geneva', 'Lucid', 'Arial', 'Helvetica', 'Avant Garde', sans-serif; text-anchor: middle" x="214.71" y="136.374688" transform="rotate(-0 214.71 136.374688)">Distance (km)</text>
    </g>
   </g>
   <g id="matplotlib.axis_2">
    <g id="ytick_1">
     <g id="line2d_13">
      <path d="M 36.15 98.843839 
L 393.27 98.843839 
" clip-path="url(#pf5d841235d)" style="fill: none; stroke: #9d9d9c; stroke-width: 0.8; stroke-linecap: square"/>
     </g>
     <g id="line2d_14"/>
     <g id="text_8">
      <text style="font: 10px 'DejaVu Sans', 'Bitstream Vera Sans', 'Computer Modern Sans Serif', 'Lucida Grande', 'Verdana', 'Geneva', 'Lucid', 'Arial', 'Helvetica', 'Avant Garde', sans-serif; text-anchor: end" x="32.65" y="102.643058" transform="rotate(-0 32.65 102.643058)">600</text>
     </g>
    </g>
    <g id="ytick_2">
     <g id="line2d_15">
      <path d="M 36.15 73.335268 
L 393.27 73.335268 
" clip-path="url(#pf5d841235d)" style="fill: none; stroke: #9d9d9c; stroke-width: 0.8; stroke-linecap: square"/>
     </g>
     <g id="line2d_16"/>
     <g id="text_9">
      <text style="font: 10px 'DejaVu Sans', 'Bitstream Vera Sans', 'Computer Modern Sans Serif', 'Lucida Grande', 'Verdana', 'Geneva', 'Lucid', 'Arial', 'Helvetica', 'Avant Garde', sans-serif; text-anchor: end" x="32.65" y="77.134487" transform="rotate(-0 32.65 77.134487)">800</text>
     </g>
    </g>
    <g id="ytick_3">
     <g id="line2d_17">
      <path d="M 36.15 47.826696 
L 393.27 47.826696 
" clip-path="url(#pf5d841235d)" style="fill: none; stroke: #9d9d9c; stroke-width: 0.8; stroke-linecap: square"/>
     </g>
     <g id="line2d_18"/>
     <g id="text_10">
      <text style="font: 10px 'DejaVu Sans', 'Bitstream Vera Sans', 'Computer Modern Sans Serif', 'Lucida Grande', 'Verdana', 'Geneva', 'Lucid', 'Arial', 'Helvetica', 'Avant Garde', sans-serif; text-anchor: end" x="32.65" y="51.625915" transform="rotate(-0 32.65 51.625915)">1000</text>
     </g>
    </g>
    <g id="ytick_4">
     <g id="line2d_19">
      <path d="M 36.15 22.318125 
L 393.27 22.318125 
" clip-path="url(#pf5d841235d)" style="fill: none; stroke: #9d9d9c; stroke-width: 0.8; stroke-linecap: square"/>
     </g>
     <g id="line2d_20"/>
     <g id="text_11">
      <text style="font: 10px 'DejaVu Sans', 'Bitstream Vera Sans', 'Computer Modern Sans Serif', 'Lucida Grande', 'Verdana', 'Geneva', 'Lucid', 'Arial', 'Helvetica', 'Avant Garde', sans-serif; text-anchor: end" x="32.65" y="26.117344" transform="rotate(-0 32.65 26.117344)">1200</text>
     </g>
    </g>
   </g>
   <g id="LineCollection_1">
    <path d="M 97.984303 146.654375 
L 97.984303 41.322011 
" clip-path="url(#pf5d841235d)" style="fill: none; stroke-dasharray: 7.4,3.2; stroke-dashoffset: 0; stroke: #004a80; stroke-width: 2"/>
    <path d="M 159.818606 146.654375 
L 159.818606 44.127954 
" clip-path="url(#pf5d841235d)" style="fill: none; stroke-dasharray: 7.4,3.2; stroke-dashoffset: 0; stroke: #004a80; stroke-width: 2"/>
    <path d="M 221.652909 146.654375 
L 221.652909 47.188982 
" clip-path="url(#pf5d841235d)" style="fill: none; stroke-dasharray: 7.4,3.2; stroke-dashoffset: 0; stroke: #004a80; stroke-width: 2"/>
    <path d="M 283.487212 146.654375 
L 283.487212 44.383039 
" clip-path="url(#pf5d841235d)" style="fill: none; stroke-dasharray: 7.4,3.2; stroke-dashoffset: 0; stroke: #004a80; stroke-width: 2"/>
    <path d="M 345.321515 146.654375 
L 345.321515 41.322011 
" clip-path="url(#pf5d841235d)" style="fill: none; stroke-dasharray: 7.4,3.2; stroke-dashoffset: 0; stroke: #004a80; stroke-width: 2"/>
   </g>
   <g id="patch_2">
    <path d="M 36.15 111.598125 
L 97.984303 111.598125 
L 97.984303 109.684982 
L 36.15 109.684982 
z
" clip-path="url(#pf5d841235d)" style="fill: #004a80"/>
   </g>
   <g id="patch_3">
    <path d="M 97.984303 111.598125 
L 221.652909 111.598125 
L 221.652909 109.684982 
L 97.984303 109.684982 
z
" clip-path="url(#pf5d841235d)" style="fill: #efefef"/>
   </g>
   <g id="patch_4">
    <path d="M 159.818606 111.598125 
L 345.321515 111.598125 
L 345.321515 109.684982 
L 159.818606 109.684982 
z
" clip-path="url(#pf5d841235d)" style="fill: #004a80"/>
   </g>
   <g id="patch_5">
    <path d="M 221.652909 111.598125 
L 468.990121 111.598125 
L 468.990121 109.684982 
L 221.652909 109.684982 
z
" clip-path="url(#pf5d841235d)" style="fill: #efefef"/>
   </g>
   <g id="patch_6">
    <path d="M 283.487212 111.598125 
L 592.658728 111.598125 
L 592.658728 109.684982 
L 283.487212 109.684982 
z
" clip-path="url(#pf5d841235d)" style="fill: #004a80"/>
   </g>
   <g id="patch_7">
    <path d="M 345.321515 111.598125 
L 702.441515 111.598125 
L 702.441515 109.684982 
L 345.321515 109.684982 
z
" clip-path="url(#pf5d841235d)" style="fill: #efefef"/>
   </g>
   <g id="text_12">
    <text style="font: 12px 'DejaVu Sans', 'Bitstream Vera Sans', 'Computer Modern Sans Serif', 'Lucida Grande', 'Verdana', 'Geneva', 'Lucid', 'Arial', 'Helvetica', 'Avant Garde', sans-serif; text-anchor: middle" x="214.71" y="16.318125" transform="rotate(-0 214.71 16.318125)">dorfloipe-steinberg</text>
   </g>
   <g id="line2d_21">
    <path d="M 36.15 48.409749 
L 37.194822 48.548502 
L 39.284465 48.413302 
L 41.792036 47.946597 
L 43.045822 47.787432 
L 45.762358 47.80135 
L 52.031287 47.444552 
L 55.165752 47.403552 
L 57.464359 47.13093 
L 59.136074 46.901966 
L 61.225717 46.897133 
L 62.479503 46.666109 
L 64.151217 46.520995 
L 67.076717 46.661795 
L 70.629111 46.836976 
L 71.464968 46.736408 
L 73.554611 46.415801 
L 75.226325 46.599045 
L 83.166969 43.282206 
L 84.420755 43.608853 
L 86.092469 42.985228 
L 90.898648 41.891357 
L 91.734506 41.702851 
L 93.824149 41.821496 
L 95.077934 41.520944 
L 95.704827 41.392413 
L 96.958613 41.314595 
L 98.003435 41.324224 
L 101.137899 40.880685 
L 103.645471 40.65712 
L 107.406829 40.642165 
L 110.332329 40.548221 
L 112.004043 40.625202 
L 114.302651 39.823638 
L 115.347472 39.514111 
L 117.437115 39.188376 
L 119.944687 39.266 
L 125.586723 38.912953 
L 131.22876 39.257274 
L 132.900474 39.254789 
L 135.199081 39.657686 
L 136.661831 40.149615 
L 138.124582 40.354554 
L 140.00526 40.217421 
L 144.811439 41.764889 
L 146.483154 42.228759 
L 149.826583 41.976812 
L 151.289333 42.693068 
L 152.334154 43.636045 
L 155.05069 44.29489 
L 162.78237 43.984933 
L 165.916834 43.704504 
L 172.812657 43.54622 
L 178.663657 44.67922 
L 180.126407 45.063664 
L 181.171229 45.517776 
L 182.007086 45.398832 
L 187.231194 45.82778 
L 189.529801 45.734554 
L 203.112481 45.208896 
L 207.91866 45.706739 
L 210.635196 46.064928 
L 212.933803 46.204074 
L 214.396554 46.148405 
L 216.277232 46.568386 
L 217.322054 46.950612 
L 221.50134 47.291666 
L 225.262697 47.240931 
L 229.650948 46.67394 
L 232.994377 45.393772 
L 238.00952 45.646546 
L 241.561913 45.804251 
L 244.487414 45.839869 
L 248.6667 45.892494 
L 250.756343 45.50763 
L 254.935629 45.412339 
L 257.861129 45.468104 
L 266.219702 43.780787 
L 267.055559 43.610289 
L 274.996202 43.947673 
L 280.22031 44.450078 
L 283.563739 44.575391 
L 288.578882 42.057041 
L 290.250597 41.082346 
L 292.549204 41.417575 
L 296.310562 40.661274 
L 299.236062 39.952877 
L 300.907776 39.688124 
L 302.161562 39.817388 
L 304.669134 39.429407 
L 306.549813 38.996508 
L 308.221527 39.026239 
L 316.162171 39.110542 
L 320.550421 39.834944 
L 322.4311 39.749133 
L 324.311779 40.381278 
L 325.3566 40.716512 
L 327.655208 41.020616 
L 331.62553 40.945398 
L 335.595851 41.152737 
L 337.47653 41.353619 
L 342.073745 41.311338 
L 344.999245 41.661426 
L 346.67096 42.232235 
L 347.715781 42.394694 
L 349.178531 42.217835 
L 352.312996 43.042925 
L 355.447461 44.500831 
L 355.656425 44.517432 
L 356.283318 44.200735 
L 356.701246 44.397129 
L 357.746068 45.055677 
L 364.432926 46.320258 
L 365.477747 47.12622 
L 366.313604 47.058701 
L 368.821176 46.875161 
L 375.925963 46.802258 
L 379.896284 47.286486 
L 380.941106 47.471002 
L 381.567999 47.412778 
L 385.329356 47.763319 
L 391.389321 48.097177 
L 393.27 48.118223 
L 393.27 48.118223 
" clip-path="url(#pf5d841235d)" style="fill: none; stroke: #0000ff; stroke-width: 3; stroke-linecap: square"/>
   </g>
  </g>
 </g>
 <defs>
  <clipPath id="pf5d841235d">
   <rect x="36.15" y="22.318125" width="357.12" height="89.28"/>
  </clipPath>
 </defs>
</svg>
