<?xml version="1.0" encoding="utf-8" standalone="no"?>
<!DOCTYPE svg PUBLIC "-//W3C//DTD SVG 1.1//EN"
  "http://www.w3.org/Graphics/SVG/1.1/DTD/svg11.dtd">
<svg xmlns:xlink="http://www.w3.org/1999/xlink" width="469.202813pt" height="203.254375pt" viewBox="0 0 469.202813 203.254375" xmlns="http://www.w3.org/2000/svg" version="1.1">
 <metadata>
  <rdf:RDF xmlns:dc="http://purl.org/dc/elements/1.1/" xmlns:cc="http://creativecommons.org/ns#" xmlns:rdf="http://www.w3.org/1999/02/22-rdf-syntax-ns#">
   <cc:Work>
    <dc:type rdf:resource="http://purl.org/dc/dcmitype/StillImage"/>
    <dc:date>2024-08-26T12:12:55.500495</dc:date>
    <dc:format>image/svg+xml</dc:format>
    <dc:creator>
     <cc:Agent>
      <dc:title>Matplotlib v3.9.2, https://matplotlib.org/</dc:title>
     </cc:Agent>
    </dc:creator>
   </cc:Work>
  </rdf:RDF>
 </metadata>
 <defs>
  <style type="text/css">*{stroke-linejoin: round; stroke-linecap: butt}</style>
 </defs>
 <g id="figure_1">
  <g id="patch_1">
   <path d="M 0 203.254375 
L 469.202812 203.254375 
L 469.202812 0 
L 0 0 
z
" style="fill: #ffffff"/>
  </g>
  <g id="axes_1">
   <g id="PolyCollection_1">
    <defs>
     <path id="m075bd6ddd4" d="M 64.95 0.915179 
L 64.95 -122.83419 
L 65.347241 -122.83013 
L 65.744483 -122.826071 
L 66.141724 -122.822011 
L 66.538966 -122.817952 
L 66.936207 -122.813892 
L 67.333448 -122.809833 
L 67.73069 -122.805773 
L 68.127931 -122.801714 
L 68.525172 -122.797654 
L 68.922414 -122.793595 
L 69.319655 -122.789535 
L 69.716897 -122.785476 
L 70.114138 -122.781416 
L 70.511379 -122.777357 
L 70.908621 -122.773297 
L 71.305862 -122.769238 
L 71.703103 -122.765178 
L 72.100345 -122.761119 
L 72.497586 -122.75706 
L 72.894828 -122.753 
L 73.292069 -122.748941 
L 73.68931 -122.747119 
L 74.086552 -122.74797 
L 74.483793 -122.74882 
L 74.881034 -122.74967 
L 75.278276 -122.750521 
L 75.675517 -122.751371 
L 76.072759 -122.752221 
L 76.47 -122.753072 
L 76.867241 -122.753922 
L 77.264483 -122.754772 
L 77.661724 -122.755623 
L 78.058966 -122.756473 
L 78.456207 -122.757323 
L 78.853448 -122.758174 
L 79.25069 -122.759024 
L 79.647931 -122.759874 
L 80.045172 -122.760725 
L 80.442414 -122.761575 
L 80.839655 -122.762425 
L 81.236897 -122.763276 
L 81.634138 -122.764126 
L 82.031379 -122.764976 
L 82.428621 -122.765827 
L 82.825862 -122.766677 
L 83.223103 -122.767527 
L 83.620345 -122.768378 
L 84.017586 -122.774092 
L 84.414828 -122.78149 
L 84.812069 -122.788887 
L 85.20931 -122.796285 
L 85.606552 -122.803682 
L 86.003793 -122.811079 
L 86.401034 -122.818477 
L 86.798276 -122.825874 
L 87.195517 -122.833272 
L 87.592759 -122.840669 
L 87.99 -122.848067 
L 88.387241 -122.855464 
L 88.784483 -122.862861 
L 89.181724 -122.870259 
L 89.578966 -122.877656 
L 89.976207 -122.885054 
L 90.373448 -122.892451 
L 90.77069 -122.900056 
L 91.167931 -122.930941 
L 91.565172 -122.961826 
L 91.962414 -122.992712 
L 92.359655 -123.023597 
L 92.756897 -123.054482 
L 93.154138 -123.085367 
L 93.551379 -123.096753 
L 93.948621 -123.10797 
L 94.345862 -123.119188 
L 94.743103 -123.130405 
L 95.140345 -123.141623 
L 95.537586 -123.152841 
L 95.934828 -123.164058 
L 96.332069 -123.175276 
L 96.72931 -123.186493 
L 97.126552 -123.197711 
L 97.523793 -123.208928 
L 97.921034 -123.215246 
L 98.318276 -123.209945 
L 98.715517 -123.204644 
L 99.112759 -123.199343 
L 99.51 -123.194042 
L 99.907241 -123.188741 
L 100.304483 -123.18344 
L 100.701724 -123.17814 
L 101.098966 -123.172839 
L 101.496207 -123.167538 
L 101.893448 -123.162237 
L 102.29069 -123.173127 
L 102.687931 -123.184265 
L 103.085172 -123.195403 
L 103.482414 -123.206541 
L 103.879655 -123.217679 
L 104.276897 -123.228817 
L 104.674138 -123.239955 
L 105.071379 -123.250584 
L 105.468621 -123.257884 
L 105.865862 -123.265184 
L 106.263103 -123.272484 
L 106.660345 -123.279784 
L 107.057586 -123.287084 
L 107.454828 -123.294384 
L 107.852069 -123.301684 
L 108.24931 -123.308984 
L 108.646552 -123.316284 
L 109.043793 -123.323584 
L 109.441034 -123.330884 
L 109.838276 -123.338185 
L 110.235517 -123.345485 
L 110.632759 -123.352785 
L 111.03 -123.360085 
L 111.427241 -123.367385 
L 111.824483 -123.374093 
L 112.221724 -123.377707 
L 112.618966 -123.381321 
L 113.016207 -123.384935 
L 113.413448 -123.388549 
L 113.81069 -123.392163 
L 114.207931 -123.395777 
L 114.605172 -123.399391 
L 115.002414 -123.403005 
L 115.399655 -123.406619 
L 115.796897 -123.410233 
L 116.194138 -123.413847 
L 116.591379 -123.417461 
L 116.988621 -123.421075 
L 117.385862 -123.424689 
L 117.783103 -123.428303 
L 118.180345 -123.431917 
L 118.577586 -123.435531 
L 118.974828 -123.439145 
L 119.372069 -123.442759 
L 119.76931 -123.446373 
L 120.166552 -123.449987 
L 120.563793 -123.453601 
L 120.961034 -123.457215 
L 121.358276 -123.460829 
L 121.755517 -123.46006 
L 122.152759 -123.459112 
L 122.55 -123.458163 
L 122.947241 -123.457215 
L 123.344483 -123.456266 
L 123.741724 -123.455318 
L 124.138966 -123.454369 
L 124.536207 -123.45342 
L 124.933448 -123.452472 
L 125.33069 -123.451523 
L 125.727931 -123.450575 
L 126.125172 -123.443376 
L 126.522414 -123.428077 
L 126.919655 -123.412778 
L 127.316897 -123.401243 
L 127.714138 -123.392463 
L 128.111379 -123.383684 
L 128.508621 -123.374904 
L 128.905862 -123.366125 
L 129.303103 -123.357345 
L 129.700345 -123.348566 
L 130.097586 -123.341706 
L 130.494828 -123.336611 
L 130.892069 -123.331516 
L 131.28931 -123.32642 
L 131.686552 -123.321325 
L 132.083793 -123.31623 
L 132.481034 -123.311135 
L 132.878276 -123.306039 
L 133.275517 -123.300944 
L 133.672759 -123.318897 
L 134.07 -123.338354 
L 134.467241 -123.357811 
L 134.864483 -123.377268 
L 135.261724 -123.396725 
L 135.658966 -123.401546 
L 136.056207 -123.375277 
L 136.453448 -123.349007 
L 136.85069 -123.322738 
L 137.247931 -123.296468 
L 137.645172 -123.270198 
L 138.042414 -123.243929 
L 138.439655 -123.217659 
L 138.836897 -123.19139 
L 139.234138 -123.16512 
L 139.631379 -123.13885 
L 140.028621 -123.112581 
L 140.425862 -123.086311 
L 140.823103 -123.060041 
L 141.220345 -123.033772 
L 141.617586 -122.977798 
L 142.014828 -122.863769 
L 142.412069 -122.749739 
L 142.80931 -122.63571 
L 143.206552 -122.52168 
L 143.603793 -122.442932 
L 144.001034 -122.407482 
L 144.398276 -122.372032 
L 144.795517 -122.336582 
L 145.192759 -122.301132 
L 145.59 -122.265682 
L 145.987241 -122.230232 
L 146.384483 -122.194782 
L 146.781724 -122.159332 
L 147.178966 -122.123882 
L 147.576207 -122.088432 
L 147.973448 -122.069985 
L 148.37069 -122.083515 
L 148.767931 -122.097044 
L 149.165172 -122.110574 
L 149.562414 -122.124104 
L 149.959655 -122.137633 
L 150.356897 -122.151163 
L 150.754138 -122.164693 
L 151.151379 -122.178222 
L 151.548621 -122.191752 
L 151.945862 -122.205282 
L 152.343103 -122.218811 
L 152.740345 -122.232341 
L 153.137586 -122.24587 
L 153.534828 -122.2594 
L 153.932069 -122.27293 
L 154.32931 -122.286459 
L 154.726552 -122.276915 
L 155.123793 -122.229513 
L 155.521034 -122.182111 
L 155.918276 -122.134709 
L 156.315517 -122.087306 
L 156.712759 -122.039904 
L 157.11 -121.992502 
L 157.507241 -121.9451 
L 157.904483 -121.897698 
L 158.301724 -121.850296 
L 158.698966 -121.802894 
L 159.096207 -121.758959 
L 159.493448 -121.722793 
L 159.89069 -121.686627 
L 160.287931 -121.650461 
L 160.685172 -121.614295 
L 161.082414 -121.578129 
L 161.479655 -121.541964 
L 161.876897 -121.505798 
L 162.274138 -121.469632 
L 162.671379 -121.433466 
L 163.068621 -121.3973 
L 163.465862 -121.361134 
L 163.863103 -121.324969 
L 164.260345 -121.288803 
L 164.657586 -121.252637 
L 165.054828 -121.216471 
L 165.452069 -121.180305 
L 165.84931 -121.144139 
L 166.246552 -121.107973 
L 166.643793 -121.071808 
L 167.041034 -121.035642 
L 167.438276 -120.987092 
L 167.835517 -120.934491 
L 168.232759 -120.881889 
L 168.63 -120.829288 
L 169.027241 -120.776686 
L 169.424483 -120.724084 
L 169.821724 -120.671483 
L 170.218966 -120.618881 
L 170.616207 -120.566279 
L 171.013448 -120.513678 
L 171.41069 -120.509782 
L 171.807931 -120.519819 
L 172.205172 -120.529856 
L 172.602414 -120.539892 
L 172.999655 -120.549929 
L 173.396897 -120.559966 
L 173.794138 -120.570003 
L 174.191379 -120.58004 
L 174.588621 -120.590077 
L 174.985862 -120.600114 
L 175.383103 -120.610151 
L 175.780345 -120.620188 
L 176.177586 -120.630225 
L 176.574828 -120.640261 
L 176.972069 -120.650298 
L 177.36931 -120.660335 
L 177.766552 -120.670372 
L 178.163793 -120.680409 
L 178.561034 -120.690446 
L 178.958276 -120.700483 
L 179.355517 -120.71052 
L 179.752759 -120.720557 
L 180.15 -120.730594 
L 180.547241 -120.694777 
L 180.944483 -120.654106 
L 181.341724 -120.613435 
L 181.738966 -120.572764 
L 182.136207 -120.532093 
L 182.533448 -120.491422 
L 182.93069 -120.450751 
L 183.327931 -120.41008 
L 183.725172 -120.369409 
L 184.122414 -120.315062 
L 184.519655 -120.214294 
L 184.916897 -120.113527 
L 185.314138 -120.01276 
L 185.711379 -119.911992 
L 186.108621 -119.811225 
L 186.505862 -119.755235 
L 186.903103 -119.718935 
L 187.300345 -119.682635 
L 187.697586 -119.646334 
L 188.094828 -119.610034 
L 188.492069 -119.573733 
L 188.88931 -119.537433 
L 189.286552 -119.501133 
L 189.683793 -119.464832 
L 190.081034 -119.428532 
L 190.478276 -119.392232 
L 190.875517 -119.400709 
L 191.272759 -119.416915 
L 191.67 -119.433121 
L 192.067241 -119.449326 
L 192.464483 -119.465532 
L 192.861724 -119.481738 
L 193.258966 -119.497944 
L 193.656207 -119.51415 
L 194.053448 -119.526071 
L 194.45069 -119.490764 
L 194.847931 -119.455457 
L 195.245172 -119.420151 
L 195.642414 -119.384844 
L 196.039655 -119.350806 
L 196.436897 -119.325337 
L 196.834138 -119.299867 
L 197.231379 -119.274398 
L 197.628621 -119.248929 
L 198.025862 -119.223459 
L 198.423103 -119.19799 
L 198.820345 -119.17252 
L 199.217586 -119.147051 
L 199.614828 -119.121582 
L 200.012069 -119.087209 
L 200.40931 -119.03947 
L 200.806552 -118.99173 
L 201.203793 -118.94399 
L 201.601034 -118.938002 
L 201.998276 -118.947003 
L 202.395517 -118.956004 
L 202.792759 -118.965006 
L 203.19 -118.974007 
L 203.587241 -118.983009 
L 203.984483 -118.99201 
L 204.381724 -119.001012 
L 204.778966 -118.999924 
L 205.176207 -118.96587 
L 205.573448 -118.931816 
L 205.97069 -118.897763 
L 206.367931 -118.869129 
L 206.765172 -118.849266 
L 207.162414 -118.829403 
L 207.559655 -118.809539 
L 207.956897 -118.789676 
L 208.354138 -118.769813 
L 208.751379 -118.749949 
L 209.148621 -118.730086 
L 209.545862 -118.710223 
L 209.943103 -118.688907 
L 210.340345 -118.612409 
L 210.737586 -118.562091 
L 211.134828 -118.569845 
L 211.532069 -118.577599 
L 211.92931 -118.585353 
L 212.326552 -118.593107 
L 212.723793 -118.600861 
L 213.121034 -118.608615 
L 213.518276 -118.616369 
L 213.915517 -118.624123 
L 214.312759 -118.616441 
L 214.71 -118.606064 
L 215.107241 -118.595687 
L 215.504483 -118.58531 
L 215.901724 -118.574933 
L 216.298966 -118.564556 
L 216.696207 -118.554179 
L 217.093448 -118.543803 
L 217.49069 -118.533426 
L 217.887931 -118.523049 
L 218.285172 -118.512672 
L 218.682414 -118.502295 
L 219.079655 -118.485888 
L 219.476897 -118.446672 
L 219.874138 -118.407457 
L 220.271379 -118.368242 
L 220.668621 -118.329026 
L 221.065862 -118.29638 
L 221.463103 -118.271144 
L 221.860345 -118.245908 
L 222.257586 -118.220671 
L 222.654828 -118.195435 
L 223.052069 -118.177934 
L 223.44931 -118.181178 
L 223.846552 -118.184421 
L 224.243793 -118.187665 
L 224.641034 -118.190908 
L 225.038276 -118.194152 
L 225.435517 -118.197395 
L 225.832759 -118.200639 
L 226.23 -118.203882 
L 226.627241 -118.207126 
L 227.024483 -118.20985 
L 227.421724 -118.20985 
L 227.818966 -118.20985 
L 228.216207 -118.20985 
L 228.613448 -118.20985 
L 229.01069 -118.20985 
L 229.407931 -118.20985 
L 229.805172 -118.20985 
L 230.202414 -118.20985 
L 230.599655 -118.20985 
L 230.996897 -118.20985 
L 231.394138 -118.20985 
L 231.791379 -118.20985 
L 232.188621 -118.20985 
L 232.585862 -118.20985 
L 232.983103 -118.20985 
L 233.380345 -118.20985 
L 233.777586 -118.20985 
L 234.174828 -118.20985 
L 234.572069 -118.20985 
L 234.96931 -118.20985 
L 235.366552 -118.20985 
L 235.763793 -118.20985 
L 236.161034 -118.20985 
L 236.558276 -118.20985 
L 236.955517 -118.20985 
L 237.352759 -118.20985 
L 237.75 -118.20985 
L 238.147241 -118.208851 
L 238.544483 -118.203432 
L 238.941724 -118.198012 
L 239.338966 -118.192592 
L 239.736207 -118.187173 
L 240.133448 -118.181753 
L 240.53069 -118.176334 
L 240.927931 -118.170914 
L 241.325172 -118.165495 
L 241.722414 -118.160075 
L 242.119655 -118.154656 
L 242.516897 -118.149236 
L 242.914138 -118.143817 
L 243.311379 -118.138397 
L 243.708621 -118.132977 
L 244.105862 -118.127558 
L 244.503103 -118.122138 
L 244.900345 -118.116719 
L 245.297586 -118.112093 
L 245.694828 -118.133464 
L 246.092069 -118.154835 
L 246.48931 -118.176207 
L 246.886552 -118.197578 
L 247.283793 -118.21895 
L 247.681034 -118.240321 
L 248.078276 -118.261692 
L 248.475517 -118.283064 
L 248.872759 -118.304435 
L 249.27 -118.325806 
L 249.667241 -118.347178 
L 250.064483 -118.368549 
L 250.461724 -118.389921 
L 250.858966 -118.411292 
L 251.256207 -118.432663 
L 251.653448 -118.454035 
L 252.05069 -118.475406 
L 252.447931 -118.496777 
L 252.845172 -118.570049 
L 253.242414 -118.675908 
L 253.639655 -118.781767 
L 254.036897 -118.887626 
L 254.434138 -118.993485 
L 254.831379 -119.088208 
L 255.228621 -119.162013 
L 255.625862 -119.235819 
L 256.023103 -119.309624 
L 256.420345 -119.383429 
L 256.817586 -119.45587 
L 257.214828 -119.438839 
L 257.612069 -119.421808 
L 258.00931 -119.404778 
L 258.406552 -119.387747 
L 258.803793 -119.370716 
L 259.201034 -119.353685 
L 259.598276 -119.336654 
L 259.995517 -119.319623 
L 260.392759 -119.302593 
L 260.79 -119.285562 
L 261.187241 -119.303769 
L 261.584483 -119.334071 
L 261.981724 -119.364373 
L 262.378966 -119.394675 
L 262.776207 -119.424977 
L 263.173448 -119.45528 
L 263.57069 -119.485582 
L 263.967931 -119.515884 
L 264.365172 -119.546186 
L 264.762414 -119.576488 
L 265.159655 -119.632599 
L 265.556897 -119.703053 
L 265.954138 -119.773507 
L 266.351379 -119.843961 
L 266.748621 -119.914415 
L 267.145862 -119.984869 
L 267.543103 -120.033506 
L 267.940345 -120.059231 
L 268.337586 -120.084956 
L 268.734828 -120.110681 
L 269.132069 -120.136406 
L 269.52931 -120.162131 
L 269.926552 -120.187856 
L 270.323793 -120.213581 
L 270.721034 -120.239306 
L 271.118276 -120.265031 
L 271.515517 -120.290755 
L 271.912759 -120.31648 
L 272.31 -120.246277 
L 272.707241 -120.245148 
L 273.104483 -120.250977 
L 273.501724 -120.256805 
L 273.898966 -120.262633 
L 274.296207 -120.268461 
L 274.693448 -120.27429 
L 275.09069 -120.280118 
L 275.487931 -120.289307 
L 275.885172 -120.302628 
L 276.282414 -120.31595 
L 276.679655 -120.329271 
L 277.076897 -120.342592 
L 277.474138 -120.351405 
L 277.871379 -120.359078 
L 278.268621 -120.366751 
L 278.665862 -120.374423 
L 279.063103 -120.382096 
L 279.460345 -120.389659 
L 279.857586 -120.396227 
L 280.254828 -120.402795 
L 280.652069 -120.409363 
L 281.04931 -120.415931 
L 281.446552 -120.422499 
L 281.843793 -120.429067 
L 282.241034 -120.417081 
L 282.638276 -120.381558 
L 283.035517 -120.346035 
L 283.432759 -120.310511 
L 283.83 -120.274988 
L 284.227241 -120.239465 
L 284.624483 -120.206982 
L 285.021724 -120.182097 
L 285.418966 -120.157211 
L 285.816207 -120.132325 
L 286.213448 -120.10744 
L 286.61069 -120.082554 
L 287.007931 -120.057668 
L 287.405172 -120.032783 
L 287.802414 -120.007897 
L 288.199655 -119.983011 
L 288.596897 -119.958126 
L 288.994138 -119.93324 
L 289.391379 -119.908354 
L 289.788621 -119.719708 
L 290.185862 -119.685703 
L 290.583103 -119.696498 
L 290.980345 -119.709169 
L 291.377586 -119.72184 
L 291.774828 -119.73451 
L 292.172069 -119.747181 
L 292.56931 -119.759852 
L 292.966552 -119.772523 
L 293.363793 -119.785193 
L 293.761034 -119.797864 
L 294.158276 -119.810535 
L 294.555517 -119.823206 
L 294.952759 -119.835877 
L 295.35 -119.848547 
L 295.747241 -119.861218 
L 296.144483 -119.873889 
L 296.541724 -119.88656 
L 296.938966 -119.899231 
L 297.336207 -119.941815 
L 297.733448 -120.004667 
L 298.13069 -120.067519 
L 298.527931 -120.130371 
L 298.925172 -120.193222 
L 299.322414 -120.235563 
L 299.719655 -120.267706 
L 300.116897 -120.299849 
L 300.514138 -120.331992 
L 300.911379 -120.364135 
L 301.308621 -120.396277 
L 301.705862 -120.42842 
L 302.103103 -120.430561 
L 302.500345 -120.428043 
L 302.897586 -120.425526 
L 303.294828 -120.423008 
L 303.692069 -120.420491 
L 304.08931 -120.417974 
L 304.486552 -120.415456 
L 304.883793 -120.412939 
L 305.281034 -120.407631 
L 305.678276 -120.389645 
L 306.075517 -120.371658 
L 306.472759 -120.353672 
L 306.87 -120.335685 
L 307.267241 -120.317699 
L 307.664483 -120.299712 
L 308.061724 -120.281725 
L 308.458966 -120.255461 
L 308.856207 -120.22814 
L 309.253448 -120.200818 
L 309.65069 -120.173497 
L 310.047931 -120.146175 
L 310.445172 -120.118854 
L 310.842414 -120.092894 
L 311.239655 -120.081687 
L 311.636897 -120.070481 
L 312.034138 -120.059275 
L 312.431379 -120.048068 
L 312.828621 -120.036862 
L 313.225862 -120.025656 
L 313.623103 -120.014449 
L 314.020345 -120.003243 
L 314.417586 -119.992037 
L 314.814828 -119.98083 
L 315.212069 -119.969624 
L 315.60931 -119.958351 
L 316.006552 -119.94697 
L 316.403793 -119.935588 
L 316.801034 -119.924206 
L 317.198276 -119.912824 
L 317.595517 -119.901442 
L 317.992759 -119.890061 
L 318.39 -119.878679 
L 318.787241 -119.867297 
L 319.184483 -119.855915 
L 319.581724 -119.874797 
L 319.978966 -119.902569 
L 320.376207 -119.930341 
L 320.773448 -119.958113 
L 321.17069 -119.985886 
L 321.567931 -120.013658 
L 321.965172 -120.04143 
L 322.362414 -120.069202 
L 322.759655 -120.096974 
L 323.156897 -120.124747 
L 323.554138 -120.152519 
L 323.951379 -120.180291 
L 324.348621 -120.208063 
L 324.745862 -120.235836 
L 325.143103 -120.263608 
L 325.540345 -120.29138 
L 325.937586 -120.319152 
L 326.334828 -120.346924 
L 326.732069 -120.374697 
L 327.12931 -120.402469 
L 327.526552 -120.44092 
L 327.923793 -120.503856 
L 328.321034 -120.566793 
L 328.718276 -120.62973 
L 329.115517 -120.692666 
L 329.512759 -120.755603 
L 329.91 -120.81854 
L 330.307241 -120.881476 
L 330.704483 -120.944413 
L 331.101724 -121.00735 
L 331.498966 -121.070286 
L 331.896207 -121.133223 
L 332.293448 -121.19616 
L 332.69069 -121.245842 
L 333.087931 -121.282667 
L 333.485172 -121.319492 
L 333.882414 -121.356317 
L 334.279655 -121.393142 
L 334.676897 -121.429967 
L 335.074138 -121.466792 
L 335.471379 -121.503617 
L 335.868621 -121.540442 
L 336.265862 -121.577267 
L 336.663103 -121.614092 
L 337.060345 -121.650917 
L 337.457586 -121.687742 
L 337.854828 -121.724566 
L 338.252069 -121.761391 
L 338.64931 -121.793924 
L 339.046552 -121.769725 
L 339.443793 -121.745525 
L 339.841034 -121.721326 
L 340.238276 -121.697126 
L 340.635517 -121.672927 
L 341.032759 -121.648727 
L 341.43 -121.624528 
L 341.827241 -121.600328 
L 342.224483 -121.576129 
L 342.621724 -121.551929 
L 343.018966 -121.539614 
L 343.416207 -121.56749 
L 343.813448 -121.595365 
L 344.21069 -121.62324 
L 344.607931 -121.651115 
L 345.005172 -121.67899 
L 345.402414 -121.706866 
L 345.799655 -121.734741 
L 346.196897 -121.762616 
L 346.594138 -121.790491 
L 346.991379 -121.818366 
L 347.388621 -121.846242 
L 347.785862 -121.874117 
L 348.183103 -121.901992 
L 348.580345 -121.929867 
L 348.977586 -121.957742 
L 349.374828 -121.985618 
L 349.772069 -122.013493 
L 350.16931 -122.090142 
L 350.566552 -122.168191 
L 350.963793 -122.246241 
L 351.361034 -122.324291 
L 351.758276 -122.40234 
L 352.155517 -122.48039 
L 352.552759 -122.55844 
L 352.95 -122.636489 
L 353.347241 -122.708193 
L 353.744483 -122.759931 
L 354.141724 -122.811669 
L 354.538966 -122.863407 
L 354.936207 -122.915145 
L 355.333448 -122.966883 
L 355.73069 -123.018621 
L 356.127931 -123.070359 
L 356.525172 -123.122097 
L 356.922414 -123.173835 
L 357.319655 -123.154848 
L 357.716897 -123.131663 
L 358.114138 -123.108479 
L 358.511379 -123.085294 
L 358.908621 -123.06211 
L 359.305862 -123.038926 
L 359.703103 -123.015741 
L 360.100345 -123.062717 
L 360.497586 -123.120088 
L 360.894828 -123.177459 
L 361.292069 -123.206558 
L 361.68931 -123.229538 
L 362.086552 -123.252519 
L 362.483793 -123.2755 
L 362.881034 -123.29848 
L 363.278276 -123.321461 
L 363.675517 -123.344442 
L 364.072759 -123.367422 
L 364.47 -123.390403 
L 364.867241 -123.413384 
L 365.264483 -123.439888 
L 365.661724 -123.552719 
L 366.058966 -123.608301 
L 366.456207 -123.604051 
L 366.853448 -123.599801 
L 367.25069 -123.595551 
L 367.647931 -123.591301 
L 368.045172 -123.587052 
L 368.442414 -123.582802 
L 368.839655 -123.578552 
L 369.236897 -123.574302 
L 369.634138 -123.570052 
L 370.031379 -123.56665 
L 370.428621 -123.56665 
L 370.825862 -123.56665 
L 371.223103 -123.56665 
L 371.620345 -123.56665 
L 372.017586 -123.56665 
L 372.414828 -123.56665 
L 372.812069 -123.56665 
L 373.20931 -123.56665 
L 373.606552 -123.56665 
L 374.003793 -123.56665 
L 374.401034 -123.56665 
L 374.798276 -123.56665 
L 375.195517 -123.56665 
L 375.592759 -123.56665 
L 375.99 -123.56665 
L 376.387241 -123.56665 
L 376.784483 -123.56665 
L 377.181724 -123.56665 
L 377.578966 -123.56665 
L 377.976207 -123.56665 
L 378.373448 -123.56665 
L 378.77069 -123.56665 
L 379.167931 -123.56665 
L 379.565172 -123.56665 
L 379.962414 -123.56665 
L 380.359655 -123.56665 
L 380.756897 -123.56665 
L 381.154138 -123.56665 
L 381.551379 -123.56665 
L 381.948621 -123.568329 
L 382.345862 -123.572412 
L 382.743103 -123.576495 
L 383.140345 -123.580577 
L 383.537586 -123.58466 
L 383.934828 -123.588743 
L 384.332069 -123.592826 
L 384.72931 -123.596909 
L 385.126552 -123.595095 
L 385.523793 -123.583597 
L 385.921034 -123.572098 
L 386.318276 -123.560599 
L 386.715517 -123.5491 
L 387.112759 -123.537601 
L 387.51 -123.526102 
L 387.907241 -123.514603 
L 388.304483 -123.503104 
L 388.701724 -123.491605 
L 389.098966 -123.480106 
L 389.496207 -123.468607 
L 389.893448 -123.452387 
L 390.29069 -123.43602 
L 390.687931 -123.419652 
L 391.085172 -123.403285 
L 391.482414 -123.386918 
L 391.879655 -123.37055 
L 392.276897 -123.354183 
L 392.674138 -123.337816 
L 393.071379 -123.321448 
L 393.468621 -123.305081 
L 393.865862 -123.288714 
L 394.263103 -123.267696 
L 394.660345 -123.243766 
L 395.057586 -123.219836 
L 395.454828 -123.195907 
L 395.852069 -123.171977 
L 396.24931 -123.151965 
L 396.646552 -123.157544 
L 397.043793 -123.163122 
L 397.441034 -123.168701 
L 397.838276 -123.17428 
L 398.235517 -123.179858 
L 398.632759 -123.185437 
L 399.03 -123.191015 
L 399.427241 -123.196594 
L 399.824483 -123.202172 
L 400.221724 -123.202044 
L 400.618966 -123.190549 
L 401.016207 -123.179055 
L 401.413448 -123.16756 
L 401.81069 -123.156066 
L 402.207931 -123.144572 
L 402.605172 -123.133077 
L 403.002414 -123.121583 
L 403.399655 -123.115814 
L 403.796897 -123.112212 
L 404.194138 -123.108609 
L 404.591379 -123.105007 
L 404.988621 -123.101404 
L 405.385862 -123.097802 
L 405.783103 -123.0942 
L 406.180345 -123.090597 
L 406.577586 -123.086995 
L 406.974828 -123.083392 
L 407.372069 -123.07979 
L 407.76931 -123.076187 
L 408.166552 -123.072585 
L 408.563793 -123.068982 
L 408.961034 -123.06538 
L 409.358276 -123.061778 
L 409.755517 -123.058175 
L 410.152759 -123.054573 
L 410.55 -123.05097 
L 410.947241 -123.047368 
L 411.344483 -123.043765 
L 411.741724 -123.040163 
L 412.138966 -123.03656 
L 412.536207 -123.032958 
L 412.933448 -123.029355 
L 413.33069 -123.025753 
L 413.727931 -123.021079 
L 414.125172 -123.014956 
L 414.522414 -123.008833 
L 414.919655 -123.00271 
L 415.316897 -122.996587 
L 415.714138 -122.990464 
L 416.111379 -122.984341 
L 416.508621 -122.978218 
L 416.905862 -122.972095 
L 417.303103 -122.965972 
L 417.700345 -122.959849 
L 418.097586 -122.953726 
L 418.494828 -122.947602 
L 418.892069 -122.941479 
L 419.28931 -122.935356 
L 419.686552 -122.929233 
L 420.083793 -122.92311 
L 420.481034 -122.916987 
L 420.878276 -122.910864 
L 421.275517 -122.904741 
L 421.672759 -122.898618 
L 422.07 -122.892495 
L 422.07 0.915179 
L 422.07 0.915179 
L 421.672759 0.915179 
L 421.275517 0.915179 
L 420.878276 0.915179 
L 420.481034 0.915179 
L 420.083793 0.915179 
L 419.686552 0.915179 
L 419.28931 0.915179 
L 418.892069 0.915179 
L 418.494828 0.915179 
L 418.097586 0.915179 
L 417.700345 0.915179 
L 417.303103 0.915179 
L 416.905862 0.915179 
L 416.508621 0.915179 
L 416.111379 0.915179 
L 415.714138 0.915179 
L 415.316897 0.915179 
L 414.919655 0.915179 
L 414.522414 0.915179 
L 414.125172 0.915179 
L 413.727931 0.915179 
L 413.33069 0.915179 
L 412.933448 0.915179 
L 412.536207 0.915179 
L 412.138966 0.915179 
L 411.741724 0.915179 
L 411.344483 0.915179 
L 410.947241 0.915179 
L 410.55 0.915179 
L 410.152759 0.915179 
L 409.755517 0.915179 
L 409.358276 0.915179 
L 408.961034 0.915179 
L 408.563793 0.915179 
L 408.166552 0.915179 
L 407.76931 0.915179 
L 407.372069 0.915179 
L 406.974828 0.915179 
L 406.577586 0.915179 
L 406.180345 0.915179 
L 405.783103 0.915179 
L 405.385862 0.915179 
L 404.988621 0.915179 
L 404.591379 0.915179 
L 404.194138 0.915179 
L 403.796897 0.915179 
L 403.399655 0.915179 
L 403.002414 0.915179 
L 402.605172 0.915179 
L 402.207931 0.915179 
L 401.81069 0.915179 
L 401.413448 0.915179 
L 401.016207 0.915179 
L 400.618966 0.915179 
L 400.221724 0.915179 
L 399.824483 0.915179 
L 399.427241 0.915179 
L 399.03 0.915179 
L 398.632759 0.915179 
L 398.235517 0.915179 
L 397.838276 0.915179 
L 397.441034 0.915179 
L 397.043793 0.915179 
L 396.646552 0.915179 
L 396.24931 0.915179 
L 395.852069 0.915179 
L 395.454828 0.915179 
L 395.057586 0.915179 
L 394.660345 0.915179 
L 394.263103 0.915179 
L 393.865862 0.915179 
L 393.468621 0.915179 
L 393.071379 0.915179 
L 392.674138 0.915179 
L 392.276897 0.915179 
L 391.879655 0.915179 
L 391.482414 0.915179 
L 391.085172 0.915179 
L 390.687931 0.915179 
L 390.29069 0.915179 
L 389.893448 0.915179 
L 389.496207 0.915179 
L 389.098966 0.915179 
L 388.701724 0.915179 
L 388.304483 0.915179 
L 387.907241 0.915179 
L 387.51 0.915179 
L 387.112759 0.915179 
L 386.715517 0.915179 
L 386.318276 0.915179 
L 385.921034 0.915179 
L 385.523793 0.915179 
L 385.126552 0.915179 
L 384.72931 0.915179 
L 384.332069 0.915179 
L 383.934828 0.915179 
L 383.537586 0.915179 
L 383.140345 0.915179 
L 382.743103 0.915179 
L 382.345862 0.915179 
L 381.948621 0.915179 
L 381.551379 0.915179 
L 381.154138 0.915179 
L 380.756897 0.915179 
L 380.359655 0.915179 
L 379.962414 0.915179 
L 379.565172 0.915179 
L 379.167931 0.915179 
L 378.77069 0.915179 
L 378.373448 0.915179 
L 377.976207 0.915179 
L 377.578966 0.915179 
L 377.181724 0.915179 
L 376.784483 0.915179 
L 376.387241 0.915179 
L 375.99 0.915179 
L 375.592759 0.915179 
L 375.195517 0.915179 
L 374.798276 0.915179 
L 374.401034 0.915179 
L 374.003793 0.915179 
L 373.606552 0.915179 
L 373.20931 0.915179 
L 372.812069 0.915179 
L 372.414828 0.915179 
L 372.017586 0.915179 
L 371.620345 0.915179 
L 371.223103 0.915179 
L 370.825862 0.915179 
L 370.428621 0.915179 
L 370.031379 0.915179 
L 369.634138 0.915179 
L 369.236897 0.915179 
L 368.839655 0.915179 
L 368.442414 0.915179 
L 368.045172 0.915179 
L 367.647931 0.915179 
L 367.25069 0.915179 
L 366.853448 0.915179 
L 366.456207 0.915179 
L 366.058966 0.915179 
L 365.661724 0.915179 
L 365.264483 0.915179 
L 364.867241 0.915179 
L 364.47 0.915179 
L 364.072759 0.915179 
L 363.675517 0.915179 
L 363.278276 0.915179 
L 362.881034 0.915179 
L 362.483793 0.915179 
L 362.086552 0.915179 
L 361.68931 0.915179 
L 361.292069 0.915179 
L 360.894828 0.915179 
L 360.497586 0.915179 
L 360.100345 0.915179 
L 359.703103 0.915179 
L 359.305862 0.915179 
L 358.908621 0.915179 
L 358.511379 0.915179 
L 358.114138 0.915179 
L 357.716897 0.915179 
L 357.319655 0.915179 
L 356.922414 0.915179 
L 356.525172 0.915179 
L 356.127931 0.915179 
L 355.73069 0.915179 
L 355.333448 0.915179 
L 354.936207 0.915179 
L 354.538966 0.915179 
L 354.141724 0.915179 
L 353.744483 0.915179 
L 353.347241 0.915179 
L 352.95 0.915179 
L 352.552759 0.915179 
L 352.155517 0.915179 
L 351.758276 0.915179 
L 351.361034 0.915179 
L 350.963793 0.915179 
L 350.566552 0.915179 
L 350.16931 0.915179 
L 349.772069 0.915179 
L 349.374828 0.915179 
L 348.977586 0.915179 
L 348.580345 0.915179 
L 348.183103 0.915179 
L 347.785862 0.915179 
L 347.388621 0.915179 
L 346.991379 0.915179 
L 346.594138 0.915179 
L 346.196897 0.915179 
L 345.799655 0.915179 
L 345.402414 0.915179 
L 345.005172 0.915179 
L 344.607931 0.915179 
L 344.21069 0.915179 
L 343.813448 0.915179 
L 343.416207 0.915179 
L 343.018966 0.915179 
L 342.621724 0.915179 
L 342.224483 0.915179 
L 341.827241 0.915179 
L 341.43 0.915179 
L 341.032759 0.915179 
L 340.635517 0.915179 
L 340.238276 0.915179 
L 339.841034 0.915179 
L 339.443793 0.915179 
L 339.046552 0.915179 
L 338.64931 0.915179 
L 338.252069 0.915179 
L 337.854828 0.915179 
L 337.457586 0.915179 
L 337.060345 0.915179 
L 336.663103 0.915179 
L 336.265862 0.915179 
L 335.868621 0.915179 
L 335.471379 0.915179 
L 335.074138 0.915179 
L 334.676897 0.915179 
L 334.279655 0.915179 
L 333.882414 0.915179 
L 333.485172 0.915179 
L 333.087931 0.915179 
L 332.69069 0.915179 
L 332.293448 0.915179 
L 331.896207 0.915179 
L 331.498966 0.915179 
L 331.101724 0.915179 
L 330.704483 0.915179 
L 330.307241 0.915179 
L 329.91 0.915179 
L 329.512759 0.915179 
L 329.115517 0.915179 
L 328.718276 0.915179 
L 328.321034 0.915179 
L 327.923793 0.915179 
L 327.526552 0.915179 
L 327.12931 0.915179 
L 326.732069 0.915179 
L 326.334828 0.915179 
L 325.937586 0.915179 
L 325.540345 0.915179 
L 325.143103 0.915179 
L 324.745862 0.915179 
L 324.348621 0.915179 
L 323.951379 0.915179 
L 323.554138 0.915179 
L 323.156897 0.915179 
L 322.759655 0.915179 
L 322.362414 0.915179 
L 321.965172 0.915179 
L 321.567931 0.915179 
L 321.17069 0.915179 
L 320.773448 0.915179 
L 320.376207 0.915179 
L 319.978966 0.915179 
L 319.581724 0.915179 
L 319.184483 0.915179 
L 318.787241 0.915179 
L 318.39 0.915179 
L 317.992759 0.915179 
L 317.595517 0.915179 
L 317.198276 0.915179 
L 316.801034 0.915179 
L 316.403793 0.915179 
L 316.006552 0.915179 
L 315.60931 0.915179 
L 315.212069 0.915179 
L 314.814828 0.915179 
L 314.417586 0.915179 
L 314.020345 0.915179 
L 313.623103 0.915179 
L 313.225862 0.915179 
L 312.828621 0.915179 
L 312.431379 0.915179 
L 312.034138 0.915179 
L 311.636897 0.915179 
L 311.239655 0.915179 
L 310.842414 0.915179 
L 310.445172 0.915179 
L 310.047931 0.915179 
L 309.65069 0.915179 
L 309.253448 0.915179 
L 308.856207 0.915179 
L 308.458966 0.915179 
L 308.061724 0.915179 
L 307.664483 0.915179 
L 307.267241 0.915179 
L 306.87 0.915179 
L 306.472759 0.915179 
L 306.075517 0.915179 
L 305.678276 0.915179 
L 305.281034 0.915179 
L 304.883793 0.915179 
L 304.486552 0.915179 
L 304.08931 0.915179 
L 303.692069 0.915179 
L 303.294828 0.915179 
L 302.897586 0.915179 
L 302.500345 0.915179 
L 302.103103 0.915179 
L 301.705862 0.915179 
L 301.308621 0.915179 
L 300.911379 0.915179 
L 300.514138 0.915179 
L 300.116897 0.915179 
L 299.719655 0.915179 
L 299.322414 0.915179 
L 298.925172 0.915179 
L 298.527931 0.915179 
L 298.13069 0.915179 
L 297.733448 0.915179 
L 297.336207 0.915179 
L 296.938966 0.915179 
L 296.541724 0.915179 
L 296.144483 0.915179 
L 295.747241 0.915179 
L 295.35 0.915179 
L 294.952759 0.915179 
L 294.555517 0.915179 
L 294.158276 0.915179 
L 293.761034 0.915179 
L 293.363793 0.915179 
L 292.966552 0.915179 
L 292.56931 0.915179 
L 292.172069 0.915179 
L 291.774828 0.915179 
L 291.377586 0.915179 
L 290.980345 0.915179 
L 290.583103 0.915179 
L 290.185862 0.915179 
L 289.788621 0.915179 
L 289.391379 0.915179 
L 288.994138 0.915179 
L 288.596897 0.915179 
L 288.199655 0.915179 
L 287.802414 0.915179 
L 287.405172 0.915179 
L 287.007931 0.915179 
L 286.61069 0.915179 
L 286.213448 0.915179 
L 285.816207 0.915179 
L 285.418966 0.915179 
L 285.021724 0.915179 
L 284.624483 0.915179 
L 284.227241 0.915179 
L 283.83 0.915179 
L 283.432759 0.915179 
L 283.035517 0.915179 
L 282.638276 0.915179 
L 282.241034 0.915179 
L 281.843793 0.915179 
L 281.446552 0.915179 
L 281.04931 0.915179 
L 280.652069 0.915179 
L 280.254828 0.915179 
L 279.857586 0.915179 
L 279.460345 0.915179 
L 279.063103 0.915179 
L 278.665862 0.915179 
L 278.268621 0.915179 
L 277.871379 0.915179 
L 277.474138 0.915179 
L 277.076897 0.915179 
L 276.679655 0.915179 
L 276.282414 0.915179 
L 275.885172 0.915179 
L 275.487931 0.915179 
L 275.09069 0.915179 
L 274.693448 0.915179 
L 274.296207 0.915179 
L 273.898966 0.915179 
L 273.501724 0.915179 
L 273.104483 0.915179 
L 272.707241 0.915179 
L 272.31 0.915179 
L 271.912759 0.915179 
L 271.515517 0.915179 
L 271.118276 0.915179 
L 270.721034 0.915179 
L 270.323793 0.915179 
L 269.926552 0.915179 
L 269.52931 0.915179 
L 269.132069 0.915179 
L 268.734828 0.915179 
L 268.337586 0.915179 
L 267.940345 0.915179 
L 267.543103 0.915179 
L 267.145862 0.915179 
L 266.748621 0.915179 
L 266.351379 0.915179 
L 265.954138 0.915179 
L 265.556897 0.915179 
L 265.159655 0.915179 
L 264.762414 0.915179 
L 264.365172 0.915179 
L 263.967931 0.915179 
L 263.57069 0.915179 
L 263.173448 0.915179 
L 262.776207 0.915179 
L 262.378966 0.915179 
L 261.981724 0.915179 
L 261.584483 0.915179 
L 261.187241 0.915179 
L 260.79 0.915179 
L 260.392759 0.915179 
L 259.995517 0.915179 
L 259.598276 0.915179 
L 259.201034 0.915179 
L 258.803793 0.915179 
L 258.406552 0.915179 
L 258.00931 0.915179 
L 257.612069 0.915179 
L 257.214828 0.915179 
L 256.817586 0.915179 
L 256.420345 0.915179 
L 256.023103 0.915179 
L 255.625862 0.915179 
L 255.228621 0.915179 
L 254.831379 0.915179 
L 254.434138 0.915179 
L 254.036897 0.915179 
L 253.639655 0.915179 
L 253.242414 0.915179 
L 252.845172 0.915179 
L 252.447931 0.915179 
L 252.05069 0.915179 
L 251.653448 0.915179 
L 251.256207 0.915179 
L 250.858966 0.915179 
L 250.461724 0.915179 
L 250.064483 0.915179 
L 249.667241 0.915179 
L 249.27 0.915179 
L 248.872759 0.915179 
L 248.475517 0.915179 
L 248.078276 0.915179 
L 247.681034 0.915179 
L 247.283793 0.915179 
L 246.886552 0.915179 
L 246.48931 0.915179 
L 246.092069 0.915179 
L 245.694828 0.915179 
L 245.297586 0.915179 
L 244.900345 0.915179 
L 244.503103 0.915179 
L 244.105862 0.915179 
L 243.708621 0.915179 
L 243.311379 0.915179 
L 242.914138 0.915179 
L 242.516897 0.915179 
L 242.119655 0.915179 
L 241.722414 0.915179 
L 241.325172 0.915179 
L 240.927931 0.915179 
L 240.53069 0.915179 
L 240.133448 0.915179 
L 239.736207 0.915179 
L 239.338966 0.915179 
L 238.941724 0.915179 
L 238.544483 0.915179 
L 238.147241 0.915179 
L 237.75 0.915179 
L 237.352759 0.915179 
L 236.955517 0.915179 
L 236.558276 0.915179 
L 236.161034 0.915179 
L 235.763793 0.915179 
L 235.366552 0.915179 
L 234.96931 0.915179 
L 234.572069 0.915179 
L 234.174828 0.915179 
L 233.777586 0.915179 
L 233.380345 0.915179 
L 232.983103 0.915179 
L 232.585862 0.915179 
L 232.188621 0.915179 
L 231.791379 0.915179 
L 231.394138 0.915179 
L 230.996897 0.915179 
L 230.599655 0.915179 
L 230.202414 0.915179 
L 229.805172 0.915179 
L 229.407931 0.915179 
L 229.01069 0.915179 
L 228.613448 0.915179 
L 228.216207 0.915179 
L 227.818966 0.915179 
L 227.421724 0.915179 
L 227.024483 0.915179 
L 226.627241 0.915179 
L 226.23 0.915179 
L 225.832759 0.915179 
L 225.435517 0.915179 
L 225.038276 0.915179 
L 224.641034 0.915179 
L 224.243793 0.915179 
L 223.846552 0.915179 
L 223.44931 0.915179 
L 223.052069 0.915179 
L 222.654828 0.915179 
L 222.257586 0.915179 
L 221.860345 0.915179 
L 221.463103 0.915179 
L 221.065862 0.915179 
L 220.668621 0.915179 
L 220.271379 0.915179 
L 219.874138 0.915179 
L 219.476897 0.915179 
L 219.079655 0.915179 
L 218.682414 0.915179 
L 218.285172 0.915179 
L 217.887931 0.915179 
L 217.49069 0.915179 
L 217.093448 0.915179 
L 216.696207 0.915179 
L 216.298966 0.915179 
L 215.901724 0.915179 
L 215.504483 0.915179 
L 215.107241 0.915179 
L 214.71 0.915179 
L 214.312759 0.915179 
L 213.915517 0.915179 
L 213.518276 0.915179 
L 213.121034 0.915179 
L 212.723793 0.915179 
L 212.326552 0.915179 
L 211.92931 0.915179 
L 211.532069 0.915179 
L 211.134828 0.915179 
L 210.737586 0.915179 
L 210.340345 0.915179 
L 209.943103 0.915179 
L 209.545862 0.915179 
L 209.148621 0.915179 
L 208.751379 0.915179 
L 208.354138 0.915179 
L 207.956897 0.915179 
L 207.559655 0.915179 
L 207.162414 0.915179 
L 206.765172 0.915179 
L 206.367931 0.915179 
L 205.97069 0.915179 
L 205.573448 0.915179 
L 205.176207 0.915179 
L 204.778966 0.915179 
L 204.381724 0.915179 
L 203.984483 0.915179 
L 203.587241 0.915179 
L 203.19 0.915179 
L 202.792759 0.915179 
L 202.395517 0.915179 
L 201.998276 0.915179 
L 201.601034 0.915179 
L 201.203793 0.915179 
L 200.806552 0.915179 
L 200.40931 0.915179 
L 200.012069 0.915179 
L 199.614828 0.915179 
L 199.217586 0.915179 
L 198.820345 0.915179 
L 198.423103 0.915179 
L 198.025862 0.915179 
L 197.628621 0.915179 
L 197.231379 0.915179 
L 196.834138 0.915179 
L 196.436897 0.915179 
L 196.039655 0.915179 
L 195.642414 0.915179 
L 195.245172 0.915179 
L 194.847931 0.915179 
L 194.45069 0.915179 
L 194.053448 0.915179 
L 193.656207 0.915179 
L 193.258966 0.915179 
L 192.861724 0.915179 
L 192.464483 0.915179 
L 192.067241 0.915179 
L 191.67 0.915179 
L 191.272759 0.915179 
L 190.875517 0.915179 
L 190.478276 0.915179 
L 190.081034 0.915179 
L 189.683793 0.915179 
L 189.286552 0.915179 
L 188.88931 0.915179 
L 188.492069 0.915179 
L 188.094828 0.915179 
L 187.697586 0.915179 
L 187.300345 0.915179 
L 186.903103 0.915179 
L 186.505862 0.915179 
L 186.108621 0.915179 
L 185.711379 0.915179 
L 185.314138 0.915179 
L 184.916897 0.915179 
L 184.519655 0.915179 
L 184.122414 0.915179 
L 183.725172 0.915179 
L 183.327931 0.915179 
L 182.93069 0.915179 
L 182.533448 0.915179 
L 182.136207 0.915179 
L 181.738966 0.915179 
L 181.341724 0.915179 
L 180.944483 0.915179 
L 180.547241 0.915179 
L 180.15 0.915179 
L 179.752759 0.915179 
L 179.355517 0.915179 
L 178.958276 0.915179 
L 178.561034 0.915179 
L 178.163793 0.915179 
L 177.766552 0.915179 
L 177.36931 0.915179 
L 176.972069 0.915179 
L 176.574828 0.915179 
L 176.177586 0.915179 
L 175.780345 0.915179 
L 175.383103 0.915179 
L 174.985862 0.915179 
L 174.588621 0.915179 
L 174.191379 0.915179 
L 173.794138 0.915179 
L 173.396897 0.915179 
L 172.999655 0.915179 
L 172.602414 0.915179 
L 172.205172 0.915179 
L 171.807931 0.915179 
L 171.41069 0.915179 
L 171.013448 0.915179 
L 170.616207 0.915179 
L 170.218966 0.915179 
L 169.821724 0.915179 
L 169.424483 0.915179 
L 169.027241 0.915179 
L 168.63 0.915179 
L 168.232759 0.915179 
L 167.835517 0.915179 
L 167.438276 0.915179 
L 167.041034 0.915179 
L 166.643793 0.915179 
L 166.246552 0.915179 
L 165.84931 0.915179 
L 165.452069 0.915179 
L 165.054828 0.915179 
L 164.657586 0.915179 
L 164.260345 0.915179 
L 163.863103 0.915179 
L 163.465862 0.915179 
L 163.068621 0.915179 
L 162.671379 0.915179 
L 162.274138 0.915179 
L 161.876897 0.915179 
L 161.479655 0.915179 
L 161.082414 0.915179 
L 160.685172 0.915179 
L 160.287931 0.915179 
L 159.89069 0.915179 
L 159.493448 0.915179 
L 159.096207 0.915179 
L 158.698966 0.915179 
L 158.301724 0.915179 
L 157.904483 0.915179 
L 157.507241 0.915179 
L 157.11 0.915179 
L 156.712759 0.915179 
L 156.315517 0.915179 
L 155.918276 0.915179 
L 155.521034 0.915179 
L 155.123793 0.915179 
L 154.726552 0.915179 
L 154.32931 0.915179 
L 153.932069 0.915179 
L 153.534828 0.915179 
L 153.137586 0.915179 
L 152.740345 0.915179 
L 152.343103 0.915179 
L 151.945862 0.915179 
L 151.548621 0.915179 
L 151.151379 0.915179 
L 150.754138 0.915179 
L 150.356897 0.915179 
L 149.959655 0.915179 
L 149.562414 0.915179 
L 149.165172 0.915179 
L 148.767931 0.915179 
L 148.37069 0.915179 
L 147.973448 0.915179 
L 147.576207 0.915179 
L 147.178966 0.915179 
L 146.781724 0.915179 
L 146.384483 0.915179 
L 145.987241 0.915179 
L 145.59 0.915179 
L 145.192759 0.915179 
L 144.795517 0.915179 
L 144.398276 0.915179 
L 144.001034 0.915179 
L 143.603793 0.915179 
L 143.206552 0.915179 
L 142.80931 0.915179 
L 142.412069 0.915179 
L 142.014828 0.915179 
L 141.617586 0.915179 
L 141.220345 0.915179 
L 140.823103 0.915179 
L 140.425862 0.915179 
L 140.028621 0.915179 
L 139.631379 0.915179 
L 139.234138 0.915179 
L 138.836897 0.915179 
L 138.439655 0.915179 
L 138.042414 0.915179 
L 137.645172 0.915179 
L 137.247931 0.915179 
L 136.85069 0.915179 
L 136.453448 0.915179 
L 136.056207 0.915179 
L 135.658966 0.915179 
L 135.261724 0.915179 
L 134.864483 0.915179 
L 134.467241 0.915179 
L 134.07 0.915179 
L 133.672759 0.915179 
L 133.275517 0.915179 
L 132.878276 0.915179 
L 132.481034 0.915179 
L 132.083793 0.915179 
L 131.686552 0.915179 
L 131.28931 0.915179 
L 130.892069 0.915179 
L 130.494828 0.915179 
L 130.097586 0.915179 
L 129.700345 0.915179 
L 129.303103 0.915179 
L 128.905862 0.915179 
L 128.508621 0.915179 
L 128.111379 0.915179 
L 127.714138 0.915179 
L 127.316897 0.915179 
L 126.919655 0.915179 
L 126.522414 0.915179 
L 126.125172 0.915179 
L 125.727931 0.915179 
L 125.33069 0.915179 
L 124.933448 0.915179 
L 124.536207 0.915179 
L 124.138966 0.915179 
L 123.741724 0.915179 
L 123.344483 0.915179 
L 122.947241 0.915179 
L 122.55 0.915179 
L 122.152759 0.915179 
L 121.755517 0.915179 
L 121.358276 0.915179 
L 120.961034 0.915179 
L 120.563793 0.915179 
L 120.166552 0.915179 
L 119.76931 0.915179 
L 119.372069 0.915179 
L 118.974828 0.915179 
L 118.577586 0.915179 
L 118.180345 0.915179 
L 117.783103 0.915179 
L 117.385862 0.915179 
L 116.988621 0.915179 
L 116.591379 0.915179 
L 116.194138 0.915179 
L 115.796897 0.915179 
L 115.399655 0.915179 
L 115.002414 0.915179 
L 114.605172 0.915179 
L 114.207931 0.915179 
L 113.81069 0.915179 
L 113.413448 0.915179 
L 113.016207 0.915179 
L 112.618966 0.915179 
L 112.221724 0.915179 
L 111.824483 0.915179 
L 111.427241 0.915179 
L 111.03 0.915179 
L 110.632759 0.915179 
L 110.235517 0.915179 
L 109.838276 0.915179 
L 109.441034 0.915179 
L 109.043793 0.915179 
L 108.646552 0.915179 
L 108.24931 0.915179 
L 107.852069 0.915179 
L 107.454828 0.915179 
L 107.057586 0.915179 
L 106.660345 0.915179 
L 106.263103 0.915179 
L 105.865862 0.915179 
L 105.468621 0.915179 
L 105.071379 0.915179 
L 104.674138 0.915179 
L 104.276897 0.915179 
L 103.879655 0.915179 
L 103.482414 0.915179 
L 103.085172 0.915179 
L 102.687931 0.915179 
L 102.29069 0.915179 
L 101.893448 0.915179 
L 101.496207 0.915179 
L 101.098966 0.915179 
L 100.701724 0.915179 
L 100.304483 0.915179 
L 99.907241 0.915179 
L 99.51 0.915179 
L 99.112759 0.915179 
L 98.715517 0.915179 
L 98.318276 0.915179 
L 97.921034 0.915179 
L 97.523793 0.915179 
L 97.126552 0.915179 
L 96.72931 0.915179 
L 96.332069 0.915179 
L 95.934828 0.915179 
L 95.537586 0.915179 
L 95.140345 0.915179 
L 94.743103 0.915179 
L 94.345862 0.915179 
L 93.948621 0.915179 
L 93.551379 0.915179 
L 93.154138 0.915179 
L 92.756897 0.915179 
L 92.359655 0.915179 
L 91.962414 0.915179 
L 91.565172 0.915179 
L 91.167931 0.915179 
L 90.77069 0.915179 
L 90.373448 0.915179 
L 89.976207 0.915179 
L 89.578966 0.915179 
L 89.181724 0.915179 
L 88.784483 0.915179 
L 88.387241 0.915179 
L 87.99 0.915179 
L 87.592759 0.915179 
L 87.195517 0.915179 
L 86.798276 0.915179 
L 86.401034 0.915179 
L 86.003793 0.915179 
L 85.606552 0.915179 
L 85.20931 0.915179 
L 84.812069 0.915179 
L 84.414828 0.915179 
L 84.017586 0.915179 
L 83.620345 0.915179 
L 83.223103 0.915179 
L 82.825862 0.915179 
L 82.428621 0.915179 
L 82.031379 0.915179 
L 81.634138 0.915179 
L 81.236897 0.915179 
L 80.839655 0.915179 
L 80.442414 0.915179 
L 80.045172 0.915179 
L 79.647931 0.915179 
L 79.25069 0.915179 
L 78.853448 0.915179 
L 78.456207 0.915179 
L 78.058966 0.915179 
L 77.661724 0.915179 
L 77.264483 0.915179 
L 76.867241 0.915179 
L 76.47 0.915179 
L 76.072759 0.915179 
L 75.675517 0.915179 
L 75.278276 0.915179 
L 74.881034 0.915179 
L 74.483793 0.915179 
L 74.086552 0.915179 
L 73.68931 0.915179 
L 73.292069 0.915179 
L 72.894828 0.915179 
L 72.497586 0.915179 
L 72.100345 0.915179 
L 71.703103 0.915179 
L 71.305862 0.915179 
L 70.908621 0.915179 
L 70.511379 0.915179 
L 70.114138 0.915179 
L 69.716897 0.915179 
L 69.319655 0.915179 
L 68.922414 0.915179 
L 68.525172 0.915179 
L 68.127931 0.915179 
L 67.73069 0.915179 
L 67.333448 0.915179 
L 66.936207 0.915179 
L 66.538966 0.915179 
L 66.141724 0.915179 
L 65.744483 0.915179 
L 65.347241 0.915179 
L 64.95 0.915179 
z
" style="stroke: #d4edfc; stroke-opacity: 0.9"/>
    </defs>
    <g clip-path="url(#paf7a71361e)">
     <use xlink:href="#m075bd6ddd4" x="0" y="203.254375" style="fill: #d4edfc; fill-opacity: 0.9; stroke: #d4edfc; stroke-opacity: 0.9"/>
    </g>
   </g>
   <g id="matplotlib.axis_1">
    <g id="xtick_1">
     <g id="line2d_1">
      <path d="M 115.257025 140.398125 
L 115.257025 51.118125 
" clip-path="url(#paf7a71361e)" style="fill: none"/>
     </g>
     <g id="line2d_2"/>
     <g id="text_1">
      <text style="fill: #004a80; font: 10px 'DejaVu Sans', 'Bitstream Vera Sans', 'Computer Modern Sans Serif', 'Lucida Grande', 'Verdana', 'Geneva', 'Lucid', 'Arial', 'Helvetica', 'Avant Garde', sans-serif; text-anchor: middle" x="115.257025" y="151.496562" transform="rotate(-0 115.257025 151.496562)">0.50</text>
     </g>
    </g>
    <g id="xtick_2">
     <g id="line2d_3">
      <path d="M 165.564049 140.398125 
L 165.564049 51.118125 
" clip-path="url(#paf7a71361e)" style="fill: none"/>
     </g>
     <g id="line2d_4"/>
     <g id="text_2">
      <text style="fill: #004a80; font: 10px 'DejaVu Sans', 'Bitstream Vera Sans', 'Computer Modern Sans Serif', 'Lucida Grande', 'Verdana', 'Geneva', 'Lucid', 'Arial', 'Helvetica', 'Avant Garde', sans-serif; text-anchor: middle" x="165.564049" y="151.496562" transform="rotate(-0 165.564049 151.496562)">1.00</text>
     </g>
    </g>
    <g id="xtick_3">
     <g id="line2d_5">
      <path d="M 215.871074 140.398125 
L 215.871074 51.118125 
" clip-path="url(#paf7a71361e)" style="fill: none"/>
     </g>
     <g id="line2d_6"/>
     <g id="text_3">
      <text style="fill: #004a80; font: 10px 'DejaVu Sans', 'Bitstream Vera Sans', 'Computer Modern Sans Serif', 'Lucida Grande', 'Verdana', 'Geneva', 'Lucid', 'Arial', 'Helvetica', 'Avant Garde', sans-serif; text-anchor: middle" x="215.871074" y="151.496562" transform="rotate(-0 215.871074 151.496562)">1.50</text>
     </g>
    </g>
    <g id="xtick_4">
     <g id="line2d_7">
      <path d="M 266.178098 140.398125 
L 266.178098 51.118125 
" clip-path="url(#paf7a71361e)" style="fill: none"/>
     </g>
     <g id="line2d_8"/>
     <g id="text_4">
      <text style="fill: #004a80; font: 10px 'DejaVu Sans', 'Bitstream Vera Sans', 'Computer Modern Sans Serif', 'Lucida Grande', 'Verdana', 'Geneva', 'Lucid', 'Arial', 'Helvetica', 'Avant Garde', sans-serif; text-anchor: middle" x="266.178098" y="151.496562" transform="rotate(-0 266.178098 151.496562)">2.00</text>
     </g>
    </g>
    <g id="xtick_5">
     <g id="line2d_9">
      <path d="M 316.485123 140.398125 
L 316.485123 51.118125 
" clip-path="url(#paf7a71361e)" style="fill: none"/>
     </g>
     <g id="line2d_10"/>
     <g id="text_5">
      <text style="fill: #004a80; font: 10px 'DejaVu Sans', 'Bitstream Vera Sans', 'Computer Modern Sans Serif', 'Lucida Grande', 'Verdana', 'Geneva', 'Lucid', 'Arial', 'Helvetica', 'Avant Garde', sans-serif; text-anchor: middle" x="316.485123" y="151.496562" transform="rotate(-0 316.485123 151.496562)">2.50</text>
     </g>
    </g>
    <g id="xtick_6">
     <g id="line2d_11">
      <path d="M 366.792147 140.398125 
L 366.792147 51.118125 
" clip-path="url(#paf7a71361e)" style="fill: none"/>
     </g>
     <g id="line2d_12"/>
     <g id="text_6">
      <text style="fill: #004a80; font: 10px 'DejaVu Sans', 'Bitstream Vera Sans', 'Computer Modern Sans Serif', 'Lucida Grande', 'Verdana', 'Geneva', 'Lucid', 'Arial', 'Helvetica', 'Avant Garde', sans-serif; text-anchor: middle" x="366.792147" y="151.496562" transform="rotate(-0 366.792147 151.496562)">3.00</text>
     </g>
    </g>
    <g id="xtick_7">
     <g id="line2d_13">
      <path d="M 422.07 140.398125 
L 422.07 51.118125 
" clip-path="url(#paf7a71361e)" style="fill: none"/>
     </g>
     <g id="line2d_14"/>
     <g id="text_7">
      <text style="fill: #004a80; font: 10px 'DejaVu Sans', 'Bitstream Vera Sans', 'Computer Modern Sans Serif', 'Lucida Grande', 'Verdana', 'Geneva', 'Lucid', 'Arial', 'Helvetica', 'Avant Garde', sans-serif; text-anchor: middle" x="422.07" y="151.496562" transform="rotate(-0 422.07 151.496562)">3.55</text>
     </g>
    </g>
    <g id="text_8">
     <text style="font: 10px 'DejaVu Sans', 'Bitstream Vera Sans', 'Computer Modern Sans Serif', 'Lucida Grande', 'Verdana', 'Geneva', 'Lucid', 'Arial', 'Helvetica', 'Avant Garde', sans-serif; text-anchor: middle" x="243.51" y="165.174687" transform="rotate(-0 243.51 165.174687)">Distance (km)</text>
    </g>
   </g>
   <g id="matplotlib.axis_2">
    <g id="ytick_1">
     <g id="line2d_15">
      <path d="M 64.95 127.643839 
L 422.07 127.643839 
" clip-path="url(#paf7a71361e)" style="fill: none; stroke: #9d9d9c; stroke-width: 0.8; stroke-linecap: square"/>
     </g>
     <g id="line2d_16"/>
     <g id="text_9">
      <text style="font: 10px 'DejaVu Sans', 'Bitstream Vera Sans', 'Computer Modern Sans Serif', 'Lucida Grande', 'Verdana', 'Geneva', 'Lucid', 'Arial', 'Helvetica', 'Avant Garde', sans-serif; text-anchor: end" x="61.45" y="131.443058" transform="rotate(-0 61.45 131.443058)">600</text>
     </g>
    </g>
    <g id="ytick_2">
     <g id="line2d_17">
      <path d="M 64.95 102.135268 
L 422.07 102.135268 
" clip-path="url(#paf7a71361e)" style="fill: none; stroke: #9d9d9c; stroke-width: 0.8; stroke-linecap: square"/>
     </g>
     <g id="line2d_18"/>
     <g id="text_10">
      <text style="font: 10px 'DejaVu Sans', 'Bitstream Vera Sans', 'Computer Modern Sans Serif', 'Lucida Grande', 'Verdana', 'Geneva', 'Lucid', 'Arial', 'Helvetica', 'Avant Garde', sans-serif; text-anchor: end" x="61.45" y="105.934487" transform="rotate(-0 61.45 105.934487)">800</text>
     </g>
    </g>
    <g id="ytick_3">
     <g id="line2d_19">
      <path d="M 64.95 76.626696 
L 422.07 76.626696 
" clip-path="url(#paf7a71361e)" style="fill: none; stroke: #9d9d9c; stroke-width: 0.8; stroke-linecap: square"/>
     </g>
     <g id="line2d_20"/>
     <g id="text_11">
      <text style="font: 10px 'DejaVu Sans', 'Bitstream Vera Sans', 'Computer Modern Sans Serif', 'Lucida Grande', 'Verdana', 'Geneva', 'Lucid', 'Arial', 'Helvetica', 'Avant Garde', sans-serif; text-anchor: end" x="61.45" y="80.425915" transform="rotate(-0 61.45 80.425915)">1000</text>
     </g>
    </g>
    <g id="ytick_4">
     <g id="line2d_21">
      <path d="M 64.95 51.118125 
L 422.07 51.118125 
" clip-path="url(#paf7a71361e)" style="fill: none; stroke: #9d9d9c; stroke-width: 0.8; stroke-linecap: square"/>
     </g>
     <g id="line2d_22"/>
     <g id="text_12">
      <text style="font: 10px 'DejaVu Sans', 'Bitstream Vera Sans', 'Computer Modern Sans Serif', 'Lucida Grande', 'Verdana', 'Geneva', 'Lucid', 'Arial', 'Helvetica', 'Avant Garde', sans-serif; text-anchor: end" x="61.45" y="54.917344" transform="rotate(-0 61.45 54.917344)">1200</text>
     </g>
    </g>
   </g>
   <g id="LineCollection_1">
    <path d="M 115.257025 204.169554 
L 115.257025 79.815268 
" clip-path="url(#paf7a71361e)" style="fill: none; stroke-dasharray: 7.4,3.2; stroke-dashoffset: 0; stroke: #004a80; stroke-width: 2"/>
    <path d="M 165.564049 204.169554 
L 165.564049 82.621211 
" clip-path="url(#paf7a71361e)" style="fill: none; stroke-dasharray: 7.4,3.2; stroke-dashoffset: 0; stroke: #004a80; stroke-width: 2"/>
    <path d="M 215.871074 204.169554 
L 215.871074 84.661896 
" clip-path="url(#paf7a71361e)" style="fill: none; stroke-dasharray: 7.4,3.2; stroke-dashoffset: 0; stroke: #004a80; stroke-width: 2"/>
    <path d="M 266.178098 204.169554 
L 266.178098 83.003839 
" clip-path="url(#paf7a71361e)" style="fill: none; stroke-dasharray: 7.4,3.2; stroke-dashoffset: 0; stroke: #004a80; stroke-width: 2"/>
    <path d="M 316.485123 204.169554 
L 316.485123 83.258925 
" clip-path="url(#paf7a71361e)" style="fill: none; stroke-dasharray: 7.4,3.2; stroke-dashoffset: 0; stroke: #004a80; stroke-width: 2"/>
    <path d="M 366.792147 204.169554 
L 366.792147 79.687725 
" clip-path="url(#paf7a71361e)" style="fill: none; stroke-dasharray: 7.4,3.2; stroke-dashoffset: 0; stroke: #004a80; stroke-width: 2"/>
   </g>
   <g id="patch_2">
    <path d="M 115.257025 140.398125 
L 215.871074 140.398125 
L 215.871074 138.484982 
L 115.257025 138.484982 
z
" clip-path="url(#paf7a71361e)" style="fill: #efefef"/>
   </g>
   <g id="patch_3">
    <path d="M 165.564049 140.398125 
L 316.485123 140.398125 
L 316.485123 138.484982 
L 165.564049 138.484982 
z
" clip-path="url(#paf7a71361e)" style="fill: #004a80"/>
   </g>
   <g id="patch_4">
    <path d="M 215.871074 140.398125 
L 417.099172 140.398125 
L 417.099172 138.484982 
L 215.871074 138.484982 
z
" clip-path="url(#paf7a71361e)" style="fill: #efefef"/>
   </g>
   <g id="patch_5">
    <path d="M 266.178098 140.398125 
L 517.713221 140.398125 
L 517.713221 138.484982 
L 266.178098 138.484982 
z
" clip-path="url(#paf7a71361e)" style="fill: #004a80"/>
   </g>
   <g id="patch_6">
    <path d="M 316.485123 140.398125 
L 618.32727 140.398125 
L 618.32727 138.484982 
L 316.485123 138.484982 
z
" clip-path="url(#paf7a71361e)" style="fill: #efefef"/>
   </g>
   <g id="patch_7">
    <path d="M 64.95 140.398125 
L 115.257025 140.398125 
L 115.257025 138.484982 
L 64.95 138.484982 
z
" clip-path="url(#paf7a71361e)" style="fill: #004a80"/>
   </g>
   <g id="patch_8">
    <path d="M 366.792147 140.398125 
L 723.912147 140.398125 
L 723.912147 138.484982 
L 366.792147 138.484982 
z
" clip-path="url(#paf7a71361e)" style="fill: #004a80"/>
   </g>
   <g id="text_13">
    <text style="font: 12px 'DejaVu Sans', 'Bitstream Vera Sans', 'Computer Modern Sans Serif', 'Lucida Grande', 'Verdana', 'Geneva', 'Lucid', 'Arial', 'Helvetica', 'Avant Garde', sans-serif; text-anchor: middle" x="243.51" y="45.118125" transform="rotate(-0 243.51 45.118125)">dorfloipe-pertisau</text>
   </g>
   <g id="line2d_23">
    <path d="M 64.95 80.420185 
L 82.428621 80.488548 
L 90.373448 80.361924 
L 92.359655 80.230778 
L 95.140345 80.112752 
L 100.304483 80.070935 
L 104.276897 80.025558 
L 113.81069 79.862212 
L 126.919655 79.841597 
L 133.672759 79.935478 
L 136.453448 79.905368 
L 141.617586 80.276577 
L 144.001034 80.846893 
L 148.37069 81.17086 
L 155.123793 81.024862 
L 162.671379 81.820909 
L 169.821724 82.582892 
L 171.807931 82.734556 
L 180.944483 82.600269 
L 184.519655 83.040081 
L 186.903103 83.53544 
L 191.272759 83.83746 
L 194.847931 83.798918 
L 201.601034 84.316373 
L 205.573448 84.322559 
L 209.148621 84.524289 
L 213.518276 84.638006 
L 216.298966 84.689819 
L 220.271379 84.886133 
L 223.052069 85.076441 
L 238.941724 85.056363 
L 246.886552 85.056797 
L 252.845172 84.684326 
L 256.023103 83.944751 
L 257.214828 83.815536 
L 261.584483 83.920304 
L 265.954138 83.480868 
L 268.337586 83.169419 
L 272.31 83.008098 
L 277.076897 82.911783 
L 282.638276 82.872817 
L 288.596897 83.296249 
L 289.391379 83.346021 
L 289.788621 83.534667 
L 290.980345 83.545206 
L 297.733448 83.249708 
L 300.116897 82.954526 
L 302.897586 82.828849 
L 308.061724 82.97265 
L 313.623103 83.239926 
L 320.376207 83.324034 
L 328.321034 82.687582 
L 333.882414 81.898058 
L 339.046552 81.48465 
L 343.416207 81.686885 
L 350.566552 81.086184 
L 354.936207 80.33923 
L 357.319655 80.099527 
L 360.100345 80.191658 
L 362.086552 80.001856 
L 365.661724 79.701656 
L 366.456207 79.650324 
L 379.962414 79.687725 
L 389.496207 79.785768 
L 398.632759 80.068938 
L 402.605172 80.121298 
L 408.563793 80.185393 
L 422.07 80.36188 
L 422.07 80.36188 
" clip-path="url(#paf7a71361e)" style="fill: none; stroke: #0000ff; stroke-width: 3; stroke-linecap: square"/>
   </g>
  </g>
 </g>
 <defs>
  <clipPath id="paf7a71361e">
   <rect x="64.95" y="51.118125" width="357.12" height="89.28"/>
  </clipPath>
 </defs>
</svg>
