<?xml version="1.0" encoding="utf-8" standalone="no"?>
<!DOCTYPE svg PUBLIC "-//W3C//DTD SVG 1.1//EN"
  "http://www.w3.org/Graphics/SVG/1.1/DTD/svg11.dtd">
<svg xmlns:xlink="http://www.w3.org/1999/xlink" width="466.021563pt" height="203.254375pt" viewBox="0 0 466.021563 203.254375" xmlns="http://www.w3.org/2000/svg" version="1.1">
 <metadata>
  <rdf:RDF xmlns:dc="http://purl.org/dc/elements/1.1/" xmlns:cc="http://creativecommons.org/ns#" xmlns:rdf="http://www.w3.org/1999/02/22-rdf-syntax-ns#">
   <cc:Work>
    <dc:type rdf:resource="http://purl.org/dc/dcmitype/StillImage"/>
    <dc:date>2024-08-26T12:05:39.064286</dc:date>
    <dc:format>image/svg+xml</dc:format>
    <dc:creator>
     <cc:Agent>
      <dc:title>Matplotlib v3.8.4, https://matplotlib.org/</dc:title>
     </cc:Agent>
    </dc:creator>
   </cc:Work>
  </rdf:RDF>
 </metadata>
 <defs>
  <style type="text/css">*{stroke-linejoin: round; stroke-linecap: butt}</style>
 </defs>
 <g id="figure_1">
  <g id="patch_1">
   <path d="M 0 203.254375 
L 466.021563 203.254375 
L 466.021563 0 
L 0 0 
z
" style="fill: #ffffff"/>
  </g>
  <g id="axes_1">
   <g id="PolyCollection_1">
    <defs>
     <path id="mdb66354fcf" d="M 64.95 0.915179 
L 64.95 -122.619189 
L 65.665671 -122.627825 
L 66.381343 -122.636461 
L 67.097014 -122.645097 
L 67.812685 -122.653733 
L 68.528357 -122.662369 
L 69.244028 -122.671005 
L 69.959699 -122.679641 
L 70.675371 -122.688277 
L 71.391042 -122.696913 
L 72.106713 -122.70555 
L 72.822385 -122.714186 
L 73.538056 -122.722822 
L 74.253727 -122.731458 
L 74.969399 -122.740094 
L 75.68507 -122.74873 
L 76.400741 -122.757366 
L 77.116413 -122.764555 
L 77.832084 -122.761291 
L 78.547756 -122.758026 
L 79.263427 -122.754762 
L 79.979098 -122.751497 
L 80.69477 -122.748233 
L 81.410441 -122.744968 
L 82.126112 -122.741704 
L 82.841784 -122.738439 
L 83.557455 -122.735175 
L 84.273126 -122.73191 
L 84.988798 -122.728646 
L 85.704469 -122.712209 
L 86.42014 -122.695205 
L 87.135812 -122.6782 
L 87.851483 -122.661196 
L 88.567154 -122.644192 
L 89.282826 -122.627188 
L 89.998497 -122.610184 
L 90.714168 -122.59318 
L 91.42984 -122.576175 
L 92.145511 -122.559171 
L 92.861182 -122.542167 
L 93.576854 -122.525163 
L 94.292525 -122.507412 
L 95.008196 -122.482969 
L 95.723868 -122.458527 
L 96.439539 -122.434085 
L 97.15521 -122.409643 
L 97.870882 -122.385201 
L 98.586553 -122.360758 
L 99.302224 -122.336316 
L 100.017896 -122.311874 
L 100.733567 -122.287432 
L 101.449238 -122.26299 
L 102.16491 -122.238547 
L 102.880581 -122.214105 
L 103.596253 -122.192466 
L 104.311924 -122.174577 
L 105.027595 -122.156688 
L 105.743267 -122.138798 
L 106.458938 -122.120909 
L 107.174609 -122.10302 
L 107.890281 -122.08513 
L 108.605952 -122.067241 
L 109.321623 -122.049352 
L 110.037295 -122.031462 
L 110.752966 -122.013573 
L 111.468637 -121.995684 
L 112.184309 -121.983978 
L 112.89998 -121.996148 
L 113.615651 -122.008317 
L 114.331323 -122.020487 
L 115.046994 -122.032657 
L 115.762665 -122.044827 
L 116.478337 -122.056996 
L 117.194008 -122.049578 
L 117.909679 -122.040399 
L 118.625351 -122.031219 
L 119.341022 -122.02204 
L 120.056693 -122.01286 
L 120.772365 -122.003681 
L 121.488036 -121.994501 
L 122.203707 -121.985322 
L 122.919379 -121.976143 
L 123.63505 -121.966914 
L 124.350721 -121.957608 
L 125.066393 -121.948301 
L 125.782064 -121.938995 
L 126.497735 -121.929689 
L 127.213407 -121.920383 
L 127.929078 -121.911077 
L 128.644749 -121.901771 
L 129.360421 -121.892465 
L 130.076092 -121.883159 
L 130.791764 -121.873852 
L 131.507435 -121.864546 
L 132.223106 -121.85524 
L 132.938778 -121.84582 
L 133.654449 -121.835015 
L 134.37012 -121.824211 
L 135.085792 -121.813406 
L 135.801463 -121.802602 
L 136.517134 -121.791797 
L 137.232806 -121.780992 
L 137.948477 -121.770188 
L 138.664148 -121.759383 
L 139.37982 -121.772218 
L 140.095491 -121.785493 
L 140.811162 -121.798768 
L 141.526834 -121.812043 
L 142.242505 -121.825319 
L 142.958176 -121.825976 
L 143.673848 -121.781143 
L 144.389519 -121.736309 
L 145.10519 -121.691476 
L 145.820862 -121.646642 
L 146.536533 -121.600507 
L 147.252204 -121.55185 
L 147.967876 -121.503192 
L 148.683547 -121.454535 
L 149.399218 -121.405877 
L 150.11489 -121.35722 
L 150.830561 -121.308562 
L 151.546232 -121.289109 
L 152.261904 -121.270421 
L 152.977575 -121.251733 
L 153.693246 -121.233045 
L 154.408918 -121.214358 
L 155.124589 -121.19567 
L 155.840261 -121.176982 
L 156.555932 -121.158294 
L 157.271603 -121.139606 
L 157.987275 -121.120918 
L 158.702946 -121.102231 
L 159.418617 -121.090346 
L 160.134289 -121.096435 
L 160.84996 -121.102523 
L 161.565631 -121.108611 
L 162.281303 -121.114699 
L 162.996974 -121.120787 
L 163.712645 -121.126875 
L 164.428317 -121.132964 
L 165.143988 -121.139052 
L 165.859659 -121.143336 
L 166.575331 -121.143336 
L 167.291002 -121.143336 
L 168.006673 -121.143336 
L 168.722345 -121.143336 
L 169.438016 -121.143336 
L 170.153687 -121.143336 
L 170.869359 -121.143336 
L 171.58503 -121.143336 
L 172.300701 -121.143336 
L 173.016373 -121.143336 
L 173.732044 -121.143336 
L 174.447715 -121.143336 
L 175.163387 -121.143336 
L 175.879058 -121.143336 
L 176.594729 -121.143336 
L 177.310401 -121.143336 
L 178.026072 -121.143336 
L 178.741743 -121.143336 
L 179.457415 -121.143336 
L 180.173086 -121.143336 
L 180.888758 -121.143336 
L 181.604429 -121.14543 
L 182.3201 -121.150064 
L 183.035772 -121.154698 
L 183.751443 -121.159331 
L 184.467114 -121.163965 
L 185.182786 -121.168599 
L 185.898457 -121.173233 
L 186.614128 -121.177867 
L 187.3298 -121.182501 
L 188.045471 -121.187134 
L 188.761142 -121.191768 
L 189.476814 -121.196402 
L 190.192485 -121.17944 
L 190.908156 -121.151145 
L 191.623828 -121.12285 
L 192.339499 -121.094555 
L 193.05517 -121.06626 
L 193.770842 -121.037965 
L 194.486513 -121.009671 
L 195.202184 -120.981376 
L 195.917856 -120.938924 
L 196.633527 -120.895381 
L 197.349198 -120.851839 
L 198.06487 -120.808296 
L 198.780541 -120.764754 
L 199.496212 -120.721211 
L 200.211884 -120.677669 
L 200.927555 -120.650199 
L 201.643226 -120.626382 
L 202.358898 -120.602566 
L 203.074569 -120.578749 
L 203.79024 -120.554933 
L 204.505912 -120.531116 
L 205.221583 -120.5073 
L 205.937255 -120.483483 
L 206.652926 -120.459667 
L 207.368597 -120.455182 
L 208.084269 -120.461836 
L 208.79994 -120.46849 
L 209.515611 -120.475144 
L 210.231283 -120.481799 
L 210.946954 -120.488453 
L 211.662625 -120.495107 
L 212.378297 -120.501761 
L 213.093968 -120.508415 
L 213.809639 -120.51507 
L 214.525311 -120.521724 
L 215.240982 -120.528378 
L 215.956653 -120.535032 
L 216.672325 -120.541686 
L 217.387996 -120.548341 
L 218.103667 -120.554995 
L 218.819339 -120.561649 
L 219.53501 -120.568303 
L 220.250681 -120.555318 
L 220.966353 -120.527053 
L 221.682024 -120.498787 
L 222.397695 -120.470522 
L 223.113367 -120.442256 
L 223.829038 -120.413991 
L 224.544709 -120.385725 
L 225.260381 -120.35746 
L 225.976052 -120.329194 
L 226.691723 -120.301154 
L 227.407395 -120.273691 
L 228.123066 -120.246229 
L 228.838737 -120.218766 
L 229.554409 -120.191304 
L 230.27008 -120.163841 
L 230.985752 -120.136379 
L 231.701423 -120.108916 
L 232.417094 -120.081454 
L 233.132766 -120.053991 
L 233.848437 -120.026529 
L 234.564108 -119.999066 
L 235.27978 -119.971604 
L 235.995451 -119.944141 
L 236.711122 -119.900343 
L 237.426794 -119.850961 
L 238.142465 -119.80158 
L 238.858136 -119.752198 
L 239.573808 -119.702816 
L 240.289479 -119.676017 
L 241.00515 -119.678903 
L 241.720822 -119.681788 
L 242.436493 -119.684673 
L 243.152164 -119.687558 
L 243.867836 -119.690443 
L 244.583507 -119.693328 
L 245.299178 -119.696214 
L 246.01485 -119.699099 
L 246.730521 -119.701984 
L 247.446192 -119.704869 
L 248.161864 -119.707754 
L 248.877535 -119.710639 
L 249.593206 -119.713525 
L 250.308878 -119.71641 
L 251.024549 -119.720101 
L 251.74022 -119.72591 
L 252.455892 -119.731719 
L 253.171563 -119.737528 
L 253.887234 -119.743337 
L 254.602906 -119.749147 
L 255.318577 -119.754956 
L 256.034248 -119.760765 
L 256.74992 -119.766574 
L 257.465591 -119.772383 
L 258.181263 -119.778192 
L 258.896934 -119.784001 
L 259.612605 -119.789811 
L 260.328277 -119.79562 
L 261.043948 -119.801429 
L 261.759619 -119.807776 
L 262.475291 -119.816026 
L 263.190962 -119.824276 
L 263.906633 -119.832527 
L 264.622305 -119.840777 
L 265.337976 -119.849027 
L 266.053647 -119.857277 
L 266.769319 -119.865527 
L 267.48499 -119.873778 
L 268.200661 -119.882028 
L 268.916333 -119.890278 
L 269.632004 -119.898528 
L 270.347675 -119.906778 
L 271.063347 -119.915029 
L 271.779018 -119.923279 
L 272.494689 -119.931346 
L 273.210361 -119.938693 
L 273.926032 -119.94604 
L 274.641703 -119.953387 
L 275.357375 -119.960734 
L 276.073046 -119.968081 
L 276.788717 -119.975428 
L 277.504389 -119.982775 
L 278.22006 -119.990122 
L 278.935731 -119.997469 
L 279.651403 -120.004816 
L 280.367074 -120.012163 
L 281.082745 -120.013355 
L 281.798417 -120.000103 
L 282.514088 -119.986852 
L 283.22976 -119.9736 
L 283.945431 -119.960348 
L 284.661102 -119.947097 
L 285.376774 -119.953176 
L 286.092445 -119.976816 
L 286.808116 -120.000456 
L 287.523788 -120.024097 
L 288.239459 -120.047737 
L 288.95513 -120.071377 
L 289.670802 -120.095017 
L 290.386473 -120.118658 
L 291.102144 -120.142298 
L 291.817816 -120.16223 
L 292.533487 -120.172392 
L 293.249158 -120.182554 
L 293.96483 -120.192715 
L 294.680501 -120.202877 
L 295.396172 -120.213039 
L 296.111844 -120.223201 
L 296.827515 -120.233363 
L 297.543186 -120.243525 
L 298.258858 -120.253687 
L 298.974529 -120.263849 
L 299.6902 -120.274011 
L 300.405872 -120.284173 
L 301.121543 -120.294335 
L 301.837214 -120.304496 
L 302.552886 -120.314658 
L 303.268557 -120.32482 
L 303.984228 -120.334982 
L 304.6999 -120.345144 
L 305.415571 -120.355306 
L 306.131242 -120.365468 
L 306.846914 -120.37563 
L 307.562585 -120.385792 
L 308.278257 -120.395954 
L 308.993928 -120.406115 
L 309.709599 -120.416277 
L 310.425271 -120.426439 
L 311.140942 -120.436601 
L 311.856613 -120.446763 
L 312.572285 -120.456925 
L 313.287956 -120.467087 
L 314.003627 -120.492059 
L 314.719299 -120.520874 
L 315.43497 -120.54969 
L 316.150641 -120.578505 
L 316.866313 -120.60732 
L 317.581984 -120.636135 
L 318.297655 -120.664951 
L 319.013327 -120.685436 
L 319.728998 -120.673843 
L 320.444669 -120.662251 
L 321.160341 -120.650658 
L 321.876012 -120.639065 
L 322.591683 -120.627473 
L 323.307355 -120.61588 
L 324.023026 -120.604288 
L 324.738697 -120.592695 
L 325.454369 -120.581103 
L 326.17004 -120.606393 
L 326.885711 -120.642345 
L 327.601383 -120.678297 
L 328.317054 -120.714249 
L 329.032725 -120.750201 
L 329.748397 -120.786154 
L 330.464068 -120.85495 
L 331.179739 -120.938215 
L 331.895411 -121.02148 
L 332.611082 -121.104744 
L 333.326754 -121.141143 
L 334.042425 -121.176299 
L 334.758096 -121.211455 
L 335.473768 -121.246611 
L 336.189439 -121.281768 
L 336.90511 -121.316924 
L 337.620782 -121.317158 
L 338.336453 -121.306056 
L 339.052124 -121.294954 
L 339.767796 -121.283851 
L 340.483467 -121.272749 
L 341.199138 -121.261646 
L 341.91481 -121.250544 
L 342.630481 -121.272752 
L 343.346152 -121.300283 
L 344.061824 -121.327815 
L 344.777495 -121.353452 
L 345.493166 -121.378219 
L 346.208838 -121.402987 
L 346.924509 -121.427755 
L 347.64018 -121.452522 
L 348.355852 -121.467467 
L 349.071523 -121.477854 
L 349.787194 -121.488241 
L 350.502866 -121.498629 
L 351.218537 -121.509016 
L 351.934208 -121.519404 
L 352.64988 -121.529791 
L 353.365551 -121.540179 
L 354.081222 -121.546934 
L 354.796894 -121.543538 
L 355.512565 -121.540142 
L 356.228236 -121.536746 
L 356.943908 -121.53335 
L 357.659579 -121.529954 
L 358.375251 -121.526558 
L 359.090922 -121.523162 
L 359.806593 -121.519766 
L 360.522265 -121.516371 
L 361.237936 -121.512975 
L 361.953607 -121.509579 
L 362.669279 -121.506183 
L 363.38495 -121.5073 
L 364.100621 -121.515578 
L 364.816293 -121.523856 
L 365.531964 -121.532134 
L 366.247635 -121.540412 
L 366.963307 -121.54869 
L 367.678978 -121.556968 
L 368.394649 -121.565246 
L 369.110321 -121.573524 
L 369.825992 -121.581802 
L 370.541663 -121.59008 
L 371.257335 -121.604266 
L 371.973006 -121.619735 
L 372.688677 -121.635205 
L 373.404349 -121.650674 
L 374.12002 -121.666144 
L 374.835691 -121.681613 
L 375.551363 -121.697082 
L 376.267034 -121.712552 
L 376.982705 -121.721154 
L 377.698377 -121.728168 
L 378.414048 -121.735183 
L 379.129719 -121.742197 
L 379.845391 -121.749211 
L 380.561062 -121.756226 
L 381.276733 -121.76324 
L 381.992405 -121.770255 
L 382.708076 -121.777269 
L 383.423747 -121.784283 
L 384.139419 -121.791298 
L 384.85509 -121.798312 
L 385.570762 -121.800075 
L 386.286433 -121.791816 
L 387.002104 -121.783558 
L 387.717776 -121.7753 
L 388.433447 -121.767041 
L 389.149118 -121.758783 
L 389.86479 -121.750525 
L 390.580461 -121.742266 
L 391.296132 -121.734008 
L 392.011804 -121.72575 
L 392.727475 -121.717491 
L 393.443146 -121.709233 
L 394.158818 -121.715196 
L 394.874489 -121.740024 
L 395.59016 -121.764853 
L 396.305832 -121.789681 
L 397.021503 -121.814509 
L 397.737174 -121.839337 
L 398.452846 -121.864165 
L 399.168517 -121.888994 
L 399.884188 -121.913822 
L 400.59986 -121.93865 
L 401.315531 -121.963478 
L 402.031202 -121.988307 
L 402.746874 -122.013786 
L 403.462545 -122.045065 
L 404.178216 -122.076344 
L 404.893888 -122.107623 
L 405.609559 -122.138902 
L 406.32523 -122.17018 
L 407.040902 -122.201459 
L 407.756573 -122.232738 
L 408.472244 -122.264017 
L 409.187916 -122.295296 
L 409.903587 -122.326574 
L 410.619259 -122.356131 
L 411.33493 -122.38396 
L 412.050601 -122.411789 
L 412.766273 -122.439618 
L 413.481944 -122.467446 
L 414.197615 -122.495275 
L 414.913287 -122.523104 
L 415.628958 -122.550933 
L 416.344629 -122.578762 
L 417.060301 -122.606591 
L 417.775972 -122.63442 
L 418.491643 -122.662249 
L 419.207315 -122.690077 
L 419.922986 -122.717906 
L 420.638657 -122.745735 
L 421.354329 -122.773564 
L 422.07 -122.801393 
L 422.07 0.915179 
L 422.07 0.915179 
L 421.354329 0.915179 
L 420.638657 0.915179 
L 419.922986 0.915179 
L 419.207315 0.915179 
L 418.491643 0.915179 
L 417.775972 0.915179 
L 417.060301 0.915179 
L 416.344629 0.915179 
L 415.628958 0.915179 
L 414.913287 0.915179 
L 414.197615 0.915179 
L 413.481944 0.915179 
L 412.766273 0.915179 
L 412.050601 0.915179 
L 411.33493 0.915179 
L 410.619259 0.915179 
L 409.903587 0.915179 
L 409.187916 0.915179 
L 408.472244 0.915179 
L 407.756573 0.915179 
L 407.040902 0.915179 
L 406.32523 0.915179 
L 405.609559 0.915179 
L 404.893888 0.915179 
L 404.178216 0.915179 
L 403.462545 0.915179 
L 402.746874 0.915179 
L 402.031202 0.915179 
L 401.315531 0.915179 
L 400.59986 0.915179 
L 399.884188 0.915179 
L 399.168517 0.915179 
L 398.452846 0.915179 
L 397.737174 0.915179 
L 397.021503 0.915179 
L 396.305832 0.915179 
L 395.59016 0.915179 
L 394.874489 0.915179 
L 394.158818 0.915179 
L 393.443146 0.915179 
L 392.727475 0.915179 
L 392.011804 0.915179 
L 391.296132 0.915179 
L 390.580461 0.915179 
L 389.86479 0.915179 
L 389.149118 0.915179 
L 388.433447 0.915179 
L 387.717776 0.915179 
L 387.002104 0.915179 
L 386.286433 0.915179 
L 385.570762 0.915179 
L 384.85509 0.915179 
L 384.139419 0.915179 
L 383.423747 0.915179 
L 382.708076 0.915179 
L 381.992405 0.915179 
L 381.276733 0.915179 
L 380.561062 0.915179 
L 379.845391 0.915179 
L 379.129719 0.915179 
L 378.414048 0.915179 
L 377.698377 0.915179 
L 376.982705 0.915179 
L 376.267034 0.915179 
L 375.551363 0.915179 
L 374.835691 0.915179 
L 374.12002 0.915179 
L 373.404349 0.915179 
L 372.688677 0.915179 
L 371.973006 0.915179 
L 371.257335 0.915179 
L 370.541663 0.915179 
L 369.825992 0.915179 
L 369.110321 0.915179 
L 368.394649 0.915179 
L 367.678978 0.915179 
L 366.963307 0.915179 
L 366.247635 0.915179 
L 365.531964 0.915179 
L 364.816293 0.915179 
L 364.100621 0.915179 
L 363.38495 0.915179 
L 362.669279 0.915179 
L 361.953607 0.915179 
L 361.237936 0.915179 
L 360.522265 0.915179 
L 359.806593 0.915179 
L 359.090922 0.915179 
L 358.375251 0.915179 
L 357.659579 0.915179 
L 356.943908 0.915179 
L 356.228236 0.915179 
L 355.512565 0.915179 
L 354.796894 0.915179 
L 354.081222 0.915179 
L 353.365551 0.915179 
L 352.64988 0.915179 
L 351.934208 0.915179 
L 351.218537 0.915179 
L 350.502866 0.915179 
L 349.787194 0.915179 
L 349.071523 0.915179 
L 348.355852 0.915179 
L 347.64018 0.915179 
L 346.924509 0.915179 
L 346.208838 0.915179 
L 345.493166 0.915179 
L 344.777495 0.915179 
L 344.061824 0.915179 
L 343.346152 0.915179 
L 342.630481 0.915179 
L 341.91481 0.915179 
L 341.199138 0.915179 
L 340.483467 0.915179 
L 339.767796 0.915179 
L 339.052124 0.915179 
L 338.336453 0.915179 
L 337.620782 0.915179 
L 336.90511 0.915179 
L 336.189439 0.915179 
L 335.473768 0.915179 
L 334.758096 0.915179 
L 334.042425 0.915179 
L 333.326754 0.915179 
L 332.611082 0.915179 
L 331.895411 0.915179 
L 331.179739 0.915179 
L 330.464068 0.915179 
L 329.748397 0.915179 
L 329.032725 0.915179 
L 328.317054 0.915179 
L 327.601383 0.915179 
L 326.885711 0.915179 
L 326.17004 0.915179 
L 325.454369 0.915179 
L 324.738697 0.915179 
L 324.023026 0.915179 
L 323.307355 0.915179 
L 322.591683 0.915179 
L 321.876012 0.915179 
L 321.160341 0.915179 
L 320.444669 0.915179 
L 319.728998 0.915179 
L 319.013327 0.915179 
L 318.297655 0.915179 
L 317.581984 0.915179 
L 316.866313 0.915179 
L 316.150641 0.915179 
L 315.43497 0.915179 
L 314.719299 0.915179 
L 314.003627 0.915179 
L 313.287956 0.915179 
L 312.572285 0.915179 
L 311.856613 0.915179 
L 311.140942 0.915179 
L 310.425271 0.915179 
L 309.709599 0.915179 
L 308.993928 0.915179 
L 308.278257 0.915179 
L 307.562585 0.915179 
L 306.846914 0.915179 
L 306.131242 0.915179 
L 305.415571 0.915179 
L 304.6999 0.915179 
L 303.984228 0.915179 
L 303.268557 0.915179 
L 302.552886 0.915179 
L 301.837214 0.915179 
L 301.121543 0.915179 
L 300.405872 0.915179 
L 299.6902 0.915179 
L 298.974529 0.915179 
L 298.258858 0.915179 
L 297.543186 0.915179 
L 296.827515 0.915179 
L 296.111844 0.915179 
L 295.396172 0.915179 
L 294.680501 0.915179 
L 293.96483 0.915179 
L 293.249158 0.915179 
L 292.533487 0.915179 
L 291.817816 0.915179 
L 291.102144 0.915179 
L 290.386473 0.915179 
L 289.670802 0.915179 
L 288.95513 0.915179 
L 288.239459 0.915179 
L 287.523788 0.915179 
L 286.808116 0.915179 
L 286.092445 0.915179 
L 285.376774 0.915179 
L 284.661102 0.915179 
L 283.945431 0.915179 
L 283.22976 0.915179 
L 282.514088 0.915179 
L 281.798417 0.915179 
L 281.082745 0.915179 
L 280.367074 0.915179 
L 279.651403 0.915179 
L 278.935731 0.915179 
L 278.22006 0.915179 
L 277.504389 0.915179 
L 276.788717 0.915179 
L 276.073046 0.915179 
L 275.357375 0.915179 
L 274.641703 0.915179 
L 273.926032 0.915179 
L 273.210361 0.915179 
L 272.494689 0.915179 
L 271.779018 0.915179 
L 271.063347 0.915179 
L 270.347675 0.915179 
L 269.632004 0.915179 
L 268.916333 0.915179 
L 268.200661 0.915179 
L 267.48499 0.915179 
L 266.769319 0.915179 
L 266.053647 0.915179 
L 265.337976 0.915179 
L 264.622305 0.915179 
L 263.906633 0.915179 
L 263.190962 0.915179 
L 262.475291 0.915179 
L 261.759619 0.915179 
L 261.043948 0.915179 
L 260.328277 0.915179 
L 259.612605 0.915179 
L 258.896934 0.915179 
L 258.181263 0.915179 
L 257.465591 0.915179 
L 256.74992 0.915179 
L 256.034248 0.915179 
L 255.318577 0.915179 
L 254.602906 0.915179 
L 253.887234 0.915179 
L 253.171563 0.915179 
L 252.455892 0.915179 
L 251.74022 0.915179 
L 251.024549 0.915179 
L 250.308878 0.915179 
L 249.593206 0.915179 
L 248.877535 0.915179 
L 248.161864 0.915179 
L 247.446192 0.915179 
L 246.730521 0.915179 
L 246.01485 0.915179 
L 245.299178 0.915179 
L 244.583507 0.915179 
L 243.867836 0.915179 
L 243.152164 0.915179 
L 242.436493 0.915179 
L 241.720822 0.915179 
L 241.00515 0.915179 
L 240.289479 0.915179 
L 239.573808 0.915179 
L 238.858136 0.915179 
L 238.142465 0.915179 
L 237.426794 0.915179 
L 236.711122 0.915179 
L 235.995451 0.915179 
L 235.27978 0.915179 
L 234.564108 0.915179 
L 233.848437 0.915179 
L 233.132766 0.915179 
L 232.417094 0.915179 
L 231.701423 0.915179 
L 230.985752 0.915179 
L 230.27008 0.915179 
L 229.554409 0.915179 
L 228.838737 0.915179 
L 228.123066 0.915179 
L 227.407395 0.915179 
L 226.691723 0.915179 
L 225.976052 0.915179 
L 225.260381 0.915179 
L 224.544709 0.915179 
L 223.829038 0.915179 
L 223.113367 0.915179 
L 222.397695 0.915179 
L 221.682024 0.915179 
L 220.966353 0.915179 
L 220.250681 0.915179 
L 219.53501 0.915179 
L 218.819339 0.915179 
L 218.103667 0.915179 
L 217.387996 0.915179 
L 216.672325 0.915179 
L 215.956653 0.915179 
L 215.240982 0.915179 
L 214.525311 0.915179 
L 213.809639 0.915179 
L 213.093968 0.915179 
L 212.378297 0.915179 
L 211.662625 0.915179 
L 210.946954 0.915179 
L 210.231283 0.915179 
L 209.515611 0.915179 
L 208.79994 0.915179 
L 208.084269 0.915179 
L 207.368597 0.915179 
L 206.652926 0.915179 
L 205.937255 0.915179 
L 205.221583 0.915179 
L 204.505912 0.915179 
L 203.79024 0.915179 
L 203.074569 0.915179 
L 202.358898 0.915179 
L 201.643226 0.915179 
L 200.927555 0.915179 
L 200.211884 0.915179 
L 199.496212 0.915179 
L 198.780541 0.915179 
L 198.06487 0.915179 
L 197.349198 0.915179 
L 196.633527 0.915179 
L 195.917856 0.915179 
L 195.202184 0.915179 
L 194.486513 0.915179 
L 193.770842 0.915179 
L 193.05517 0.915179 
L 192.339499 0.915179 
L 191.623828 0.915179 
L 190.908156 0.915179 
L 190.192485 0.915179 
L 189.476814 0.915179 
L 188.761142 0.915179 
L 188.045471 0.915179 
L 187.3298 0.915179 
L 186.614128 0.915179 
L 185.898457 0.915179 
L 185.182786 0.915179 
L 184.467114 0.915179 
L 183.751443 0.915179 
L 183.035772 0.915179 
L 182.3201 0.915179 
L 181.604429 0.915179 
L 180.888758 0.915179 
L 180.173086 0.915179 
L 179.457415 0.915179 
L 178.741743 0.915179 
L 178.026072 0.915179 
L 177.310401 0.915179 
L 176.594729 0.915179 
L 175.879058 0.915179 
L 175.163387 0.915179 
L 174.447715 0.915179 
L 173.732044 0.915179 
L 173.016373 0.915179 
L 172.300701 0.915179 
L 171.58503 0.915179 
L 170.869359 0.915179 
L 170.153687 0.915179 
L 169.438016 0.915179 
L 168.722345 0.915179 
L 168.006673 0.915179 
L 167.291002 0.915179 
L 166.575331 0.915179 
L 165.859659 0.915179 
L 165.143988 0.915179 
L 164.428317 0.915179 
L 163.712645 0.915179 
L 162.996974 0.915179 
L 162.281303 0.915179 
L 161.565631 0.915179 
L 160.84996 0.915179 
L 160.134289 0.915179 
L 159.418617 0.915179 
L 158.702946 0.915179 
L 157.987275 0.915179 
L 157.271603 0.915179 
L 156.555932 0.915179 
L 155.840261 0.915179 
L 155.124589 0.915179 
L 154.408918 0.915179 
L 153.693246 0.915179 
L 152.977575 0.915179 
L 152.261904 0.915179 
L 151.546232 0.915179 
L 150.830561 0.915179 
L 150.11489 0.915179 
L 149.399218 0.915179 
L 148.683547 0.915179 
L 147.967876 0.915179 
L 147.252204 0.915179 
L 146.536533 0.915179 
L 145.820862 0.915179 
L 145.10519 0.915179 
L 144.389519 0.915179 
L 143.673848 0.915179 
L 142.958176 0.915179 
L 142.242505 0.915179 
L 141.526834 0.915179 
L 140.811162 0.915179 
L 140.095491 0.915179 
L 139.37982 0.915179 
L 138.664148 0.915179 
L 137.948477 0.915179 
L 137.232806 0.915179 
L 136.517134 0.915179 
L 135.801463 0.915179 
L 135.085792 0.915179 
L 134.37012 0.915179 
L 133.654449 0.915179 
L 132.938778 0.915179 
L 132.223106 0.915179 
L 131.507435 0.915179 
L 130.791764 0.915179 
L 130.076092 0.915179 
L 129.360421 0.915179 
L 128.644749 0.915179 
L 127.929078 0.915179 
L 127.213407 0.915179 
L 126.497735 0.915179 
L 125.782064 0.915179 
L 125.066393 0.915179 
L 124.350721 0.915179 
L 123.63505 0.915179 
L 122.919379 0.915179 
L 122.203707 0.915179 
L 121.488036 0.915179 
L 120.772365 0.915179 
L 120.056693 0.915179 
L 119.341022 0.915179 
L 118.625351 0.915179 
L 117.909679 0.915179 
L 117.194008 0.915179 
L 116.478337 0.915179 
L 115.762665 0.915179 
L 115.046994 0.915179 
L 114.331323 0.915179 
L 113.615651 0.915179 
L 112.89998 0.915179 
L 112.184309 0.915179 
L 111.468637 0.915179 
L 110.752966 0.915179 
L 110.037295 0.915179 
L 109.321623 0.915179 
L 108.605952 0.915179 
L 107.890281 0.915179 
L 107.174609 0.915179 
L 106.458938 0.915179 
L 105.743267 0.915179 
L 105.027595 0.915179 
L 104.311924 0.915179 
L 103.596253 0.915179 
L 102.880581 0.915179 
L 102.16491 0.915179 
L 101.449238 0.915179 
L 100.733567 0.915179 
L 100.017896 0.915179 
L 99.302224 0.915179 
L 98.586553 0.915179 
L 97.870882 0.915179 
L 97.15521 0.915179 
L 96.439539 0.915179 
L 95.723868 0.915179 
L 95.008196 0.915179 
L 94.292525 0.915179 
L 93.576854 0.915179 
L 92.861182 0.915179 
L 92.145511 0.915179 
L 91.42984 0.915179 
L 90.714168 0.915179 
L 89.998497 0.915179 
L 89.282826 0.915179 
L 88.567154 0.915179 
L 87.851483 0.915179 
L 87.135812 0.915179 
L 86.42014 0.915179 
L 85.704469 0.915179 
L 84.988798 0.915179 
L 84.273126 0.915179 
L 83.557455 0.915179 
L 82.841784 0.915179 
L 82.126112 0.915179 
L 81.410441 0.915179 
L 80.69477 0.915179 
L 79.979098 0.915179 
L 79.263427 0.915179 
L 78.547756 0.915179 
L 77.832084 0.915179 
L 77.116413 0.915179 
L 76.400741 0.915179 
L 75.68507 0.915179 
L 74.969399 0.915179 
L 74.253727 0.915179 
L 73.538056 0.915179 
L 72.822385 0.915179 
L 72.106713 0.915179 
L 71.391042 0.915179 
L 70.675371 0.915179 
L 69.959699 0.915179 
L 69.244028 0.915179 
L 68.528357 0.915179 
L 67.812685 0.915179 
L 67.097014 0.915179 
L 66.381343 0.915179 
L 65.665671 0.915179 
L 64.95 0.915179 
z
" style="stroke: #d4edfc; stroke-opacity: 0.9"/>
    </defs>
    <g clip-path="url(#p644b33b01f)">
     <use xlink:href="#mdb66354fcf" x="0" y="203.254375" style="fill: #d4edfc; fill-opacity: 0.9; stroke: #d4edfc; stroke-opacity: 0.9"/>
    </g>
   </g>
   <g id="matplotlib.axis_1">
    <g id="xtick_1">
     <g id="line2d_1">
      <path d="M 149.977887 140.398125 
L 149.977887 51.118125 
" clip-path="url(#p644b33b01f)" style="fill: none"/>
     </g>
     <g id="line2d_2"/>
     <g id="text_1">
      <text style="fill: #004a80; font: 10px 'DejaVu Sans', 'Bitstream Vera Sans', 'Computer Modern Sans Serif', 'Lucida Grande', 'Verdana', 'Geneva', 'Lucid', 'Arial', 'Helvetica', 'Avant Garde', sans-serif; text-anchor: middle" x="149.977887" y="151.496562" transform="rotate(-0 149.977887 151.496562)">0.5</text>
     </g>
    </g>
    <g id="xtick_2">
     <g id="line2d_3">
      <path d="M 235.005775 140.398125 
L 235.005775 51.118125 
" clip-path="url(#p644b33b01f)" style="fill: none"/>
     </g>
     <g id="line2d_4"/>
     <g id="text_2">
      <text style="fill: #004a80; font: 10px 'DejaVu Sans', 'Bitstream Vera Sans', 'Computer Modern Sans Serif', 'Lucida Grande', 'Verdana', 'Geneva', 'Lucid', 'Arial', 'Helvetica', 'Avant Garde', sans-serif; text-anchor: middle" x="235.005775" y="151.496562" transform="rotate(-0 235.005775 151.496562)">1.0</text>
     </g>
    </g>
    <g id="xtick_3">
     <g id="line2d_5">
      <path d="M 320.033662 140.398125 
L 320.033662 51.118125 
" clip-path="url(#p644b33b01f)" style="fill: none"/>
     </g>
     <g id="line2d_6"/>
     <g id="text_3">
      <text style="fill: #004a80; font: 10px 'DejaVu Sans', 'Bitstream Vera Sans', 'Computer Modern Sans Serif', 'Lucida Grande', 'Verdana', 'Geneva', 'Lucid', 'Arial', 'Helvetica', 'Avant Garde', sans-serif; text-anchor: middle" x="320.033662" y="151.496562" transform="rotate(-0 320.033662 151.496562)">1.5</text>
     </g>
    </g>
    <g id="xtick_4">
     <g id="line2d_7">
      <path d="M 422.07 140.398125 
L 422.07 51.118125 
" clip-path="url(#p644b33b01f)" style="fill: none"/>
     </g>
     <g id="line2d_8"/>
     <g id="text_4">
      <text style="fill: #004a80; font: 10px 'DejaVu Sans', 'Bitstream Vera Sans', 'Computer Modern Sans Serif', 'Lucida Grande', 'Verdana', 'Geneva', 'Lucid', 'Arial', 'Helvetica', 'Avant Garde', sans-serif; text-anchor: middle" x="422.07" y="151.496562" transform="rotate(-0 422.07 151.496562)">2.1</text>
     </g>
    </g>
    <g id="text_5">
     <text style="font: 10px 'DejaVu Sans', 'Bitstream Vera Sans', 'Computer Modern Sans Serif', 'Lucida Grande', 'Verdana', 'Geneva', 'Lucid', 'Arial', 'Helvetica', 'Avant Garde', sans-serif; text-anchor: middle" x="243.51" y="165.174687" transform="rotate(-0 243.51 165.174687)">Distance (km)</text>
    </g>
   </g>
   <g id="matplotlib.axis_2">
    <g id="ytick_1">
     <g id="line2d_9">
      <path d="M 64.95 127.643839 
L 422.07 127.643839 
" clip-path="url(#p644b33b01f)" style="fill: none; stroke: #9d9d9c; stroke-width: 0.8; stroke-linecap: square"/>
     </g>
     <g id="line2d_10"/>
     <g id="text_6">
      <text style="font: 10px 'DejaVu Sans', 'Bitstream Vera Sans', 'Computer Modern Sans Serif', 'Lucida Grande', 'Verdana', 'Geneva', 'Lucid', 'Arial', 'Helvetica', 'Avant Garde', sans-serif; text-anchor: end" x="61.45" y="131.443058" transform="rotate(-0 61.45 131.443058)">600</text>
     </g>
    </g>
    <g id="ytick_2">
     <g id="line2d_11">
      <path d="M 64.95 102.135268 
L 422.07 102.135268 
" clip-path="url(#p644b33b01f)" style="fill: none; stroke: #9d9d9c; stroke-width: 0.8; stroke-linecap: square"/>
     </g>
     <g id="line2d_12"/>
     <g id="text_7">
      <text style="font: 10px 'DejaVu Sans', 'Bitstream Vera Sans', 'Computer Modern Sans Serif', 'Lucida Grande', 'Verdana', 'Geneva', 'Lucid', 'Arial', 'Helvetica', 'Avant Garde', sans-serif; text-anchor: end" x="61.45" y="105.934487" transform="rotate(-0 61.45 105.934487)">800</text>
     </g>
    </g>
    <g id="ytick_3">
     <g id="line2d_13">
      <path d="M 64.95 76.626696 
L 422.07 76.626696 
" clip-path="url(#p644b33b01f)" style="fill: none; stroke: #9d9d9c; stroke-width: 0.8; stroke-linecap: square"/>
     </g>
     <g id="line2d_14"/>
     <g id="text_8">
      <text style="font: 10px 'DejaVu Sans', 'Bitstream Vera Sans', 'Computer Modern Sans Serif', 'Lucida Grande', 'Verdana', 'Geneva', 'Lucid', 'Arial', 'Helvetica', 'Avant Garde', sans-serif; text-anchor: end" x="61.45" y="80.425915" transform="rotate(-0 61.45 80.425915)">1000</text>
     </g>
    </g>
    <g id="ytick_4">
     <g id="line2d_15">
      <path d="M 64.95 51.118125 
L 422.07 51.118125 
" clip-path="url(#p644b33b01f)" style="fill: none; stroke: #9d9d9c; stroke-width: 0.8; stroke-linecap: square"/>
     </g>
     <g id="line2d_16"/>
     <g id="text_9">
      <text style="font: 10px 'DejaVu Sans', 'Bitstream Vera Sans', 'Computer Modern Sans Serif', 'Lucida Grande', 'Verdana', 'Geneva', 'Lucid', 'Arial', 'Helvetica', 'Avant Garde', sans-serif; text-anchor: end" x="61.45" y="54.917344" transform="rotate(-0 61.45 54.917344)">1200</text>
     </g>
    </g>
   </g>
   <g id="LineCollection_1">
    <path d="M 149.977887 204.169554 
L 149.977887 82.111039 
" clip-path="url(#p644b33b01f)" style="fill: none; stroke-dasharray: 7.4,3.2; stroke-dashoffset: 0; stroke: #004a80; stroke-width: 2"/>
    <path d="M 235.005775 204.169554 
L 235.005775 83.514011 
" clip-path="url(#p644b33b01f)" style="fill: none; stroke-dasharray: 7.4,3.2; stroke-dashoffset: 0; stroke: #004a80; stroke-width: 2"/>
    <path d="M 320.033662 204.169554 
L 320.033662 82.621211 
" clip-path="url(#p644b33b01f)" style="fill: none; stroke-dasharray: 7.4,3.2; stroke-dashoffset: 0; stroke: #004a80; stroke-width: 2"/>
   </g>
   <g id="patch_2">
    <path d="M 149.977887 140.398125 
L 320.033662 140.398125 
L 320.033662 138.484982 
L 149.977887 138.484982 
z
" clip-path="url(#p644b33b01f)" style="fill: #efefef"/>
   </g>
   <g id="patch_3">
    <path d="M 235.005775 140.398125 
L 490.089437 140.398125 
L 490.089437 138.484982 
L 235.005775 138.484982 
z
" clip-path="url(#p644b33b01f)" style="fill: #004a80"/>
   </g>
   <g id="patch_4">
    <path d="M 64.95 140.398125 
L 149.977887 140.398125 
L 149.977887 138.484982 
L 64.95 138.484982 
z
" clip-path="url(#p644b33b01f)" style="fill: #004a80"/>
   </g>
   <g id="patch_5">
    <path d="M 320.033662 140.398125 
L 677.153662 140.398125 
L 677.153662 138.484982 
L 320.033662 138.484982 
z
" clip-path="url(#p644b33b01f)" style="fill: #efefef"/>
   </g>
   <g id="text_10">
    <text style="font: 12px 'DejaVu Sans', 'Bitstream Vera Sans', 'Computer Modern Sans Serif', 'Lucida Grande', 'Verdana', 'Geneva', 'Lucid', 'Arial', 'Helvetica', 'Avant Garde', sans-serif; text-anchor: middle" x="243.51" y="45.118125" transform="rotate(-0 243.51 45.118125)">hundeloipe-pertisau</text>
   </g>
   <g id="line2d_17">
    <path d="M 64.95 80.635186 
L 83.557455 80.5192 
L 90.714168 80.661195 
L 119.341022 81.232335 
L 146.536533 81.653868 
L 152.977575 82.002642 
L 162.281303 82.139676 
L 178.026072 82.111039 
L 193.770842 82.21641 
L 210.231283 82.772576 
L 221.682024 82.755588 
L 244.583507 83.561047 
L 270.347675 83.347597 
L 283.945431 83.294027 
L 286.808116 83.253919 
L 296.827515 83.021012 
L 317.581984 82.61824 
L 320.444669 82.592124 
L 326.885711 82.61203 
L 331.179739 82.31616 
L 334.042425 82.078076 
L 338.336453 81.948319 
L 344.061824 81.92656 
L 352.64988 81.724584 
L 359.090922 81.731213 
L 369.825992 81.672573 
L 391.296132 81.520367 
L 395.59016 81.489522 
L 419.922986 80.536469 
L 422.07 80.452982 
L 422.07 80.452982 
" clip-path="url(#p644b33b01f)" style="fill: none; stroke: #0000ff; stroke-width: 3; stroke-linecap: square"/>
   </g>
  </g>
 </g>
 <defs>
  <clipPath id="p644b33b01f">
   <rect x="64.95" y="51.118125" width="357.12" height="89.28"/>
  </clipPath>
 </defs>
</svg>
