<?xml version="1.0" encoding="utf-8" standalone="no"?>
<!DOCTYPE svg PUBLIC "-//W3C//DTD SVG 1.1//EN"
  "http://www.w3.org/Graphics/SVG/1.1/DTD/svg11.dtd">
<svg xmlns:xlink="http://www.w3.org/1999/xlink" width="460.8pt" height="345.6pt" viewBox="0 0 460.8 345.6" xmlns="http://www.w3.org/2000/svg" version="1.1">
 <metadata>
  <rdf:RDF xmlns:dc="http://purl.org/dc/elements/1.1/" xmlns:cc="http://creativecommons.org/ns#" xmlns:rdf="http://www.w3.org/1999/02/22-rdf-syntax-ns#">
   <cc:Work>
    <dc:type rdf:resource="http://purl.org/dc/dcmitype/StillImage"/>
    <dc:date>2024-08-26T11:20:47.055628</dc:date>
    <dc:format>image/svg+xml</dc:format>
    <dc:creator>
     <cc:Agent>
      <dc:title>Matplotlib v3.8.4, https://matplotlib.org/</dc:title>
     </cc:Agent>
    </dc:creator>
   </cc:Work>
  </rdf:RDF>
 </metadata>
 <defs>
  <style type="text/css">*{stroke-linejoin: round; stroke-linecap: butt}</style>
 </defs>
 <g id="figure_1">
  <g id="patch_1">
   <path d="M 0 345.6 
L 460.8 345.6 
L 460.8 0 
L 0 0 
z
" style="fill: #ffffff"/>
  </g>
  <g id="axes_1">
   <g id="PolyCollection_1">
    <defs>
     <path id="mbd8d395375" d="M 57.6 -62.660571 
L 57.6 -181.264496 
L 57.910809 -181.266884 
L 58.221619 -181.269271 
L 58.532428 -181.271658 
L 58.843238 -181.274046 
L 59.154047 -181.276433 
L 59.464856 -181.27882 
L 59.775666 -181.281207 
L 60.086475 -181.283595 
L 60.397285 -181.285982 
L 60.708094 -181.288369 
L 61.018903 -181.290757 
L 61.329713 -181.293144 
L 61.640522 -181.293061 
L 61.951332 -181.292315 
L 62.262141 -181.291569 
L 62.57295 -181.290823 
L 62.88376 -181.290077 
L 63.194569 -181.289332 
L 63.505379 -181.288586 
L 63.816188 -181.28784 
L 64.126997 -181.287094 
L 64.437807 -181.286269 
L 64.748616 -181.280898 
L 65.059426 -181.275528 
L 65.370235 -181.270157 
L 65.681044 -181.264786 
L 65.991854 -181.259416 
L 66.302663 -181.254045 
L 66.613473 -181.248675 
L 66.924282 -181.243304 
L 67.235091 -181.237725 
L 67.545901 -181.232116 
L 67.85671 -181.226508 
L 68.16752 -181.220899 
L 68.478329 -181.21529 
L 68.789138 -181.209681 
L 69.099948 -181.204072 
L 69.410757 -181.198464 
L 69.721567 -181.192855 
L 70.032376 -181.187246 
L 70.343185 -181.181637 
L 70.653995 -181.176908 
L 70.964804 -181.172358 
L 71.275614 -181.167809 
L 71.586423 -181.16326 
L 71.897232 -181.158711 
L 72.208042 -181.154161 
L 72.518851 -181.149612 
L 72.829661 -181.145063 
L 73.14047 -181.140514 
L 73.451279 -181.136953 
L 73.762089 -181.136953 
L 74.072898 -181.136953 
L 74.383708 -181.136953 
L 74.694517 -181.136953 
L 75.005326 -181.136953 
L 75.316136 -181.136953 
L 75.626945 -181.136953 
L 75.937755 -181.136953 
L 76.248564 -181.136953 
L 76.559373 -181.136953 
L 76.870183 -181.139572 
L 77.180992 -181.144377 
L 77.491802 -181.149181 
L 77.802611 -181.153986 
L 78.11342 -181.15879 
L 78.42423 -181.163595 
L 78.735039 -181.168399 
L 79.045849 -181.173204 
L 79.356658 -181.178008 
L 79.667467 -181.18337 
L 79.978277 -181.189433 
L 80.289086 -181.195495 
L 80.599896 -181.201558 
L 80.910705 -181.20762 
L 81.221514 -181.213682 
L 81.532324 -181.219745 
L 81.843133 -181.225807 
L 82.153943 -181.231869 
L 82.464752 -181.237932 
L 82.775561 -181.243461 
L 83.086371 -181.247153 
L 83.39718 -181.250844 
L 83.70799 -181.254535 
L 84.018799 -181.258226 
L 84.329608 -181.261918 
L 84.640418 -181.265609 
L 84.951227 -181.2693 
L 85.262037 -181.272992 
L 85.572846 -181.276683 
L 85.883655 -181.280374 
L 86.194465 -181.284065 
L 86.505274 -181.285901 
L 86.816084 -181.284684 
L 87.126893 -181.283466 
L 87.437702 -181.282249 
L 87.748512 -181.281032 
L 88.059321 -181.279815 
L 88.370131 -181.278598 
L 88.68094 -181.277381 
L 88.991749 -181.276164 
L 89.302559 -181.275429 
L 89.613368 -181.275429 
L 89.924178 -181.275429 
L 90.234987 -181.275429 
L 90.545796 -181.275429 
L 90.856606 -181.275429 
L 91.167415 -181.275429 
L 91.478225 -181.275429 
L 91.789034 -181.275429 
L 92.099843 -181.275429 
L 92.410653 -181.275429 
L 92.721462 -181.275429 
L 93.032272 -181.275429 
L 93.343081 -181.275429 
L 93.65389 -181.275429 
L 93.9647 -181.275429 
L 94.275509 -181.275429 
L 94.586319 -181.275429 
L 94.897128 -181.275429 
L 95.207937 -181.275429 
L 95.518747 -181.275429 
L 95.829556 -181.275429 
L 96.140366 -181.275429 
L 96.451175 -181.275429 
L 96.761984 -181.275429 
L 97.072794 -181.275429 
L 97.383603 -181.275429 
L 97.694413 -181.275429 
L 98.005222 -181.275429 
L 98.316031 -181.275429 
L 98.626841 -181.275429 
L 98.93765 -181.275429 
L 99.24846 -181.275429 
L 99.559269 -181.275429 
L 99.870078 -181.275429 
L 100.180888 -181.275429 
L 100.491697 -181.275429 
L 100.802507 -181.275429 
L 101.113316 -181.275429 
L 101.424125 -181.275429 
L 101.734935 -181.275429 
L 102.045744 -181.275429 
L 102.356554 -181.275429 
L 102.667363 -181.273566 
L 102.978172 -181.270808 
L 103.288982 -181.268051 
L 103.599791 -181.265294 
L 103.910601 -181.269219 
L 104.22141 -181.275861 
L 104.532219 -181.282504 
L 104.843029 -181.289147 
L 105.153838 -181.29579 
L 105.464648 -181.302433 
L 105.775457 -181.309072 
L 106.086266 -181.315687 
L 106.397076 -181.322301 
L 106.707885 -181.328916 
L 107.018695 -181.335531 
L 107.329504 -181.342146 
L 107.640313 -181.348761 
L 107.951123 -181.355376 
L 108.261932 -181.36199 
L 108.572742 -181.368605 
L 108.883551 -181.373304 
L 109.19436 -181.377407 
L 109.50517 -181.38151 
L 109.815979 -181.385613 
L 110.126789 -181.389716 
L 110.437598 -181.393819 
L 110.748407 -181.397922 
L 111.059217 -181.402025 
L 111.370026 -181.406128 
L 111.680836 -181.410231 
L 111.991645 -181.413789 
L 112.302454 -181.412697 
L 112.613264 -181.411605 
L 112.924073 -181.410513 
L 113.234883 -181.409421 
L 113.545692 -181.408329 
L 113.856501 -181.407237 
L 114.167311 -181.406145 
L 114.47812 -181.405053 
L 114.78893 -181.403961 
L 115.099739 -181.402971 
L 115.410548 -181.402971 
L 115.721358 -181.402971 
L 116.032167 -181.402971 
L 116.342977 -181.402971 
L 116.653786 -181.402971 
L 116.964595 -181.402971 
L 117.275405 -181.402971 
L 117.586214 -181.402971 
L 117.897023 -181.402971 
L 118.207833 -181.402971 
L 118.518642 -181.402971 
L 118.829452 -181.402971 
L 119.140261 -181.402971 
L 119.45107 -181.402971 
L 119.76188 -181.402971 
L 120.072689 -181.402971 
L 120.383499 -181.402971 
L 120.694308 -181.402971 
L 121.005117 -181.401119 
L 121.315927 -181.394264 
L 121.626736 -181.387409 
L 121.937546 -181.380554 
L 122.248355 -181.373699 
L 122.559164 -181.377384 
L 122.869974 -181.392221 
L 123.180783 -181.407058 
L 123.491593 -181.421894 
L 123.802402 -181.436731 
L 124.113211 -181.451568 
L 124.424021 -181.466405 
L 124.73483 -181.481241 
L 125.04564 -181.496078 
L 125.356449 -181.514207 
L 125.667258 -181.534156 
L 125.978068 -181.554106 
L 126.288877 -181.574056 
L 126.599687 -181.594005 
L 126.910496 -181.613955 
L 127.221305 -181.633905 
L 127.532115 -181.653854 
L 127.842924 -181.673804 
L 128.153734 -181.692077 
L 128.464543 -181.706913 
L 128.775352 -181.72175 
L 129.086162 -181.736587 
L 129.396971 -181.751424 
L 129.707781 -181.76626 
L 130.01859 -181.781097 
L 130.329399 -181.795934 
L 130.640209 -181.810771 
L 130.951018 -181.815117 
L 131.261828 -181.808369 
L 131.572637 -181.801621 
L 131.883446 -181.794873 
L 132.194256 -181.788125 
L 132.505065 -181.781376 
L 132.815875 -181.774628 
L 133.126684 -181.76788 
L 133.437493 -181.761132 
L 133.748303 -181.754384 
L 134.059112 -181.76116 
L 134.369922 -181.772074 
L 134.680731 -181.782987 
L 134.99154 -181.7939 
L 135.30235 -181.804813 
L 135.613159 -181.815727 
L 135.923969 -181.82664 
L 136.234778 -181.837553 
L 136.545587 -181.848466 
L 136.856397 -181.85938 
L 137.167206 -181.870293 
L 137.478016 -181.881206 
L 137.788825 -181.896038 
L 138.099634 -181.912213 
L 138.410444 -181.928388 
L 138.721253 -181.944562 
L 139.032063 -181.960737 
L 139.342872 -181.976911 
L 139.653681 -181.993086 
L 139.964491 -182.009261 
L 140.2753 -182.025435 
L 140.58611 -182.04161 
L 140.896919 -182.057784 
L 141.207728 -182.07244 
L 141.518538 -182.082652 
L 141.829347 -182.092864 
L 142.140157 -182.103076 
L 142.450966 -182.113288 
L 142.761775 -182.1235 
L 143.072585 -182.133712 
L 143.383394 -182.143924 
L 143.694204 -182.154136 
L 144.005013 -182.164348 
L 144.315822 -182.17456 
L 144.626632 -182.184772 
L 144.937441 -182.194984 
L 145.248251 -182.199431 
L 145.55906 -182.195529 
L 145.869869 -182.191626 
L 146.180679 -182.187724 
L 146.491488 -182.183821 
L 146.802298 -182.179918 
L 147.113107 -182.176016 
L 147.423916 -182.172113 
L 147.734726 -182.16821 
L 148.045535 -182.164308 
L 148.356345 -182.160405 
L 148.667154 -182.158012 
L 148.977963 -182.161529 
L 149.288773 -182.165046 
L 149.599582 -182.168564 
L 149.910392 -182.172081 
L 150.221201 -182.175598 
L 150.53201 -182.179116 
L 150.84282 -182.182633 
L 151.153629 -182.18615 
L 151.464439 -182.189668 
L 151.775248 -182.193185 
L 152.086057 -182.196702 
L 152.396867 -182.20022 
L 152.707676 -182.204743 
L 153.018486 -182.209565 
L 153.329295 -182.214388 
L 153.640104 -182.21921 
L 153.950914 -182.224032 
L 154.261723 -182.228855 
L 154.572533 -182.233677 
L 154.883342 -182.238499 
L 155.194151 -182.243322 
L 155.504961 -182.248144 
L 155.81577 -182.252966 
L 156.12658 -182.257789 
L 156.437389 -182.262611 
L 156.748198 -182.266811 
L 157.059008 -182.270961 
L 157.369817 -182.27511 
L 157.680627 -182.27926 
L 157.991436 -182.283409 
L 158.302245 -182.287558 
L 158.613055 -182.291708 
L 158.923864 -182.295857 
L 159.234674 -182.300007 
L 159.545483 -182.304156 
L 159.856292 -182.30559 
L 160.167102 -182.302705 
L 160.477911 -182.29982 
L 160.788721 -182.296934 
L 161.09953 -182.294049 
L 161.410339 -182.291164 
L 161.721149 -182.288279 
L 162.031958 -182.285394 
L 162.342768 -182.290802 
L 162.653577 -182.298185 
L 162.964386 -182.305568 
L 163.275196 -182.312951 
L 163.586005 -182.320334 
L 163.896815 -182.327717 
L 164.207624 -182.345101 
L 164.518433 -182.36379 
L 164.829243 -182.382479 
L 165.140052 -182.394103 
L 165.450862 -182.400396 
L 165.761671 -182.406689 
L 166.07248 -182.412981 
L 166.38329 -182.419274 
L 166.694099 -182.425566 
L 167.004909 -182.431859 
L 167.315718 -182.433443 
L 167.626527 -182.432148 
L 167.937337 -182.430853 
L 168.248146 -182.429558 
L 168.558956 -182.428262 
L 168.869765 -182.426967 
L 169.180574 -182.425672 
L 169.491384 -182.424377 
L 169.802193 -182.423314 
L 170.113003 -182.423314 
L 170.423812 -182.423314 
L 170.734621 -182.423314 
L 171.045431 -182.423314 
L 171.35624 -182.423314 
L 171.66705 -182.423314 
L 171.977859 -182.423314 
L 172.288668 -182.423314 
L 172.599478 -182.423314 
L 172.910287 -182.423314 
L 173.221097 -182.423314 
L 173.531906 -182.423314 
L 173.842715 -182.423314 
L 174.153525 -182.423314 
L 174.464334 -182.423314 
L 174.775144 -182.423314 
L 175.085953 -182.423314 
L 175.396762 -182.423314 
L 175.707572 -182.423314 
L 176.018381 -182.423314 
L 176.329191 -182.423314 
L 176.64 -182.423314 
L 176.950809 -182.423314 
L 177.261619 -182.423314 
L 177.572428 -182.423314 
L 177.883238 -182.423314 
L 178.194047 -182.423314 
L 178.504856 -182.423314 
L 178.815666 -182.423314 
L 179.126475 -182.424702 
L 179.437285 -182.426803 
L 179.748094 -182.428904 
L 180.058903 -182.431005 
L 180.369713 -182.433106 
L 180.680522 -182.435207 
L 180.991332 -182.437308 
L 181.302141 -182.439409 
L 181.61295 -182.44151 
L 181.92376 -182.443612 
L 182.234569 -182.442794 
L 182.545379 -182.433405 
L 182.856188 -182.424017 
L 183.166997 -182.414629 
L 183.477807 -182.405241 
L 183.788616 -182.395853 
L 184.099426 -182.386465 
L 184.410235 -182.377076 
L 184.721044 -182.367688 
L 185.031854 -182.3583 
L 185.342663 -182.348196 
L 185.653473 -182.338044 
L 185.964282 -182.327892 
L 186.275091 -182.317741 
L 186.585901 -182.307589 
L 186.89671 -182.297437 
L 187.20752 -182.287286 
L 187.518329 -182.277134 
L 187.829138 -182.266983 
L 188.139948 -182.256831 
L 188.450757 -182.246679 
L 188.761567 -182.236528 
L 189.072376 -182.227845 
L 189.383185 -182.219697 
L 189.693995 -182.211548 
L 190.004804 -182.2034 
L 190.315614 -182.195251 
L 190.626423 -182.187103 
L 190.937232 -182.178954 
L 191.248042 -182.170806 
L 191.558851 -182.162657 
L 191.869661 -182.154509 
L 192.18047 -182.146366 
L 192.491279 -182.150216 
L 192.802089 -182.154066 
L 193.112898 -182.157916 
L 193.423708 -182.161765 
L 193.734517 -182.165615 
L 194.045326 -182.169465 
L 194.356136 -182.173315 
L 194.666945 -182.177165 
L 194.977755 -182.177446 
L 195.288564 -182.173885 
L 195.599373 -182.170324 
L 195.910183 -182.166763 
L 196.220992 -182.163202 
L 196.531802 -182.15964 
L 196.842611 -182.156079 
L 197.15342 -182.152518 
L 197.46423 -182.148957 
L 197.775039 -182.145396 
L 198.085849 -182.141835 
L 198.396658 -182.138274 
L 198.707467 -182.134473 
L 199.018277 -182.129726 
L 199.329086 -182.124978 
L 199.639896 -182.120231 
L 199.950705 -182.115483 
L 200.261514 -182.110736 
L 200.572324 -182.105988 
L 200.883133 -182.101241 
L 201.193943 -182.096493 
L 201.504752 -182.091746 
L 201.815561 -182.086998 
L 202.126371 -182.082251 
L 202.43718 -182.077504 
L 202.74799 -182.072953 
L 203.058799 -182.069489 
L 203.369608 -182.066026 
L 203.680418 -182.062562 
L 203.991227 -182.059099 
L 204.302037 -182.055636 
L 204.612846 -182.052172 
L 204.923655 -182.048709 
L 205.234465 -182.045245 
L 205.545274 -182.041782 
L 205.856084 -182.038319 
L 206.166893 -182.034855 
L 206.477702 -182.031392 
L 206.788512 -182.030732 
L 207.099321 -182.032589 
L 207.410131 -182.034445 
L 207.72094 -182.036302 
L 208.031749 -182.038159 
L 208.342559 -182.040016 
L 208.653368 -182.041872 
L 208.964178 -182.043729 
L 209.274987 -182.045586 
L 209.585796 -182.047443 
L 209.896606 -182.049299 
L 210.207415 -182.051156 
L 210.518225 -182.04881 
L 210.829034 -182.045072 
L 211.139843 -182.041334 
L 211.450653 -182.037596 
L 211.761462 -182.033858 
L 212.072272 -182.03012 
L 212.383081 -182.026382 
L 212.69389 -182.022643 
L 213.0047 -182.018905 
L 213.315509 -182.015167 
L 213.626319 -182.011429 
L 213.937128 -182.007616 
L 214.247937 -182.002456 
L 214.558747 -181.997297 
L 214.869556 -181.992137 
L 215.180366 -181.986977 
L 215.491175 -181.981818 
L 215.801984 -181.976658 
L 216.112794 -181.971498 
L 216.423603 -181.966339 
L 216.734413 -181.961179 
L 217.045222 -181.956019 
L 217.356031 -181.95086 
L 217.666841 -181.945753 
L 217.97765 -181.941725 
L 218.28846 -181.937698 
L 218.599269 -181.933671 
L 218.910078 -181.929644 
L 219.220888 -181.925617 
L 219.531697 -181.921589 
L 219.842507 -181.917562 
L 220.153316 -181.913535 
L 220.464125 -181.909508 
L 220.774935 -181.905481 
L 221.085744 -181.90241 
L 221.396554 -181.903468 
L 221.707363 -181.904526 
L 222.018172 -181.905584 
L 222.328982 -181.906642 
L 222.639791 -181.907701 
L 222.950601 -181.908759 
L 223.26141 -181.909817 
L 223.572219 -181.910875 
L 223.883029 -181.911933 
L 224.193838 -181.912992 
L 224.504648 -181.913143 
L 224.815457 -181.913143 
L 225.126266 -181.913143 
L 225.437076 -181.913143 
L 225.747885 -181.913143 
L 226.058695 -181.913143 
L 226.369504 -181.913143 
L 226.680313 -181.913143 
L 226.991123 -181.913143 
L 227.301932 -181.913143 
L 227.612742 -181.913143 
L 227.923551 -181.913143 
L 228.23436 -181.913143 
L 228.54517 -181.913143 
L 228.855979 -181.913143 
L 229.166789 -181.913143 
L 229.477598 -181.913143 
L 229.788407 -181.913143 
L 230.099217 -181.913143 
L 230.410026 -181.913143 
L 230.720836 -181.913143 
L 231.031645 -181.913143 
L 231.342454 -181.913143 
L 231.653264 -181.913143 
L 231.964073 -181.913143 
L 232.274883 -181.913143 
L 232.585692 -181.916303 
L 232.896501 -181.920087 
L 233.207311 -181.923871 
L 233.51812 -181.927654 
L 233.82893 -181.931438 
L 234.139739 -181.935222 
L 234.450548 -181.939005 
L 234.761358 -181.942789 
L 235.072167 -181.94343 
L 235.382977 -181.92843 
L 235.693786 -181.913431 
L 236.004595 -181.898431 
L 236.315405 -181.883431 
L 236.626214 -181.868432 
L 236.937023 -181.853432 
L 237.247833 -181.838433 
L 237.558642 -181.823433 
L 237.869452 -181.805775 
L 238.180261 -181.784465 
L 238.49107 -181.763155 
L 238.80188 -181.741845 
L 239.112689 -181.720536 
L 239.423499 -181.699226 
L 239.734308 -181.677916 
L 240.045117 -181.656606 
L 240.355927 -181.635296 
L 240.666736 -181.619731 
L 240.977546 -181.606626 
L 241.288355 -181.593522 
L 241.599164 -181.580417 
L 241.909974 -181.567313 
L 242.220783 -181.554208 
L 242.531593 -181.541104 
L 242.842402 -181.527999 
L 243.153211 -181.514895 
L 243.464021 -181.50179 
L 243.77483 -181.500723 
L 244.08564 -181.505085 
L 244.396449 -181.509446 
L 244.707258 -181.513807 
L 245.018068 -181.518168 
L 245.328877 -181.522529 
L 245.639687 -181.526891 
L 245.950496 -181.531252 
L 246.261305 -181.535613 
L 246.572115 -181.539974 
L 246.882924 -181.53918 
L 247.193734 -181.535759 
L 247.504543 -181.532337 
L 247.815352 -181.528916 
L 248.126162 -181.525494 
L 248.436971 -181.522073 
L 248.747781 -181.518652 
L 249.05859 -181.51523 
L 249.369399 -181.511809 
L 249.680209 -181.508387 
L 249.991018 -181.504966 
L 250.301828 -181.501545 
L 250.612637 -181.498123 
L 250.923446 -181.493319 
L 251.234256 -181.488328 
L 251.545065 -181.483338 
L 251.855875 -181.478347 
L 252.166684 -181.473357 
L 252.477493 -181.468367 
L 252.788303 -181.463376 
L 253.099112 -181.458386 
L 253.409922 -181.453396 
L 253.720731 -181.448405 
L 254.03154 -181.443415 
L 254.34235 -181.438424 
L 254.653159 -181.433997 
L 254.963969 -181.430211 
L 255.274778 -181.426424 
L 255.585587 -181.422638 
L 255.896397 -181.418851 
L 256.207206 -181.415064 
L 256.518016 -181.411278 
L 256.828825 -181.407491 
L 257.139634 -181.403705 
L 257.450444 -181.399918 
L 257.761253 -181.396132 
L 258.072063 -181.392345 
L 258.382872 -181.392039 
L 258.693681 -181.392039 
L 259.004491 -181.392039 
L 259.3153 -181.392039 
L 259.62611 -181.392039 
L 259.936919 -181.392039 
L 260.247728 -181.392039 
L 260.558538 -181.392039 
L 260.869347 -181.392039 
L 261.180157 -181.392039 
L 261.490966 -181.392039 
L 261.801775 -181.392039 
L 262.112585 -181.39209 
L 262.423394 -181.395639 
L 262.734204 -181.399188 
L 263.045013 -181.402736 
L 263.355822 -181.406285 
L 263.666632 -181.409833 
L 263.977441 -181.413382 
L 264.288251 -181.416931 
L 264.59906 -181.420479 
L 264.909869 -181.424028 
L 265.220679 -181.427576 
L 265.531488 -181.431125 
L 265.842298 -181.434674 
L 266.153107 -181.439624 
L 266.463916 -181.4452 
L 266.774726 -181.450775 
L 267.085535 -181.456351 
L 267.396345 -181.461926 
L 267.707154 -181.467502 
L 268.017963 -181.473078 
L 268.328773 -181.478653 
L 268.639582 -181.484229 
L 268.950392 -181.489804 
L 269.261201 -181.49538 
L 269.57201 -181.499856 
L 269.88282 -181.503537 
L 270.193629 -181.507219 
L 270.504439 -181.510901 
L 270.815248 -181.514583 
L 271.126057 -181.518264 
L 271.436867 -181.521946 
L 271.747676 -181.525628 
L 272.058486 -181.52931 
L 272.369295 -181.532991 
L 272.680104 -181.536673 
L 272.990914 -181.540355 
L 273.301723 -181.541447 
L 273.612533 -181.541447 
L 273.923342 -181.541447 
L 274.234151 -181.541447 
L 274.544961 -181.541447 
L 274.85577 -181.541447 
L 275.16658 -181.541447 
L 275.477389 -181.541447 
L 275.788198 -181.541447 
L 276.099008 -181.541447 
L 276.409817 -181.541447 
L 276.720627 -181.541447 
L 277.031436 -181.541447 
L 277.342245 -181.538677 
L 277.653055 -181.534859 
L 277.963864 -181.53104 
L 278.274674 -181.527222 
L 278.585483 -181.523403 
L 278.896292 -181.519585 
L 279.207102 -181.515767 
L 279.517911 -181.511948 
L 279.828721 -181.50813 
L 280.13953 -181.504311 
L 280.450339 -181.500493 
L 280.761149 -181.496293 
L 281.071958 -181.491077 
L 281.382768 -181.485861 
L 281.693577 -181.480645 
L 282.004386 -181.47543 
L 282.315196 -181.470214 
L 282.626005 -181.464998 
L 282.936815 -181.459782 
L 283.247624 -181.454566 
L 283.558433 -181.449351 
L 283.869243 -181.444135 
L 284.180052 -181.438919 
L 284.490862 -181.434468 
L 284.801671 -181.431184 
L 285.11248 -181.4279 
L 285.42329 -181.424616 
L 285.734099 -181.421332 
L 286.044909 -181.418049 
L 286.355718 -181.414765 
L 286.666527 -181.411481 
L 286.977337 -181.408197 
L 287.288146 -181.404913 
L 287.598956 -181.401629 
L 287.909765 -181.398345 
L 288.220574 -181.395061 
L 288.531384 -181.392126 
L 288.842193 -181.393219 
L 289.153003 -181.394311 
L 289.463812 -181.395403 
L 289.774621 -181.396495 
L 290.085431 -181.397587 
L 290.39624 -181.39868 
L 290.70705 -181.399772 
L 291.017859 -181.400864 
L 291.328668 -181.401956 
L 291.639478 -181.402971 
L 291.950287 -181.402971 
L 292.261097 -181.402971 
L 292.571906 -181.402971 
L 292.882715 -181.402971 
L 293.193525 -181.402971 
L 293.504334 -181.402971 
L 293.815144 -181.402971 
L 294.125953 -181.402971 
L 294.436762 -181.402971 
L 294.747572 -181.402971 
L 295.058381 -181.402971 
L 295.369191 -181.402971 
L 295.68 -181.402971 
L 295.990809 -181.402971 
L 296.301619 -181.402971 
L 296.612428 -181.402971 
L 296.923238 -181.402971 
L 297.234047 -181.402971 
L 297.544856 -181.402971 
L 297.855666 -181.402971 
L 298.166475 -181.402971 
L 298.477285 -181.402971 
L 298.788094 -181.402971 
L 299.098903 -181.402971 
L 299.409713 -181.402971 
L 299.720522 -181.402971 
L 300.031332 -181.402971 
L 300.342141 -181.402971 
L 300.65295 -181.402971 
L 300.96376 -181.402971 
L 301.274569 -181.402971 
L 301.585379 -181.402971 
L 301.896188 -181.402971 
L 302.206997 -181.402971 
L 302.517807 -181.402971 
L 302.828616 -181.402971 
L 303.139426 -181.402971 
L 303.450235 -181.402971 
L 303.761044 -181.402971 
L 304.071854 -181.402971 
L 304.382663 -181.402971 
L 304.693473 -181.402971 
L 305.004282 -181.402971 
L 305.315091 -181.402971 
L 305.625901 -181.402971 
L 305.93671 -181.402971 
L 306.24752 -181.402971 
L 306.558329 -181.402971 
L 306.869138 -181.402971 
L 307.179948 -181.402971 
L 307.490757 -181.402971 
L 307.801567 -181.402971 
L 308.112376 -181.402971 
L 308.423185 -181.402971 
L 308.733995 -181.402971 
L 309.044804 -181.402971 
L 309.355614 -181.402971 
L 309.666423 -181.402971 
L 309.977232 -181.402971 
L 310.288042 -181.402971 
L 310.598851 -181.402971 
L 310.909661 -181.402971 
L 311.22047 -181.402971 
L 311.531279 -181.402971 
L 311.842089 -181.402971 
L 312.152898 -181.402971 
L 312.463708 -181.402971 
L 312.774517 -181.402971 
L 313.085326 -181.402971 
L 313.396136 -181.402971 
L 313.706945 -181.402971 
L 314.017755 -181.402971 
L 314.328564 -181.402971 
L 314.639373 -181.402971 
L 314.950183 -181.40298 
L 315.260992 -181.40386 
L 315.571802 -181.404739 
L 315.882611 -181.405618 
L 316.19342 -181.406497 
L 316.50423 -181.407377 
L 316.815039 -181.408256 
L 317.125849 -181.409135 
L 317.436658 -181.410015 
L 317.747467 -181.410894 
L 318.058277 -181.411773 
L 318.369086 -181.412653 
L 318.679896 -181.413532 
L 318.990705 -181.411773 
L 319.301514 -181.408081 
L 319.612324 -181.40439 
L 319.923133 -181.400699 
L 320.233943 -181.397007 
L 320.544752 -181.393316 
L 320.855561 -181.389625 
L 321.166371 -181.385933 
L 321.47718 -181.382242 
L 321.78799 -181.378551 
L 322.098799 -181.374859 
L 322.409608 -181.371168 
L 322.720418 -181.36596 
L 323.031227 -181.360194 
L 323.342037 -181.354428 
L 323.652846 -181.348662 
L 323.963655 -181.342895 
L 324.274465 -181.337129 
L 324.585274 -181.331363 
L 324.896084 -181.325597 
L 325.206893 -181.31983 
L 325.517702 -181.314064 
L 325.828512 -181.308298 
L 326.139321 -181.304541 
L 326.450131 -181.300809 
L 326.76094 -181.297077 
L 327.071749 -181.293345 
L 327.382559 -181.289614 
L 327.693368 -181.285882 
L 328.004178 -181.28215 
L 328.314987 -181.278419 
L 328.625796 -181.274687 
L 328.936606 -181.270955 
L 329.247415 -181.267224 
L 329.558225 -181.264496 
L 329.869034 -181.264496 
L 330.179843 -181.264496 
L 330.490653 -181.264496 
L 330.801462 -181.264496 
L 331.112272 -181.264496 
L 331.423081 -181.264496 
L 331.73389 -181.264496 
L 332.0447 -181.264496 
L 332.355509 -181.264496 
L 332.666319 -181.264496 
L 332.977128 -181.264496 
L 333.287937 -181.264496 
L 333.598747 -181.264496 
L 333.909556 -181.266283 
L 334.220366 -181.269883 
L 334.531175 -181.273482 
L 334.841984 -181.277082 
L 335.152794 -181.280682 
L 335.463603 -181.284282 
L 335.774413 -181.287882 
L 336.085222 -181.291482 
L 336.396031 -181.295082 
L 336.706841 -181.298682 
L 337.01765 -181.302282 
L 337.32846 -181.305882 
L 337.639269 -181.310244 
L 337.950078 -181.31603 
L 338.260888 -181.321815 
L 338.571697 -181.327601 
L 338.882507 -181.333386 
L 339.193316 -181.339172 
L 339.504125 -181.344957 
L 339.814935 -181.350743 
L 340.125744 -181.356528 
L 340.436554 -181.362314 
L 340.747363 -181.368099 
L 341.058172 -181.372384 
L 341.368982 -181.37583 
L 341.679791 -181.379276 
L 341.990601 -181.382722 
L 342.30141 -181.386168 
L 342.612219 -181.389614 
L 342.923029 -181.39306 
L 343.233838 -181.396505 
L 343.544648 -181.399951 
L 343.855457 -181.403397 
L 344.166266 -181.406843 
L 344.477076 -181.410289 
L 344.787885 -181.413735 
L 345.098695 -181.412936 
L 345.409504 -181.411918 
L 345.720313 -181.410901 
L 346.031123 -181.409883 
L 346.341932 -181.408866 
L 346.652742 -181.407848 
L 346.963551 -181.40683 
L 347.27436 -181.405813 
L 347.58517 -181.404795 
L 347.895979 -181.403778 
L 348.206789 -181.402971 
L 348.517598 -181.402971 
L 348.828407 -181.402971 
L 349.139217 -181.402971 
L 349.450026 -181.402971 
L 349.760836 -181.402971 
L 350.071645 -181.402971 
L 350.382454 -181.402971 
L 350.693264 -181.402971 
L 351.004073 -181.402971 
L 351.314883 -181.402971 
L 351.625692 -181.402971 
L 351.936501 -181.402971 
L 352.247311 -181.402971 
L 352.55812 -181.402971 
L 352.86893 -181.402971 
L 353.179739 -181.402971 
L 353.490548 -181.402971 
L 353.801358 -181.402971 
L 354.112167 -181.402971 
L 354.422977 -181.402971 
L 354.733786 -181.402971 
L 355.044595 -181.402971 
L 355.355405 -181.402971 
L 355.666214 -181.402971 
L 355.977023 -181.403375 
L 356.287833 -181.406296 
L 356.598642 -181.409217 
L 356.909452 -181.412138 
L 357.220261 -181.407387 
L 357.53107 -181.390907 
L 357.84188 -181.374427 
L 358.152689 -181.345612 
L 358.463499 -181.312508 
L 358.774308 -181.295414 
L 359.085117 -181.280699 
L 359.395927 -181.265985 
L 359.706736 -181.265397 
L 360.017546 -181.266398 
L 360.328355 -181.267399 
L 360.639164 -181.268401 
L 360.949974 -181.269402 
L 361.260783 -181.270404 
L 361.571593 -181.271405 
L 361.882402 -181.272407 
L 362.193211 -181.273408 
L 362.504021 -181.27441 
L 362.81483 -181.275411 
L 363.12564 -181.275429 
L 363.436449 -181.275429 
L 363.747258 -181.275429 
L 364.058068 -181.275429 
L 364.368877 -181.275429 
L 364.679687 -181.275429 
L 364.990496 -181.275429 
L 365.301305 -181.275429 
L 365.612115 -181.275429 
L 365.922924 -181.275429 
L 366.233734 -181.275429 
L 366.544543 -181.275429 
L 366.855352 -181.275429 
L 367.166162 -181.275429 
L 367.476971 -181.275429 
L 367.787781 -181.275429 
L 368.09859 -181.275429 
L 368.409399 -181.275429 
L 368.720209 -181.275429 
L 369.031018 -181.275429 
L 369.341828 -181.275429 
L 369.652637 -181.275429 
L 369.963446 -181.275429 
L 370.274256 -181.275429 
L 370.585065 -181.275429 
L 370.895875 -181.275429 
L 371.206684 -181.275429 
L 371.517493 -181.275429 
L 371.828303 -181.275429 
L 372.139112 -181.275429 
L 372.449922 -181.275429 
L 372.760731 -181.275429 
L 373.07154 -181.275429 
L 373.38235 -181.275429 
L 373.693159 -181.275429 
L 374.003969 -181.275429 
L 374.314778 -181.275429 
L 374.625587 -181.275429 
L 374.936397 -181.275429 
L 375.247206 -181.275429 
L 375.558016 -181.275429 
L 375.868825 -181.275429 
L 376.179634 -181.275429 
L 376.490444 -181.275429 
L 376.801253 -181.275429 
L 377.112063 -181.275429 
L 377.422872 -181.275429 
L 377.733681 -181.275429 
L 378.044491 -181.275429 
L 378.3553 -181.275429 
L 378.66611 -181.275429 
L 378.976919 -181.275429 
L 379.287728 -181.275429 
L 379.598538 -181.275429 
L 379.909347 -181.275429 
L 380.220157 -181.275429 
L 380.530966 -181.275429 
L 380.841775 -181.275429 
L 381.152585 -181.275429 
L 381.463394 -181.275429 
L 381.774204 -181.275429 
L 382.085013 -181.275429 
L 382.395822 -181.275429 
L 382.706632 -181.275429 
L 383.017441 -181.275429 
L 383.328251 -181.275429 
L 383.63906 -181.275429 
L 383.949869 -181.276321 
L 384.260679 -181.277467 
L 384.571488 -181.278614 
L 384.882298 -181.27976 
L 385.193107 -181.280906 
L 385.503916 -181.282053 
L 385.814726 -181.283199 
L 386.125535 -181.284346 
L 386.436345 -181.285492 
L 386.747154 -181.285509 
L 387.057963 -181.281993 
L 387.368773 -181.278477 
L 387.679582 -181.274961 
L 387.990392 -181.271445 
L 388.301201 -181.267929 
L 388.61201 -181.264413 
L 388.92282 -181.260897 
L 389.233629 -181.257381 
L 389.544439 -181.253865 
L 389.855248 -181.250349 
L 390.166057 -181.246833 
L 390.476867 -181.243318 
L 390.787676 -181.23753 
L 391.098486 -181.231192 
L 391.409295 -181.224854 
L 391.720104 -181.218516 
L 392.030914 -181.212178 
L 392.341723 -181.20584 
L 392.652533 -181.199502 
L 392.963342 -181.193165 
L 393.274151 -181.186827 
L 393.584961 -181.180524 
L 393.89577 -181.175329 
L 394.20658 -181.170134 
L 394.517389 -181.164939 
L 394.828198 -181.159744 
L 395.139008 -181.154549 
L 395.449817 -181.149354 
L 395.760627 -181.14416 
L 396.071436 -181.138965 
L 396.382245 -181.136953 
L 396.693055 -181.136953 
L 397.003864 -181.136953 
L 397.314674 -181.136953 
L 397.625483 -181.136953 
L 397.936292 -181.136953 
L 398.247102 -181.136953 
L 398.557911 -181.136953 
L 398.868721 -181.136953 
L 399.17953 -181.136953 
L 399.490339 -181.139529 
L 399.801149 -181.143765 
L 400.111958 -181.148001 
L 400.422768 -181.152237 
L 400.733577 -181.156473 
L 401.044386 -181.160709 
L 401.355196 -181.164946 
L 401.666005 -181.169182 
L 401.976815 -181.173418 
L 402.287624 -181.177654 
L 402.598433 -181.182331 
L 402.909243 -181.188117 
L 403.220052 -181.193902 
L 403.530862 -181.199687 
L 403.841671 -181.205473 
L 404.15248 -181.211258 
L 404.46329 -181.217043 
L 404.774099 -181.222829 
L 405.084909 -181.228614 
L 405.395718 -181.2344 
L 405.706527 -181.240185 
L 406.017337 -181.244745 
L 406.328146 -181.248407 
L 406.638956 -181.25207 
L 406.949765 -181.255732 
L 407.260574 -181.259394 
L 407.571384 -181.263056 
L 407.882193 -181.266719 
L 408.193003 -181.270381 
L 408.503812 -181.272112 
L 408.814621 -181.272642 
L 409.125431 -181.273172 
L 409.43624 -181.273702 
L 409.74705 -181.274233 
L 410.057859 -181.274763 
L 410.368668 -181.275293 
L 410.679478 -181.275823 
L 410.990287 -181.276354 
L 411.301097 -181.276884 
L 411.611906 -181.277414 
L 411.922715 -181.277944 
L 412.233525 -181.278475 
L 412.544334 -181.279005 
L 412.855144 -181.279535 
L 413.165953 -181.280065 
L 413.476762 -181.280596 
L 413.787572 -181.281126 
L 414.098381 -181.281656 
L 414.409191 -181.282186 
L 414.72 -181.282717 
L 414.72 -62.660571 
L 414.72 -62.660571 
L 414.409191 -62.660571 
L 414.098381 -62.660571 
L 413.787572 -62.660571 
L 413.476762 -62.660571 
L 413.165953 -62.660571 
L 412.855144 -62.660571 
L 412.544334 -62.660571 
L 412.233525 -62.660571 
L 411.922715 -62.660571 
L 411.611906 -62.660571 
L 411.301097 -62.660571 
L 410.990287 -62.660571 
L 410.679478 -62.660571 
L 410.368668 -62.660571 
L 410.057859 -62.660571 
L 409.74705 -62.660571 
L 409.43624 -62.660571 
L 409.125431 -62.660571 
L 408.814621 -62.660571 
L 408.503812 -62.660571 
L 408.193003 -62.660571 
L 407.882193 -62.660571 
L 407.571384 -62.660571 
L 407.260574 -62.660571 
L 406.949765 -62.660571 
L 406.638956 -62.660571 
L 406.328146 -62.660571 
L 406.017337 -62.660571 
L 405.706527 -62.660571 
L 405.395718 -62.660571 
L 405.084909 -62.660571 
L 404.774099 -62.660571 
L 404.46329 -62.660571 
L 404.15248 -62.660571 
L 403.841671 -62.660571 
L 403.530862 -62.660571 
L 403.220052 -62.660571 
L 402.909243 -62.660571 
L 402.598433 -62.660571 
L 402.287624 -62.660571 
L 401.976815 -62.660571 
L 401.666005 -62.660571 
L 401.355196 -62.660571 
L 401.044386 -62.660571 
L 400.733577 -62.660571 
L 400.422768 -62.660571 
L 400.111958 -62.660571 
L 399.801149 -62.660571 
L 399.490339 -62.660571 
L 399.17953 -62.660571 
L 398.868721 -62.660571 
L 398.557911 -62.660571 
L 398.247102 -62.660571 
L 397.936292 -62.660571 
L 397.625483 -62.660571 
L 397.314674 -62.660571 
L 397.003864 -62.660571 
L 396.693055 -62.660571 
L 396.382245 -62.660571 
L 396.071436 -62.660571 
L 395.760627 -62.660571 
L 395.449817 -62.660571 
L 395.139008 -62.660571 
L 394.828198 -62.660571 
L 394.517389 -62.660571 
L 394.20658 -62.660571 
L 393.89577 -62.660571 
L 393.584961 -62.660571 
L 393.274151 -62.660571 
L 392.963342 -62.660571 
L 392.652533 -62.660571 
L 392.341723 -62.660571 
L 392.030914 -62.660571 
L 391.720104 -62.660571 
L 391.409295 -62.660571 
L 391.098486 -62.660571 
L 390.787676 -62.660571 
L 390.476867 -62.660571 
L 390.166057 -62.660571 
L 389.855248 -62.660571 
L 389.544439 -62.660571 
L 389.233629 -62.660571 
L 388.92282 -62.660571 
L 388.61201 -62.660571 
L 388.301201 -62.660571 
L 387.990392 -62.660571 
L 387.679582 -62.660571 
L 387.368773 -62.660571 
L 387.057963 -62.660571 
L 386.747154 -62.660571 
L 386.436345 -62.660571 
L 386.125535 -62.660571 
L 385.814726 -62.660571 
L 385.503916 -62.660571 
L 385.193107 -62.660571 
L 384.882298 -62.660571 
L 384.571488 -62.660571 
L 384.260679 -62.660571 
L 383.949869 -62.660571 
L 383.63906 -62.660571 
L 383.328251 -62.660571 
L 383.017441 -62.660571 
L 382.706632 -62.660571 
L 382.395822 -62.660571 
L 382.085013 -62.660571 
L 381.774204 -62.660571 
L 381.463394 -62.660571 
L 381.152585 -62.660571 
L 380.841775 -62.660571 
L 380.530966 -62.660571 
L 380.220157 -62.660571 
L 379.909347 -62.660571 
L 379.598538 -62.660571 
L 379.287728 -62.660571 
L 378.976919 -62.660571 
L 378.66611 -62.660571 
L 378.3553 -62.660571 
L 378.044491 -62.660571 
L 377.733681 -62.660571 
L 377.422872 -62.660571 
L 377.112063 -62.660571 
L 376.801253 -62.660571 
L 376.490444 -62.660571 
L 376.179634 -62.660571 
L 375.868825 -62.660571 
L 375.558016 -62.660571 
L 375.247206 -62.660571 
L 374.936397 -62.660571 
L 374.625587 -62.660571 
L 374.314778 -62.660571 
L 374.003969 -62.660571 
L 373.693159 -62.660571 
L 373.38235 -62.660571 
L 373.07154 -62.660571 
L 372.760731 -62.660571 
L 372.449922 -62.660571 
L 372.139112 -62.660571 
L 371.828303 -62.660571 
L 371.517493 -62.660571 
L 371.206684 -62.660571 
L 370.895875 -62.660571 
L 370.585065 -62.660571 
L 370.274256 -62.660571 
L 369.963446 -62.660571 
L 369.652637 -62.660571 
L 369.341828 -62.660571 
L 369.031018 -62.660571 
L 368.720209 -62.660571 
L 368.409399 -62.660571 
L 368.09859 -62.660571 
L 367.787781 -62.660571 
L 367.476971 -62.660571 
L 367.166162 -62.660571 
L 366.855352 -62.660571 
L 366.544543 -62.660571 
L 366.233734 -62.660571 
L 365.922924 -62.660571 
L 365.612115 -62.660571 
L 365.301305 -62.660571 
L 364.990496 -62.660571 
L 364.679687 -62.660571 
L 364.368877 -62.660571 
L 364.058068 -62.660571 
L 363.747258 -62.660571 
L 363.436449 -62.660571 
L 363.12564 -62.660571 
L 362.81483 -62.660571 
L 362.504021 -62.660571 
L 362.193211 -62.660571 
L 361.882402 -62.660571 
L 361.571593 -62.660571 
L 361.260783 -62.660571 
L 360.949974 -62.660571 
L 360.639164 -62.660571 
L 360.328355 -62.660571 
L 360.017546 -62.660571 
L 359.706736 -62.660571 
L 359.395927 -62.660571 
L 359.085117 -62.660571 
L 358.774308 -62.660571 
L 358.463499 -62.660571 
L 358.152689 -62.660571 
L 357.84188 -62.660571 
L 357.53107 -62.660571 
L 357.220261 -62.660571 
L 356.909452 -62.660571 
L 356.598642 -62.660571 
L 356.287833 -62.660571 
L 355.977023 -62.660571 
L 355.666214 -62.660571 
L 355.355405 -62.660571 
L 355.044595 -62.660571 
L 354.733786 -62.660571 
L 354.422977 -62.660571 
L 354.112167 -62.660571 
L 353.801358 -62.660571 
L 353.490548 -62.660571 
L 353.179739 -62.660571 
L 352.86893 -62.660571 
L 352.55812 -62.660571 
L 352.247311 -62.660571 
L 351.936501 -62.660571 
L 351.625692 -62.660571 
L 351.314883 -62.660571 
L 351.004073 -62.660571 
L 350.693264 -62.660571 
L 350.382454 -62.660571 
L 350.071645 -62.660571 
L 349.760836 -62.660571 
L 349.450026 -62.660571 
L 349.139217 -62.660571 
L 348.828407 -62.660571 
L 348.517598 -62.660571 
L 348.206789 -62.660571 
L 347.895979 -62.660571 
L 347.58517 -62.660571 
L 347.27436 -62.660571 
L 346.963551 -62.660571 
L 346.652742 -62.660571 
L 346.341932 -62.660571 
L 346.031123 -62.660571 
L 345.720313 -62.660571 
L 345.409504 -62.660571 
L 345.098695 -62.660571 
L 344.787885 -62.660571 
L 344.477076 -62.660571 
L 344.166266 -62.660571 
L 343.855457 -62.660571 
L 343.544648 -62.660571 
L 343.233838 -62.660571 
L 342.923029 -62.660571 
L 342.612219 -62.660571 
L 342.30141 -62.660571 
L 341.990601 -62.660571 
L 341.679791 -62.660571 
L 341.368982 -62.660571 
L 341.058172 -62.660571 
L 340.747363 -62.660571 
L 340.436554 -62.660571 
L 340.125744 -62.660571 
L 339.814935 -62.660571 
L 339.504125 -62.660571 
L 339.193316 -62.660571 
L 338.882507 -62.660571 
L 338.571697 -62.660571 
L 338.260888 -62.660571 
L 337.950078 -62.660571 
L 337.639269 -62.660571 
L 337.32846 -62.660571 
L 337.01765 -62.660571 
L 336.706841 -62.660571 
L 336.396031 -62.660571 
L 336.085222 -62.660571 
L 335.774413 -62.660571 
L 335.463603 -62.660571 
L 335.152794 -62.660571 
L 334.841984 -62.660571 
L 334.531175 -62.660571 
L 334.220366 -62.660571 
L 333.909556 -62.660571 
L 333.598747 -62.660571 
L 333.287937 -62.660571 
L 332.977128 -62.660571 
L 332.666319 -62.660571 
L 332.355509 -62.660571 
L 332.0447 -62.660571 
L 331.73389 -62.660571 
L 331.423081 -62.660571 
L 331.112272 -62.660571 
L 330.801462 -62.660571 
L 330.490653 -62.660571 
L 330.179843 -62.660571 
L 329.869034 -62.660571 
L 329.558225 -62.660571 
L 329.247415 -62.660571 
L 328.936606 -62.660571 
L 328.625796 -62.660571 
L 328.314987 -62.660571 
L 328.004178 -62.660571 
L 327.693368 -62.660571 
L 327.382559 -62.660571 
L 327.071749 -62.660571 
L 326.76094 -62.660571 
L 326.450131 -62.660571 
L 326.139321 -62.660571 
L 325.828512 -62.660571 
L 325.517702 -62.660571 
L 325.206893 -62.660571 
L 324.896084 -62.660571 
L 324.585274 -62.660571 
L 324.274465 -62.660571 
L 323.963655 -62.660571 
L 323.652846 -62.660571 
L 323.342037 -62.660571 
L 323.031227 -62.660571 
L 322.720418 -62.660571 
L 322.409608 -62.660571 
L 322.098799 -62.660571 
L 321.78799 -62.660571 
L 321.47718 -62.660571 
L 321.166371 -62.660571 
L 320.855561 -62.660571 
L 320.544752 -62.660571 
L 320.233943 -62.660571 
L 319.923133 -62.660571 
L 319.612324 -62.660571 
L 319.301514 -62.660571 
L 318.990705 -62.660571 
L 318.679896 -62.660571 
L 318.369086 -62.660571 
L 318.058277 -62.660571 
L 317.747467 -62.660571 
L 317.436658 -62.660571 
L 317.125849 -62.660571 
L 316.815039 -62.660571 
L 316.50423 -62.660571 
L 316.19342 -62.660571 
L 315.882611 -62.660571 
L 315.571802 -62.660571 
L 315.260992 -62.660571 
L 314.950183 -62.660571 
L 314.639373 -62.660571 
L 314.328564 -62.660571 
L 314.017755 -62.660571 
L 313.706945 -62.660571 
L 313.396136 -62.660571 
L 313.085326 -62.660571 
L 312.774517 -62.660571 
L 312.463708 -62.660571 
L 312.152898 -62.660571 
L 311.842089 -62.660571 
L 311.531279 -62.660571 
L 311.22047 -62.660571 
L 310.909661 -62.660571 
L 310.598851 -62.660571 
L 310.288042 -62.660571 
L 309.977232 -62.660571 
L 309.666423 -62.660571 
L 309.355614 -62.660571 
L 309.044804 -62.660571 
L 308.733995 -62.660571 
L 308.423185 -62.660571 
L 308.112376 -62.660571 
L 307.801567 -62.660571 
L 307.490757 -62.660571 
L 307.179948 -62.660571 
L 306.869138 -62.660571 
L 306.558329 -62.660571 
L 306.24752 -62.660571 
L 305.93671 -62.660571 
L 305.625901 -62.660571 
L 305.315091 -62.660571 
L 305.004282 -62.660571 
L 304.693473 -62.660571 
L 304.382663 -62.660571 
L 304.071854 -62.660571 
L 303.761044 -62.660571 
L 303.450235 -62.660571 
L 303.139426 -62.660571 
L 302.828616 -62.660571 
L 302.517807 -62.660571 
L 302.206997 -62.660571 
L 301.896188 -62.660571 
L 301.585379 -62.660571 
L 301.274569 -62.660571 
L 300.96376 -62.660571 
L 300.65295 -62.660571 
L 300.342141 -62.660571 
L 300.031332 -62.660571 
L 299.720522 -62.660571 
L 299.409713 -62.660571 
L 299.098903 -62.660571 
L 298.788094 -62.660571 
L 298.477285 -62.660571 
L 298.166475 -62.660571 
L 297.855666 -62.660571 
L 297.544856 -62.660571 
L 297.234047 -62.660571 
L 296.923238 -62.660571 
L 296.612428 -62.660571 
L 296.301619 -62.660571 
L 295.990809 -62.660571 
L 295.68 -62.660571 
L 295.369191 -62.660571 
L 295.058381 -62.660571 
L 294.747572 -62.660571 
L 294.436762 -62.660571 
L 294.125953 -62.660571 
L 293.815144 -62.660571 
L 293.504334 -62.660571 
L 293.193525 -62.660571 
L 292.882715 -62.660571 
L 292.571906 -62.660571 
L 292.261097 -62.660571 
L 291.950287 -62.660571 
L 291.639478 -62.660571 
L 291.328668 -62.660571 
L 291.017859 -62.660571 
L 290.70705 -62.660571 
L 290.39624 -62.660571 
L 290.085431 -62.660571 
L 289.774621 -62.660571 
L 289.463812 -62.660571 
L 289.153003 -62.660571 
L 288.842193 -62.660571 
L 288.531384 -62.660571 
L 288.220574 -62.660571 
L 287.909765 -62.660571 
L 287.598956 -62.660571 
L 287.288146 -62.660571 
L 286.977337 -62.660571 
L 286.666527 -62.660571 
L 286.355718 -62.660571 
L 286.044909 -62.660571 
L 285.734099 -62.660571 
L 285.42329 -62.660571 
L 285.11248 -62.660571 
L 284.801671 -62.660571 
L 284.490862 -62.660571 
L 284.180052 -62.660571 
L 283.869243 -62.660571 
L 283.558433 -62.660571 
L 283.247624 -62.660571 
L 282.936815 -62.660571 
L 282.626005 -62.660571 
L 282.315196 -62.660571 
L 282.004386 -62.660571 
L 281.693577 -62.660571 
L 281.382768 -62.660571 
L 281.071958 -62.660571 
L 280.761149 -62.660571 
L 280.450339 -62.660571 
L 280.13953 -62.660571 
L 279.828721 -62.660571 
L 279.517911 -62.660571 
L 279.207102 -62.660571 
L 278.896292 -62.660571 
L 278.585483 -62.660571 
L 278.274674 -62.660571 
L 277.963864 -62.660571 
L 277.653055 -62.660571 
L 277.342245 -62.660571 
L 277.031436 -62.660571 
L 276.720627 -62.660571 
L 276.409817 -62.660571 
L 276.099008 -62.660571 
L 275.788198 -62.660571 
L 275.477389 -62.660571 
L 275.16658 -62.660571 
L 274.85577 -62.660571 
L 274.544961 -62.660571 
L 274.234151 -62.660571 
L 273.923342 -62.660571 
L 273.612533 -62.660571 
L 273.301723 -62.660571 
L 272.990914 -62.660571 
L 272.680104 -62.660571 
L 272.369295 -62.660571 
L 272.058486 -62.660571 
L 271.747676 -62.660571 
L 271.436867 -62.660571 
L 271.126057 -62.660571 
L 270.815248 -62.660571 
L 270.504439 -62.660571 
L 270.193629 -62.660571 
L 269.88282 -62.660571 
L 269.57201 -62.660571 
L 269.261201 -62.660571 
L 268.950392 -62.660571 
L 268.639582 -62.660571 
L 268.328773 -62.660571 
L 268.017963 -62.660571 
L 267.707154 -62.660571 
L 267.396345 -62.660571 
L 267.085535 -62.660571 
L 266.774726 -62.660571 
L 266.463916 -62.660571 
L 266.153107 -62.660571 
L 265.842298 -62.660571 
L 265.531488 -62.660571 
L 265.220679 -62.660571 
L 264.909869 -62.660571 
L 264.59906 -62.660571 
L 264.288251 -62.660571 
L 263.977441 -62.660571 
L 263.666632 -62.660571 
L 263.355822 -62.660571 
L 263.045013 -62.660571 
L 262.734204 -62.660571 
L 262.423394 -62.660571 
L 262.112585 -62.660571 
L 261.801775 -62.660571 
L 261.490966 -62.660571 
L 261.180157 -62.660571 
L 260.869347 -62.660571 
L 260.558538 -62.660571 
L 260.247728 -62.660571 
L 259.936919 -62.660571 
L 259.62611 -62.660571 
L 259.3153 -62.660571 
L 259.004491 -62.660571 
L 258.693681 -62.660571 
L 258.382872 -62.660571 
L 258.072063 -62.660571 
L 257.761253 -62.660571 
L 257.450444 -62.660571 
L 257.139634 -62.660571 
L 256.828825 -62.660571 
L 256.518016 -62.660571 
L 256.207206 -62.660571 
L 255.896397 -62.660571 
L 255.585587 -62.660571 
L 255.274778 -62.660571 
L 254.963969 -62.660571 
L 254.653159 -62.660571 
L 254.34235 -62.660571 
L 254.03154 -62.660571 
L 253.720731 -62.660571 
L 253.409922 -62.660571 
L 253.099112 -62.660571 
L 252.788303 -62.660571 
L 252.477493 -62.660571 
L 252.166684 -62.660571 
L 251.855875 -62.660571 
L 251.545065 -62.660571 
L 251.234256 -62.660571 
L 250.923446 -62.660571 
L 250.612637 -62.660571 
L 250.301828 -62.660571 
L 249.991018 -62.660571 
L 249.680209 -62.660571 
L 249.369399 -62.660571 
L 249.05859 -62.660571 
L 248.747781 -62.660571 
L 248.436971 -62.660571 
L 248.126162 -62.660571 
L 247.815352 -62.660571 
L 247.504543 -62.660571 
L 247.193734 -62.660571 
L 246.882924 -62.660571 
L 246.572115 -62.660571 
L 246.261305 -62.660571 
L 245.950496 -62.660571 
L 245.639687 -62.660571 
L 245.328877 -62.660571 
L 245.018068 -62.660571 
L 244.707258 -62.660571 
L 244.396449 -62.660571 
L 244.08564 -62.660571 
L 243.77483 -62.660571 
L 243.464021 -62.660571 
L 243.153211 -62.660571 
L 242.842402 -62.660571 
L 242.531593 -62.660571 
L 242.220783 -62.660571 
L 241.909974 -62.660571 
L 241.599164 -62.660571 
L 241.288355 -62.660571 
L 240.977546 -62.660571 
L 240.666736 -62.660571 
L 240.355927 -62.660571 
L 240.045117 -62.660571 
L 239.734308 -62.660571 
L 239.423499 -62.660571 
L 239.112689 -62.660571 
L 238.80188 -62.660571 
L 238.49107 -62.660571 
L 238.180261 -62.660571 
L 237.869452 -62.660571 
L 237.558642 -62.660571 
L 237.247833 -62.660571 
L 236.937023 -62.660571 
L 236.626214 -62.660571 
L 236.315405 -62.660571 
L 236.004595 -62.660571 
L 235.693786 -62.660571 
L 235.382977 -62.660571 
L 235.072167 -62.660571 
L 234.761358 -62.660571 
L 234.450548 -62.660571 
L 234.139739 -62.660571 
L 233.82893 -62.660571 
L 233.51812 -62.660571 
L 233.207311 -62.660571 
L 232.896501 -62.660571 
L 232.585692 -62.660571 
L 232.274883 -62.660571 
L 231.964073 -62.660571 
L 231.653264 -62.660571 
L 231.342454 -62.660571 
L 231.031645 -62.660571 
L 230.720836 -62.660571 
L 230.410026 -62.660571 
L 230.099217 -62.660571 
L 229.788407 -62.660571 
L 229.477598 -62.660571 
L 229.166789 -62.660571 
L 228.855979 -62.660571 
L 228.54517 -62.660571 
L 228.23436 -62.660571 
L 227.923551 -62.660571 
L 227.612742 -62.660571 
L 227.301932 -62.660571 
L 226.991123 -62.660571 
L 226.680313 -62.660571 
L 226.369504 -62.660571 
L 226.058695 -62.660571 
L 225.747885 -62.660571 
L 225.437076 -62.660571 
L 225.126266 -62.660571 
L 224.815457 -62.660571 
L 224.504648 -62.660571 
L 224.193838 -62.660571 
L 223.883029 -62.660571 
L 223.572219 -62.660571 
L 223.26141 -62.660571 
L 222.950601 -62.660571 
L 222.639791 -62.660571 
L 222.328982 -62.660571 
L 222.018172 -62.660571 
L 221.707363 -62.660571 
L 221.396554 -62.660571 
L 221.085744 -62.660571 
L 220.774935 -62.660571 
L 220.464125 -62.660571 
L 220.153316 -62.660571 
L 219.842507 -62.660571 
L 219.531697 -62.660571 
L 219.220888 -62.660571 
L 218.910078 -62.660571 
L 218.599269 -62.660571 
L 218.28846 -62.660571 
L 217.97765 -62.660571 
L 217.666841 -62.660571 
L 217.356031 -62.660571 
L 217.045222 -62.660571 
L 216.734413 -62.660571 
L 216.423603 -62.660571 
L 216.112794 -62.660571 
L 215.801984 -62.660571 
L 215.491175 -62.660571 
L 215.180366 -62.660571 
L 214.869556 -62.660571 
L 214.558747 -62.660571 
L 214.247937 -62.660571 
L 213.937128 -62.660571 
L 213.626319 -62.660571 
L 213.315509 -62.660571 
L 213.0047 -62.660571 
L 212.69389 -62.660571 
L 212.383081 -62.660571 
L 212.072272 -62.660571 
L 211.761462 -62.660571 
L 211.450653 -62.660571 
L 211.139843 -62.660571 
L 210.829034 -62.660571 
L 210.518225 -62.660571 
L 210.207415 -62.660571 
L 209.896606 -62.660571 
L 209.585796 -62.660571 
L 209.274987 -62.660571 
L 208.964178 -62.660571 
L 208.653368 -62.660571 
L 208.342559 -62.660571 
L 208.031749 -62.660571 
L 207.72094 -62.660571 
L 207.410131 -62.660571 
L 207.099321 -62.660571 
L 206.788512 -62.660571 
L 206.477702 -62.660571 
L 206.166893 -62.660571 
L 205.856084 -62.660571 
L 205.545274 -62.660571 
L 205.234465 -62.660571 
L 204.923655 -62.660571 
L 204.612846 -62.660571 
L 204.302037 -62.660571 
L 203.991227 -62.660571 
L 203.680418 -62.660571 
L 203.369608 -62.660571 
L 203.058799 -62.660571 
L 202.74799 -62.660571 
L 202.43718 -62.660571 
L 202.126371 -62.660571 
L 201.815561 -62.660571 
L 201.504752 -62.660571 
L 201.193943 -62.660571 
L 200.883133 -62.660571 
L 200.572324 -62.660571 
L 200.261514 -62.660571 
L 199.950705 -62.660571 
L 199.639896 -62.660571 
L 199.329086 -62.660571 
L 199.018277 -62.660571 
L 198.707467 -62.660571 
L 198.396658 -62.660571 
L 198.085849 -62.660571 
L 197.775039 -62.660571 
L 197.46423 -62.660571 
L 197.15342 -62.660571 
L 196.842611 -62.660571 
L 196.531802 -62.660571 
L 196.220992 -62.660571 
L 195.910183 -62.660571 
L 195.599373 -62.660571 
L 195.288564 -62.660571 
L 194.977755 -62.660571 
L 194.666945 -62.660571 
L 194.356136 -62.660571 
L 194.045326 -62.660571 
L 193.734517 -62.660571 
L 193.423708 -62.660571 
L 193.112898 -62.660571 
L 192.802089 -62.660571 
L 192.491279 -62.660571 
L 192.18047 -62.660571 
L 191.869661 -62.660571 
L 191.558851 -62.660571 
L 191.248042 -62.660571 
L 190.937232 -62.660571 
L 190.626423 -62.660571 
L 190.315614 -62.660571 
L 190.004804 -62.660571 
L 189.693995 -62.660571 
L 189.383185 -62.660571 
L 189.072376 -62.660571 
L 188.761567 -62.660571 
L 188.450757 -62.660571 
L 188.139948 -62.660571 
L 187.829138 -62.660571 
L 187.518329 -62.660571 
L 187.20752 -62.660571 
L 186.89671 -62.660571 
L 186.585901 -62.660571 
L 186.275091 -62.660571 
L 185.964282 -62.660571 
L 185.653473 -62.660571 
L 185.342663 -62.660571 
L 185.031854 -62.660571 
L 184.721044 -62.660571 
L 184.410235 -62.660571 
L 184.099426 -62.660571 
L 183.788616 -62.660571 
L 183.477807 -62.660571 
L 183.166997 -62.660571 
L 182.856188 -62.660571 
L 182.545379 -62.660571 
L 182.234569 -62.660571 
L 181.92376 -62.660571 
L 181.61295 -62.660571 
L 181.302141 -62.660571 
L 180.991332 -62.660571 
L 180.680522 -62.660571 
L 180.369713 -62.660571 
L 180.058903 -62.660571 
L 179.748094 -62.660571 
L 179.437285 -62.660571 
L 179.126475 -62.660571 
L 178.815666 -62.660571 
L 178.504856 -62.660571 
L 178.194047 -62.660571 
L 177.883238 -62.660571 
L 177.572428 -62.660571 
L 177.261619 -62.660571 
L 176.950809 -62.660571 
L 176.64 -62.660571 
L 176.329191 -62.660571 
L 176.018381 -62.660571 
L 175.707572 -62.660571 
L 175.396762 -62.660571 
L 175.085953 -62.660571 
L 174.775144 -62.660571 
L 174.464334 -62.660571 
L 174.153525 -62.660571 
L 173.842715 -62.660571 
L 173.531906 -62.660571 
L 173.221097 -62.660571 
L 172.910287 -62.660571 
L 172.599478 -62.660571 
L 172.288668 -62.660571 
L 171.977859 -62.660571 
L 171.66705 -62.660571 
L 171.35624 -62.660571 
L 171.045431 -62.660571 
L 170.734621 -62.660571 
L 170.423812 -62.660571 
L 170.113003 -62.660571 
L 169.802193 -62.660571 
L 169.491384 -62.660571 
L 169.180574 -62.660571 
L 168.869765 -62.660571 
L 168.558956 -62.660571 
L 168.248146 -62.660571 
L 167.937337 -62.660571 
L 167.626527 -62.660571 
L 167.315718 -62.660571 
L 167.004909 -62.660571 
L 166.694099 -62.660571 
L 166.38329 -62.660571 
L 166.07248 -62.660571 
L 165.761671 -62.660571 
L 165.450862 -62.660571 
L 165.140052 -62.660571 
L 164.829243 -62.660571 
L 164.518433 -62.660571 
L 164.207624 -62.660571 
L 163.896815 -62.660571 
L 163.586005 -62.660571 
L 163.275196 -62.660571 
L 162.964386 -62.660571 
L 162.653577 -62.660571 
L 162.342768 -62.660571 
L 162.031958 -62.660571 
L 161.721149 -62.660571 
L 161.410339 -62.660571 
L 161.09953 -62.660571 
L 160.788721 -62.660571 
L 160.477911 -62.660571 
L 160.167102 -62.660571 
L 159.856292 -62.660571 
L 159.545483 -62.660571 
L 159.234674 -62.660571 
L 158.923864 -62.660571 
L 158.613055 -62.660571 
L 158.302245 -62.660571 
L 157.991436 -62.660571 
L 157.680627 -62.660571 
L 157.369817 -62.660571 
L 157.059008 -62.660571 
L 156.748198 -62.660571 
L 156.437389 -62.660571 
L 156.12658 -62.660571 
L 155.81577 -62.660571 
L 155.504961 -62.660571 
L 155.194151 -62.660571 
L 154.883342 -62.660571 
L 154.572533 -62.660571 
L 154.261723 -62.660571 
L 153.950914 -62.660571 
L 153.640104 -62.660571 
L 153.329295 -62.660571 
L 153.018486 -62.660571 
L 152.707676 -62.660571 
L 152.396867 -62.660571 
L 152.086057 -62.660571 
L 151.775248 -62.660571 
L 151.464439 -62.660571 
L 151.153629 -62.660571 
L 150.84282 -62.660571 
L 150.53201 -62.660571 
L 150.221201 -62.660571 
L 149.910392 -62.660571 
L 149.599582 -62.660571 
L 149.288773 -62.660571 
L 148.977963 -62.660571 
L 148.667154 -62.660571 
L 148.356345 -62.660571 
L 148.045535 -62.660571 
L 147.734726 -62.660571 
L 147.423916 -62.660571 
L 147.113107 -62.660571 
L 146.802298 -62.660571 
L 146.491488 -62.660571 
L 146.180679 -62.660571 
L 145.869869 -62.660571 
L 145.55906 -62.660571 
L 145.248251 -62.660571 
L 144.937441 -62.660571 
L 144.626632 -62.660571 
L 144.315822 -62.660571 
L 144.005013 -62.660571 
L 143.694204 -62.660571 
L 143.383394 -62.660571 
L 143.072585 -62.660571 
L 142.761775 -62.660571 
L 142.450966 -62.660571 
L 142.140157 -62.660571 
L 141.829347 -62.660571 
L 141.518538 -62.660571 
L 141.207728 -62.660571 
L 140.896919 -62.660571 
L 140.58611 -62.660571 
L 140.2753 -62.660571 
L 139.964491 -62.660571 
L 139.653681 -62.660571 
L 139.342872 -62.660571 
L 139.032063 -62.660571 
L 138.721253 -62.660571 
L 138.410444 -62.660571 
L 138.099634 -62.660571 
L 137.788825 -62.660571 
L 137.478016 -62.660571 
L 137.167206 -62.660571 
L 136.856397 -62.660571 
L 136.545587 -62.660571 
L 136.234778 -62.660571 
L 135.923969 -62.660571 
L 135.613159 -62.660571 
L 135.30235 -62.660571 
L 134.99154 -62.660571 
L 134.680731 -62.660571 
L 134.369922 -62.660571 
L 134.059112 -62.660571 
L 133.748303 -62.660571 
L 133.437493 -62.660571 
L 133.126684 -62.660571 
L 132.815875 -62.660571 
L 132.505065 -62.660571 
L 132.194256 -62.660571 
L 131.883446 -62.660571 
L 131.572637 -62.660571 
L 131.261828 -62.660571 
L 130.951018 -62.660571 
L 130.640209 -62.660571 
L 130.329399 -62.660571 
L 130.01859 -62.660571 
L 129.707781 -62.660571 
L 129.396971 -62.660571 
L 129.086162 -62.660571 
L 128.775352 -62.660571 
L 128.464543 -62.660571 
L 128.153734 -62.660571 
L 127.842924 -62.660571 
L 127.532115 -62.660571 
L 127.221305 -62.660571 
L 126.910496 -62.660571 
L 126.599687 -62.660571 
L 126.288877 -62.660571 
L 125.978068 -62.660571 
L 125.667258 -62.660571 
L 125.356449 -62.660571 
L 125.04564 -62.660571 
L 124.73483 -62.660571 
L 124.424021 -62.660571 
L 124.113211 -62.660571 
L 123.802402 -62.660571 
L 123.491593 -62.660571 
L 123.180783 -62.660571 
L 122.869974 -62.660571 
L 122.559164 -62.660571 
L 122.248355 -62.660571 
L 121.937546 -62.660571 
L 121.626736 -62.660571 
L 121.315927 -62.660571 
L 121.005117 -62.660571 
L 120.694308 -62.660571 
L 120.383499 -62.660571 
L 120.072689 -62.660571 
L 119.76188 -62.660571 
L 119.45107 -62.660571 
L 119.140261 -62.660571 
L 118.829452 -62.660571 
L 118.518642 -62.660571 
L 118.207833 -62.660571 
L 117.897023 -62.660571 
L 117.586214 -62.660571 
L 117.275405 -62.660571 
L 116.964595 -62.660571 
L 116.653786 -62.660571 
L 116.342977 -62.660571 
L 116.032167 -62.660571 
L 115.721358 -62.660571 
L 115.410548 -62.660571 
L 115.099739 -62.660571 
L 114.78893 -62.660571 
L 114.47812 -62.660571 
L 114.167311 -62.660571 
L 113.856501 -62.660571 
L 113.545692 -62.660571 
L 113.234883 -62.660571 
L 112.924073 -62.660571 
L 112.613264 -62.660571 
L 112.302454 -62.660571 
L 111.991645 -62.660571 
L 111.680836 -62.660571 
L 111.370026 -62.660571 
L 111.059217 -62.660571 
L 110.748407 -62.660571 
L 110.437598 -62.660571 
L 110.126789 -62.660571 
L 109.815979 -62.660571 
L 109.50517 -62.660571 
L 109.19436 -62.660571 
L 108.883551 -62.660571 
L 108.572742 -62.660571 
L 108.261932 -62.660571 
L 107.951123 -62.660571 
L 107.640313 -62.660571 
L 107.329504 -62.660571 
L 107.018695 -62.660571 
L 106.707885 -62.660571 
L 106.397076 -62.660571 
L 106.086266 -62.660571 
L 105.775457 -62.660571 
L 105.464648 -62.660571 
L 105.153838 -62.660571 
L 104.843029 -62.660571 
L 104.532219 -62.660571 
L 104.22141 -62.660571 
L 103.910601 -62.660571 
L 103.599791 -62.660571 
L 103.288982 -62.660571 
L 102.978172 -62.660571 
L 102.667363 -62.660571 
L 102.356554 -62.660571 
L 102.045744 -62.660571 
L 101.734935 -62.660571 
L 101.424125 -62.660571 
L 101.113316 -62.660571 
L 100.802507 -62.660571 
L 100.491697 -62.660571 
L 100.180888 -62.660571 
L 99.870078 -62.660571 
L 99.559269 -62.660571 
L 99.24846 -62.660571 
L 98.93765 -62.660571 
L 98.626841 -62.660571 
L 98.316031 -62.660571 
L 98.005222 -62.660571 
L 97.694413 -62.660571 
L 97.383603 -62.660571 
L 97.072794 -62.660571 
L 96.761984 -62.660571 
L 96.451175 -62.660571 
L 96.140366 -62.660571 
L 95.829556 -62.660571 
L 95.518747 -62.660571 
L 95.207937 -62.660571 
L 94.897128 -62.660571 
L 94.586319 -62.660571 
L 94.275509 -62.660571 
L 93.9647 -62.660571 
L 93.65389 -62.660571 
L 93.343081 -62.660571 
L 93.032272 -62.660571 
L 92.721462 -62.660571 
L 92.410653 -62.660571 
L 92.099843 -62.660571 
L 91.789034 -62.660571 
L 91.478225 -62.660571 
L 91.167415 -62.660571 
L 90.856606 -62.660571 
L 90.545796 -62.660571 
L 90.234987 -62.660571 
L 89.924178 -62.660571 
L 89.613368 -62.660571 
L 89.302559 -62.660571 
L 88.991749 -62.660571 
L 88.68094 -62.660571 
L 88.370131 -62.660571 
L 88.059321 -62.660571 
L 87.748512 -62.660571 
L 87.437702 -62.660571 
L 87.126893 -62.660571 
L 86.816084 -62.660571 
L 86.505274 -62.660571 
L 86.194465 -62.660571 
L 85.883655 -62.660571 
L 85.572846 -62.660571 
L 85.262037 -62.660571 
L 84.951227 -62.660571 
L 84.640418 -62.660571 
L 84.329608 -62.660571 
L 84.018799 -62.660571 
L 83.70799 -62.660571 
L 83.39718 -62.660571 
L 83.086371 -62.660571 
L 82.775561 -62.660571 
L 82.464752 -62.660571 
L 82.153943 -62.660571 
L 81.843133 -62.660571 
L 81.532324 -62.660571 
L 81.221514 -62.660571 
L 80.910705 -62.660571 
L 80.599896 -62.660571 
L 80.289086 -62.660571 
L 79.978277 -62.660571 
L 79.667467 -62.660571 
L 79.356658 -62.660571 
L 79.045849 -62.660571 
L 78.735039 -62.660571 
L 78.42423 -62.660571 
L 78.11342 -62.660571 
L 77.802611 -62.660571 
L 77.491802 -62.660571 
L 77.180992 -62.660571 
L 76.870183 -62.660571 
L 76.559373 -62.660571 
L 76.248564 -62.660571 
L 75.937755 -62.660571 
L 75.626945 -62.660571 
L 75.316136 -62.660571 
L 75.005326 -62.660571 
L 74.694517 -62.660571 
L 74.383708 -62.660571 
L 74.072898 -62.660571 
L 73.762089 -62.660571 
L 73.451279 -62.660571 
L 73.14047 -62.660571 
L 72.829661 -62.660571 
L 72.518851 -62.660571 
L 72.208042 -62.660571 
L 71.897232 -62.660571 
L 71.586423 -62.660571 
L 71.275614 -62.660571 
L 70.964804 -62.660571 
L 70.653995 -62.660571 
L 70.343185 -62.660571 
L 70.032376 -62.660571 
L 69.721567 -62.660571 
L 69.410757 -62.660571 
L 69.099948 -62.660571 
L 68.789138 -62.660571 
L 68.478329 -62.660571 
L 68.16752 -62.660571 
L 67.85671 -62.660571 
L 67.545901 -62.660571 
L 67.235091 -62.660571 
L 66.924282 -62.660571 
L 66.613473 -62.660571 
L 66.302663 -62.660571 
L 65.991854 -62.660571 
L 65.681044 -62.660571 
L 65.370235 -62.660571 
L 65.059426 -62.660571 
L 64.748616 -62.660571 
L 64.437807 -62.660571 
L 64.126997 -62.660571 
L 63.816188 -62.660571 
L 63.505379 -62.660571 
L 63.194569 -62.660571 
L 62.88376 -62.660571 
L 62.57295 -62.660571 
L 62.262141 -62.660571 
L 61.951332 -62.660571 
L 61.640522 -62.660571 
L 61.329713 -62.660571 
L 61.018903 -62.660571 
L 60.708094 -62.660571 
L 60.397285 -62.660571 
L 60.086475 -62.660571 
L 59.775666 -62.660571 
L 59.464856 -62.660571 
L 59.154047 -62.660571 
L 58.843238 -62.660571 
L 58.532428 -62.660571 
L 58.221619 -62.660571 
L 57.910809 -62.660571 
L 57.6 -62.660571 
z
" style="stroke: #d4edfc; stroke-opacity: 0.9"/>
    </defs>
    <g clip-path="url(#peea05b912e)">
     <use xlink:href="#mbd8d395375" x="0" y="345.6" style="fill: #d4edfc; fill-opacity: 0.9; stroke: #d4edfc; stroke-opacity: 0.9"/>
    </g>
   </g>
   <g id="matplotlib.axis_1">
    <g id="xtick_1">
     <g id="line2d_1">
      <path d="M 149.363466 219.168 
L 149.363466 129.888 
" clip-path="url(#peea05b912e)" style="fill: none"/>
     </g>
     <g id="line2d_2"/>
     <g id="text_1">
      <text style="fill: #004a80; font: 10px 'DejaVu Sans', 'Bitstream Vera Sans', 'Computer Modern Sans Serif', 'Lucida Grande', 'Verdana', 'Geneva', 'Lucid', 'Arial', 'Helvetica', 'Avant Garde', sans-serif; text-anchor: middle" x="149.363466" y="230.266437" transform="rotate(-0 149.363466 230.266437)">0.500</text>
     </g>
    </g>
    <g id="xtick_2">
     <g id="line2d_3">
      <path d="M 241.126932 219.168 
L 241.126932 129.888 
" clip-path="url(#peea05b912e)" style="fill: none"/>
     </g>
     <g id="line2d_4"/>
     <g id="text_2">
      <text style="fill: #004a80; font: 10px 'DejaVu Sans', 'Bitstream Vera Sans', 'Computer Modern Sans Serif', 'Lucida Grande', 'Verdana', 'Geneva', 'Lucid', 'Arial', 'Helvetica', 'Avant Garde', sans-serif; text-anchor: middle" x="241.126932" y="230.266437" transform="rotate(-0 241.126932 230.266437)">1.000</text>
     </g>
    </g>
    <g id="xtick_3">
     <g id="line2d_5">
      <path d="M 332.890398 219.168 
L 332.890398 129.888 
" clip-path="url(#peea05b912e)" style="fill: none"/>
     </g>
     <g id="line2d_6"/>
     <g id="text_3">
      <text style="fill: #004a80; font: 10px 'DejaVu Sans', 'Bitstream Vera Sans', 'Computer Modern Sans Serif', 'Lucida Grande', 'Verdana', 'Geneva', 'Lucid', 'Arial', 'Helvetica', 'Avant Garde', sans-serif; text-anchor: middle" x="332.890398" y="230.266437" transform="rotate(-0 332.890398 230.266437)">1.500</text>
     </g>
    </g>
    <g id="xtick_4">
     <g id="line2d_7">
      <path d="M 414.72 219.168 
L 414.72 129.888 
" clip-path="url(#peea05b912e)" style="fill: none"/>
     </g>
     <g id="line2d_8"/>
     <g id="text_4">
      <text style="fill: #004a80; font: 10px 'DejaVu Sans', 'Bitstream Vera Sans', 'Computer Modern Sans Serif', 'Lucida Grande', 'Verdana', 'Geneva', 'Lucid', 'Arial', 'Helvetica', 'Avant Garde', sans-serif; text-anchor: middle" x="414.72" y="230.266437" transform="rotate(-0 414.72 230.266437)">1.946</text>
     </g>
    </g>
    <g id="text_5">
     <text style="font: 10px 'DejaVu Sans', 'Bitstream Vera Sans', 'Computer Modern Sans Serif', 'Lucida Grande', 'Verdana', 'Geneva', 'Lucid', 'Arial', 'Helvetica', 'Avant Garde', sans-serif; text-anchor: middle" x="236.16" y="243.944562" transform="rotate(-0 236.16 243.944562)">Distance (km)</text>
    </g>
   </g>
   <g id="matplotlib.axis_2">
    <g id="ytick_1">
     <g id="line2d_9">
      <path d="M 57.6 206.413714 
L 414.72 206.413714 
" clip-path="url(#peea05b912e)" style="fill: none; stroke: #9d9d9c; stroke-width: 0.8; stroke-linecap: square"/>
     </g>
     <g id="line2d_10"/>
     <g id="text_6">
      <text style="font: 10px 'DejaVu Sans', 'Bitstream Vera Sans', 'Computer Modern Sans Serif', 'Lucida Grande', 'Verdana', 'Geneva', 'Lucid', 'Arial', 'Helvetica', 'Avant Garde', sans-serif; text-anchor: end" x="54.1" y="210.212933" transform="rotate(-0 54.1 210.212933)">600</text>
     </g>
    </g>
    <g id="ytick_2">
     <g id="line2d_11">
      <path d="M 57.6 180.905143 
L 414.72 180.905143 
" clip-path="url(#peea05b912e)" style="fill: none; stroke: #9d9d9c; stroke-width: 0.8; stroke-linecap: square"/>
     </g>
     <g id="line2d_12"/>
     <g id="text_7">
      <text style="font: 10px 'DejaVu Sans', 'Bitstream Vera Sans', 'Computer Modern Sans Serif', 'Lucida Grande', 'Verdana', 'Geneva', 'Lucid', 'Arial', 'Helvetica', 'Avant Garde', sans-serif; text-anchor: end" x="54.1" y="184.704362" transform="rotate(-0 54.1 184.704362)">800</text>
     </g>
    </g>
    <g id="ytick_3">
     <g id="line2d_13">
      <path d="M 57.6 155.396571 
L 414.72 155.396571 
" clip-path="url(#peea05b912e)" style="fill: none; stroke: #9d9d9c; stroke-width: 0.8; stroke-linecap: square"/>
     </g>
     <g id="line2d_14"/>
     <g id="text_8">
      <text style="font: 10px 'DejaVu Sans', 'Bitstream Vera Sans', 'Computer Modern Sans Serif', 'Lucida Grande', 'Verdana', 'Geneva', 'Lucid', 'Arial', 'Helvetica', 'Avant Garde', sans-serif; text-anchor: end" x="54.1" y="159.19579" transform="rotate(-0 54.1 159.19579)">1000</text>
     </g>
    </g>
    <g id="ytick_4">
     <g id="line2d_15">
      <path d="M 57.6 129.888 
L 414.72 129.888 
" clip-path="url(#peea05b912e)" style="fill: none; stroke: #9d9d9c; stroke-width: 0.8; stroke-linecap: square"/>
     </g>
     <g id="line2d_16"/>
     <g id="text_9">
      <text style="font: 10px 'DejaVu Sans', 'Bitstream Vera Sans', 'Computer Modern Sans Serif', 'Lucida Grande', 'Verdana', 'Geneva', 'Lucid', 'Arial', 'Helvetica', 'Avant Garde', sans-serif; text-anchor: end" x="54.1" y="133.687219" transform="rotate(-0 54.1 133.687219)">1200</text>
     </g>
    </g>
   </g>
   <g id="LineCollection_1">
    <path d="M 149.363466 282.939429 
L 149.363466 163.431771 
" clip-path="url(#peea05b912e)" style="fill: none; stroke-dasharray: 7.4,3.2; stroke-dashoffset: 0; stroke: #004a80; stroke-width: 2"/>
    <path d="M 241.126932 282.939429 
L 241.126932 164.069486 
" clip-path="url(#peea05b912e)" style="fill: none; stroke-dasharray: 7.4,3.2; stroke-dashoffset: 0; stroke: #004a80; stroke-width: 2"/>
    <path d="M 332.890398 282.939429 
L 332.890398 164.324571 
" clip-path="url(#peea05b912e)" style="fill: none; stroke-dasharray: 7.4,3.2; stroke-dashoffset: 0; stroke: #004a80; stroke-width: 2"/>
   </g>
   <g id="patch_2">
    <path d="M 149.363466 219.168 
L 332.890398 219.168 
L 332.890398 217.254857 
L 149.363466 217.254857 
z
" clip-path="url(#peea05b912e)" style="fill: #efefef"/>
   </g>
   <g id="patch_3">
    <path d="M 241.126932 219.168 
L 516.417331 219.168 
L 516.417331 217.254857 
L 241.126932 217.254857 
z
" clip-path="url(#peea05b912e)" style="fill: #004a80"/>
   </g>
   <g id="patch_4">
    <path d="M 57.6 219.168 
L 149.363466 219.168 
L 149.363466 217.254857 
L 57.6 217.254857 
z
" clip-path="url(#peea05b912e)" style="fill: #004a80"/>
   </g>
   <g id="patch_5">
    <path d="M 332.890398 219.168 
L 690.010398 219.168 
L 690.010398 217.254857 
L 332.890398 217.254857 
z
" clip-path="url(#peea05b912e)" style="fill: #efefef"/>
   </g>
   <g id="text_10">
    <text style="font: 12px 'DejaVu Sans', 'Bitstream Vera Sans', 'Computer Modern Sans Serif', 'Lucida Grande', 'Verdana', 'Geneva', 'Lucid', 'Arial', 'Helvetica', 'Avant Garde', sans-serif; text-anchor: middle" x="236.16" y="123.888" transform="rotate(-0 236.16 123.888)">loipe-buchau</text>
   </g>
   <g id="line2d_17">
    <path d="M 57.6 164.335504 
L 67.545901 164.367884 
L 77.802611 164.446014 
L 92.721462 164.324571 
L 109.815979 164.214387 
L 119.45107 164.197029 
L 125.04564 164.103922 
L 131.883446 163.805127 
L 135.613159 163.784273 
L 148.356345 163.439595 
L 153.950914 163.375968 
L 173.842715 163.176686 
L 186.275091 163.282259 
L 194.045326 163.430535 
L 199.329086 163.475022 
L 221.085744 163.69759 
L 236.937023 163.746568 
L 245.639687 164.073109 
L 250.923446 164.106681 
L 263.045013 164.197264 
L 280.761149 164.103707 
L 292.882715 164.197029 
L 327.071749 164.306655 
L 336.085222 164.308518 
L 355.044595 164.197029 
L 358.774308 164.304586 
L 361.571593 164.328595 
L 389.544439 164.346135 
L 403.530862 164.400313 
L 413.787572 164.318874 
L 414.72 164.317283 
L 414.72 164.317283 
" clip-path="url(#peea05b912e)" style="fill: none; stroke: #0000ff; stroke-width: 3; stroke-linecap: square"/>
   </g>
  </g>
 </g>
 <defs>
  <clipPath id="peea05b912e">
   <rect x="57.6" y="129.888" width="357.12" height="89.28"/>
  </clipPath>
 </defs>
</svg>
