<?xml version="1.0" encoding="utf-8" standalone="no"?>
<!DOCTYPE svg PUBLIC "-//W3C//DTD SVG 1.1//EN"
  "http://www.w3.org/Graphics/SVG/1.1/DTD/svg11.dtd">
<svg xmlns:xlink="http://www.w3.org/1999/xlink" width="460.8pt" height="345.6pt" viewBox="0 0 460.8 345.6" xmlns="http://www.w3.org/2000/svg" version="1.1">
 <metadata>
  <rdf:RDF xmlns:dc="http://purl.org/dc/elements/1.1/" xmlns:cc="http://creativecommons.org/ns#" xmlns:rdf="http://www.w3.org/1999/02/22-rdf-syntax-ns#">
   <cc:Work>
    <dc:type rdf:resource="http://purl.org/dc/dcmitype/StillImage"/>
    <dc:date>2024-08-26T11:02:06.747894</dc:date>
    <dc:format>image/svg+xml</dc:format>
    <dc:creator>
     <cc:Agent>
      <dc:title>Matplotlib v3.8.4, https://matplotlib.org/</dc:title>
     </cc:Agent>
    </dc:creator>
   </cc:Work>
  </rdf:RDF>
 </metadata>
 <defs>
  <style type="text/css">*{stroke-linejoin: round; stroke-linecap: butt}</style>
 </defs>
 <g id="figure_1">
  <g id="patch_1">
   <path d="M 0 345.6 
L 460.8 345.6 
L 460.8 0 
L 0 0 
z
" style="fill: #ffffff"/>
  </g>
  <g id="axes_1">
   <g id="patch_2">
    <path d="M 57.6 219.168 
L 414.72 219.168 
L 414.72 129.888 
L 57.6 129.888 
z
" style="fill: #ffffff"/>
   </g>
   <g id="PolyCollection_1">
    <defs>
     <path id="m2d976a2e72" d="M 57.6 -62.660571 
L 57.6 -186.40994 
L 57.997241 -186.40588 
L 58.394483 -186.401821 
L 58.791724 -186.397761 
L 59.188966 -186.393702 
L 59.586207 -186.389642 
L 59.983448 -186.385583 
L 60.38069 -186.381523 
L 60.777931 -186.377464 
L 61.175172 -186.373404 
L 61.572414 -186.369345 
L 61.969655 -186.365285 
L 62.366897 -186.361226 
L 62.764138 -186.357166 
L 63.161379 -186.353107 
L 63.558621 -186.349047 
L 63.955862 -186.344988 
L 64.353103 -186.340928 
L 64.750345 -186.336869 
L 65.147586 -186.33281 
L 65.544828 -186.32875 
L 65.942069 -186.324691 
L 66.33931 -186.322869 
L 66.736552 -186.32372 
L 67.133793 -186.32457 
L 67.531034 -186.32542 
L 67.928276 -186.326271 
L 68.325517 -186.327121 
L 68.722759 -186.327971 
L 69.12 -186.328822 
L 69.517241 -186.329672 
L 69.914483 -186.330522 
L 70.311724 -186.331373 
L 70.708966 -186.332223 
L 71.106207 -186.333073 
L 71.503448 -186.333924 
L 71.90069 -186.334774 
L 72.297931 -186.335624 
L 72.695172 -186.336475 
L 73.092414 -186.337325 
L 73.489655 -186.338175 
L 73.886897 -186.339026 
L 74.284138 -186.339876 
L 74.681379 -186.340726 
L 75.078621 -186.341577 
L 75.475862 -186.342427 
L 75.873103 -186.343277 
L 76.270345 -186.344128 
L 76.667586 -186.349842 
L 77.064828 -186.35724 
L 77.462069 -186.364637 
L 77.85931 -186.372035 
L 78.256552 -186.379432 
L 78.653793 -186.386829 
L 79.051034 -186.394227 
L 79.448276 -186.401624 
L 79.845517 -186.409022 
L 80.242759 -186.416419 
L 80.64 -186.423817 
L 81.037241 -186.431214 
L 81.434483 -186.438611 
L 81.831724 -186.446009 
L 82.228966 -186.453406 
L 82.626207 -186.460804 
L 83.023448 -186.468201 
L 83.42069 -186.475806 
L 83.817931 -186.506691 
L 84.215172 -186.537576 
L 84.612414 -186.568462 
L 85.009655 -186.599347 
L 85.406897 -186.630232 
L 85.804138 -186.661117 
L 86.201379 -186.672503 
L 86.598621 -186.68372 
L 86.995862 -186.694938 
L 87.393103 -186.706155 
L 87.790345 -186.717373 
L 88.187586 -186.728591 
L 88.584828 -186.739808 
L 88.982069 -186.751026 
L 89.37931 -186.762243 
L 89.776552 -186.773461 
L 90.173793 -186.784678 
L 90.571034 -186.790996 
L 90.968276 -186.785695 
L 91.365517 -186.780394 
L 91.762759 -186.775093 
L 92.16 -186.769792 
L 92.557241 -186.764491 
L 92.954483 -186.75919 
L 93.351724 -186.75389 
L 93.748966 -186.748589 
L 94.146207 -186.743288 
L 94.543448 -186.737987 
L 94.94069 -186.748877 
L 95.337931 -186.760015 
L 95.735172 -186.771153 
L 96.132414 -186.782291 
L 96.529655 -186.793429 
L 96.926897 -186.804567 
L 97.324138 -186.815705 
L 97.721379 -186.826334 
L 98.118621 -186.833634 
L 98.515862 -186.840934 
L 98.913103 -186.848234 
L 99.310345 -186.855534 
L 99.707586 -186.862834 
L 100.104828 -186.870134 
L 100.502069 -186.877434 
L 100.89931 -186.884734 
L 101.296552 -186.892034 
L 101.693793 -186.899334 
L 102.091034 -186.906634 
L 102.488276 -186.913935 
L 102.885517 -186.921235 
L 103.282759 -186.928535 
L 103.68 -186.935835 
L 104.077241 -186.943135 
L 104.474483 -186.949843 
L 104.871724 -186.953457 
L 105.268966 -186.957071 
L 105.666207 -186.960685 
L 106.063448 -186.964299 
L 106.46069 -186.967913 
L 106.857931 -186.971527 
L 107.255172 -186.975141 
L 107.652414 -186.978755 
L 108.049655 -186.982369 
L 108.446897 -186.985983 
L 108.844138 -186.989597 
L 109.241379 -186.993211 
L 109.638621 -186.996825 
L 110.035862 -187.000439 
L 110.433103 -187.004053 
L 110.830345 -187.007667 
L 111.227586 -187.011281 
L 111.624828 -187.014895 
L 112.022069 -187.018509 
L 112.41931 -187.022123 
L 112.816552 -187.025737 
L 113.213793 -187.029351 
L 113.611034 -187.032965 
L 114.008276 -187.036579 
L 114.405517 -187.03581 
L 114.802759 -187.034862 
L 115.2 -187.033913 
L 115.597241 -187.032965 
L 115.994483 -187.032016 
L 116.391724 -187.031068 
L 116.788966 -187.030119 
L 117.186207 -187.02917 
L 117.583448 -187.028222 
L 117.98069 -187.027273 
L 118.377931 -187.026325 
L 118.775172 -187.019126 
L 119.172414 -187.003827 
L 119.569655 -186.988528 
L 119.966897 -186.976993 
L 120.364138 -186.968213 
L 120.761379 -186.959434 
L 121.158621 -186.950654 
L 121.555862 -186.941875 
L 121.953103 -186.933095 
L 122.350345 -186.924316 
L 122.747586 -186.917456 
L 123.144828 -186.912361 
L 123.542069 -186.907266 
L 123.93931 -186.90217 
L 124.336552 -186.897075 
L 124.733793 -186.89198 
L 125.131034 -186.886885 
L 125.528276 -186.881789 
L 125.925517 -186.876694 
L 126.322759 -186.894647 
L 126.72 -186.914104 
L 127.117241 -186.933561 
L 127.514483 -186.953018 
L 127.911724 -186.972475 
L 128.308966 -186.977296 
L 128.706207 -186.951027 
L 129.103448 -186.924757 
L 129.50069 -186.898488 
L 129.897931 -186.872218 
L 130.295172 -186.845948 
L 130.692414 -186.819679 
L 131.089655 -186.793409 
L 131.486897 -186.76714 
L 131.884138 -186.74087 
L 132.281379 -186.7146 
L 132.678621 -186.688331 
L 133.075862 -186.662061 
L 133.473103 -186.635791 
L 133.870345 -186.609522 
L 134.267586 -186.553548 
L 134.664828 -186.439519 
L 135.062069 -186.325489 
L 135.45931 -186.21146 
L 135.856552 -186.09743 
L 136.253793 -186.018682 
L 136.651034 -185.983232 
L 137.048276 -185.947782 
L 137.445517 -185.912332 
L 137.842759 -185.876882 
L 138.24 -185.841432 
L 138.637241 -185.805982 
L 139.034483 -185.770532 
L 139.431724 -185.735082 
L 139.828966 -185.699632 
L 140.226207 -185.664182 
L 140.623448 -185.645735 
L 141.02069 -185.659265 
L 141.417931 -185.672794 
L 141.815172 -185.686324 
L 142.212414 -185.699854 
L 142.609655 -185.713383 
L 143.006897 -185.726913 
L 143.404138 -185.740443 
L 143.801379 -185.753972 
L 144.198621 -185.767502 
L 144.595862 -185.781032 
L 144.993103 -185.794561 
L 145.390345 -185.808091 
L 145.787586 -185.82162 
L 146.184828 -185.83515 
L 146.582069 -185.84868 
L 146.97931 -185.862209 
L 147.376552 -185.852665 
L 147.773793 -185.805263 
L 148.171034 -185.757861 
L 148.568276 -185.710459 
L 148.965517 -185.663056 
L 149.362759 -185.615654 
L 149.76 -185.568252 
L 150.157241 -185.52085 
L 150.554483 -185.473448 
L 150.951724 -185.426046 
L 151.348966 -185.378644 
L 151.746207 -185.334709 
L 152.143448 -185.298543 
L 152.54069 -185.262377 
L 152.937931 -185.226211 
L 153.335172 -185.190045 
L 153.732414 -185.153879 
L 154.129655 -185.117714 
L 154.526897 -185.081548 
L 154.924138 -185.045382 
L 155.321379 -185.009216 
L 155.718621 -184.97305 
L 156.115862 -184.936884 
L 156.513103 -184.900719 
L 156.910345 -184.864553 
L 157.307586 -184.828387 
L 157.704828 -184.792221 
L 158.102069 -184.756055 
L 158.49931 -184.719889 
L 158.896552 -184.683723 
L 159.293793 -184.647558 
L 159.691034 -184.611392 
L 160.088276 -184.562842 
L 160.485517 -184.510241 
L 160.882759 -184.457639 
L 161.28 -184.405038 
L 161.677241 -184.352436 
L 162.074483 -184.299834 
L 162.471724 -184.247233 
L 162.868966 -184.194631 
L 163.266207 -184.142029 
L 163.663448 -184.089428 
L 164.06069 -184.085532 
L 164.457931 -184.095569 
L 164.855172 -184.105606 
L 165.252414 -184.115642 
L 165.649655 -184.125679 
L 166.046897 -184.135716 
L 166.444138 -184.145753 
L 166.841379 -184.15579 
L 167.238621 -184.165827 
L 167.635862 -184.175864 
L 168.033103 -184.185901 
L 168.430345 -184.195938 
L 168.827586 -184.205975 
L 169.224828 -184.216011 
L 169.622069 -184.226048 
L 170.01931 -184.236085 
L 170.416552 -184.246122 
L 170.813793 -184.256159 
L 171.211034 -184.266196 
L 171.608276 -184.276233 
L 172.005517 -184.28627 
L 172.402759 -184.296307 
L 172.8 -184.306344 
L 173.197241 -184.270527 
L 173.594483 -184.229856 
L 173.991724 -184.189185 
L 174.388966 -184.148514 
L 174.786207 -184.107843 
L 175.183448 -184.067172 
L 175.58069 -184.026501 
L 175.977931 -183.98583 
L 176.375172 -183.945159 
L 176.772414 -183.890812 
L 177.169655 -183.790044 
L 177.566897 -183.689277 
L 177.964138 -183.58851 
L 178.361379 -183.487742 
L 178.758621 -183.386975 
L 179.155862 -183.330985 
L 179.553103 -183.294685 
L 179.950345 -183.258385 
L 180.347586 -183.222084 
L 180.744828 -183.185784 
L 181.142069 -183.149483 
L 181.53931 -183.113183 
L 181.936552 -183.076883 
L 182.333793 -183.040582 
L 182.731034 -183.004282 
L 183.128276 -182.967982 
L 183.525517 -182.976459 
L 183.922759 -182.992665 
L 184.32 -183.008871 
L 184.717241 -183.025076 
L 185.114483 -183.041282 
L 185.511724 -183.057488 
L 185.908966 -183.073694 
L 186.306207 -183.0899 
L 186.703448 -183.101821 
L 187.10069 -183.066514 
L 187.497931 -183.031207 
L 187.895172 -182.995901 
L 188.292414 -182.960594 
L 188.689655 -182.926556 
L 189.086897 -182.901087 
L 189.484138 -182.875617 
L 189.881379 -182.850148 
L 190.278621 -182.824679 
L 190.675862 -182.799209 
L 191.073103 -182.77374 
L 191.470345 -182.74827 
L 191.867586 -182.722801 
L 192.264828 -182.697332 
L 192.662069 -182.662959 
L 193.05931 -182.61522 
L 193.456552 -182.56748 
L 193.853793 -182.51974 
L 194.251034 -182.513752 
L 194.648276 -182.522753 
L 195.045517 -182.531754 
L 195.442759 -182.540756 
L 195.84 -182.549757 
L 196.237241 -182.558759 
L 196.634483 -182.56776 
L 197.031724 -182.576762 
L 197.428966 -182.575674 
L 197.826207 -182.54162 
L 198.223448 -182.507566 
L 198.62069 -182.473513 
L 199.017931 -182.444879 
L 199.415172 -182.425016 
L 199.812414 -182.405153 
L 200.209655 -182.385289 
L 200.606897 -182.365426 
L 201.004138 -182.345563 
L 201.401379 -182.325699 
L 201.798621 -182.305836 
L 202.195862 -182.285973 
L 202.593103 -182.264657 
L 202.990345 -182.188159 
L 203.387586 -182.137841 
L 203.784828 -182.145595 
L 204.182069 -182.153349 
L 204.57931 -182.161103 
L 204.976552 -182.168857 
L 205.373793 -182.176611 
L 205.771034 -182.184365 
L 206.168276 -182.192119 
L 206.565517 -182.199873 
L 206.962759 -182.192191 
L 207.36 -182.181814 
L 207.757241 -182.171437 
L 208.154483 -182.16106 
L 208.551724 -182.150683 
L 208.948966 -182.140306 
L 209.346207 -182.129929 
L 209.743448 -182.119553 
L 210.14069 -182.109176 
L 210.537931 -182.098799 
L 210.935172 -182.088422 
L 211.332414 -182.078045 
L 211.729655 -182.061638 
L 212.126897 -182.022422 
L 212.524138 -181.983207 
L 212.921379 -181.943992 
L 213.318621 -181.904776 
L 213.715862 -181.87213 
L 214.113103 -181.846894 
L 214.510345 -181.821658 
L 214.907586 -181.796421 
L 215.304828 -181.771185 
L 215.702069 -181.753684 
L 216.09931 -181.756928 
L 216.496552 -181.760171 
L 216.893793 -181.763415 
L 217.291034 -181.766658 
L 217.688276 -181.769902 
L 218.085517 -181.773145 
L 218.482759 -181.776389 
L 218.88 -181.779632 
L 219.277241 -181.782876 
L 219.674483 -181.7856 
L 220.071724 -181.7856 
L 220.468966 -181.7856 
L 220.866207 -181.7856 
L 221.263448 -181.7856 
L 221.66069 -181.7856 
L 222.057931 -181.7856 
L 222.455172 -181.7856 
L 222.852414 -181.7856 
L 223.249655 -181.7856 
L 223.646897 -181.7856 
L 224.044138 -181.7856 
L 224.441379 -181.7856 
L 224.838621 -181.7856 
L 225.235862 -181.7856 
L 225.633103 -181.7856 
L 226.030345 -181.7856 
L 226.427586 -181.7856 
L 226.824828 -181.7856 
L 227.222069 -181.7856 
L 227.61931 -181.7856 
L 228.016552 -181.7856 
L 228.413793 -181.7856 
L 228.811034 -181.7856 
L 229.208276 -181.7856 
L 229.605517 -181.7856 
L 230.002759 -181.7856 
L 230.4 -181.7856 
L 230.797241 -181.784601 
L 231.194483 -181.779182 
L 231.591724 -181.773762 
L 231.988966 -181.768342 
L 232.386207 -181.762923 
L 232.783448 -181.757503 
L 233.18069 -181.752084 
L 233.577931 -181.746664 
L 233.975172 -181.741245 
L 234.372414 -181.735825 
L 234.769655 -181.730406 
L 235.166897 -181.724986 
L 235.564138 -181.719567 
L 235.961379 -181.714147 
L 236.358621 -181.708727 
L 236.755862 -181.703308 
L 237.153103 -181.697888 
L 237.550345 -181.692469 
L 237.947586 -181.687843 
L 238.344828 -181.709214 
L 238.742069 -181.730585 
L 239.13931 -181.751957 
L 239.536552 -181.773328 
L 239.933793 -181.7947 
L 240.331034 -181.816071 
L 240.728276 -181.837442 
L 241.125517 -181.858814 
L 241.522759 -181.880185 
L 241.92 -181.901556 
L 242.317241 -181.922928 
L 242.714483 -181.944299 
L 243.111724 -181.965671 
L 243.508966 -181.987042 
L 243.906207 -182.008413 
L 244.303448 -182.029785 
L 244.70069 -182.051156 
L 245.097931 -182.072527 
L 245.495172 -182.145799 
L 245.892414 -182.251658 
L 246.289655 -182.357517 
L 246.686897 -182.463376 
L 247.084138 -182.569235 
L 247.481379 -182.663958 
L 247.878621 -182.737763 
L 248.275862 -182.811569 
L 248.673103 -182.885374 
L 249.070345 -182.959179 
L 249.467586 -183.03162 
L 249.864828 -183.014589 
L 250.262069 -182.997558 
L 250.65931 -182.980528 
L 251.056552 -182.963497 
L 251.453793 -182.946466 
L 251.851034 -182.929435 
L 252.248276 -182.912404 
L 252.645517 -182.895373 
L 253.042759 -182.878343 
L 253.44 -182.861312 
L 253.837241 -182.879519 
L 254.234483 -182.909821 
L 254.631724 -182.940123 
L 255.028966 -182.970425 
L 255.426207 -183.000727 
L 255.823448 -183.03103 
L 256.22069 -183.061332 
L 256.617931 -183.091634 
L 257.015172 -183.121936 
L 257.412414 -183.152238 
L 257.809655 -183.208349 
L 258.206897 -183.278803 
L 258.604138 -183.349257 
L 259.001379 -183.419711 
L 259.398621 -183.490165 
L 259.795862 -183.560619 
L 260.193103 -183.609256 
L 260.590345 -183.634981 
L 260.987586 -183.660706 
L 261.384828 -183.686431 
L 261.782069 -183.712156 
L 262.17931 -183.737881 
L 262.576552 -183.763606 
L 262.973793 -183.789331 
L 263.371034 -183.815056 
L 263.768276 -183.840781 
L 264.165517 -183.866505 
L 264.562759 -183.89223 
L 264.96 -183.822027 
L 265.357241 -183.820898 
L 265.754483 -183.826727 
L 266.151724 -183.832555 
L 266.548966 -183.838383 
L 266.946207 -183.844211 
L 267.343448 -183.85004 
L 267.74069 -183.855868 
L 268.137931 -183.865057 
L 268.535172 -183.878378 
L 268.932414 -183.8917 
L 269.329655 -183.905021 
L 269.726897 -183.918342 
L 270.124138 -183.927155 
L 270.521379 -183.934828 
L 270.918621 -183.942501 
L 271.315862 -183.950173 
L 271.713103 -183.957846 
L 272.110345 -183.965409 
L 272.507586 -183.971977 
L 272.904828 -183.978545 
L 273.302069 -183.985113 
L 273.69931 -183.991681 
L 274.096552 -183.998249 
L 274.493793 -184.004817 
L 274.891034 -183.992831 
L 275.288276 -183.957308 
L 275.685517 -183.921785 
L 276.082759 -183.886261 
L 276.48 -183.850738 
L 276.877241 -183.815215 
L 277.274483 -183.782732 
L 277.671724 -183.757847 
L 278.068966 -183.732961 
L 278.466207 -183.708075 
L 278.863448 -183.68319 
L 279.26069 -183.658304 
L 279.657931 -183.633418 
L 280.055172 -183.608533 
L 280.452414 -183.583647 
L 280.849655 -183.558761 
L 281.246897 -183.533876 
L 281.644138 -183.50899 
L 282.041379 -183.484104 
L 282.438621 -183.295458 
L 282.835862 -183.261453 
L 283.233103 -183.272248 
L 283.630345 -183.284919 
L 284.027586 -183.29759 
L 284.424828 -183.31026 
L 284.822069 -183.322931 
L 285.21931 -183.335602 
L 285.616552 -183.348273 
L 286.013793 -183.360943 
L 286.411034 -183.373614 
L 286.808276 -183.386285 
L 287.205517 -183.398956 
L 287.602759 -183.411627 
L 288 -183.424297 
L 288.397241 -183.436968 
L 288.794483 -183.449639 
L 289.191724 -183.46231 
L 289.588966 -183.474981 
L 289.986207 -183.517565 
L 290.383448 -183.580417 
L 290.78069 -183.643269 
L 291.177931 -183.706121 
L 291.575172 -183.768972 
L 291.972414 -183.811313 
L 292.369655 -183.843456 
L 292.766897 -183.875599 
L 293.164138 -183.907742 
L 293.561379 -183.939885 
L 293.958621 -183.972027 
L 294.355862 -184.00417 
L 294.753103 -184.006311 
L 295.150345 -184.003793 
L 295.547586 -184.001276 
L 295.944828 -183.998758 
L 296.342069 -183.996241 
L 296.73931 -183.993724 
L 297.136552 -183.991206 
L 297.533793 -183.988689 
L 297.931034 -183.983381 
L 298.328276 -183.965395 
L 298.725517 -183.947408 
L 299.122759 -183.929422 
L 299.52 -183.911435 
L 299.917241 -183.893449 
L 300.314483 -183.875462 
L 300.711724 -183.857475 
L 301.108966 -183.831211 
L 301.506207 -183.80389 
L 301.903448 -183.776568 
L 302.30069 -183.749247 
L 302.697931 -183.721925 
L 303.095172 -183.694604 
L 303.492414 -183.668644 
L 303.889655 -183.657437 
L 304.286897 -183.646231 
L 304.684138 -183.635025 
L 305.081379 -183.623818 
L 305.478621 -183.612612 
L 305.875862 -183.601406 
L 306.273103 -183.590199 
L 306.670345 -183.578993 
L 307.067586 -183.567787 
L 307.464828 -183.55658 
L 307.862069 -183.545374 
L 308.25931 -183.534101 
L 308.656552 -183.52272 
L 309.053793 -183.511338 
L 309.451034 -183.499956 
L 309.848276 -183.488574 
L 310.245517 -183.477192 
L 310.642759 -183.465811 
L 311.04 -183.454429 
L 311.437241 -183.443047 
L 311.834483 -183.431665 
L 312.231724 -183.450547 
L 312.628966 -183.478319 
L 313.026207 -183.506091 
L 313.423448 -183.533863 
L 313.82069 -183.561636 
L 314.217931 -183.589408 
L 314.615172 -183.61718 
L 315.012414 -183.644952 
L 315.409655 -183.672724 
L 315.806897 -183.700497 
L 316.204138 -183.728269 
L 316.601379 -183.756041 
L 316.998621 -183.783813 
L 317.395862 -183.811586 
L 317.793103 -183.839358 
L 318.190345 -183.86713 
L 318.587586 -183.894902 
L 318.984828 -183.922674 
L 319.382069 -183.950447 
L 319.77931 -183.978219 
L 320.176552 -184.01667 
L 320.573793 -184.079606 
L 320.971034 -184.142543 
L 321.368276 -184.20548 
L 321.765517 -184.268416 
L 322.162759 -184.331353 
L 322.56 -184.39429 
L 322.957241 -184.457226 
L 323.354483 -184.520163 
L 323.751724 -184.5831 
L 324.148966 -184.646036 
L 324.546207 -184.708973 
L 324.943448 -184.77191 
L 325.34069 -184.821592 
L 325.737931 -184.858417 
L 326.135172 -184.895242 
L 326.532414 -184.932067 
L 326.929655 -184.968892 
L 327.326897 -185.005717 
L 327.724138 -185.042542 
L 328.121379 -185.079367 
L 328.518621 -185.116192 
L 328.915862 -185.153017 
L 329.313103 -185.189842 
L 329.710345 -185.226667 
L 330.107586 -185.263492 
L 330.504828 -185.300316 
L 330.902069 -185.337141 
L 331.29931 -185.369674 
L 331.696552 -185.345475 
L 332.093793 -185.321275 
L 332.491034 -185.297076 
L 332.888276 -185.272876 
L 333.285517 -185.248677 
L 333.682759 -185.224477 
L 334.08 -185.200278 
L 334.477241 -185.176078 
L 334.874483 -185.151879 
L 335.271724 -185.127679 
L 335.668966 -185.115364 
L 336.066207 -185.14324 
L 336.463448 -185.171115 
L 336.86069 -185.19899 
L 337.257931 -185.226865 
L 337.655172 -185.25474 
L 338.052414 -185.282616 
L 338.449655 -185.310491 
L 338.846897 -185.338366 
L 339.244138 -185.366241 
L 339.641379 -185.394116 
L 340.038621 -185.421992 
L 340.435862 -185.449867 
L 340.833103 -185.477742 
L 341.230345 -185.505617 
L 341.627586 -185.533492 
L 342.024828 -185.561368 
L 342.422069 -185.589243 
L 342.81931 -185.665892 
L 343.216552 -185.743941 
L 343.613793 -185.821991 
L 344.011034 -185.900041 
L 344.408276 -185.97809 
L 344.805517 -186.05614 
L 345.202759 -186.13419 
L 345.6 -186.212239 
L 345.997241 -186.283943 
L 346.394483 -186.335681 
L 346.791724 -186.387419 
L 347.188966 -186.439157 
L 347.586207 -186.490895 
L 347.983448 -186.542633 
L 348.38069 -186.594371 
L 348.777931 -186.646109 
L 349.175172 -186.697847 
L 349.572414 -186.749585 
L 349.969655 -186.730598 
L 350.366897 -186.707413 
L 350.764138 -186.684229 
L 351.161379 -186.661044 
L 351.558621 -186.63786 
L 351.955862 -186.614676 
L 352.353103 -186.591491 
L 352.750345 -186.638467 
L 353.147586 -186.695838 
L 353.544828 -186.753209 
L 353.942069 -186.782308 
L 354.33931 -186.805288 
L 354.736552 -186.828269 
L 355.133793 -186.85125 
L 355.531034 -186.87423 
L 355.928276 -186.897211 
L 356.325517 -186.920192 
L 356.722759 -186.943172 
L 357.12 -186.966153 
L 357.517241 -186.989134 
L 357.914483 -187.015638 
L 358.311724 -187.128469 
L 358.708966 -187.184051 
L 359.106207 -187.179801 
L 359.503448 -187.175551 
L 359.90069 -187.171301 
L 360.297931 -187.167051 
L 360.695172 -187.162802 
L 361.092414 -187.158552 
L 361.489655 -187.154302 
L 361.886897 -187.150052 
L 362.284138 -187.145802 
L 362.681379 -187.1424 
L 363.078621 -187.1424 
L 363.475862 -187.1424 
L 363.873103 -187.1424 
L 364.270345 -187.1424 
L 364.667586 -187.1424 
L 365.064828 -187.1424 
L 365.462069 -187.1424 
L 365.85931 -187.1424 
L 366.256552 -187.1424 
L 366.653793 -187.1424 
L 367.051034 -187.1424 
L 367.448276 -187.1424 
L 367.845517 -187.1424 
L 368.242759 -187.1424 
L 368.64 -187.1424 
L 369.037241 -187.1424 
L 369.434483 -187.1424 
L 369.831724 -187.1424 
L 370.228966 -187.1424 
L 370.626207 -187.1424 
L 371.023448 -187.1424 
L 371.42069 -187.1424 
L 371.817931 -187.1424 
L 372.215172 -187.1424 
L 372.612414 -187.1424 
L 373.009655 -187.1424 
L 373.406897 -187.1424 
L 373.804138 -187.1424 
L 374.201379 -187.1424 
L 374.598621 -187.144079 
L 374.995862 -187.148162 
L 375.393103 -187.152245 
L 375.790345 -187.156327 
L 376.187586 -187.16041 
L 376.584828 -187.164493 
L 376.982069 -187.168576 
L 377.37931 -187.172659 
L 377.776552 -187.170845 
L 378.173793 -187.159347 
L 378.571034 -187.147848 
L 378.968276 -187.136349 
L 379.365517 -187.12485 
L 379.762759 -187.113351 
L 380.16 -187.101852 
L 380.557241 -187.090353 
L 380.954483 -187.078854 
L 381.351724 -187.067355 
L 381.748966 -187.055856 
L 382.146207 -187.044357 
L 382.543448 -187.028137 
L 382.94069 -187.01177 
L 383.337931 -186.995402 
L 383.735172 -186.979035 
L 384.132414 -186.962668 
L 384.529655 -186.9463 
L 384.926897 -186.929933 
L 385.324138 -186.913566 
L 385.721379 -186.897198 
L 386.118621 -186.880831 
L 386.515862 -186.864464 
L 386.913103 -186.843446 
L 387.310345 -186.819516 
L 387.707586 -186.795586 
L 388.104828 -186.771657 
L 388.502069 -186.747727 
L 388.89931 -186.727715 
L 389.296552 -186.733294 
L 389.693793 -186.738872 
L 390.091034 -186.744451 
L 390.488276 -186.75003 
L 390.885517 -186.755608 
L 391.282759 -186.761187 
L 391.68 -186.766765 
L 392.077241 -186.772344 
L 392.474483 -186.777922 
L 392.871724 -186.777794 
L 393.268966 -186.766299 
L 393.666207 -186.754805 
L 394.063448 -186.74331 
L 394.46069 -186.731816 
L 394.857931 -186.720322 
L 395.255172 -186.708827 
L 395.652414 -186.697333 
L 396.049655 -186.691564 
L 396.446897 -186.687962 
L 396.844138 -186.684359 
L 397.241379 -186.680757 
L 397.638621 -186.677154 
L 398.035862 -186.673552 
L 398.433103 -186.66995 
L 398.830345 -186.666347 
L 399.227586 -186.662745 
L 399.624828 -186.659142 
L 400.022069 -186.65554 
L 400.41931 -186.651937 
L 400.816552 -186.648335 
L 401.213793 -186.644732 
L 401.611034 -186.64113 
L 402.008276 -186.637528 
L 402.405517 -186.633925 
L 402.802759 -186.630323 
L 403.2 -186.62672 
L 403.597241 -186.623118 
L 403.994483 -186.619515 
L 404.391724 -186.615913 
L 404.788966 -186.61231 
L 405.186207 -186.608708 
L 405.583448 -186.605105 
L 405.98069 -186.601503 
L 406.377931 -186.596829 
L 406.775172 -186.590706 
L 407.172414 -186.584583 
L 407.569655 -186.57846 
L 407.966897 -186.572337 
L 408.364138 -186.566214 
L 408.761379 -186.560091 
L 409.158621 -186.553968 
L 409.555862 -186.547845 
L 409.953103 -186.541722 
L 410.350345 -186.535599 
L 410.747586 -186.529476 
L 411.144828 -186.523352 
L 411.542069 -186.517229 
L 411.93931 -186.511106 
L 412.336552 -186.504983 
L 412.733793 -186.49886 
L 413.131034 -186.492737 
L 413.528276 -186.486614 
L 413.925517 -186.480491 
L 414.322759 -186.474368 
L 414.72 -186.468245 
L 414.72 -62.660571 
L 414.72 -62.660571 
L 414.322759 -62.660571 
L 413.925517 -62.660571 
L 413.528276 -62.660571 
L 413.131034 -62.660571 
L 412.733793 -62.660571 
L 412.336552 -62.660571 
L 411.93931 -62.660571 
L 411.542069 -62.660571 
L 411.144828 -62.660571 
L 410.747586 -62.660571 
L 410.350345 -62.660571 
L 409.953103 -62.660571 
L 409.555862 -62.660571 
L 409.158621 -62.660571 
L 408.761379 -62.660571 
L 408.364138 -62.660571 
L 407.966897 -62.660571 
L 407.569655 -62.660571 
L 407.172414 -62.660571 
L 406.775172 -62.660571 
L 406.377931 -62.660571 
L 405.98069 -62.660571 
L 405.583448 -62.660571 
L 405.186207 -62.660571 
L 404.788966 -62.660571 
L 404.391724 -62.660571 
L 403.994483 -62.660571 
L 403.597241 -62.660571 
L 403.2 -62.660571 
L 402.802759 -62.660571 
L 402.405517 -62.660571 
L 402.008276 -62.660571 
L 401.611034 -62.660571 
L 401.213793 -62.660571 
L 400.816552 -62.660571 
L 400.41931 -62.660571 
L 400.022069 -62.660571 
L 399.624828 -62.660571 
L 399.227586 -62.660571 
L 398.830345 -62.660571 
L 398.433103 -62.660571 
L 398.035862 -62.660571 
L 397.638621 -62.660571 
L 397.241379 -62.660571 
L 396.844138 -62.660571 
L 396.446897 -62.660571 
L 396.049655 -62.660571 
L 395.652414 -62.660571 
L 395.255172 -62.660571 
L 394.857931 -62.660571 
L 394.46069 -62.660571 
L 394.063448 -62.660571 
L 393.666207 -62.660571 
L 393.268966 -62.660571 
L 392.871724 -62.660571 
L 392.474483 -62.660571 
L 392.077241 -62.660571 
L 391.68 -62.660571 
L 391.282759 -62.660571 
L 390.885517 -62.660571 
L 390.488276 -62.660571 
L 390.091034 -62.660571 
L 389.693793 -62.660571 
L 389.296552 -62.660571 
L 388.89931 -62.660571 
L 388.502069 -62.660571 
L 388.104828 -62.660571 
L 387.707586 -62.660571 
L 387.310345 -62.660571 
L 386.913103 -62.660571 
L 386.515862 -62.660571 
L 386.118621 -62.660571 
L 385.721379 -62.660571 
L 385.324138 -62.660571 
L 384.926897 -62.660571 
L 384.529655 -62.660571 
L 384.132414 -62.660571 
L 383.735172 -62.660571 
L 383.337931 -62.660571 
L 382.94069 -62.660571 
L 382.543448 -62.660571 
L 382.146207 -62.660571 
L 381.748966 -62.660571 
L 381.351724 -62.660571 
L 380.954483 -62.660571 
L 380.557241 -62.660571 
L 380.16 -62.660571 
L 379.762759 -62.660571 
L 379.365517 -62.660571 
L 378.968276 -62.660571 
L 378.571034 -62.660571 
L 378.173793 -62.660571 
L 377.776552 -62.660571 
L 377.37931 -62.660571 
L 376.982069 -62.660571 
L 376.584828 -62.660571 
L 376.187586 -62.660571 
L 375.790345 -62.660571 
L 375.393103 -62.660571 
L 374.995862 -62.660571 
L 374.598621 -62.660571 
L 374.201379 -62.660571 
L 373.804138 -62.660571 
L 373.406897 -62.660571 
L 373.009655 -62.660571 
L 372.612414 -62.660571 
L 372.215172 -62.660571 
L 371.817931 -62.660571 
L 371.42069 -62.660571 
L 371.023448 -62.660571 
L 370.626207 -62.660571 
L 370.228966 -62.660571 
L 369.831724 -62.660571 
L 369.434483 -62.660571 
L 369.037241 -62.660571 
L 368.64 -62.660571 
L 368.242759 -62.660571 
L 367.845517 -62.660571 
L 367.448276 -62.660571 
L 367.051034 -62.660571 
L 366.653793 -62.660571 
L 366.256552 -62.660571 
L 365.85931 -62.660571 
L 365.462069 -62.660571 
L 365.064828 -62.660571 
L 364.667586 -62.660571 
L 364.270345 -62.660571 
L 363.873103 -62.660571 
L 363.475862 -62.660571 
L 363.078621 -62.660571 
L 362.681379 -62.660571 
L 362.284138 -62.660571 
L 361.886897 -62.660571 
L 361.489655 -62.660571 
L 361.092414 -62.660571 
L 360.695172 -62.660571 
L 360.297931 -62.660571 
L 359.90069 -62.660571 
L 359.503448 -62.660571 
L 359.106207 -62.660571 
L 358.708966 -62.660571 
L 358.311724 -62.660571 
L 357.914483 -62.660571 
L 357.517241 -62.660571 
L 357.12 -62.660571 
L 356.722759 -62.660571 
L 356.325517 -62.660571 
L 355.928276 -62.660571 
L 355.531034 -62.660571 
L 355.133793 -62.660571 
L 354.736552 -62.660571 
L 354.33931 -62.660571 
L 353.942069 -62.660571 
L 353.544828 -62.660571 
L 353.147586 -62.660571 
L 352.750345 -62.660571 
L 352.353103 -62.660571 
L 351.955862 -62.660571 
L 351.558621 -62.660571 
L 351.161379 -62.660571 
L 350.764138 -62.660571 
L 350.366897 -62.660571 
L 349.969655 -62.660571 
L 349.572414 -62.660571 
L 349.175172 -62.660571 
L 348.777931 -62.660571 
L 348.38069 -62.660571 
L 347.983448 -62.660571 
L 347.586207 -62.660571 
L 347.188966 -62.660571 
L 346.791724 -62.660571 
L 346.394483 -62.660571 
L 345.997241 -62.660571 
L 345.6 -62.660571 
L 345.202759 -62.660571 
L 344.805517 -62.660571 
L 344.408276 -62.660571 
L 344.011034 -62.660571 
L 343.613793 -62.660571 
L 343.216552 -62.660571 
L 342.81931 -62.660571 
L 342.422069 -62.660571 
L 342.024828 -62.660571 
L 341.627586 -62.660571 
L 341.230345 -62.660571 
L 340.833103 -62.660571 
L 340.435862 -62.660571 
L 340.038621 -62.660571 
L 339.641379 -62.660571 
L 339.244138 -62.660571 
L 338.846897 -62.660571 
L 338.449655 -62.660571 
L 338.052414 -62.660571 
L 337.655172 -62.660571 
L 337.257931 -62.660571 
L 336.86069 -62.660571 
L 336.463448 -62.660571 
L 336.066207 -62.660571 
L 335.668966 -62.660571 
L 335.271724 -62.660571 
L 334.874483 -62.660571 
L 334.477241 -62.660571 
L 334.08 -62.660571 
L 333.682759 -62.660571 
L 333.285517 -62.660571 
L 332.888276 -62.660571 
L 332.491034 -62.660571 
L 332.093793 -62.660571 
L 331.696552 -62.660571 
L 331.29931 -62.660571 
L 330.902069 -62.660571 
L 330.504828 -62.660571 
L 330.107586 -62.660571 
L 329.710345 -62.660571 
L 329.313103 -62.660571 
L 328.915862 -62.660571 
L 328.518621 -62.660571 
L 328.121379 -62.660571 
L 327.724138 -62.660571 
L 327.326897 -62.660571 
L 326.929655 -62.660571 
L 326.532414 -62.660571 
L 326.135172 -62.660571 
L 325.737931 -62.660571 
L 325.34069 -62.660571 
L 324.943448 -62.660571 
L 324.546207 -62.660571 
L 324.148966 -62.660571 
L 323.751724 -62.660571 
L 323.354483 -62.660571 
L 322.957241 -62.660571 
L 322.56 -62.660571 
L 322.162759 -62.660571 
L 321.765517 -62.660571 
L 321.368276 -62.660571 
L 320.971034 -62.660571 
L 320.573793 -62.660571 
L 320.176552 -62.660571 
L 319.77931 -62.660571 
L 319.382069 -62.660571 
L 318.984828 -62.660571 
L 318.587586 -62.660571 
L 318.190345 -62.660571 
L 317.793103 -62.660571 
L 317.395862 -62.660571 
L 316.998621 -62.660571 
L 316.601379 -62.660571 
L 316.204138 -62.660571 
L 315.806897 -62.660571 
L 315.409655 -62.660571 
L 315.012414 -62.660571 
L 314.615172 -62.660571 
L 314.217931 -62.660571 
L 313.82069 -62.660571 
L 313.423448 -62.660571 
L 313.026207 -62.660571 
L 312.628966 -62.660571 
L 312.231724 -62.660571 
L 311.834483 -62.660571 
L 311.437241 -62.660571 
L 311.04 -62.660571 
L 310.642759 -62.660571 
L 310.245517 -62.660571 
L 309.848276 -62.660571 
L 309.451034 -62.660571 
L 309.053793 -62.660571 
L 308.656552 -62.660571 
L 308.25931 -62.660571 
L 307.862069 -62.660571 
L 307.464828 -62.660571 
L 307.067586 -62.660571 
L 306.670345 -62.660571 
L 306.273103 -62.660571 
L 305.875862 -62.660571 
L 305.478621 -62.660571 
L 305.081379 -62.660571 
L 304.684138 -62.660571 
L 304.286897 -62.660571 
L 303.889655 -62.660571 
L 303.492414 -62.660571 
L 303.095172 -62.660571 
L 302.697931 -62.660571 
L 302.30069 -62.660571 
L 301.903448 -62.660571 
L 301.506207 -62.660571 
L 301.108966 -62.660571 
L 300.711724 -62.660571 
L 300.314483 -62.660571 
L 299.917241 -62.660571 
L 299.52 -62.660571 
L 299.122759 -62.660571 
L 298.725517 -62.660571 
L 298.328276 -62.660571 
L 297.931034 -62.660571 
L 297.533793 -62.660571 
L 297.136552 -62.660571 
L 296.73931 -62.660571 
L 296.342069 -62.660571 
L 295.944828 -62.660571 
L 295.547586 -62.660571 
L 295.150345 -62.660571 
L 294.753103 -62.660571 
L 294.355862 -62.660571 
L 293.958621 -62.660571 
L 293.561379 -62.660571 
L 293.164138 -62.660571 
L 292.766897 -62.660571 
L 292.369655 -62.660571 
L 291.972414 -62.660571 
L 291.575172 -62.660571 
L 291.177931 -62.660571 
L 290.78069 -62.660571 
L 290.383448 -62.660571 
L 289.986207 -62.660571 
L 289.588966 -62.660571 
L 289.191724 -62.660571 
L 288.794483 -62.660571 
L 288.397241 -62.660571 
L 288 -62.660571 
L 287.602759 -62.660571 
L 287.205517 -62.660571 
L 286.808276 -62.660571 
L 286.411034 -62.660571 
L 286.013793 -62.660571 
L 285.616552 -62.660571 
L 285.21931 -62.660571 
L 284.822069 -62.660571 
L 284.424828 -62.660571 
L 284.027586 -62.660571 
L 283.630345 -62.660571 
L 283.233103 -62.660571 
L 282.835862 -62.660571 
L 282.438621 -62.660571 
L 282.041379 -62.660571 
L 281.644138 -62.660571 
L 281.246897 -62.660571 
L 280.849655 -62.660571 
L 280.452414 -62.660571 
L 280.055172 -62.660571 
L 279.657931 -62.660571 
L 279.26069 -62.660571 
L 278.863448 -62.660571 
L 278.466207 -62.660571 
L 278.068966 -62.660571 
L 277.671724 -62.660571 
L 277.274483 -62.660571 
L 276.877241 -62.660571 
L 276.48 -62.660571 
L 276.082759 -62.660571 
L 275.685517 -62.660571 
L 275.288276 -62.660571 
L 274.891034 -62.660571 
L 274.493793 -62.660571 
L 274.096552 -62.660571 
L 273.69931 -62.660571 
L 273.302069 -62.660571 
L 272.904828 -62.660571 
L 272.507586 -62.660571 
L 272.110345 -62.660571 
L 271.713103 -62.660571 
L 271.315862 -62.660571 
L 270.918621 -62.660571 
L 270.521379 -62.660571 
L 270.124138 -62.660571 
L 269.726897 -62.660571 
L 269.329655 -62.660571 
L 268.932414 -62.660571 
L 268.535172 -62.660571 
L 268.137931 -62.660571 
L 267.74069 -62.660571 
L 267.343448 -62.660571 
L 266.946207 -62.660571 
L 266.548966 -62.660571 
L 266.151724 -62.660571 
L 265.754483 -62.660571 
L 265.357241 -62.660571 
L 264.96 -62.660571 
L 264.562759 -62.660571 
L 264.165517 -62.660571 
L 263.768276 -62.660571 
L 263.371034 -62.660571 
L 262.973793 -62.660571 
L 262.576552 -62.660571 
L 262.17931 -62.660571 
L 261.782069 -62.660571 
L 261.384828 -62.660571 
L 260.987586 -62.660571 
L 260.590345 -62.660571 
L 260.193103 -62.660571 
L 259.795862 -62.660571 
L 259.398621 -62.660571 
L 259.001379 -62.660571 
L 258.604138 -62.660571 
L 258.206897 -62.660571 
L 257.809655 -62.660571 
L 257.412414 -62.660571 
L 257.015172 -62.660571 
L 256.617931 -62.660571 
L 256.22069 -62.660571 
L 255.823448 -62.660571 
L 255.426207 -62.660571 
L 255.028966 -62.660571 
L 254.631724 -62.660571 
L 254.234483 -62.660571 
L 253.837241 -62.660571 
L 253.44 -62.660571 
L 253.042759 -62.660571 
L 252.645517 -62.660571 
L 252.248276 -62.660571 
L 251.851034 -62.660571 
L 251.453793 -62.660571 
L 251.056552 -62.660571 
L 250.65931 -62.660571 
L 250.262069 -62.660571 
L 249.864828 -62.660571 
L 249.467586 -62.660571 
L 249.070345 -62.660571 
L 248.673103 -62.660571 
L 248.275862 -62.660571 
L 247.878621 -62.660571 
L 247.481379 -62.660571 
L 247.084138 -62.660571 
L 246.686897 -62.660571 
L 246.289655 -62.660571 
L 245.892414 -62.660571 
L 245.495172 -62.660571 
L 245.097931 -62.660571 
L 244.70069 -62.660571 
L 244.303448 -62.660571 
L 243.906207 -62.660571 
L 243.508966 -62.660571 
L 243.111724 -62.660571 
L 242.714483 -62.660571 
L 242.317241 -62.660571 
L 241.92 -62.660571 
L 241.522759 -62.660571 
L 241.125517 -62.660571 
L 240.728276 -62.660571 
L 240.331034 -62.660571 
L 239.933793 -62.660571 
L 239.536552 -62.660571 
L 239.13931 -62.660571 
L 238.742069 -62.660571 
L 238.344828 -62.660571 
L 237.947586 -62.660571 
L 237.550345 -62.660571 
L 237.153103 -62.660571 
L 236.755862 -62.660571 
L 236.358621 -62.660571 
L 235.961379 -62.660571 
L 235.564138 -62.660571 
L 235.166897 -62.660571 
L 234.769655 -62.660571 
L 234.372414 -62.660571 
L 233.975172 -62.660571 
L 233.577931 -62.660571 
L 233.18069 -62.660571 
L 232.783448 -62.660571 
L 232.386207 -62.660571 
L 231.988966 -62.660571 
L 231.591724 -62.660571 
L 231.194483 -62.660571 
L 230.797241 -62.660571 
L 230.4 -62.660571 
L 230.002759 -62.660571 
L 229.605517 -62.660571 
L 229.208276 -62.660571 
L 228.811034 -62.660571 
L 228.413793 -62.660571 
L 228.016552 -62.660571 
L 227.61931 -62.660571 
L 227.222069 -62.660571 
L 226.824828 -62.660571 
L 226.427586 -62.660571 
L 226.030345 -62.660571 
L 225.633103 -62.660571 
L 225.235862 -62.660571 
L 224.838621 -62.660571 
L 224.441379 -62.660571 
L 224.044138 -62.660571 
L 223.646897 -62.660571 
L 223.249655 -62.660571 
L 222.852414 -62.660571 
L 222.455172 -62.660571 
L 222.057931 -62.660571 
L 221.66069 -62.660571 
L 221.263448 -62.660571 
L 220.866207 -62.660571 
L 220.468966 -62.660571 
L 220.071724 -62.660571 
L 219.674483 -62.660571 
L 219.277241 -62.660571 
L 218.88 -62.660571 
L 218.482759 -62.660571 
L 218.085517 -62.660571 
L 217.688276 -62.660571 
L 217.291034 -62.660571 
L 216.893793 -62.660571 
L 216.496552 -62.660571 
L 216.09931 -62.660571 
L 215.702069 -62.660571 
L 215.304828 -62.660571 
L 214.907586 -62.660571 
L 214.510345 -62.660571 
L 214.113103 -62.660571 
L 213.715862 -62.660571 
L 213.318621 -62.660571 
L 212.921379 -62.660571 
L 212.524138 -62.660571 
L 212.126897 -62.660571 
L 211.729655 -62.660571 
L 211.332414 -62.660571 
L 210.935172 -62.660571 
L 210.537931 -62.660571 
L 210.14069 -62.660571 
L 209.743448 -62.660571 
L 209.346207 -62.660571 
L 208.948966 -62.660571 
L 208.551724 -62.660571 
L 208.154483 -62.660571 
L 207.757241 -62.660571 
L 207.36 -62.660571 
L 206.962759 -62.660571 
L 206.565517 -62.660571 
L 206.168276 -62.660571 
L 205.771034 -62.660571 
L 205.373793 -62.660571 
L 204.976552 -62.660571 
L 204.57931 -62.660571 
L 204.182069 -62.660571 
L 203.784828 -62.660571 
L 203.387586 -62.660571 
L 202.990345 -62.660571 
L 202.593103 -62.660571 
L 202.195862 -62.660571 
L 201.798621 -62.660571 
L 201.401379 -62.660571 
L 201.004138 -62.660571 
L 200.606897 -62.660571 
L 200.209655 -62.660571 
L 199.812414 -62.660571 
L 199.415172 -62.660571 
L 199.017931 -62.660571 
L 198.62069 -62.660571 
L 198.223448 -62.660571 
L 197.826207 -62.660571 
L 197.428966 -62.660571 
L 197.031724 -62.660571 
L 196.634483 -62.660571 
L 196.237241 -62.660571 
L 195.84 -62.660571 
L 195.442759 -62.660571 
L 195.045517 -62.660571 
L 194.648276 -62.660571 
L 194.251034 -62.660571 
L 193.853793 -62.660571 
L 193.456552 -62.660571 
L 193.05931 -62.660571 
L 192.662069 -62.660571 
L 192.264828 -62.660571 
L 191.867586 -62.660571 
L 191.470345 -62.660571 
L 191.073103 -62.660571 
L 190.675862 -62.660571 
L 190.278621 -62.660571 
L 189.881379 -62.660571 
L 189.484138 -62.660571 
L 189.086897 -62.660571 
L 188.689655 -62.660571 
L 188.292414 -62.660571 
L 187.895172 -62.660571 
L 187.497931 -62.660571 
L 187.10069 -62.660571 
L 186.703448 -62.660571 
L 186.306207 -62.660571 
L 185.908966 -62.660571 
L 185.511724 -62.660571 
L 185.114483 -62.660571 
L 184.717241 -62.660571 
L 184.32 -62.660571 
L 183.922759 -62.660571 
L 183.525517 -62.660571 
L 183.128276 -62.660571 
L 182.731034 -62.660571 
L 182.333793 -62.660571 
L 181.936552 -62.660571 
L 181.53931 -62.660571 
L 181.142069 -62.660571 
L 180.744828 -62.660571 
L 180.347586 -62.660571 
L 179.950345 -62.660571 
L 179.553103 -62.660571 
L 179.155862 -62.660571 
L 178.758621 -62.660571 
L 178.361379 -62.660571 
L 177.964138 -62.660571 
L 177.566897 -62.660571 
L 177.169655 -62.660571 
L 176.772414 -62.660571 
L 176.375172 -62.660571 
L 175.977931 -62.660571 
L 175.58069 -62.660571 
L 175.183448 -62.660571 
L 174.786207 -62.660571 
L 174.388966 -62.660571 
L 173.991724 -62.660571 
L 173.594483 -62.660571 
L 173.197241 -62.660571 
L 172.8 -62.660571 
L 172.402759 -62.660571 
L 172.005517 -62.660571 
L 171.608276 -62.660571 
L 171.211034 -62.660571 
L 170.813793 -62.660571 
L 170.416552 -62.660571 
L 170.01931 -62.660571 
L 169.622069 -62.660571 
L 169.224828 -62.660571 
L 168.827586 -62.660571 
L 168.430345 -62.660571 
L 168.033103 -62.660571 
L 167.635862 -62.660571 
L 167.238621 -62.660571 
L 166.841379 -62.660571 
L 166.444138 -62.660571 
L 166.046897 -62.660571 
L 165.649655 -62.660571 
L 165.252414 -62.660571 
L 164.855172 -62.660571 
L 164.457931 -62.660571 
L 164.06069 -62.660571 
L 163.663448 -62.660571 
L 163.266207 -62.660571 
L 162.868966 -62.660571 
L 162.471724 -62.660571 
L 162.074483 -62.660571 
L 161.677241 -62.660571 
L 161.28 -62.660571 
L 160.882759 -62.660571 
L 160.485517 -62.660571 
L 160.088276 -62.660571 
L 159.691034 -62.660571 
L 159.293793 -62.660571 
L 158.896552 -62.660571 
L 158.49931 -62.660571 
L 158.102069 -62.660571 
L 157.704828 -62.660571 
L 157.307586 -62.660571 
L 156.910345 -62.660571 
L 156.513103 -62.660571 
L 156.115862 -62.660571 
L 155.718621 -62.660571 
L 155.321379 -62.660571 
L 154.924138 -62.660571 
L 154.526897 -62.660571 
L 154.129655 -62.660571 
L 153.732414 -62.660571 
L 153.335172 -62.660571 
L 152.937931 -62.660571 
L 152.54069 -62.660571 
L 152.143448 -62.660571 
L 151.746207 -62.660571 
L 151.348966 -62.660571 
L 150.951724 -62.660571 
L 150.554483 -62.660571 
L 150.157241 -62.660571 
L 149.76 -62.660571 
L 149.362759 -62.660571 
L 148.965517 -62.660571 
L 148.568276 -62.660571 
L 148.171034 -62.660571 
L 147.773793 -62.660571 
L 147.376552 -62.660571 
L 146.97931 -62.660571 
L 146.582069 -62.660571 
L 146.184828 -62.660571 
L 145.787586 -62.660571 
L 145.390345 -62.660571 
L 144.993103 -62.660571 
L 144.595862 -62.660571 
L 144.198621 -62.660571 
L 143.801379 -62.660571 
L 143.404138 -62.660571 
L 143.006897 -62.660571 
L 142.609655 -62.660571 
L 142.212414 -62.660571 
L 141.815172 -62.660571 
L 141.417931 -62.660571 
L 141.02069 -62.660571 
L 140.623448 -62.660571 
L 140.226207 -62.660571 
L 139.828966 -62.660571 
L 139.431724 -62.660571 
L 139.034483 -62.660571 
L 138.637241 -62.660571 
L 138.24 -62.660571 
L 137.842759 -62.660571 
L 137.445517 -62.660571 
L 137.048276 -62.660571 
L 136.651034 -62.660571 
L 136.253793 -62.660571 
L 135.856552 -62.660571 
L 135.45931 -62.660571 
L 135.062069 -62.660571 
L 134.664828 -62.660571 
L 134.267586 -62.660571 
L 133.870345 -62.660571 
L 133.473103 -62.660571 
L 133.075862 -62.660571 
L 132.678621 -62.660571 
L 132.281379 -62.660571 
L 131.884138 -62.660571 
L 131.486897 -62.660571 
L 131.089655 -62.660571 
L 130.692414 -62.660571 
L 130.295172 -62.660571 
L 129.897931 -62.660571 
L 129.50069 -62.660571 
L 129.103448 -62.660571 
L 128.706207 -62.660571 
L 128.308966 -62.660571 
L 127.911724 -62.660571 
L 127.514483 -62.660571 
L 127.117241 -62.660571 
L 126.72 -62.660571 
L 126.322759 -62.660571 
L 125.925517 -62.660571 
L 125.528276 -62.660571 
L 125.131034 -62.660571 
L 124.733793 -62.660571 
L 124.336552 -62.660571 
L 123.93931 -62.660571 
L 123.542069 -62.660571 
L 123.144828 -62.660571 
L 122.747586 -62.660571 
L 122.350345 -62.660571 
L 121.953103 -62.660571 
L 121.555862 -62.660571 
L 121.158621 -62.660571 
L 120.761379 -62.660571 
L 120.364138 -62.660571 
L 119.966897 -62.660571 
L 119.569655 -62.660571 
L 119.172414 -62.660571 
L 118.775172 -62.660571 
L 118.377931 -62.660571 
L 117.98069 -62.660571 
L 117.583448 -62.660571 
L 117.186207 -62.660571 
L 116.788966 -62.660571 
L 116.391724 -62.660571 
L 115.994483 -62.660571 
L 115.597241 -62.660571 
L 115.2 -62.660571 
L 114.802759 -62.660571 
L 114.405517 -62.660571 
L 114.008276 -62.660571 
L 113.611034 -62.660571 
L 113.213793 -62.660571 
L 112.816552 -62.660571 
L 112.41931 -62.660571 
L 112.022069 -62.660571 
L 111.624828 -62.660571 
L 111.227586 -62.660571 
L 110.830345 -62.660571 
L 110.433103 -62.660571 
L 110.035862 -62.660571 
L 109.638621 -62.660571 
L 109.241379 -62.660571 
L 108.844138 -62.660571 
L 108.446897 -62.660571 
L 108.049655 -62.660571 
L 107.652414 -62.660571 
L 107.255172 -62.660571 
L 106.857931 -62.660571 
L 106.46069 -62.660571 
L 106.063448 -62.660571 
L 105.666207 -62.660571 
L 105.268966 -62.660571 
L 104.871724 -62.660571 
L 104.474483 -62.660571 
L 104.077241 -62.660571 
L 103.68 -62.660571 
L 103.282759 -62.660571 
L 102.885517 -62.660571 
L 102.488276 -62.660571 
L 102.091034 -62.660571 
L 101.693793 -62.660571 
L 101.296552 -62.660571 
L 100.89931 -62.660571 
L 100.502069 -62.660571 
L 100.104828 -62.660571 
L 99.707586 -62.660571 
L 99.310345 -62.660571 
L 98.913103 -62.660571 
L 98.515862 -62.660571 
L 98.118621 -62.660571 
L 97.721379 -62.660571 
L 97.324138 -62.660571 
L 96.926897 -62.660571 
L 96.529655 -62.660571 
L 96.132414 -62.660571 
L 95.735172 -62.660571 
L 95.337931 -62.660571 
L 94.94069 -62.660571 
L 94.543448 -62.660571 
L 94.146207 -62.660571 
L 93.748966 -62.660571 
L 93.351724 -62.660571 
L 92.954483 -62.660571 
L 92.557241 -62.660571 
L 92.16 -62.660571 
L 91.762759 -62.660571 
L 91.365517 -62.660571 
L 90.968276 -62.660571 
L 90.571034 -62.660571 
L 90.173793 -62.660571 
L 89.776552 -62.660571 
L 89.37931 -62.660571 
L 88.982069 -62.660571 
L 88.584828 -62.660571 
L 88.187586 -62.660571 
L 87.790345 -62.660571 
L 87.393103 -62.660571 
L 86.995862 -62.660571 
L 86.598621 -62.660571 
L 86.201379 -62.660571 
L 85.804138 -62.660571 
L 85.406897 -62.660571 
L 85.009655 -62.660571 
L 84.612414 -62.660571 
L 84.215172 -62.660571 
L 83.817931 -62.660571 
L 83.42069 -62.660571 
L 83.023448 -62.660571 
L 82.626207 -62.660571 
L 82.228966 -62.660571 
L 81.831724 -62.660571 
L 81.434483 -62.660571 
L 81.037241 -62.660571 
L 80.64 -62.660571 
L 80.242759 -62.660571 
L 79.845517 -62.660571 
L 79.448276 -62.660571 
L 79.051034 -62.660571 
L 78.653793 -62.660571 
L 78.256552 -62.660571 
L 77.85931 -62.660571 
L 77.462069 -62.660571 
L 77.064828 -62.660571 
L 76.667586 -62.660571 
L 76.270345 -62.660571 
L 75.873103 -62.660571 
L 75.475862 -62.660571 
L 75.078621 -62.660571 
L 74.681379 -62.660571 
L 74.284138 -62.660571 
L 73.886897 -62.660571 
L 73.489655 -62.660571 
L 73.092414 -62.660571 
L 72.695172 -62.660571 
L 72.297931 -62.660571 
L 71.90069 -62.660571 
L 71.503448 -62.660571 
L 71.106207 -62.660571 
L 70.708966 -62.660571 
L 70.311724 -62.660571 
L 69.914483 -62.660571 
L 69.517241 -62.660571 
L 69.12 -62.660571 
L 68.722759 -62.660571 
L 68.325517 -62.660571 
L 67.928276 -62.660571 
L 67.531034 -62.660571 
L 67.133793 -62.660571 
L 66.736552 -62.660571 
L 66.33931 -62.660571 
L 65.942069 -62.660571 
L 65.544828 -62.660571 
L 65.147586 -62.660571 
L 64.750345 -62.660571 
L 64.353103 -62.660571 
L 63.955862 -62.660571 
L 63.558621 -62.660571 
L 63.161379 -62.660571 
L 62.764138 -62.660571 
L 62.366897 -62.660571 
L 61.969655 -62.660571 
L 61.572414 -62.660571 
L 61.175172 -62.660571 
L 60.777931 -62.660571 
L 60.38069 -62.660571 
L 59.983448 -62.660571 
L 59.586207 -62.660571 
L 59.188966 -62.660571 
L 58.791724 -62.660571 
L 58.394483 -62.660571 
L 57.997241 -62.660571 
L 57.6 -62.660571 
z
" style="stroke: #d4edfc; stroke-opacity: 0.9"/>
    </defs>
    <g clip-path="url(#pb339b8587c)">
     <use xlink:href="#m2d976a2e72" x="0" y="345.6" style="fill: #d4edfc; fill-opacity: 0.9; stroke: #d4edfc; stroke-opacity: 0.9"/>
    </g>
   </g>
   <g id="matplotlib.axis_1">
    <g id="xtick_1">
     <g id="line2d_1">
      <path d="M 107.907025 219.168 
L 107.907025 129.888 
" clip-path="url(#pb339b8587c)" style="fill: none"/>
     </g>
     <g id="line2d_2"/>
     <g id="text_1">
      <text style="fill: #004a80; font: 13px 'DejaVu Sans', 'Bitstream Vera Sans', 'Computer Modern Sans Serif', 'Lucida Grande', 'Verdana', 'Geneva', 'Lucid', 'Arial', 'Helvetica', 'Avant Garde', sans-serif; text-anchor: middle" x="107.907025" y="232.545969" transform="rotate(-0 107.907025 232.545969)">0.50</text>
     </g>
    </g>
    <g id="xtick_2">
     <g id="line2d_3">
      <path d="M 158.214049 219.168 
L 158.214049 129.888 
" clip-path="url(#pb339b8587c)" style="fill: none"/>
     </g>
     <g id="line2d_4"/>
     <g id="text_2">
      <text style="fill: #004a80; font: 13px 'DejaVu Sans', 'Bitstream Vera Sans', 'Computer Modern Sans Serif', 'Lucida Grande', 'Verdana', 'Geneva', 'Lucid', 'Arial', 'Helvetica', 'Avant Garde', sans-serif; text-anchor: middle" x="158.214049" y="232.545969" transform="rotate(-0 158.214049 232.545969)">1.00</text>
     </g>
    </g>
    <g id="xtick_3">
     <g id="line2d_5">
      <path d="M 208.521074 219.168 
L 208.521074 129.888 
" clip-path="url(#pb339b8587c)" style="fill: none"/>
     </g>
     <g id="line2d_6"/>
     <g id="text_3">
      <text style="fill: #004a80; font: 13px 'DejaVu Sans', 'Bitstream Vera Sans', 'Computer Modern Sans Serif', 'Lucida Grande', 'Verdana', 'Geneva', 'Lucid', 'Arial', 'Helvetica', 'Avant Garde', sans-serif; text-anchor: middle" x="208.521074" y="232.545969" transform="rotate(-0 208.521074 232.545969)">1.50</text>
     </g>
    </g>
    <g id="xtick_4">
     <g id="line2d_7">
      <path d="M 258.828098 219.168 
L 258.828098 129.888 
" clip-path="url(#pb339b8587c)" style="fill: none"/>
     </g>
     <g id="line2d_8"/>
     <g id="text_4">
      <text style="fill: #004a80; font: 13px 'DejaVu Sans', 'Bitstream Vera Sans', 'Computer Modern Sans Serif', 'Lucida Grande', 'Verdana', 'Geneva', 'Lucid', 'Arial', 'Helvetica', 'Avant Garde', sans-serif; text-anchor: middle" x="258.828098" y="232.545969" transform="rotate(-0 258.828098 232.545969)">2.00</text>
     </g>
    </g>
    <g id="xtick_5">
     <g id="line2d_9">
      <path d="M 309.135123 219.168 
L 309.135123 129.888 
" clip-path="url(#pb339b8587c)" style="fill: none"/>
     </g>
     <g id="line2d_10"/>
     <g id="text_5">
      <text style="fill: #004a80; font: 13px 'DejaVu Sans', 'Bitstream Vera Sans', 'Computer Modern Sans Serif', 'Lucida Grande', 'Verdana', 'Geneva', 'Lucid', 'Arial', 'Helvetica', 'Avant Garde', sans-serif; text-anchor: middle" x="309.135123" y="232.545969" transform="rotate(-0 309.135123 232.545969)">2.50</text>
     </g>
    </g>
    <g id="xtick_6">
     <g id="line2d_11">
      <path d="M 359.442147 219.168 
L 359.442147 129.888 
" clip-path="url(#pb339b8587c)" style="fill: none"/>
     </g>
     <g id="line2d_12"/>
     <g id="text_6">
      <text style="fill: #004a80; font: 13px 'DejaVu Sans', 'Bitstream Vera Sans', 'Computer Modern Sans Serif', 'Lucida Grande', 'Verdana', 'Geneva', 'Lucid', 'Arial', 'Helvetica', 'Avant Garde', sans-serif; text-anchor: middle" x="359.442147" y="232.545969" transform="rotate(-0 359.442147 232.545969)">3.00</text>
     </g>
    </g>
    <g id="xtick_7">
     <g id="line2d_13">
      <path d="M 414.72 219.168 
L 414.72 129.888 
" clip-path="url(#pb339b8587c)" style="fill: none"/>
     </g>
     <g id="line2d_14"/>
     <g id="text_7">
      <text style="fill: #004a80; font: 13px 'DejaVu Sans', 'Bitstream Vera Sans', 'Computer Modern Sans Serif', 'Lucida Grande', 'Verdana', 'Geneva', 'Lucid', 'Arial', 'Helvetica', 'Avant Garde', sans-serif; text-anchor: middle" x="414.72" y="232.545969" transform="rotate(-0 414.72 232.545969)">3.55</text>
     </g>
    </g>
    <g id="text_8">
     <text style="font: 10px 'DejaVu Sans', 'Bitstream Vera Sans', 'Computer Modern Sans Serif', 'Lucida Grande', 'Verdana', 'Geneva', 'Lucid', 'Arial', 'Helvetica', 'Avant Garde', sans-serif; text-anchor: middle" x="236.16" y="246.848" transform="rotate(-0 236.16 246.848)">Distance (km)</text>
    </g>
   </g>
   <g id="matplotlib.axis_2">
    <g id="ytick_1">
     <g id="line2d_15">
      <path d="M 57.6 219.168 
L 414.72 219.168 
" clip-path="url(#pb339b8587c)" style="fill: none; stroke: #9d9d9c; stroke-width: 0.8; stroke-linecap: square"/>
     </g>
     <g id="line2d_16"/>
     <g id="text_9">
      <text style="font: 12px 'DejaVu Sans', 'Bitstream Vera Sans', 'Computer Modern Sans Serif', 'Lucida Grande', 'Verdana', 'Geneva', 'Lucid', 'Arial', 'Helvetica', 'Avant Garde', sans-serif; text-anchor: end" x="54.1" y="223.727062" transform="rotate(-0 54.1 223.727062)">500</text>
     </g>
    </g>
    <g id="ytick_2">
     <g id="line2d_17">
      <path d="M 57.6 187.282286 
L 414.72 187.282286 
" clip-path="url(#pb339b8587c)" style="fill: none; stroke: #9d9d9c; stroke-width: 0.8; stroke-linecap: square"/>
     </g>
     <g id="line2d_18"/>
     <g id="text_10">
      <text style="font: 12px 'DejaVu Sans', 'Bitstream Vera Sans', 'Computer Modern Sans Serif', 'Lucida Grande', 'Verdana', 'Geneva', 'Lucid', 'Arial', 'Helvetica', 'Avant Garde', sans-serif; text-anchor: end" x="54.1" y="191.841348" transform="rotate(-0 54.1 191.841348)">750</text>
     </g>
    </g>
    <g id="ytick_3">
     <g id="line2d_19">
      <path d="M 57.6 155.396571 
L 414.72 155.396571 
" clip-path="url(#pb339b8587c)" style="fill: none; stroke: #9d9d9c; stroke-width: 0.8; stroke-linecap: square"/>
     </g>
     <g id="line2d_20"/>
     <g id="text_11">
      <text style="font: 12px 'DejaVu Sans', 'Bitstream Vera Sans', 'Computer Modern Sans Serif', 'Lucida Grande', 'Verdana', 'Geneva', 'Lucid', 'Arial', 'Helvetica', 'Avant Garde', sans-serif; text-anchor: end" x="54.1" y="159.955634" transform="rotate(-0 54.1 159.955634)">1000</text>
     </g>
    </g>
   </g>
   <g id="LineCollection_1">
    <path d="M 107.907025 282.939429 
L 107.907025 158.585143 
" clip-path="url(#pb339b8587c)" style="fill: none; stroke-dasharray: 7.4,3.2; stroke-dashoffset: 0; stroke: #004a80; stroke-width: 2"/>
    <path d="M 158.214049 282.939429 
L 158.214049 161.391086 
" clip-path="url(#pb339b8587c)" style="fill: none; stroke-dasharray: 7.4,3.2; stroke-dashoffset: 0; stroke: #004a80; stroke-width: 2"/>
    <path d="M 208.521074 282.939429 
L 208.521074 163.431771 
" clip-path="url(#pb339b8587c)" style="fill: none; stroke-dasharray: 7.4,3.2; stroke-dashoffset: 0; stroke: #004a80; stroke-width: 2"/>
    <path d="M 258.828098 282.939429 
L 258.828098 161.773714 
" clip-path="url(#pb339b8587c)" style="fill: none; stroke-dasharray: 7.4,3.2; stroke-dashoffset: 0; stroke: #004a80; stroke-width: 2"/>
    <path d="M 309.135123 282.939429 
L 309.135123 162.0288 
" clip-path="url(#pb339b8587c)" style="fill: none; stroke-dasharray: 7.4,3.2; stroke-dashoffset: 0; stroke: #004a80; stroke-width: 2"/>
    <path d="M 359.442147 282.939429 
L 359.442147 158.4576 
" clip-path="url(#pb339b8587c)" style="fill: none; stroke-dasharray: 7.4,3.2; stroke-dashoffset: 0; stroke: #004a80; stroke-width: 2"/>
   </g>
   <g id="patch_3">
    <path d="M 57.6 219.168 
L 57.6 129.888 
" style="fill: none; stroke: #000000; stroke-width: 0.8; stroke-linejoin: miter; stroke-linecap: square"/>
   </g>
   <g id="patch_4">
    <path d="M 414.72 219.168 
L 414.72 129.888 
" style="fill: none; stroke: #000000; stroke-width: 0.8; stroke-linejoin: miter; stroke-linecap: square"/>
   </g>
   <g id="patch_5">
    <path d="M 57.6 219.168 
L 414.72 219.168 
" style="fill: none; stroke: #000000; stroke-width: 0.8; stroke-linejoin: miter; stroke-linecap: square"/>
   </g>
   <g id="patch_6">
    <path d="M 57.6 129.888 
L 414.72 129.888 
" style="fill: none; stroke: #000000; stroke-width: 0.8; stroke-linejoin: miter; stroke-linecap: square"/>
   </g>
   <g id="patch_7">
    <path d="M 107.907025 219.168 
L 208.521074 219.168 
L 208.521074 217.254857 
L 107.907025 217.254857 
z
" clip-path="url(#pb339b8587c)" style="fill: #efefef"/>
   </g>
   <g id="patch_8">
    <path d="M 158.214049 219.168 
L 309.135123 219.168 
L 309.135123 217.254857 
L 158.214049 217.254857 
z
" clip-path="url(#pb339b8587c)" style="fill: #004a80"/>
   </g>
   <g id="patch_9">
    <path d="M 208.521074 219.168 
L 409.749172 219.168 
L 409.749172 217.254857 
L 208.521074 217.254857 
z
" clip-path="url(#pb339b8587c)" style="fill: #efefef"/>
   </g>
   <g id="patch_10">
    <path d="M 258.828098 219.168 
L 510.363221 219.168 
L 510.363221 217.254857 
L 258.828098 217.254857 
z
" clip-path="url(#pb339b8587c)" style="fill: #004a80"/>
   </g>
   <g id="patch_11">
    <path d="M 309.135123 219.168 
L 610.97727 219.168 
L 610.97727 217.254857 
L 309.135123 217.254857 
z
" clip-path="url(#pb339b8587c)" style="fill: #efefef"/>
   </g>
   <g id="patch_12">
    <path d="M 57.6 219.168 
L 107.907025 219.168 
L 107.907025 217.254857 
L 57.6 217.254857 
z
" clip-path="url(#pb339b8587c)" style="fill: #004a80"/>
   </g>
   <g id="patch_13">
    <path d="M 359.442147 219.168 
L 716.562147 219.168 
L 716.562147 217.254857 
L 359.442147 217.254857 
z
" clip-path="url(#pb339b8587c)" style="fill: #004a80"/>
   </g>
   <g id="text_12">
    <text style="font: 12px 'DejaVu Sans', 'Bitstream Vera Sans', 'Computer Modern Sans Serif', 'Lucida Grande', 'Verdana', 'Geneva', 'Lucid', 'Arial', 'Helvetica', 'Avant Garde', sans-serif; text-anchor: middle" x="236.16" y="123.888" transform="rotate(-0 236.16 123.888)">dorfloipe-pertisau</text>
   </g>
   <g id="line2d_21">
    <path d="M 57.6 159.19006 
L 75.078621 159.258423 
L 83.023448 159.131799 
L 85.009655 159.000653 
L 87.790345 158.882627 
L 92.954483 158.84081 
L 96.926897 158.795433 
L 106.46069 158.632087 
L 119.569655 158.611472 
L 126.322759 158.705353 
L 129.103448 158.675243 
L 134.267586 159.046452 
L 136.651034 159.616768 
L 141.02069 159.940735 
L 147.773793 159.794737 
L 155.321379 160.590784 
L 162.471724 161.352767 
L 164.457931 161.504431 
L 173.594483 161.370144 
L 177.169655 161.809956 
L 179.553103 162.305315 
L 183.922759 162.607335 
L 187.497931 162.568793 
L 194.251034 163.086248 
L 198.223448 163.092434 
L 201.798621 163.294164 
L 206.168276 163.407881 
L 208.948966 163.459694 
L 212.921379 163.656008 
L 215.702069 163.846316 
L 231.591724 163.826238 
L 239.536552 163.826672 
L 245.495172 163.454201 
L 248.673103 162.714626 
L 249.864828 162.585411 
L 254.234483 162.690179 
L 258.604138 162.250743 
L 260.987586 161.939294 
L 264.96 161.777973 
L 269.726897 161.681658 
L 275.288276 161.642692 
L 281.246897 162.066124 
L 282.041379 162.115896 
L 282.438621 162.304542 
L 283.630345 162.315081 
L 290.383448 162.019583 
L 292.766897 161.724401 
L 295.547586 161.598724 
L 300.711724 161.742525 
L 306.273103 162.009801 
L 313.026207 162.093909 
L 320.971034 161.457457 
L 326.532414 160.667933 
L 331.696552 160.254525 
L 336.066207 160.45676 
L 343.216552 159.856059 
L 347.586207 159.109105 
L 349.969655 158.869402 
L 352.750345 158.961533 
L 354.736552 158.771731 
L 358.311724 158.471531 
L 359.106207 158.420199 
L 372.612414 158.4576 
L 382.146207 158.555643 
L 391.282759 158.838813 
L 395.255172 158.891173 
L 401.213793 158.955268 
L 414.72 159.131755 
L 414.72 159.131755 
" clip-path="url(#pb339b8587c)" style="fill: none; stroke: #0000ff; stroke-width: 3; stroke-linecap: square"/>
   </g>
  </g>
 </g>
 <defs>
  <clipPath id="pb339b8587c">
   <rect x="57.6" y="129.888" width="357.12" height="89.28"/>
  </clipPath>
 </defs>
</svg>
