<?xml version="1.0" encoding="utf-8" standalone="no"?>
<!DOCTYPE svg PUBLIC "-//W3C//DTD SVG 1.1//EN"
  "http://www.w3.org/Graphics/SVG/1.1/DTD/svg11.dtd">
<svg xmlns:xlink="http://www.w3.org/1999/xlink" width="460.8pt" height="345.6pt" viewBox="0 0 460.8 345.6" xmlns="http://www.w3.org/2000/svg" version="1.1">
 <metadata>
  <rdf:RDF xmlns:dc="http://purl.org/dc/elements/1.1/" xmlns:cc="http://creativecommons.org/ns#" xmlns:rdf="http://www.w3.org/1999/02/22-rdf-syntax-ns#">
   <cc:Work>
    <dc:type rdf:resource="http://purl.org/dc/dcmitype/StillImage"/>
    <dc:date>2024-08-26T11:04:06.776780</dc:date>
    <dc:format>image/svg+xml</dc:format>
    <dc:creator>
     <cc:Agent>
      <dc:title>Matplotlib v3.8.4, https://matplotlib.org/</dc:title>
     </cc:Agent>
    </dc:creator>
   </cc:Work>
  </rdf:RDF>
 </metadata>
 <defs>
  <style type="text/css">*{stroke-linejoin: round; stroke-linecap: butt}</style>
 </defs>
 <g id="figure_1">
  <g id="patch_1">
   <path d="M 0 345.6 
L 460.8 345.6 
L 460.8 0 
L 0 0 
z
" style="fill: #ffffff"/>
  </g>
  <g id="axes_1">
   <g id="patch_2">
    <path d="M 57.6 219.168 
L 414.72 219.168 
L 414.72 129.888 
L 57.6 129.888 
z
" style="fill: #ffffff"/>
   </g>
   <g id="PolyCollection_1">
    <defs>
     <path id="mc3ef5c1408" d="M 57.6 -62.660571 
L 57.6 -186.194939 
L 58.315671 -186.203575 
L 59.031343 -186.212211 
L 59.747014 -186.220847 
L 60.462685 -186.229483 
L 61.178357 -186.238119 
L 61.894028 -186.246755 
L 62.609699 -186.255391 
L 63.325371 -186.264027 
L 64.041042 -186.272663 
L 64.756713 -186.2813 
L 65.472385 -186.289936 
L 66.188056 -186.298572 
L 66.903727 -186.307208 
L 67.619399 -186.315844 
L 68.33507 -186.32448 
L 69.050741 -186.333116 
L 69.766413 -186.340305 
L 70.482084 -186.337041 
L 71.197756 -186.333776 
L 71.913427 -186.330512 
L 72.629098 -186.327247 
L 73.34477 -186.323983 
L 74.060441 -186.320718 
L 74.776112 -186.317454 
L 75.491784 -186.314189 
L 76.207455 -186.310925 
L 76.923126 -186.30766 
L 77.638798 -186.304396 
L 78.354469 -186.287959 
L 79.07014 -186.270955 
L 79.785812 -186.25395 
L 80.501483 -186.236946 
L 81.217154 -186.219942 
L 81.932826 -186.202938 
L 82.648497 -186.185934 
L 83.364168 -186.16893 
L 84.07984 -186.151925 
L 84.795511 -186.134921 
L 85.511182 -186.117917 
L 86.226854 -186.100913 
L 86.942525 -186.083162 
L 87.658196 -186.058719 
L 88.373868 -186.034277 
L 89.089539 -186.009835 
L 89.80521 -185.985393 
L 90.520882 -185.960951 
L 91.236553 -185.936508 
L 91.952224 -185.912066 
L 92.667896 -185.887624 
L 93.383567 -185.863182 
L 94.099238 -185.83874 
L 94.81491 -185.814297 
L 95.530581 -185.789855 
L 96.246253 -185.768216 
L 96.961924 -185.750327 
L 97.677595 -185.732438 
L 98.393267 -185.714548 
L 99.108938 -185.696659 
L 99.824609 -185.67877 
L 100.540281 -185.66088 
L 101.255952 -185.642991 
L 101.971623 -185.625102 
L 102.687295 -185.607212 
L 103.402966 -185.589323 
L 104.118637 -185.571434 
L 104.834309 -185.559728 
L 105.54998 -185.571898 
L 106.265651 -185.584067 
L 106.981323 -185.596237 
L 107.696994 -185.608407 
L 108.412665 -185.620577 
L 109.128337 -185.632746 
L 109.844008 -185.625328 
L 110.559679 -185.616149 
L 111.275351 -185.606969 
L 111.991022 -185.59779 
L 112.706693 -185.58861 
L 113.422365 -185.579431 
L 114.138036 -185.570251 
L 114.853707 -185.561072 
L 115.569379 -185.551893 
L 116.28505 -185.542664 
L 117.000721 -185.533358 
L 117.716393 -185.524051 
L 118.432064 -185.514745 
L 119.147735 -185.505439 
L 119.863407 -185.496133 
L 120.579078 -185.486827 
L 121.294749 -185.477521 
L 122.010421 -185.468215 
L 122.726092 -185.458909 
L 123.441764 -185.449602 
L 124.157435 -185.440296 
L 124.873106 -185.43099 
L 125.588778 -185.42157 
L 126.304449 -185.410765 
L 127.02012 -185.399961 
L 127.735792 -185.389156 
L 128.451463 -185.378352 
L 129.167134 -185.367547 
L 129.882806 -185.356742 
L 130.598477 -185.345938 
L 131.314148 -185.335133 
L 132.02982 -185.347968 
L 132.745491 -185.361243 
L 133.461162 -185.374518 
L 134.176834 -185.387793 
L 134.892505 -185.401069 
L 135.608176 -185.401726 
L 136.323848 -185.356893 
L 137.039519 -185.312059 
L 137.75519 -185.267226 
L 138.470862 -185.222392 
L 139.186533 -185.176257 
L 139.902204 -185.1276 
L 140.617876 -185.078942 
L 141.333547 -185.030285 
L 142.049218 -184.981627 
L 142.76489 -184.93297 
L 143.480561 -184.884312 
L 144.196232 -184.864859 
L 144.911904 -184.846171 
L 145.627575 -184.827483 
L 146.343246 -184.808795 
L 147.058918 -184.790108 
L 147.774589 -184.77142 
L 148.490261 -184.752732 
L 149.205932 -184.734044 
L 149.921603 -184.715356 
L 150.637275 -184.696668 
L 151.352946 -184.677981 
L 152.068617 -184.666096 
L 152.784289 -184.672185 
L 153.49996 -184.678273 
L 154.215631 -184.684361 
L 154.931303 -184.690449 
L 155.646974 -184.696537 
L 156.362645 -184.702625 
L 157.078317 -184.708714 
L 157.793988 -184.714802 
L 158.509659 -184.719086 
L 159.225331 -184.719086 
L 159.941002 -184.719086 
L 160.656673 -184.719086 
L 161.372345 -184.719086 
L 162.088016 -184.719086 
L 162.803687 -184.719086 
L 163.519359 -184.719086 
L 164.23503 -184.719086 
L 164.950701 -184.719086 
L 165.666373 -184.719086 
L 166.382044 -184.719086 
L 167.097715 -184.719086 
L 167.813387 -184.719086 
L 168.529058 -184.719086 
L 169.244729 -184.719086 
L 169.960401 -184.719086 
L 170.676072 -184.719086 
L 171.391743 -184.719086 
L 172.107415 -184.719086 
L 172.823086 -184.719086 
L 173.538758 -184.719086 
L 174.254429 -184.72118 
L 174.9701 -184.725814 
L 175.685772 -184.730448 
L 176.401443 -184.735081 
L 177.117114 -184.739715 
L 177.832786 -184.744349 
L 178.548457 -184.748983 
L 179.264128 -184.753617 
L 179.9798 -184.758251 
L 180.695471 -184.762884 
L 181.411142 -184.767518 
L 182.126814 -184.772152 
L 182.842485 -184.75519 
L 183.558156 -184.726895 
L 184.273828 -184.6986 
L 184.989499 -184.670305 
L 185.70517 -184.64201 
L 186.420842 -184.613715 
L 187.136513 -184.585421 
L 187.852184 -184.557126 
L 188.567856 -184.514674 
L 189.283527 -184.471131 
L 189.999198 -184.427589 
L 190.71487 -184.384046 
L 191.430541 -184.340504 
L 192.146212 -184.296961 
L 192.861884 -184.253419 
L 193.577555 -184.225949 
L 194.293226 -184.202132 
L 195.008898 -184.178316 
L 195.724569 -184.154499 
L 196.44024 -184.130683 
L 197.155912 -184.106866 
L 197.871583 -184.08305 
L 198.587255 -184.059233 
L 199.302926 -184.035417 
L 200.018597 -184.030932 
L 200.734269 -184.037586 
L 201.44994 -184.04424 
L 202.165611 -184.050894 
L 202.881283 -184.057549 
L 203.596954 -184.064203 
L 204.312625 -184.070857 
L 205.028297 -184.077511 
L 205.743968 -184.084165 
L 206.459639 -184.09082 
L 207.175311 -184.097474 
L 207.890982 -184.104128 
L 208.606653 -184.110782 
L 209.322325 -184.117436 
L 210.037996 -184.124091 
L 210.753667 -184.130745 
L 211.469339 -184.137399 
L 212.18501 -184.144053 
L 212.900681 -184.131068 
L 213.616353 -184.102803 
L 214.332024 -184.074537 
L 215.047695 -184.046272 
L 215.763367 -184.018006 
L 216.479038 -183.989741 
L 217.194709 -183.961475 
L 217.910381 -183.93321 
L 218.626052 -183.904944 
L 219.341723 -183.876904 
L 220.057395 -183.849441 
L 220.773066 -183.821979 
L 221.488737 -183.794516 
L 222.204409 -183.767054 
L 222.92008 -183.739591 
L 223.635752 -183.712129 
L 224.351423 -183.684666 
L 225.067094 -183.657204 
L 225.782766 -183.629741 
L 226.498437 -183.602279 
L 227.214108 -183.574816 
L 227.92978 -183.547354 
L 228.645451 -183.519891 
L 229.361122 -183.476093 
L 230.076794 -183.426711 
L 230.792465 -183.37733 
L 231.508136 -183.327948 
L 232.223808 -183.278566 
L 232.939479 -183.251767 
L 233.65515 -183.254653 
L 234.370822 -183.257538 
L 235.086493 -183.260423 
L 235.802164 -183.263308 
L 236.517836 -183.266193 
L 237.233507 -183.269078 
L 237.949178 -183.271964 
L 238.66485 -183.274849 
L 239.380521 -183.277734 
L 240.096192 -183.280619 
L 240.811864 -183.283504 
L 241.527535 -183.286389 
L 242.243206 -183.289275 
L 242.958878 -183.29216 
L 243.674549 -183.295851 
L 244.39022 -183.30166 
L 245.105892 -183.307469 
L 245.821563 -183.313278 
L 246.537234 -183.319087 
L 247.252906 -183.324897 
L 247.968577 -183.330706 
L 248.684248 -183.336515 
L 249.39992 -183.342324 
L 250.115591 -183.348133 
L 250.831263 -183.353942 
L 251.546934 -183.359751 
L 252.262605 -183.365561 
L 252.978277 -183.37137 
L 253.693948 -183.377179 
L 254.409619 -183.383526 
L 255.125291 -183.391776 
L 255.840962 -183.400026 
L 256.556633 -183.408277 
L 257.272305 -183.416527 
L 257.987976 -183.424777 
L 258.703647 -183.433027 
L 259.419319 -183.441277 
L 260.13499 -183.449528 
L 260.850661 -183.457778 
L 261.566333 -183.466028 
L 262.282004 -183.474278 
L 262.997675 -183.482528 
L 263.713347 -183.490779 
L 264.429018 -183.499029 
L 265.144689 -183.507096 
L 265.860361 -183.514443 
L 266.576032 -183.52179 
L 267.291703 -183.529137 
L 268.007375 -183.536484 
L 268.723046 -183.543831 
L 269.438717 -183.551178 
L 270.154389 -183.558525 
L 270.87006 -183.565872 
L 271.585731 -183.573219 
L 272.301403 -183.580566 
L 273.017074 -183.587913 
L 273.732745 -183.589105 
L 274.448417 -183.575853 
L 275.164088 -183.562602 
L 275.87976 -183.54935 
L 276.595431 -183.536098 
L 277.311102 -183.522847 
L 278.026774 -183.528926 
L 278.742445 -183.552566 
L 279.458116 -183.576206 
L 280.173788 -183.599847 
L 280.889459 -183.623487 
L 281.60513 -183.647127 
L 282.320802 -183.670767 
L 283.036473 -183.694408 
L 283.752144 -183.718048 
L 284.467816 -183.73798 
L 285.183487 -183.748142 
L 285.899158 -183.758304 
L 286.61483 -183.768465 
L 287.330501 -183.778627 
L 288.046172 -183.788789 
L 288.761844 -183.798951 
L 289.477515 -183.809113 
L 290.193186 -183.819275 
L 290.908858 -183.829437 
L 291.624529 -183.839599 
L 292.3402 -183.849761 
L 293.055872 -183.859923 
L 293.771543 -183.870085 
L 294.487214 -183.880246 
L 295.202886 -183.890408 
L 295.918557 -183.90057 
L 296.634228 -183.910732 
L 297.3499 -183.920894 
L 298.065571 -183.931056 
L 298.781242 -183.941218 
L 299.496914 -183.95138 
L 300.212585 -183.961542 
L 300.928257 -183.971704 
L 301.643928 -183.981865 
L 302.359599 -183.992027 
L 303.075271 -184.002189 
L 303.790942 -184.012351 
L 304.506613 -184.022513 
L 305.222285 -184.032675 
L 305.937956 -184.042837 
L 306.653627 -184.067809 
L 307.369299 -184.096624 
L 308.08497 -184.12544 
L 308.800641 -184.154255 
L 309.516313 -184.18307 
L 310.231984 -184.211885 
L 310.947655 -184.240701 
L 311.663327 -184.261186 
L 312.378998 -184.249593 
L 313.094669 -184.238001 
L 313.810341 -184.226408 
L 314.526012 -184.214815 
L 315.241683 -184.203223 
L 315.957355 -184.19163 
L 316.673026 -184.180038 
L 317.388697 -184.168445 
L 318.104369 -184.156853 
L 318.82004 -184.182143 
L 319.535711 -184.218095 
L 320.251383 -184.254047 
L 320.967054 -184.289999 
L 321.682725 -184.325951 
L 322.398397 -184.361904 
L 323.114068 -184.4307 
L 323.829739 -184.513965 
L 324.545411 -184.59723 
L 325.261082 -184.680494 
L 325.976754 -184.716893 
L 326.692425 -184.752049 
L 327.408096 -184.787205 
L 328.123768 -184.822361 
L 328.839439 -184.857518 
L 329.55511 -184.892674 
L 330.270782 -184.892908 
L 330.986453 -184.881806 
L 331.702124 -184.870704 
L 332.417796 -184.859601 
L 333.133467 -184.848499 
L 333.849138 -184.837396 
L 334.56481 -184.826294 
L 335.280481 -184.848502 
L 335.996152 -184.876033 
L 336.711824 -184.903565 
L 337.427495 -184.929202 
L 338.143166 -184.953969 
L 338.858838 -184.978737 
L 339.574509 -185.003505 
L 340.29018 -185.028272 
L 341.005852 -185.043217 
L 341.721523 -185.053604 
L 342.437194 -185.063991 
L 343.152866 -185.074379 
L 343.868537 -185.084766 
L 344.584208 -185.095154 
L 345.29988 -185.105541 
L 346.015551 -185.115929 
L 346.731222 -185.122684 
L 347.446894 -185.119288 
L 348.162565 -185.115892 
L 348.878236 -185.112496 
L 349.593908 -185.1091 
L 350.309579 -185.105704 
L 351.025251 -185.102308 
L 351.740922 -185.098912 
L 352.456593 -185.095516 
L 353.172265 -185.092121 
L 353.887936 -185.088725 
L 354.603607 -185.085329 
L 355.319279 -185.081933 
L 356.03495 -185.08305 
L 356.750621 -185.091328 
L 357.466293 -185.099606 
L 358.181964 -185.107884 
L 358.897635 -185.116162 
L 359.613307 -185.12444 
L 360.328978 -185.132718 
L 361.044649 -185.140996 
L 361.760321 -185.149274 
L 362.475992 -185.157552 
L 363.191663 -185.16583 
L 363.907335 -185.180016 
L 364.623006 -185.195485 
L 365.338677 -185.210955 
L 366.054349 -185.226424 
L 366.77002 -185.241894 
L 367.485691 -185.257363 
L 368.201363 -185.272832 
L 368.917034 -185.288302 
L 369.632705 -185.296904 
L 370.348377 -185.303918 
L 371.064048 -185.310933 
L 371.779719 -185.317947 
L 372.495391 -185.324961 
L 373.211062 -185.331976 
L 373.926733 -185.33899 
L 374.642405 -185.346005 
L 375.358076 -185.353019 
L 376.073747 -185.360033 
L 376.789419 -185.367048 
L 377.50509 -185.374062 
L 378.220762 -185.375825 
L 378.936433 -185.367566 
L 379.652104 -185.359308 
L 380.367776 -185.35105 
L 381.083447 -185.342791 
L 381.799118 -185.334533 
L 382.51479 -185.326275 
L 383.230461 -185.318016 
L 383.946132 -185.309758 
L 384.661804 -185.3015 
L 385.377475 -185.293241 
L 386.093146 -185.284983 
L 386.808818 -185.290946 
L 387.524489 -185.315774 
L 388.24016 -185.340603 
L 388.955832 -185.365431 
L 389.671503 -185.390259 
L 390.387174 -185.415087 
L 391.102846 -185.439915 
L 391.818517 -185.464744 
L 392.534188 -185.489572 
L 393.24986 -185.5144 
L 393.965531 -185.539228 
L 394.681202 -185.564057 
L 395.396874 -185.589536 
L 396.112545 -185.620815 
L 396.828216 -185.652094 
L 397.543888 -185.683373 
L 398.259559 -185.714652 
L 398.97523 -185.74593 
L 399.690902 -185.777209 
L 400.406573 -185.808488 
L 401.122244 -185.839767 
L 401.837916 -185.871046 
L 402.553587 -185.902324 
L 403.269259 -185.931881 
L 403.98493 -185.95971 
L 404.700601 -185.987539 
L 405.416273 -186.015368 
L 406.131944 -186.043196 
L 406.847615 -186.071025 
L 407.563287 -186.098854 
L 408.278958 -186.126683 
L 408.994629 -186.154512 
L 409.710301 -186.182341 
L 410.425972 -186.21017 
L 411.141643 -186.237999 
L 411.857315 -186.265827 
L 412.572986 -186.293656 
L 413.288657 -186.321485 
L 414.004329 -186.349314 
L 414.72 -186.377143 
L 414.72 -62.660571 
L 414.72 -62.660571 
L 414.004329 -62.660571 
L 413.288657 -62.660571 
L 412.572986 -62.660571 
L 411.857315 -62.660571 
L 411.141643 -62.660571 
L 410.425972 -62.660571 
L 409.710301 -62.660571 
L 408.994629 -62.660571 
L 408.278958 -62.660571 
L 407.563287 -62.660571 
L 406.847615 -62.660571 
L 406.131944 -62.660571 
L 405.416273 -62.660571 
L 404.700601 -62.660571 
L 403.98493 -62.660571 
L 403.269259 -62.660571 
L 402.553587 -62.660571 
L 401.837916 -62.660571 
L 401.122244 -62.660571 
L 400.406573 -62.660571 
L 399.690902 -62.660571 
L 398.97523 -62.660571 
L 398.259559 -62.660571 
L 397.543888 -62.660571 
L 396.828216 -62.660571 
L 396.112545 -62.660571 
L 395.396874 -62.660571 
L 394.681202 -62.660571 
L 393.965531 -62.660571 
L 393.24986 -62.660571 
L 392.534188 -62.660571 
L 391.818517 -62.660571 
L 391.102846 -62.660571 
L 390.387174 -62.660571 
L 389.671503 -62.660571 
L 388.955832 -62.660571 
L 388.24016 -62.660571 
L 387.524489 -62.660571 
L 386.808818 -62.660571 
L 386.093146 -62.660571 
L 385.377475 -62.660571 
L 384.661804 -62.660571 
L 383.946132 -62.660571 
L 383.230461 -62.660571 
L 382.51479 -62.660571 
L 381.799118 -62.660571 
L 381.083447 -62.660571 
L 380.367776 -62.660571 
L 379.652104 -62.660571 
L 378.936433 -62.660571 
L 378.220762 -62.660571 
L 377.50509 -62.660571 
L 376.789419 -62.660571 
L 376.073747 -62.660571 
L 375.358076 -62.660571 
L 374.642405 -62.660571 
L 373.926733 -62.660571 
L 373.211062 -62.660571 
L 372.495391 -62.660571 
L 371.779719 -62.660571 
L 371.064048 -62.660571 
L 370.348377 -62.660571 
L 369.632705 -62.660571 
L 368.917034 -62.660571 
L 368.201363 -62.660571 
L 367.485691 -62.660571 
L 366.77002 -62.660571 
L 366.054349 -62.660571 
L 365.338677 -62.660571 
L 364.623006 -62.660571 
L 363.907335 -62.660571 
L 363.191663 -62.660571 
L 362.475992 -62.660571 
L 361.760321 -62.660571 
L 361.044649 -62.660571 
L 360.328978 -62.660571 
L 359.613307 -62.660571 
L 358.897635 -62.660571 
L 358.181964 -62.660571 
L 357.466293 -62.660571 
L 356.750621 -62.660571 
L 356.03495 -62.660571 
L 355.319279 -62.660571 
L 354.603607 -62.660571 
L 353.887936 -62.660571 
L 353.172265 -62.660571 
L 352.456593 -62.660571 
L 351.740922 -62.660571 
L 351.025251 -62.660571 
L 350.309579 -62.660571 
L 349.593908 -62.660571 
L 348.878236 -62.660571 
L 348.162565 -62.660571 
L 347.446894 -62.660571 
L 346.731222 -62.660571 
L 346.015551 -62.660571 
L 345.29988 -62.660571 
L 344.584208 -62.660571 
L 343.868537 -62.660571 
L 343.152866 -62.660571 
L 342.437194 -62.660571 
L 341.721523 -62.660571 
L 341.005852 -62.660571 
L 340.29018 -62.660571 
L 339.574509 -62.660571 
L 338.858838 -62.660571 
L 338.143166 -62.660571 
L 337.427495 -62.660571 
L 336.711824 -62.660571 
L 335.996152 -62.660571 
L 335.280481 -62.660571 
L 334.56481 -62.660571 
L 333.849138 -62.660571 
L 333.133467 -62.660571 
L 332.417796 -62.660571 
L 331.702124 -62.660571 
L 330.986453 -62.660571 
L 330.270782 -62.660571 
L 329.55511 -62.660571 
L 328.839439 -62.660571 
L 328.123768 -62.660571 
L 327.408096 -62.660571 
L 326.692425 -62.660571 
L 325.976754 -62.660571 
L 325.261082 -62.660571 
L 324.545411 -62.660571 
L 323.829739 -62.660571 
L 323.114068 -62.660571 
L 322.398397 -62.660571 
L 321.682725 -62.660571 
L 320.967054 -62.660571 
L 320.251383 -62.660571 
L 319.535711 -62.660571 
L 318.82004 -62.660571 
L 318.104369 -62.660571 
L 317.388697 -62.660571 
L 316.673026 -62.660571 
L 315.957355 -62.660571 
L 315.241683 -62.660571 
L 314.526012 -62.660571 
L 313.810341 -62.660571 
L 313.094669 -62.660571 
L 312.378998 -62.660571 
L 311.663327 -62.660571 
L 310.947655 -62.660571 
L 310.231984 -62.660571 
L 309.516313 -62.660571 
L 308.800641 -62.660571 
L 308.08497 -62.660571 
L 307.369299 -62.660571 
L 306.653627 -62.660571 
L 305.937956 -62.660571 
L 305.222285 -62.660571 
L 304.506613 -62.660571 
L 303.790942 -62.660571 
L 303.075271 -62.660571 
L 302.359599 -62.660571 
L 301.643928 -62.660571 
L 300.928257 -62.660571 
L 300.212585 -62.660571 
L 299.496914 -62.660571 
L 298.781242 -62.660571 
L 298.065571 -62.660571 
L 297.3499 -62.660571 
L 296.634228 -62.660571 
L 295.918557 -62.660571 
L 295.202886 -62.660571 
L 294.487214 -62.660571 
L 293.771543 -62.660571 
L 293.055872 -62.660571 
L 292.3402 -62.660571 
L 291.624529 -62.660571 
L 290.908858 -62.660571 
L 290.193186 -62.660571 
L 289.477515 -62.660571 
L 288.761844 -62.660571 
L 288.046172 -62.660571 
L 287.330501 -62.660571 
L 286.61483 -62.660571 
L 285.899158 -62.660571 
L 285.183487 -62.660571 
L 284.467816 -62.660571 
L 283.752144 -62.660571 
L 283.036473 -62.660571 
L 282.320802 -62.660571 
L 281.60513 -62.660571 
L 280.889459 -62.660571 
L 280.173788 -62.660571 
L 279.458116 -62.660571 
L 278.742445 -62.660571 
L 278.026774 -62.660571 
L 277.311102 -62.660571 
L 276.595431 -62.660571 
L 275.87976 -62.660571 
L 275.164088 -62.660571 
L 274.448417 -62.660571 
L 273.732745 -62.660571 
L 273.017074 -62.660571 
L 272.301403 -62.660571 
L 271.585731 -62.660571 
L 270.87006 -62.660571 
L 270.154389 -62.660571 
L 269.438717 -62.660571 
L 268.723046 -62.660571 
L 268.007375 -62.660571 
L 267.291703 -62.660571 
L 266.576032 -62.660571 
L 265.860361 -62.660571 
L 265.144689 -62.660571 
L 264.429018 -62.660571 
L 263.713347 -62.660571 
L 262.997675 -62.660571 
L 262.282004 -62.660571 
L 261.566333 -62.660571 
L 260.850661 -62.660571 
L 260.13499 -62.660571 
L 259.419319 -62.660571 
L 258.703647 -62.660571 
L 257.987976 -62.660571 
L 257.272305 -62.660571 
L 256.556633 -62.660571 
L 255.840962 -62.660571 
L 255.125291 -62.660571 
L 254.409619 -62.660571 
L 253.693948 -62.660571 
L 252.978277 -62.660571 
L 252.262605 -62.660571 
L 251.546934 -62.660571 
L 250.831263 -62.660571 
L 250.115591 -62.660571 
L 249.39992 -62.660571 
L 248.684248 -62.660571 
L 247.968577 -62.660571 
L 247.252906 -62.660571 
L 246.537234 -62.660571 
L 245.821563 -62.660571 
L 245.105892 -62.660571 
L 244.39022 -62.660571 
L 243.674549 -62.660571 
L 242.958878 -62.660571 
L 242.243206 -62.660571 
L 241.527535 -62.660571 
L 240.811864 -62.660571 
L 240.096192 -62.660571 
L 239.380521 -62.660571 
L 238.66485 -62.660571 
L 237.949178 -62.660571 
L 237.233507 -62.660571 
L 236.517836 -62.660571 
L 235.802164 -62.660571 
L 235.086493 -62.660571 
L 234.370822 -62.660571 
L 233.65515 -62.660571 
L 232.939479 -62.660571 
L 232.223808 -62.660571 
L 231.508136 -62.660571 
L 230.792465 -62.660571 
L 230.076794 -62.660571 
L 229.361122 -62.660571 
L 228.645451 -62.660571 
L 227.92978 -62.660571 
L 227.214108 -62.660571 
L 226.498437 -62.660571 
L 225.782766 -62.660571 
L 225.067094 -62.660571 
L 224.351423 -62.660571 
L 223.635752 -62.660571 
L 222.92008 -62.660571 
L 222.204409 -62.660571 
L 221.488737 -62.660571 
L 220.773066 -62.660571 
L 220.057395 -62.660571 
L 219.341723 -62.660571 
L 218.626052 -62.660571 
L 217.910381 -62.660571 
L 217.194709 -62.660571 
L 216.479038 -62.660571 
L 215.763367 -62.660571 
L 215.047695 -62.660571 
L 214.332024 -62.660571 
L 213.616353 -62.660571 
L 212.900681 -62.660571 
L 212.18501 -62.660571 
L 211.469339 -62.660571 
L 210.753667 -62.660571 
L 210.037996 -62.660571 
L 209.322325 -62.660571 
L 208.606653 -62.660571 
L 207.890982 -62.660571 
L 207.175311 -62.660571 
L 206.459639 -62.660571 
L 205.743968 -62.660571 
L 205.028297 -62.660571 
L 204.312625 -62.660571 
L 203.596954 -62.660571 
L 202.881283 -62.660571 
L 202.165611 -62.660571 
L 201.44994 -62.660571 
L 200.734269 -62.660571 
L 200.018597 -62.660571 
L 199.302926 -62.660571 
L 198.587255 -62.660571 
L 197.871583 -62.660571 
L 197.155912 -62.660571 
L 196.44024 -62.660571 
L 195.724569 -62.660571 
L 195.008898 -62.660571 
L 194.293226 -62.660571 
L 193.577555 -62.660571 
L 192.861884 -62.660571 
L 192.146212 -62.660571 
L 191.430541 -62.660571 
L 190.71487 -62.660571 
L 189.999198 -62.660571 
L 189.283527 -62.660571 
L 188.567856 -62.660571 
L 187.852184 -62.660571 
L 187.136513 -62.660571 
L 186.420842 -62.660571 
L 185.70517 -62.660571 
L 184.989499 -62.660571 
L 184.273828 -62.660571 
L 183.558156 -62.660571 
L 182.842485 -62.660571 
L 182.126814 -62.660571 
L 181.411142 -62.660571 
L 180.695471 -62.660571 
L 179.9798 -62.660571 
L 179.264128 -62.660571 
L 178.548457 -62.660571 
L 177.832786 -62.660571 
L 177.117114 -62.660571 
L 176.401443 -62.660571 
L 175.685772 -62.660571 
L 174.9701 -62.660571 
L 174.254429 -62.660571 
L 173.538758 -62.660571 
L 172.823086 -62.660571 
L 172.107415 -62.660571 
L 171.391743 -62.660571 
L 170.676072 -62.660571 
L 169.960401 -62.660571 
L 169.244729 -62.660571 
L 168.529058 -62.660571 
L 167.813387 -62.660571 
L 167.097715 -62.660571 
L 166.382044 -62.660571 
L 165.666373 -62.660571 
L 164.950701 -62.660571 
L 164.23503 -62.660571 
L 163.519359 -62.660571 
L 162.803687 -62.660571 
L 162.088016 -62.660571 
L 161.372345 -62.660571 
L 160.656673 -62.660571 
L 159.941002 -62.660571 
L 159.225331 -62.660571 
L 158.509659 -62.660571 
L 157.793988 -62.660571 
L 157.078317 -62.660571 
L 156.362645 -62.660571 
L 155.646974 -62.660571 
L 154.931303 -62.660571 
L 154.215631 -62.660571 
L 153.49996 -62.660571 
L 152.784289 -62.660571 
L 152.068617 -62.660571 
L 151.352946 -62.660571 
L 150.637275 -62.660571 
L 149.921603 -62.660571 
L 149.205932 -62.660571 
L 148.490261 -62.660571 
L 147.774589 -62.660571 
L 147.058918 -62.660571 
L 146.343246 -62.660571 
L 145.627575 -62.660571 
L 144.911904 -62.660571 
L 144.196232 -62.660571 
L 143.480561 -62.660571 
L 142.76489 -62.660571 
L 142.049218 -62.660571 
L 141.333547 -62.660571 
L 140.617876 -62.660571 
L 139.902204 -62.660571 
L 139.186533 -62.660571 
L 138.470862 -62.660571 
L 137.75519 -62.660571 
L 137.039519 -62.660571 
L 136.323848 -62.660571 
L 135.608176 -62.660571 
L 134.892505 -62.660571 
L 134.176834 -62.660571 
L 133.461162 -62.660571 
L 132.745491 -62.660571 
L 132.02982 -62.660571 
L 131.314148 -62.660571 
L 130.598477 -62.660571 
L 129.882806 -62.660571 
L 129.167134 -62.660571 
L 128.451463 -62.660571 
L 127.735792 -62.660571 
L 127.02012 -62.660571 
L 126.304449 -62.660571 
L 125.588778 -62.660571 
L 124.873106 -62.660571 
L 124.157435 -62.660571 
L 123.441764 -62.660571 
L 122.726092 -62.660571 
L 122.010421 -62.660571 
L 121.294749 -62.660571 
L 120.579078 -62.660571 
L 119.863407 -62.660571 
L 119.147735 -62.660571 
L 118.432064 -62.660571 
L 117.716393 -62.660571 
L 117.000721 -62.660571 
L 116.28505 -62.660571 
L 115.569379 -62.660571 
L 114.853707 -62.660571 
L 114.138036 -62.660571 
L 113.422365 -62.660571 
L 112.706693 -62.660571 
L 111.991022 -62.660571 
L 111.275351 -62.660571 
L 110.559679 -62.660571 
L 109.844008 -62.660571 
L 109.128337 -62.660571 
L 108.412665 -62.660571 
L 107.696994 -62.660571 
L 106.981323 -62.660571 
L 106.265651 -62.660571 
L 105.54998 -62.660571 
L 104.834309 -62.660571 
L 104.118637 -62.660571 
L 103.402966 -62.660571 
L 102.687295 -62.660571 
L 101.971623 -62.660571 
L 101.255952 -62.660571 
L 100.540281 -62.660571 
L 99.824609 -62.660571 
L 99.108938 -62.660571 
L 98.393267 -62.660571 
L 97.677595 -62.660571 
L 96.961924 -62.660571 
L 96.246253 -62.660571 
L 95.530581 -62.660571 
L 94.81491 -62.660571 
L 94.099238 -62.660571 
L 93.383567 -62.660571 
L 92.667896 -62.660571 
L 91.952224 -62.660571 
L 91.236553 -62.660571 
L 90.520882 -62.660571 
L 89.80521 -62.660571 
L 89.089539 -62.660571 
L 88.373868 -62.660571 
L 87.658196 -62.660571 
L 86.942525 -62.660571 
L 86.226854 -62.660571 
L 85.511182 -62.660571 
L 84.795511 -62.660571 
L 84.07984 -62.660571 
L 83.364168 -62.660571 
L 82.648497 -62.660571 
L 81.932826 -62.660571 
L 81.217154 -62.660571 
L 80.501483 -62.660571 
L 79.785812 -62.660571 
L 79.07014 -62.660571 
L 78.354469 -62.660571 
L 77.638798 -62.660571 
L 76.923126 -62.660571 
L 76.207455 -62.660571 
L 75.491784 -62.660571 
L 74.776112 -62.660571 
L 74.060441 -62.660571 
L 73.34477 -62.660571 
L 72.629098 -62.660571 
L 71.913427 -62.660571 
L 71.197756 -62.660571 
L 70.482084 -62.660571 
L 69.766413 -62.660571 
L 69.050741 -62.660571 
L 68.33507 -62.660571 
L 67.619399 -62.660571 
L 66.903727 -62.660571 
L 66.188056 -62.660571 
L 65.472385 -62.660571 
L 64.756713 -62.660571 
L 64.041042 -62.660571 
L 63.325371 -62.660571 
L 62.609699 -62.660571 
L 61.894028 -62.660571 
L 61.178357 -62.660571 
L 60.462685 -62.660571 
L 59.747014 -62.660571 
L 59.031343 -62.660571 
L 58.315671 -62.660571 
L 57.6 -62.660571 
z
" style="stroke: #d4edfc; stroke-opacity: 0.9"/>
    </defs>
    <g clip-path="url(#p51cbe83869)">
     <use xlink:href="#mc3ef5c1408" x="0" y="345.6" style="fill: #d4edfc; fill-opacity: 0.9; stroke: #d4edfc; stroke-opacity: 0.9"/>
    </g>
   </g>
   <g id="matplotlib.axis_1">
    <g id="xtick_1">
     <g id="line2d_1">
      <path d="M 142.627887 219.168 
L 142.627887 129.888 
" clip-path="url(#p51cbe83869)" style="fill: none"/>
     </g>
     <g id="line2d_2"/>
     <g id="text_1">
      <text style="fill: #004a80; font: 13px 'DejaVu Sans', 'Bitstream Vera Sans', 'Computer Modern Sans Serif', 'Lucida Grande', 'Verdana', 'Geneva', 'Lucid', 'Arial', 'Helvetica', 'Avant Garde', sans-serif; text-anchor: middle" x="142.627887" y="232.545969" transform="rotate(-0 142.627887 232.545969)">0.5</text>
     </g>
    </g>
    <g id="xtick_2">
     <g id="line2d_3">
      <path d="M 227.655775 219.168 
L 227.655775 129.888 
" clip-path="url(#p51cbe83869)" style="fill: none"/>
     </g>
     <g id="line2d_4"/>
     <g id="text_2">
      <text style="fill: #004a80; font: 13px 'DejaVu Sans', 'Bitstream Vera Sans', 'Computer Modern Sans Serif', 'Lucida Grande', 'Verdana', 'Geneva', 'Lucid', 'Arial', 'Helvetica', 'Avant Garde', sans-serif; text-anchor: middle" x="227.655775" y="232.545969" transform="rotate(-0 227.655775 232.545969)">1.0</text>
     </g>
    </g>
    <g id="xtick_3">
     <g id="line2d_5">
      <path d="M 312.683662 219.168 
L 312.683662 129.888 
" clip-path="url(#p51cbe83869)" style="fill: none"/>
     </g>
     <g id="line2d_6"/>
     <g id="text_3">
      <text style="fill: #004a80; font: 13px 'DejaVu Sans', 'Bitstream Vera Sans', 'Computer Modern Sans Serif', 'Lucida Grande', 'Verdana', 'Geneva', 'Lucid', 'Arial', 'Helvetica', 'Avant Garde', sans-serif; text-anchor: middle" x="312.683662" y="232.545969" transform="rotate(-0 312.683662 232.545969)">1.5</text>
     </g>
    </g>
    <g id="xtick_4">
     <g id="line2d_7">
      <path d="M 414.72 219.168 
L 414.72 129.888 
" clip-path="url(#p51cbe83869)" style="fill: none"/>
     </g>
     <g id="line2d_8"/>
     <g id="text_4">
      <text style="fill: #004a80; font: 13px 'DejaVu Sans', 'Bitstream Vera Sans', 'Computer Modern Sans Serif', 'Lucida Grande', 'Verdana', 'Geneva', 'Lucid', 'Arial', 'Helvetica', 'Avant Garde', sans-serif; text-anchor: middle" x="414.72" y="232.545969" transform="rotate(-0 414.72 232.545969)">2.1</text>
     </g>
    </g>
    <g id="text_5">
     <text style="font: 10px 'DejaVu Sans', 'Bitstream Vera Sans', 'Computer Modern Sans Serif', 'Lucida Grande', 'Verdana', 'Geneva', 'Lucid', 'Arial', 'Helvetica', 'Avant Garde', sans-serif; text-anchor: middle" x="236.16" y="246.848" transform="rotate(-0 236.16 246.848)">Distance (km)</text>
    </g>
   </g>
   <g id="matplotlib.axis_2">
    <g id="ytick_1">
     <g id="line2d_9">
      <path d="M 57.6 219.168 
L 414.72 219.168 
" clip-path="url(#p51cbe83869)" style="fill: none; stroke: #9d9d9c; stroke-width: 0.8; stroke-linecap: square"/>
     </g>
     <g id="line2d_10"/>
     <g id="text_6">
      <text style="font: 12px 'DejaVu Sans', 'Bitstream Vera Sans', 'Computer Modern Sans Serif', 'Lucida Grande', 'Verdana', 'Geneva', 'Lucid', 'Arial', 'Helvetica', 'Avant Garde', sans-serif; text-anchor: end" x="54.1" y="223.727062" transform="rotate(-0 54.1 223.727062)">500</text>
     </g>
    </g>
    <g id="ytick_2">
     <g id="line2d_11">
      <path d="M 57.6 187.282286 
L 414.72 187.282286 
" clip-path="url(#p51cbe83869)" style="fill: none; stroke: #9d9d9c; stroke-width: 0.8; stroke-linecap: square"/>
     </g>
     <g id="line2d_12"/>
     <g id="text_7">
      <text style="font: 12px 'DejaVu Sans', 'Bitstream Vera Sans', 'Computer Modern Sans Serif', 'Lucida Grande', 'Verdana', 'Geneva', 'Lucid', 'Arial', 'Helvetica', 'Avant Garde', sans-serif; text-anchor: end" x="54.1" y="191.841348" transform="rotate(-0 54.1 191.841348)">750</text>
     </g>
    </g>
    <g id="ytick_3">
     <g id="line2d_13">
      <path d="M 57.6 155.396571 
L 414.72 155.396571 
" clip-path="url(#p51cbe83869)" style="fill: none; stroke: #9d9d9c; stroke-width: 0.8; stroke-linecap: square"/>
     </g>
     <g id="line2d_14"/>
     <g id="text_8">
      <text style="font: 12px 'DejaVu Sans', 'Bitstream Vera Sans', 'Computer Modern Sans Serif', 'Lucida Grande', 'Verdana', 'Geneva', 'Lucid', 'Arial', 'Helvetica', 'Avant Garde', sans-serif; text-anchor: end" x="54.1" y="159.955634" transform="rotate(-0 54.1 159.955634)">1000</text>
     </g>
    </g>
   </g>
   <g id="LineCollection_1">
    <path d="M 142.627887 282.939429 
L 142.627887 160.880914 
" clip-path="url(#p51cbe83869)" style="fill: none; stroke-dasharray: 7.4,3.2; stroke-dashoffset: 0; stroke: #004a80; stroke-width: 2"/>
    <path d="M 227.655775 282.939429 
L 227.655775 162.283886 
" clip-path="url(#p51cbe83869)" style="fill: none; stroke-dasharray: 7.4,3.2; stroke-dashoffset: 0; stroke: #004a80; stroke-width: 2"/>
    <path d="M 312.683662 282.939429 
L 312.683662 161.391086 
" clip-path="url(#p51cbe83869)" style="fill: none; stroke-dasharray: 7.4,3.2; stroke-dashoffset: 0; stroke: #004a80; stroke-width: 2"/>
   </g>
   <g id="patch_3">
    <path d="M 57.6 219.168 
L 57.6 129.888 
" style="fill: none; stroke: #000000; stroke-width: 0.8; stroke-linejoin: miter; stroke-linecap: square"/>
   </g>
   <g id="patch_4">
    <path d="M 414.72 219.168 
L 414.72 129.888 
" style="fill: none; stroke: #000000; stroke-width: 0.8; stroke-linejoin: miter; stroke-linecap: square"/>
   </g>
   <g id="patch_5">
    <path d="M 57.6 219.168 
L 414.72 219.168 
" style="fill: none; stroke: #000000; stroke-width: 0.8; stroke-linejoin: miter; stroke-linecap: square"/>
   </g>
   <g id="patch_6">
    <path d="M 57.6 129.888 
L 414.72 129.888 
" style="fill: none; stroke: #000000; stroke-width: 0.8; stroke-linejoin: miter; stroke-linecap: square"/>
   </g>
   <g id="patch_7">
    <path d="M 142.627887 219.168 
L 312.683662 219.168 
L 312.683662 217.254857 
L 142.627887 217.254857 
z
" clip-path="url(#p51cbe83869)" style="fill: #efefef"/>
   </g>
   <g id="patch_8">
    <path d="M 227.655775 219.168 
L 482.739437 219.168 
L 482.739437 217.254857 
L 227.655775 217.254857 
z
" clip-path="url(#p51cbe83869)" style="fill: #004a80"/>
   </g>
   <g id="patch_9">
    <path d="M 57.6 219.168 
L 142.627887 219.168 
L 142.627887 217.254857 
L 57.6 217.254857 
z
" clip-path="url(#p51cbe83869)" style="fill: #004a80"/>
   </g>
   <g id="patch_10">
    <path d="M 312.683662 219.168 
L 669.803662 219.168 
L 669.803662 217.254857 
L 312.683662 217.254857 
z
" clip-path="url(#p51cbe83869)" style="fill: #efefef"/>
   </g>
   <g id="text_9">
    <text style="font: 12px 'DejaVu Sans', 'Bitstream Vera Sans', 'Computer Modern Sans Serif', 'Lucida Grande', 'Verdana', 'Geneva', 'Lucid', 'Arial', 'Helvetica', 'Avant Garde', sans-serif; text-anchor: middle" x="236.16" y="123.888" transform="rotate(-0 236.16 123.888)">hundeloipe-pertisau</text>
   </g>
   <g id="line2d_15">
    <path d="M 57.6 159.405061 
L 76.207455 159.289075 
L 83.364168 159.43107 
L 111.991022 160.00221 
L 139.186533 160.423743 
L 145.627575 160.772517 
L 154.931303 160.909551 
L 170.676072 160.880914 
L 186.420842 160.986285 
L 202.881283 161.542451 
L 214.332024 161.525463 
L 237.233507 162.330922 
L 262.997675 162.117472 
L 276.595431 162.063902 
L 279.458116 162.023794 
L 289.477515 161.790887 
L 310.231984 161.388115 
L 313.094669 161.361999 
L 319.535711 161.381905 
L 323.829739 161.086035 
L 326.692425 160.847951 
L 330.986453 160.718194 
L 336.711824 160.696435 
L 345.29988 160.494459 
L 351.740922 160.501088 
L 362.475992 160.442448 
L 383.946132 160.290242 
L 388.24016 160.259397 
L 412.572986 159.306344 
L 414.72 159.222857 
L 414.72 159.222857 
" clip-path="url(#p51cbe83869)" style="fill: none; stroke: #0000ff; stroke-width: 3; stroke-linecap: square"/>
   </g>
  </g>
 </g>
 <defs>
  <clipPath id="p51cbe83869">
   <rect x="57.6" y="129.888" width="357.12" height="89.28"/>
  </clipPath>
 </defs>
</svg>
