<?xml version="1.0" encoding="utf-8" standalone="no"?>
<!DOCTYPE svg PUBLIC "-//W3C//DTD SVG 1.1//EN"
  "http://www.w3.org/Graphics/SVG/1.1/DTD/svg11.dtd">
<svg xmlns:xlink="http://www.w3.org/1999/xlink" width="472.384062pt" height="203.254375pt" viewBox="0 0 472.384062 203.254375" xmlns="http://www.w3.org/2000/svg" version="1.1">
 <metadata>
  <rdf:RDF xmlns:dc="http://purl.org/dc/elements/1.1/" xmlns:cc="http://creativecommons.org/ns#" xmlns:rdf="http://www.w3.org/1999/02/22-rdf-syntax-ns#">
   <cc:Work>
    <dc:type rdf:resource="http://purl.org/dc/dcmitype/StillImage"/>
    <dc:date>2024-08-26T12:05:43.436151</dc:date>
    <dc:format>image/svg+xml</dc:format>
    <dc:creator>
     <cc:Agent>
      <dc:title>Matplotlib v3.8.4, https://matplotlib.org/</dc:title>
     </cc:Agent>
    </dc:creator>
   </cc:Work>
  </rdf:RDF>
 </metadata>
 <defs>
  <style type="text/css">*{stroke-linejoin: round; stroke-linecap: butt}</style>
 </defs>
 <g id="figure_1">
  <g id="patch_1">
   <path d="M 0 203.254375 
L 472.384062 203.254375 
L 472.384062 0 
L 0 0 
z
" style="fill: #ffffff"/>
  </g>
  <g id="axes_1">
   <g id="PolyCollection_1">
    <defs>
     <path id="m777b6dc93e" d="M 64.95 0.915179 
L 64.95 -69.094918 
L 65.396959 -69.098585 
L 65.843917 -69.102251 
L 66.290876 -69.105918 
L 66.737835 -69.109585 
L 67.184793 -69.113252 
L 67.631752 -69.116919 
L 68.078711 -69.120585 
L 68.52567 -69.124008 
L 68.972628 -69.122756 
L 69.419587 -69.121504 
L 69.866546 -69.120251 
L 70.313504 -69.118999 
L 70.760463 -69.117747 
L 71.207422 -69.11435 
L 71.65438 -69.10377 
L 72.101339 -69.093189 
L 72.548298 -69.082608 
L 72.995257 -69.072275 
L 73.442215 -69.064255 
L 73.889174 -69.056235 
L 74.336133 -69.048216 
L 74.783091 -69.040196 
L 75.23005 -69.032176 
L 75.677009 -69.024156 
L 76.123967 -69.016136 
L 76.570926 -69.007622 
L 77.017885 -68.998274 
L 77.464844 -68.988927 
L 77.911802 -68.979579 
L 78.358761 -68.970231 
L 78.80572 -68.970714 
L 79.252678 -68.975522 
L 79.699637 -68.980331 
L 80.146596 -68.985139 
L 80.593554 -68.987231 
L 81.040513 -68.973587 
L 81.487472 -68.959942 
L 81.934431 -68.946298 
L 82.381389 -68.93181 
L 82.828348 -68.917272 
L 83.275307 -68.902733 
L 83.722265 -68.888194 
L 84.169224 -68.880058 
L 84.616183 -68.874918 
L 85.063141 -68.869777 
L 85.5101 -68.864637 
L 85.957059 -68.859496 
L 86.404018 -68.854356 
L 86.850976 -68.849215 
L 87.297935 -68.844075 
L 87.744894 -68.84159 
L 88.191852 -68.851657 
L 88.638811 -68.861724 
L 89.08577 -68.871791 
L 89.532728 -68.881859 
L 89.979687 -68.891926 
L 90.426646 -68.868141 
L 90.873605 -68.832767 
L 91.320563 -68.797394 
L 91.767522 -68.76202 
L 92.214481 -68.726647 
L 92.661439 -68.697161 
L 93.108398 -68.669146 
L 93.555357 -68.641131 
L 94.002315 -68.613116 
L 94.449274 -68.585101 
L 94.896233 -68.557087 
L 95.343191 -68.529072 
L 95.79015 -68.501057 
L 96.237109 -68.473042 
L 96.684068 -68.445558 
L 97.131026 -68.418098 
L 97.577985 -68.390639 
L 98.024944 -68.36318 
L 98.471902 -68.335721 
L 98.918861 -68.308262 
L 99.36582 -68.302826 
L 99.812778 -68.31302 
L 100.259737 -68.323214 
L 100.706696 -68.333408 
L 101.153655 -68.343603 
L 101.600613 -68.353797 
L 102.047572 -68.360994 
L 102.494531 -68.351267 
L 102.941489 -68.34154 
L 103.388448 -68.331813 
L 103.835407 -68.322085 
L 104.282365 -68.312358 
L 104.729324 -68.302631 
L 105.176283 -68.292903 
L 105.623242 -68.283176 
L 106.0702 -68.271621 
L 106.517159 -68.250429 
L 106.964118 -68.229237 
L 107.411076 -68.208044 
L 107.858035 -68.186852 
L 108.304994 -68.165659 
L 108.751952 -68.147786 
L 109.198911 -68.137196 
L 109.64587 -68.126607 
L 110.092829 -68.116017 
L 110.539787 -68.105428 
L 110.986746 -68.094838 
L 111.433705 -68.084249 
L 111.880663 -68.073659 
L 112.327622 -68.063668 
L 112.774581 -68.064139 
L 113.221539 -68.06461 
L 113.668498 -68.06508 
L 114.115457 -68.065551 
L 114.562416 -68.066022 
L 115.009374 -68.066492 
L 115.456333 -68.066963 
L 115.903292 -68.067434 
L 116.35025 -68.067904 
L 116.797209 -68.068375 
L 117.244168 -68.068846 
L 117.691126 -68.069317 
L 118.138085 -68.069787 
L 118.585044 -68.070258 
L 119.032003 -68.070729 
L 119.478961 -68.071199 
L 119.92592 -68.07167 
L 120.372879 -68.072141 
L 120.819837 -68.072612 
L 121.266796 -68.073082 
L 121.713755 -68.073553 
L 122.160713 -68.074024 
L 122.607672 -68.074494 
L 123.054631 -68.077738 
L 123.501589 -68.081553 
L 123.948548 -68.085368 
L 124.395507 -68.089184 
L 124.842466 -68.092999 
L 125.289424 -68.096814 
L 125.736383 -68.10063 
L 126.183342 -68.104445 
L 126.6303 -68.10826 
L 127.077259 -68.112076 
L 127.524218 -68.115891 
L 127.971176 -68.120781 
L 128.418135 -68.127519 
L 128.865094 -68.134258 
L 129.312053 -68.140996 
L 129.759011 -68.147734 
L 130.20597 -68.154473 
L 130.652929 -68.161211 
L 131.099887 -68.167949 
L 131.546846 -68.174688 
L 131.993805 -68.180845 
L 132.440763 -68.184246 
L 132.887722 -68.187647 
L 133.334681 -68.191047 
L 133.78164 -68.194448 
L 134.228598 -68.197849 
L 134.675557 -68.20125 
L 135.122516 -68.20465 
L 135.569474 -68.208051 
L 136.016433 -68.211452 
L 136.463392 -68.214853 
L 136.91035 -68.218253 
L 137.357309 -68.221654 
L 137.804268 -68.223148 
L 138.251227 -68.220504 
L 138.698185 -68.217859 
L 139.145144 -68.215215 
L 139.592103 -68.21257 
L 140.039061 -68.209926 
L 140.48602 -68.207281 
L 140.932979 -68.204637 
L 141.379937 -68.202421 
L 141.826896 -68.208805 
L 142.273855 -68.215188 
L 142.720814 -68.221572 
L 143.167772 -68.227956 
L 143.614731 -68.23434 
L 144.06169 -68.240723 
L 144.508648 -68.246703 
L 144.955607 -68.251042 
L 145.402566 -68.25538 
L 145.849524 -68.259719 
L 146.296483 -68.264057 
L 146.743442 -68.268395 
L 147.190401 -68.272734 
L 147.637359 -68.277072 
L 148.084318 -68.281411 
L 148.531277 -68.285749 
L 148.978235 -68.290087 
L 149.425194 -68.294426 
L 149.872153 -68.298764 
L 150.319111 -68.303103 
L 150.76607 -68.307441 
L 151.213029 -68.311078 
L 151.659987 -68.314652 
L 152.106946 -68.318227 
L 152.553905 -68.321801 
L 153.000864 -68.325376 
L 153.447822 -68.32895 
L 153.894781 -68.332524 
L 154.34174 -68.336099 
L 154.788698 -68.339673 
L 155.235657 -68.343248 
L 155.682616 -68.346822 
L 156.129574 -68.350396 
L 156.576533 -68.346721 
L 157.023492 -68.3397 
L 157.470451 -68.332679 
L 157.917409 -68.325658 
L 158.364368 -68.318637 
L 158.811327 -68.311616 
L 159.258285 -68.304595 
L 159.705244 -68.297574 
L 160.152203 -68.307377 
L 160.599161 -68.319072 
L 161.04612 -68.330768 
L 161.493079 -68.342463 
L 161.940038 -68.354159 
L 162.386996 -68.365854 
L 162.833955 -68.37755 
L 163.280914 -68.389245 
L 163.727872 -68.400941 
L 164.174831 -68.412636 
L 164.62179 -68.424332 
L 165.068748 -68.436027 
L 165.515707 -68.447722 
L 165.962666 -68.459418 
L 166.409625 -68.471113 
L 166.856583 -68.498948 
L 167.303542 -68.527757 
L 167.750501 -68.556567 
L 168.197459 -68.585376 
L 168.644418 -68.614186 
L 169.091377 -68.642995 
L 169.538335 -68.671805 
L 169.985294 -68.700614 
L 170.432253 -68.72282 
L 170.879212 -68.732308 
L 171.32617 -68.741796 
L 171.773129 -68.751283 
L 172.220088 -68.760771 
L 172.667046 -68.770259 
L 173.114005 -68.779747 
L 173.560964 -68.789234 
L 174.007922 -68.798722 
L 174.454881 -68.80821 
L 174.90184 -68.817698 
L 175.348798 -68.827185 
L 175.795757 -68.836673 
L 176.242716 -68.846161 
L 176.689675 -68.855649 
L 177.136633 -68.865136 
L 177.583592 -68.874624 
L 178.030551 -68.884112 
L 178.477509 -68.8936 
L 178.924468 -68.887943 
L 179.371427 -68.880712 
L 179.818385 -68.87348 
L 180.265344 -68.866249 
L 180.712303 -68.859018 
L 181.159262 -68.851786 
L 181.60622 -68.844555 
L 182.053179 -68.837324 
L 182.500138 -68.830092 
L 182.947096 -68.833855 
L 183.394055 -68.83979 
L 183.841014 -68.845724 
L 184.287972 -68.851658 
L 184.734931 -68.857593 
L 185.18189 -68.863527 
L 185.628849 -68.869461 
L 186.075807 -68.875395 
L 186.522766 -68.88133 
L 186.969725 -68.887264 
L 187.416683 -68.893198 
L 187.863642 -68.899133 
L 188.310601 -68.905067 
L 188.757559 -68.911001 
L 189.204518 -68.918064 
L 189.651477 -68.935592 
L 190.098436 -68.95312 
L 190.545394 -68.970647 
L 190.992353 -68.988175 
L 191.439312 -69.005703 
L 191.88627 -69.02323 
L 192.333229 -69.04046 
L 192.780188 -69.047558 
L 193.227146 -69.054656 
L 193.674105 -69.061754 
L 194.121064 -69.068852 
L 194.568023 -69.075951 
L 195.014981 -69.083049 
L 195.46194 -69.090147 
L 195.908899 -69.097245 
L 196.355857 -69.104343 
L 196.802816 -69.111442 
L 197.249775 -69.11854 
L 197.696733 -69.125638 
L 198.143692 -69.122483 
L 198.590651 -69.115088 
L 199.03761 -69.107693 
L 199.484568 -69.100298 
L 199.931527 -69.092903 
L 200.378486 -69.085508 
L 200.825444 -69.078113 
L 201.272403 -69.070718 
L 201.719362 -69.063323 
L 202.16632 -69.068527 
L 202.613279 -69.076176 
L 203.060238 -69.083826 
L 203.507196 -69.091475 
L 203.954155 -69.099125 
L 204.401114 -69.106775 
L 204.848073 -69.114424 
L 205.295031 -69.122074 
L 205.74199 -69.129723 
L 206.188949 -69.137373 
L 206.635907 -69.145022 
L 207.082866 -69.152672 
L 207.529825 -69.160321 
L 207.976783 -69.167971 
L 208.423742 -69.17562 
L 208.870701 -69.18327 
L 209.31766 -69.190919 
L 209.764618 -69.198569 
L 210.211577 -69.206219 
L 210.658536 -69.213868 
L 211.105494 -69.221518 
L 211.552453 -69.229167 
L 211.999412 -69.236817 
L 212.44637 -69.2553 
L 212.893329 -69.274104 
L 213.340288 -69.292909 
L 213.787247 -69.311713 
L 214.234205 -69.330517 
L 214.681164 -69.349322 
L 215.128123 -69.368126 
L 215.575081 -69.386931 
L 216.02204 -69.405735 
L 216.468999 -69.424539 
L 216.915957 -69.443344 
L 217.362916 -69.462148 
L 217.809875 -69.480953 
L 218.256834 -69.500364 
L 218.703792 -69.519932 
L 219.150751 -69.539501 
L 219.59771 -69.55907 
L 220.044668 -69.578639 
L 220.491627 -69.598207 
L 220.938586 -69.617776 
L 221.385544 -69.637345 
L 221.832503 -69.656914 
L 222.279462 -69.654289 
L 222.726421 -69.647902 
L 223.173379 -69.641514 
L 223.620338 -69.635127 
L 224.067297 -69.62874 
L 224.514255 -69.622352 
L 224.961214 -69.615965 
L 225.408173 -69.609578 
L 225.855131 -69.60319 
L 226.30209 -69.596803 
L 226.749049 -69.590416 
L 227.196008 -69.584028 
L 227.642966 -69.577641 
L 228.089925 -69.571254 
L 228.536884 -69.564866 
L 228.983842 -69.558479 
L 229.430801 -69.552092 
L 229.87776 -69.545704 
L 230.324718 -69.539317 
L 230.771677 -69.53293 
L 231.218636 -69.537365 
L 231.665594 -69.565183 
L 232.112553 -69.593001 
L 232.559512 -69.620819 
L 233.006471 -69.648637 
L 233.453429 -69.676455 
L 233.900388 -69.704273 
L 234.347347 -69.732091 
L 234.794305 -69.759909 
L 235.241264 -69.787727 
L 235.688223 -69.815545 
L 236.135181 -69.843363 
L 236.58214 -69.871181 
L 237.029099 -69.932141 
L 237.476058 -70.004705 
L 237.923016 -70.077268 
L 238.369975 -70.149832 
L 238.816934 -70.222396 
L 239.263892 -70.294959 
L 239.710851 -70.367523 
L 240.15781 -70.41873 
L 240.604768 -70.467848 
L 241.051727 -70.516966 
L 241.498686 -70.566084 
L 241.945645 -70.615202 
L 242.392603 -70.66432 
L 242.839562 -70.713438 
L 243.286521 -70.700502 
L 243.733479 -70.670929 
L 244.180438 -70.641356 
L 244.627397 -70.611784 
L 245.074355 -70.582211 
L 245.521314 -70.552638 
L 245.968273 -70.563644 
L 246.415232 -70.614563 
L 246.86219 -70.665481 
L 247.309149 -70.7164 
L 247.756108 -70.767318 
L 248.203066 -70.818237 
L 248.650025 -70.869155 
L 249.096984 -70.920074 
L 249.543942 -70.999939 
L 249.990901 -71.088213 
L 250.43786 -71.176486 
L 250.884819 -71.26476 
L 251.331777 -71.353033 
L 251.778736 -71.441307 
L 252.225695 -71.530469 
L 252.672653 -71.620679 
L 253.119612 -71.710889 
L 253.566571 -71.801099 
L 254.013529 -71.881104 
L 254.460488 -71.865122 
L 254.907447 -71.849139 
L 255.354406 -71.833157 
L 255.801364 -71.817174 
L 256.248323 -71.801828 
L 256.695282 -71.787912 
L 257.14224 -71.773995 
L 257.589199 -71.760078 
L 258.036158 -71.746162 
L 258.483116 -71.732245 
L 258.930075 -71.718168 
L 259.377034 -71.697427 
L 259.823992 -71.676686 
L 260.270951 -71.655944 
L 260.71791 -71.635203 
L 261.164869 -71.614462 
L 261.611827 -71.594161 
L 262.058786 -71.582225 
L 262.505745 -71.57029 
L 262.952703 -71.558354 
L 263.399662 -71.546419 
L 263.846621 -71.534483 
L 264.293579 -71.522548 
L 264.740538 -71.510612 
L 265.187497 -71.51924 
L 265.634456 -71.535767 
L 266.081414 -71.552293 
L 266.528373 -71.56882 
L 266.975332 -71.585346 
L 267.42229 -71.601873 
L 267.869249 -71.578396 
L 268.316208 -71.542904 
L 268.763166 -71.507412 
L 269.210125 -71.47192 
L 269.657084 -71.436427 
L 270.104043 -71.400935 
L 270.551001 -71.365443 
L 270.99796 -71.329951 
L 271.444919 -71.294502 
L 271.891877 -71.259307 
L 272.338836 -71.224113 
L 272.785795 -71.188918 
L 273.232753 -71.153724 
L 273.679712 -71.118529 
L 274.126671 -71.083335 
L 274.57363 -71.04814 
L 275.020588 -71.012946 
L 275.467547 -70.977751 
L 275.914506 -70.942557 
L 276.361464 -70.907362 
L 276.808423 -70.872168 
L 277.255382 -70.851629 
L 277.70234 -70.834241 
L 278.149299 -70.816852 
L 278.596258 -70.799464 
L 279.043217 -70.782075 
L 279.490175 -70.764687 
L 279.937134 -70.747298 
L 280.384093 -70.72991 
L 280.831051 -70.712521 
L 281.27801 -70.695133 
L 281.724969 -70.677744 
L 282.171927 -70.660356 
L 282.618886 -70.642967 
L 283.065845 -70.625579 
L 283.512804 -70.60819 
L 283.959762 -70.590802 
L 284.406721 -70.573413 
L 284.85368 -70.562927 
L 285.300638 -70.577006 
L 285.747597 -70.591086 
L 286.194556 -70.605166 
L 286.641514 -70.619245 
L 287.088473 -70.633325 
L 287.535432 -70.647405 
L 287.98239 -70.661484 
L 288.429349 -70.675564 
L 288.876308 -70.689644 
L 289.323267 -70.699674 
L 289.770225 -70.681461 
L 290.217184 -70.663249 
L 290.664143 -70.645036 
L 291.111101 -70.626824 
L 291.55806 -70.608611 
L 292.005019 -70.590399 
L 292.451977 -70.572186 
L 292.898936 -70.553974 
L 293.345895 -70.535762 
L 293.792854 -70.517549 
L 294.239812 -70.499337 
L 294.686771 -70.481124 
L 295.13373 -70.462912 
L 295.580688 -70.444699 
L 296.027647 -70.415877 
L 296.474606 -70.38291 
L 296.921564 -70.349944 
L 297.368523 -70.316978 
L 297.815482 -70.284011 
L 298.262441 -70.251045 
L 298.709399 -70.218079 
L 299.156358 -70.185112 
L 299.603317 -70.152146 
L 300.050275 -70.11918 
L 300.497234 -70.086213 
L 300.944193 -70.057671 
L 301.391151 -70.034666 
L 301.83811 -70.011662 
L 302.285069 -69.988657 
L 302.732028 -69.965653 
L 303.178986 -69.942648 
L 303.625945 -69.919643 
L 304.072904 -69.896639 
L 304.519862 -69.873634 
L 304.966821 -69.85063 
L 305.41378 -69.827625 
L 305.860738 -69.805429 
L 306.307697 -69.803255 
L 306.754656 -69.80108 
L 307.201615 -69.798906 
L 307.648573 -69.796731 
L 308.095532 -69.794557 
L 308.542491 -69.792383 
L 308.989449 -69.790208 
L 309.436408 -69.788034 
L 309.883367 -69.785859 
L 310.330325 -69.783685 
L 310.777284 -69.78151 
L 311.224243 -69.779336 
L 311.671202 -69.777162 
L 312.11816 -69.774987 
L 312.565119 -69.772813 
L 313.012078 -69.770638 
L 313.459036 -69.768464 
L 313.905995 -69.766289 
L 314.352954 -69.764115 
L 314.799912 -69.76194 
L 315.246871 -69.803205 
L 315.69383 -69.847823 
L 316.140788 -69.89244 
L 316.587747 -69.937057 
L 317.034706 -69.981674 
L 317.481665 -70.026292 
L 317.928623 -70.070909 
L 318.375582 -70.115526 
L 318.822541 -70.160144 
L 319.269499 -70.208541 
L 319.716458 -70.282813 
L 320.163417 -70.357086 
L 320.610375 -70.431358 
L 321.057334 -70.505631 
L 321.504293 -70.579903 
L 321.951252 -70.654176 
L 322.39821 -70.728448 
L 322.845169 -70.802721 
L 323.292128 -70.845284 
L 323.739086 -70.879247 
L 324.186045 -70.913209 
L 324.633004 -70.947172 
L 325.079962 -70.981135 
L 325.526921 -71.015097 
L 325.97388 -71.04906 
L 326.420839 -71.083022 
L 326.867797 -71.116985 
L 327.314756 -71.150948 
L 327.761715 -71.18491 
L 328.208673 -71.218873 
L 328.655632 -71.252835 
L 329.102591 -71.258289 
L 329.549549 -71.260958 
L 329.996508 -71.263626 
L 330.443467 -71.266295 
L 330.890426 -71.268963 
L 331.337384 -71.271632 
L 331.784343 -71.274301 
L 332.231302 -71.276969 
L 332.67826 -71.223441 
L 333.125219 -71.1478 
L 333.572178 -71.07216 
L 334.019136 -70.996519 
L 334.466095 -70.920878 
L 334.913054 -70.845237 
L 335.360013 -70.769596 
L 335.806971 -70.7035 
L 336.25393 -70.640091 
L 336.700889 -70.576683 
L 337.147847 -70.513274 
L 337.594806 -70.449865 
L 338.041765 -70.386457 
L 338.488723 -70.323048 
L 338.935682 -70.259639 
L 339.382641 -70.196231 
L 339.829599 -70.132822 
L 340.276558 -70.069413 
L 340.723517 -70.007663 
L 341.170476 -69.973654 
L 341.617434 -69.939645 
L 342.064393 -69.905636 
L 342.511352 -69.871627 
L 342.95831 -69.837618 
L 343.405269 -69.803609 
L 343.852228 -69.7696 
L 344.299186 -69.735591 
L 344.746145 -69.701582 
L 345.193104 -69.667573 
L 345.640063 -69.633564 
L 346.087021 -69.599555 
L 346.53398 -69.565546 
L 346.980939 -69.531537 
L 347.427897 -69.497528 
L 347.874856 -69.497175 
L 348.321815 -69.516864 
L 348.768773 -69.536553 
L 349.215732 -69.556241 
L 349.662691 -69.57593 
L 350.10965 -69.595619 
L 350.556608 -69.615308 
L 351.003567 -69.634997 
L 351.450526 -69.654686 
L 351.897484 -69.674375 
L 352.344443 -69.66926 
L 352.791402 -69.649721 
L 353.23836 -69.630181 
L 353.685319 -69.610641 
L 354.132278 -69.591101 
L 354.579237 -69.571562 
L 355.026195 -69.552022 
L 355.473154 -69.532482 
L 355.920113 -69.512942 
L 356.367071 -69.493403 
L 356.81403 -69.473863 
L 357.260989 -69.454323 
L 357.707947 -69.434784 
L 358.154906 -69.414858 
L 358.601865 -69.39343 
L 359.048824 -69.372002 
L 359.495782 -69.350574 
L 359.942741 -69.329146 
L 360.3897 -69.307718 
L 360.836658 -69.28629 
L 361.283617 -69.264862 
L 361.730576 -69.243434 
L 362.177534 -69.222006 
L 362.624493 -69.200579 
L 363.071452 -69.179151 
L 363.518411 -69.157723 
L 363.965369 -69.136295 
L 364.412328 -69.114867 
L 364.859287 -69.093439 
L 365.306245 -69.072011 
L 365.753204 -69.050583 
L 366.200163 -69.033334 
L 366.647121 -69.016775 
L 367.09408 -69.000216 
L 367.541039 -68.983658 
L 367.987997 -68.967099 
L 368.434956 -68.95054 
L 368.881915 -68.933981 
L 369.328874 -68.917422 
L 369.775832 -68.900864 
L 370.222791 -68.884305 
L 370.66975 -68.867746 
L 371.116708 -68.851187 
L 371.563667 -68.834628 
L 372.010626 -68.818069 
L 372.457584 -68.801511 
L 372.904543 -68.785191 
L 373.351502 -68.786709 
L 373.798461 -68.788226 
L 374.245419 -68.789744 
L 374.692378 -68.791262 
L 375.139337 -68.79278 
L 375.586295 -68.794298 
L 376.033254 -68.795815 
L 376.480213 -68.797333 
L 376.927171 -68.798851 
L 377.37413 -68.800369 
L 377.821089 -68.801886 
L 378.268048 -68.803404 
L 378.715006 -68.804922 
L 379.161965 -68.80644 
L 379.608924 -68.816563 
L 380.055882 -68.832243 
L 380.502841 -68.847923 
L 380.9498 -68.863603 
L 381.396758 -68.879283 
L 381.843717 -68.894964 
L 382.290676 -68.910644 
L 382.737635 -68.926324 
L 383.184593 -68.942004 
L 383.631552 -68.957684 
L 384.078511 -68.973364 
L 384.525469 -68.990556 
L 384.972428 -69.00958 
L 385.419387 -69.028603 
L 385.866345 -69.047626 
L 386.313304 -69.06665 
L 386.760263 -69.085673 
L 387.207222 -69.104696 
L 387.65418 -69.12372 
L 388.101139 -69.142743 
L 388.548098 -69.161766 
L 388.995056 -69.180789 
L 389.442015 -69.199813 
L 389.888974 -69.218836 
L 390.335932 -69.238458 
L 390.782891 -69.258884 
L 391.22985 -69.27931 
L 391.676809 -69.299736 
L 392.123767 -69.320162 
L 392.570726 -69.340589 
L 393.017685 -69.361015 
L 393.464643 -69.381441 
L 393.911602 -69.401867 
L 394.358561 -69.402393 
L 394.805519 -69.39976 
L 395.252478 -69.397127 
L 395.699437 -69.394494 
L 396.146395 -69.391861 
L 396.593354 -69.389229 
L 397.040313 -69.386596 
L 397.487272 -69.383963 
L 397.93423 -69.38133 
L 398.381189 -69.378698 
L 398.828148 -69.376065 
L 399.275106 -69.373432 
L 399.722065 -69.370799 
L 400.169024 -69.368167 
L 400.615982 -69.365534 
L 401.062941 -69.362901 
L 401.5099 -69.360936 
L 401.956859 -69.360936 
L 402.403817 -69.360936 
L 402.850776 -69.360936 
L 403.297735 -69.360936 
L 403.744693 -69.360936 
L 404.191652 -69.360936 
L 404.638611 -69.360936 
L 405.085569 -69.360936 
L 405.532528 -69.360936 
L 405.979487 -69.360936 
L 406.426446 -69.360936 
L 406.873404 -69.360936 
L 407.320363 -69.360936 
L 407.767322 -69.360936 
L 408.21428 -69.360936 
L 408.661239 -69.360936 
L 409.108198 -69.360936 
L 409.555156 -69.360936 
L 410.002115 -69.360936 
L 410.449074 -69.360936 
L 410.896033 -69.360936 
L 411.342991 -69.360936 
L 411.78995 -69.360936 
L 412.236909 -69.360936 
L 412.683867 -69.360936 
L 413.130826 -69.360936 
L 413.577785 -69.360936 
L 414.024743 -69.360936 
L 414.471702 -69.360936 
L 414.918661 -69.360936 
L 415.36562 -69.360936 
L 415.812578 -69.360936 
L 416.259537 -69.360936 
L 416.706496 -69.360936 
L 417.153454 -69.360936 
L 417.600413 -69.360936 
L 418.047372 -69.360936 
L 418.49433 -69.360936 
L 418.941289 -69.360936 
L 419.388248 -69.360936 
L 419.835207 -69.360936 
L 420.282165 -69.360936 
L 420.729124 -69.360936 
L 421.176083 -69.360936 
L 421.623041 -69.360936 
L 422.07 -69.360936 
L 422.07 0.915179 
L 422.07 0.915179 
L 421.623041 0.915179 
L 421.176083 0.915179 
L 420.729124 0.915179 
L 420.282165 0.915179 
L 419.835207 0.915179 
L 419.388248 0.915179 
L 418.941289 0.915179 
L 418.49433 0.915179 
L 418.047372 0.915179 
L 417.600413 0.915179 
L 417.153454 0.915179 
L 416.706496 0.915179 
L 416.259537 0.915179 
L 415.812578 0.915179 
L 415.36562 0.915179 
L 414.918661 0.915179 
L 414.471702 0.915179 
L 414.024743 0.915179 
L 413.577785 0.915179 
L 413.130826 0.915179 
L 412.683867 0.915179 
L 412.236909 0.915179 
L 411.78995 0.915179 
L 411.342991 0.915179 
L 410.896033 0.915179 
L 410.449074 0.915179 
L 410.002115 0.915179 
L 409.555156 0.915179 
L 409.108198 0.915179 
L 408.661239 0.915179 
L 408.21428 0.915179 
L 407.767322 0.915179 
L 407.320363 0.915179 
L 406.873404 0.915179 
L 406.426446 0.915179 
L 405.979487 0.915179 
L 405.532528 0.915179 
L 405.085569 0.915179 
L 404.638611 0.915179 
L 404.191652 0.915179 
L 403.744693 0.915179 
L 403.297735 0.915179 
L 402.850776 0.915179 
L 402.403817 0.915179 
L 401.956859 0.915179 
L 401.5099 0.915179 
L 401.062941 0.915179 
L 400.615982 0.915179 
L 400.169024 0.915179 
L 399.722065 0.915179 
L 399.275106 0.915179 
L 398.828148 0.915179 
L 398.381189 0.915179 
L 397.93423 0.915179 
L 397.487272 0.915179 
L 397.040313 0.915179 
L 396.593354 0.915179 
L 396.146395 0.915179 
L 395.699437 0.915179 
L 395.252478 0.915179 
L 394.805519 0.915179 
L 394.358561 0.915179 
L 393.911602 0.915179 
L 393.464643 0.915179 
L 393.017685 0.915179 
L 392.570726 0.915179 
L 392.123767 0.915179 
L 391.676809 0.915179 
L 391.22985 0.915179 
L 390.782891 0.915179 
L 390.335932 0.915179 
L 389.888974 0.915179 
L 389.442015 0.915179 
L 388.995056 0.915179 
L 388.548098 0.915179 
L 388.101139 0.915179 
L 387.65418 0.915179 
L 387.207222 0.915179 
L 386.760263 0.915179 
L 386.313304 0.915179 
L 385.866345 0.915179 
L 385.419387 0.915179 
L 384.972428 0.915179 
L 384.525469 0.915179 
L 384.078511 0.915179 
L 383.631552 0.915179 
L 383.184593 0.915179 
L 382.737635 0.915179 
L 382.290676 0.915179 
L 381.843717 0.915179 
L 381.396758 0.915179 
L 380.9498 0.915179 
L 380.502841 0.915179 
L 380.055882 0.915179 
L 379.608924 0.915179 
L 379.161965 0.915179 
L 378.715006 0.915179 
L 378.268048 0.915179 
L 377.821089 0.915179 
L 377.37413 0.915179 
L 376.927171 0.915179 
L 376.480213 0.915179 
L 376.033254 0.915179 
L 375.586295 0.915179 
L 375.139337 0.915179 
L 374.692378 0.915179 
L 374.245419 0.915179 
L 373.798461 0.915179 
L 373.351502 0.915179 
L 372.904543 0.915179 
L 372.457584 0.915179 
L 372.010626 0.915179 
L 371.563667 0.915179 
L 371.116708 0.915179 
L 370.66975 0.915179 
L 370.222791 0.915179 
L 369.775832 0.915179 
L 369.328874 0.915179 
L 368.881915 0.915179 
L 368.434956 0.915179 
L 367.987997 0.915179 
L 367.541039 0.915179 
L 367.09408 0.915179 
L 366.647121 0.915179 
L 366.200163 0.915179 
L 365.753204 0.915179 
L 365.306245 0.915179 
L 364.859287 0.915179 
L 364.412328 0.915179 
L 363.965369 0.915179 
L 363.518411 0.915179 
L 363.071452 0.915179 
L 362.624493 0.915179 
L 362.177534 0.915179 
L 361.730576 0.915179 
L 361.283617 0.915179 
L 360.836658 0.915179 
L 360.3897 0.915179 
L 359.942741 0.915179 
L 359.495782 0.915179 
L 359.048824 0.915179 
L 358.601865 0.915179 
L 358.154906 0.915179 
L 357.707947 0.915179 
L 357.260989 0.915179 
L 356.81403 0.915179 
L 356.367071 0.915179 
L 355.920113 0.915179 
L 355.473154 0.915179 
L 355.026195 0.915179 
L 354.579237 0.915179 
L 354.132278 0.915179 
L 353.685319 0.915179 
L 353.23836 0.915179 
L 352.791402 0.915179 
L 352.344443 0.915179 
L 351.897484 0.915179 
L 351.450526 0.915179 
L 351.003567 0.915179 
L 350.556608 0.915179 
L 350.10965 0.915179 
L 349.662691 0.915179 
L 349.215732 0.915179 
L 348.768773 0.915179 
L 348.321815 0.915179 
L 347.874856 0.915179 
L 347.427897 0.915179 
L 346.980939 0.915179 
L 346.53398 0.915179 
L 346.087021 0.915179 
L 345.640063 0.915179 
L 345.193104 0.915179 
L 344.746145 0.915179 
L 344.299186 0.915179 
L 343.852228 0.915179 
L 343.405269 0.915179 
L 342.95831 0.915179 
L 342.511352 0.915179 
L 342.064393 0.915179 
L 341.617434 0.915179 
L 341.170476 0.915179 
L 340.723517 0.915179 
L 340.276558 0.915179 
L 339.829599 0.915179 
L 339.382641 0.915179 
L 338.935682 0.915179 
L 338.488723 0.915179 
L 338.041765 0.915179 
L 337.594806 0.915179 
L 337.147847 0.915179 
L 336.700889 0.915179 
L 336.25393 0.915179 
L 335.806971 0.915179 
L 335.360013 0.915179 
L 334.913054 0.915179 
L 334.466095 0.915179 
L 334.019136 0.915179 
L 333.572178 0.915179 
L 333.125219 0.915179 
L 332.67826 0.915179 
L 332.231302 0.915179 
L 331.784343 0.915179 
L 331.337384 0.915179 
L 330.890426 0.915179 
L 330.443467 0.915179 
L 329.996508 0.915179 
L 329.549549 0.915179 
L 329.102591 0.915179 
L 328.655632 0.915179 
L 328.208673 0.915179 
L 327.761715 0.915179 
L 327.314756 0.915179 
L 326.867797 0.915179 
L 326.420839 0.915179 
L 325.97388 0.915179 
L 325.526921 0.915179 
L 325.079962 0.915179 
L 324.633004 0.915179 
L 324.186045 0.915179 
L 323.739086 0.915179 
L 323.292128 0.915179 
L 322.845169 0.915179 
L 322.39821 0.915179 
L 321.951252 0.915179 
L 321.504293 0.915179 
L 321.057334 0.915179 
L 320.610375 0.915179 
L 320.163417 0.915179 
L 319.716458 0.915179 
L 319.269499 0.915179 
L 318.822541 0.915179 
L 318.375582 0.915179 
L 317.928623 0.915179 
L 317.481665 0.915179 
L 317.034706 0.915179 
L 316.587747 0.915179 
L 316.140788 0.915179 
L 315.69383 0.915179 
L 315.246871 0.915179 
L 314.799912 0.915179 
L 314.352954 0.915179 
L 313.905995 0.915179 
L 313.459036 0.915179 
L 313.012078 0.915179 
L 312.565119 0.915179 
L 312.11816 0.915179 
L 311.671202 0.915179 
L 311.224243 0.915179 
L 310.777284 0.915179 
L 310.330325 0.915179 
L 309.883367 0.915179 
L 309.436408 0.915179 
L 308.989449 0.915179 
L 308.542491 0.915179 
L 308.095532 0.915179 
L 307.648573 0.915179 
L 307.201615 0.915179 
L 306.754656 0.915179 
L 306.307697 0.915179 
L 305.860738 0.915179 
L 305.41378 0.915179 
L 304.966821 0.915179 
L 304.519862 0.915179 
L 304.072904 0.915179 
L 303.625945 0.915179 
L 303.178986 0.915179 
L 302.732028 0.915179 
L 302.285069 0.915179 
L 301.83811 0.915179 
L 301.391151 0.915179 
L 300.944193 0.915179 
L 300.497234 0.915179 
L 300.050275 0.915179 
L 299.603317 0.915179 
L 299.156358 0.915179 
L 298.709399 0.915179 
L 298.262441 0.915179 
L 297.815482 0.915179 
L 297.368523 0.915179 
L 296.921564 0.915179 
L 296.474606 0.915179 
L 296.027647 0.915179 
L 295.580688 0.915179 
L 295.13373 0.915179 
L 294.686771 0.915179 
L 294.239812 0.915179 
L 293.792854 0.915179 
L 293.345895 0.915179 
L 292.898936 0.915179 
L 292.451977 0.915179 
L 292.005019 0.915179 
L 291.55806 0.915179 
L 291.111101 0.915179 
L 290.664143 0.915179 
L 290.217184 0.915179 
L 289.770225 0.915179 
L 289.323267 0.915179 
L 288.876308 0.915179 
L 288.429349 0.915179 
L 287.98239 0.915179 
L 287.535432 0.915179 
L 287.088473 0.915179 
L 286.641514 0.915179 
L 286.194556 0.915179 
L 285.747597 0.915179 
L 285.300638 0.915179 
L 284.85368 0.915179 
L 284.406721 0.915179 
L 283.959762 0.915179 
L 283.512804 0.915179 
L 283.065845 0.915179 
L 282.618886 0.915179 
L 282.171927 0.915179 
L 281.724969 0.915179 
L 281.27801 0.915179 
L 280.831051 0.915179 
L 280.384093 0.915179 
L 279.937134 0.915179 
L 279.490175 0.915179 
L 279.043217 0.915179 
L 278.596258 0.915179 
L 278.149299 0.915179 
L 277.70234 0.915179 
L 277.255382 0.915179 
L 276.808423 0.915179 
L 276.361464 0.915179 
L 275.914506 0.915179 
L 275.467547 0.915179 
L 275.020588 0.915179 
L 274.57363 0.915179 
L 274.126671 0.915179 
L 273.679712 0.915179 
L 273.232753 0.915179 
L 272.785795 0.915179 
L 272.338836 0.915179 
L 271.891877 0.915179 
L 271.444919 0.915179 
L 270.99796 0.915179 
L 270.551001 0.915179 
L 270.104043 0.915179 
L 269.657084 0.915179 
L 269.210125 0.915179 
L 268.763166 0.915179 
L 268.316208 0.915179 
L 267.869249 0.915179 
L 267.42229 0.915179 
L 266.975332 0.915179 
L 266.528373 0.915179 
L 266.081414 0.915179 
L 265.634456 0.915179 
L 265.187497 0.915179 
L 264.740538 0.915179 
L 264.293579 0.915179 
L 263.846621 0.915179 
L 263.399662 0.915179 
L 262.952703 0.915179 
L 262.505745 0.915179 
L 262.058786 0.915179 
L 261.611827 0.915179 
L 261.164869 0.915179 
L 260.71791 0.915179 
L 260.270951 0.915179 
L 259.823992 0.915179 
L 259.377034 0.915179 
L 258.930075 0.915179 
L 258.483116 0.915179 
L 258.036158 0.915179 
L 257.589199 0.915179 
L 257.14224 0.915179 
L 256.695282 0.915179 
L 256.248323 0.915179 
L 255.801364 0.915179 
L 255.354406 0.915179 
L 254.907447 0.915179 
L 254.460488 0.915179 
L 254.013529 0.915179 
L 253.566571 0.915179 
L 253.119612 0.915179 
L 252.672653 0.915179 
L 252.225695 0.915179 
L 251.778736 0.915179 
L 251.331777 0.915179 
L 250.884819 0.915179 
L 250.43786 0.915179 
L 249.990901 0.915179 
L 249.543942 0.915179 
L 249.096984 0.915179 
L 248.650025 0.915179 
L 248.203066 0.915179 
L 247.756108 0.915179 
L 247.309149 0.915179 
L 246.86219 0.915179 
L 246.415232 0.915179 
L 245.968273 0.915179 
L 245.521314 0.915179 
L 245.074355 0.915179 
L 244.627397 0.915179 
L 244.180438 0.915179 
L 243.733479 0.915179 
L 243.286521 0.915179 
L 242.839562 0.915179 
L 242.392603 0.915179 
L 241.945645 0.915179 
L 241.498686 0.915179 
L 241.051727 0.915179 
L 240.604768 0.915179 
L 240.15781 0.915179 
L 239.710851 0.915179 
L 239.263892 0.915179 
L 238.816934 0.915179 
L 238.369975 0.915179 
L 237.923016 0.915179 
L 237.476058 0.915179 
L 237.029099 0.915179 
L 236.58214 0.915179 
L 236.135181 0.915179 
L 235.688223 0.915179 
L 235.241264 0.915179 
L 234.794305 0.915179 
L 234.347347 0.915179 
L 233.900388 0.915179 
L 233.453429 0.915179 
L 233.006471 0.915179 
L 232.559512 0.915179 
L 232.112553 0.915179 
L 231.665594 0.915179 
L 231.218636 0.915179 
L 230.771677 0.915179 
L 230.324718 0.915179 
L 229.87776 0.915179 
L 229.430801 0.915179 
L 228.983842 0.915179 
L 228.536884 0.915179 
L 228.089925 0.915179 
L 227.642966 0.915179 
L 227.196008 0.915179 
L 226.749049 0.915179 
L 226.30209 0.915179 
L 225.855131 0.915179 
L 225.408173 0.915179 
L 224.961214 0.915179 
L 224.514255 0.915179 
L 224.067297 0.915179 
L 223.620338 0.915179 
L 223.173379 0.915179 
L 222.726421 0.915179 
L 222.279462 0.915179 
L 221.832503 0.915179 
L 221.385544 0.915179 
L 220.938586 0.915179 
L 220.491627 0.915179 
L 220.044668 0.915179 
L 219.59771 0.915179 
L 219.150751 0.915179 
L 218.703792 0.915179 
L 218.256834 0.915179 
L 217.809875 0.915179 
L 217.362916 0.915179 
L 216.915957 0.915179 
L 216.468999 0.915179 
L 216.02204 0.915179 
L 215.575081 0.915179 
L 215.128123 0.915179 
L 214.681164 0.915179 
L 214.234205 0.915179 
L 213.787247 0.915179 
L 213.340288 0.915179 
L 212.893329 0.915179 
L 212.44637 0.915179 
L 211.999412 0.915179 
L 211.552453 0.915179 
L 211.105494 0.915179 
L 210.658536 0.915179 
L 210.211577 0.915179 
L 209.764618 0.915179 
L 209.31766 0.915179 
L 208.870701 0.915179 
L 208.423742 0.915179 
L 207.976783 0.915179 
L 207.529825 0.915179 
L 207.082866 0.915179 
L 206.635907 0.915179 
L 206.188949 0.915179 
L 205.74199 0.915179 
L 205.295031 0.915179 
L 204.848073 0.915179 
L 204.401114 0.915179 
L 203.954155 0.915179 
L 203.507196 0.915179 
L 203.060238 0.915179 
L 202.613279 0.915179 
L 202.16632 0.915179 
L 201.719362 0.915179 
L 201.272403 0.915179 
L 200.825444 0.915179 
L 200.378486 0.915179 
L 199.931527 0.915179 
L 199.484568 0.915179 
L 199.03761 0.915179 
L 198.590651 0.915179 
L 198.143692 0.915179 
L 197.696733 0.915179 
L 197.249775 0.915179 
L 196.802816 0.915179 
L 196.355857 0.915179 
L 195.908899 0.915179 
L 195.46194 0.915179 
L 195.014981 0.915179 
L 194.568023 0.915179 
L 194.121064 0.915179 
L 193.674105 0.915179 
L 193.227146 0.915179 
L 192.780188 0.915179 
L 192.333229 0.915179 
L 191.88627 0.915179 
L 191.439312 0.915179 
L 190.992353 0.915179 
L 190.545394 0.915179 
L 190.098436 0.915179 
L 189.651477 0.915179 
L 189.204518 0.915179 
L 188.757559 0.915179 
L 188.310601 0.915179 
L 187.863642 0.915179 
L 187.416683 0.915179 
L 186.969725 0.915179 
L 186.522766 0.915179 
L 186.075807 0.915179 
L 185.628849 0.915179 
L 185.18189 0.915179 
L 184.734931 0.915179 
L 184.287972 0.915179 
L 183.841014 0.915179 
L 183.394055 0.915179 
L 182.947096 0.915179 
L 182.500138 0.915179 
L 182.053179 0.915179 
L 181.60622 0.915179 
L 181.159262 0.915179 
L 180.712303 0.915179 
L 180.265344 0.915179 
L 179.818385 0.915179 
L 179.371427 0.915179 
L 178.924468 0.915179 
L 178.477509 0.915179 
L 178.030551 0.915179 
L 177.583592 0.915179 
L 177.136633 0.915179 
L 176.689675 0.915179 
L 176.242716 0.915179 
L 175.795757 0.915179 
L 175.348798 0.915179 
L 174.90184 0.915179 
L 174.454881 0.915179 
L 174.007922 0.915179 
L 173.560964 0.915179 
L 173.114005 0.915179 
L 172.667046 0.915179 
L 172.220088 0.915179 
L 171.773129 0.915179 
L 171.32617 0.915179 
L 170.879212 0.915179 
L 170.432253 0.915179 
L 169.985294 0.915179 
L 169.538335 0.915179 
L 169.091377 0.915179 
L 168.644418 0.915179 
L 168.197459 0.915179 
L 167.750501 0.915179 
L 167.303542 0.915179 
L 166.856583 0.915179 
L 166.409625 0.915179 
L 165.962666 0.915179 
L 165.515707 0.915179 
L 165.068748 0.915179 
L 164.62179 0.915179 
L 164.174831 0.915179 
L 163.727872 0.915179 
L 163.280914 0.915179 
L 162.833955 0.915179 
L 162.386996 0.915179 
L 161.940038 0.915179 
L 161.493079 0.915179 
L 161.04612 0.915179 
L 160.599161 0.915179 
L 160.152203 0.915179 
L 159.705244 0.915179 
L 159.258285 0.915179 
L 158.811327 0.915179 
L 158.364368 0.915179 
L 157.917409 0.915179 
L 157.470451 0.915179 
L 157.023492 0.915179 
L 156.576533 0.915179 
L 156.129574 0.915179 
L 155.682616 0.915179 
L 155.235657 0.915179 
L 154.788698 0.915179 
L 154.34174 0.915179 
L 153.894781 0.915179 
L 153.447822 0.915179 
L 153.000864 0.915179 
L 152.553905 0.915179 
L 152.106946 0.915179 
L 151.659987 0.915179 
L 151.213029 0.915179 
L 150.76607 0.915179 
L 150.319111 0.915179 
L 149.872153 0.915179 
L 149.425194 0.915179 
L 148.978235 0.915179 
L 148.531277 0.915179 
L 148.084318 0.915179 
L 147.637359 0.915179 
L 147.190401 0.915179 
L 146.743442 0.915179 
L 146.296483 0.915179 
L 145.849524 0.915179 
L 145.402566 0.915179 
L 144.955607 0.915179 
L 144.508648 0.915179 
L 144.06169 0.915179 
L 143.614731 0.915179 
L 143.167772 0.915179 
L 142.720814 0.915179 
L 142.273855 0.915179 
L 141.826896 0.915179 
L 141.379937 0.915179 
L 140.932979 0.915179 
L 140.48602 0.915179 
L 140.039061 0.915179 
L 139.592103 0.915179 
L 139.145144 0.915179 
L 138.698185 0.915179 
L 138.251227 0.915179 
L 137.804268 0.915179 
L 137.357309 0.915179 
L 136.91035 0.915179 
L 136.463392 0.915179 
L 136.016433 0.915179 
L 135.569474 0.915179 
L 135.122516 0.915179 
L 134.675557 0.915179 
L 134.228598 0.915179 
L 133.78164 0.915179 
L 133.334681 0.915179 
L 132.887722 0.915179 
L 132.440763 0.915179 
L 131.993805 0.915179 
L 131.546846 0.915179 
L 131.099887 0.915179 
L 130.652929 0.915179 
L 130.20597 0.915179 
L 129.759011 0.915179 
L 129.312053 0.915179 
L 128.865094 0.915179 
L 128.418135 0.915179 
L 127.971176 0.915179 
L 127.524218 0.915179 
L 127.077259 0.915179 
L 126.6303 0.915179 
L 126.183342 0.915179 
L 125.736383 0.915179 
L 125.289424 0.915179 
L 124.842466 0.915179 
L 124.395507 0.915179 
L 123.948548 0.915179 
L 123.501589 0.915179 
L 123.054631 0.915179 
L 122.607672 0.915179 
L 122.160713 0.915179 
L 121.713755 0.915179 
L 121.266796 0.915179 
L 120.819837 0.915179 
L 120.372879 0.915179 
L 119.92592 0.915179 
L 119.478961 0.915179 
L 119.032003 0.915179 
L 118.585044 0.915179 
L 118.138085 0.915179 
L 117.691126 0.915179 
L 117.244168 0.915179 
L 116.797209 0.915179 
L 116.35025 0.915179 
L 115.903292 0.915179 
L 115.456333 0.915179 
L 115.009374 0.915179 
L 114.562416 0.915179 
L 114.115457 0.915179 
L 113.668498 0.915179 
L 113.221539 0.915179 
L 112.774581 0.915179 
L 112.327622 0.915179 
L 111.880663 0.915179 
L 111.433705 0.915179 
L 110.986746 0.915179 
L 110.539787 0.915179 
L 110.092829 0.915179 
L 109.64587 0.915179 
L 109.198911 0.915179 
L 108.751952 0.915179 
L 108.304994 0.915179 
L 107.858035 0.915179 
L 107.411076 0.915179 
L 106.964118 0.915179 
L 106.517159 0.915179 
L 106.0702 0.915179 
L 105.623242 0.915179 
L 105.176283 0.915179 
L 104.729324 0.915179 
L 104.282365 0.915179 
L 103.835407 0.915179 
L 103.388448 0.915179 
L 102.941489 0.915179 
L 102.494531 0.915179 
L 102.047572 0.915179 
L 101.600613 0.915179 
L 101.153655 0.915179 
L 100.706696 0.915179 
L 100.259737 0.915179 
L 99.812778 0.915179 
L 99.36582 0.915179 
L 98.918861 0.915179 
L 98.471902 0.915179 
L 98.024944 0.915179 
L 97.577985 0.915179 
L 97.131026 0.915179 
L 96.684068 0.915179 
L 96.237109 0.915179 
L 95.79015 0.915179 
L 95.343191 0.915179 
L 94.896233 0.915179 
L 94.449274 0.915179 
L 94.002315 0.915179 
L 93.555357 0.915179 
L 93.108398 0.915179 
L 92.661439 0.915179 
L 92.214481 0.915179 
L 91.767522 0.915179 
L 91.320563 0.915179 
L 90.873605 0.915179 
L 90.426646 0.915179 
L 89.979687 0.915179 
L 89.532728 0.915179 
L 89.08577 0.915179 
L 88.638811 0.915179 
L 88.191852 0.915179 
L 87.744894 0.915179 
L 87.297935 0.915179 
L 86.850976 0.915179 
L 86.404018 0.915179 
L 85.957059 0.915179 
L 85.5101 0.915179 
L 85.063141 0.915179 
L 84.616183 0.915179 
L 84.169224 0.915179 
L 83.722265 0.915179 
L 83.275307 0.915179 
L 82.828348 0.915179 
L 82.381389 0.915179 
L 81.934431 0.915179 
L 81.487472 0.915179 
L 81.040513 0.915179 
L 80.593554 0.915179 
L 80.146596 0.915179 
L 79.699637 0.915179 
L 79.252678 0.915179 
L 78.80572 0.915179 
L 78.358761 0.915179 
L 77.911802 0.915179 
L 77.464844 0.915179 
L 77.017885 0.915179 
L 76.570926 0.915179 
L 76.123967 0.915179 
L 75.677009 0.915179 
L 75.23005 0.915179 
L 74.783091 0.915179 
L 74.336133 0.915179 
L 73.889174 0.915179 
L 73.442215 0.915179 
L 72.995257 0.915179 
L 72.548298 0.915179 
L 72.101339 0.915179 
L 71.65438 0.915179 
L 71.207422 0.915179 
L 70.760463 0.915179 
L 70.313504 0.915179 
L 69.866546 0.915179 
L 69.419587 0.915179 
L 68.972628 0.915179 
L 68.52567 0.915179 
L 68.078711 0.915179 
L 67.631752 0.915179 
L 67.184793 0.915179 
L 66.737835 0.915179 
L 66.290876 0.915179 
L 65.843917 0.915179 
L 65.396959 0.915179 
L 64.95 0.915179 
z
" style="stroke: #d4edfc; stroke-opacity: 0.9"/>
    </defs>
    <g clip-path="url(#pda5ba097fa)">
     <use xlink:href="#m777b6dc93e" x="0" y="203.254375" style="fill: #d4edfc; fill-opacity: 0.9; stroke: #d4edfc; stroke-opacity: 0.9"/>
    </g>
   </g>
   <g id="matplotlib.axis_1">
    <g id="xtick_1">
     <g id="line2d_1">
      <path d="M 121.791689 140.398125 
L 121.791689 51.118125 
" clip-path="url(#pda5ba097fa)" style="fill: none"/>
     </g>
     <g id="line2d_2"/>
     <g id="text_1">
      <text style="fill: #004a80; font: 10px 'DejaVu Sans', 'Bitstream Vera Sans', 'Computer Modern Sans Serif', 'Lucida Grande', 'Verdana', 'Geneva', 'Lucid', 'Arial', 'Helvetica', 'Avant Garde', sans-serif; text-anchor: middle" x="121.791689" y="151.496562" transform="rotate(-0 121.791689 151.496562)">0.500</text>
     </g>
    </g>
    <g id="xtick_2">
     <g id="line2d_3">
      <path d="M 178.633378 140.398125 
L 178.633378 51.118125 
" clip-path="url(#pda5ba097fa)" style="fill: none"/>
     </g>
     <g id="line2d_4"/>
     <g id="text_2">
      <text style="fill: #004a80; font: 10px 'DejaVu Sans', 'Bitstream Vera Sans', 'Computer Modern Sans Serif', 'Lucida Grande', 'Verdana', 'Geneva', 'Lucid', 'Arial', 'Helvetica', 'Avant Garde', sans-serif; text-anchor: middle" x="178.633378" y="151.496562" transform="rotate(-0 178.633378 151.496562)">1.000</text>
     </g>
    </g>
    <g id="xtick_3">
     <g id="line2d_5">
      <path d="M 235.475068 140.398125 
L 235.475068 51.118125 
" clip-path="url(#pda5ba097fa)" style="fill: none"/>
     </g>
     <g id="line2d_6"/>
     <g id="text_3">
      <text style="fill: #004a80; font: 10px 'DejaVu Sans', 'Bitstream Vera Sans', 'Computer Modern Sans Serif', 'Lucida Grande', 'Verdana', 'Geneva', 'Lucid', 'Arial', 'Helvetica', 'Avant Garde', sans-serif; text-anchor: middle" x="235.475068" y="151.496562" transform="rotate(-0 235.475068 151.496562)">1.500</text>
     </g>
    </g>
    <g id="xtick_4">
     <g id="line2d_7">
      <path d="M 292.316757 140.398125 
L 292.316757 51.118125 
" clip-path="url(#pda5ba097fa)" style="fill: none"/>
     </g>
     <g id="line2d_8"/>
     <g id="text_4">
      <text style="fill: #004a80; font: 10px 'DejaVu Sans', 'Bitstream Vera Sans', 'Computer Modern Sans Serif', 'Lucida Grande', 'Verdana', 'Geneva', 'Lucid', 'Arial', 'Helvetica', 'Avant Garde', sans-serif; text-anchor: middle" x="292.316757" y="151.496562" transform="rotate(-0 292.316757 151.496562)">2.000</text>
     </g>
    </g>
    <g id="xtick_5">
     <g id="line2d_9">
      <path d="M 349.158446 140.398125 
L 349.158446 51.118125 
" clip-path="url(#pda5ba097fa)" style="fill: none"/>
     </g>
     <g id="line2d_10"/>
     <g id="text_5">
      <text style="fill: #004a80; font: 10px 'DejaVu Sans', 'Bitstream Vera Sans', 'Computer Modern Sans Serif', 'Lucida Grande', 'Verdana', 'Geneva', 'Lucid', 'Arial', 'Helvetica', 'Avant Garde', sans-serif; text-anchor: middle" x="349.158446" y="151.496562" transform="rotate(-0 349.158446 151.496562)">2.500</text>
     </g>
    </g>
    <g id="xtick_6">
     <g id="line2d_11">
      <path d="M 422.07 140.398125 
L 422.07 51.118125 
" clip-path="url(#pda5ba097fa)" style="fill: none"/>
     </g>
     <g id="line2d_12"/>
     <g id="text_6">
      <text style="fill: #004a80; font: 10px 'DejaVu Sans', 'Bitstream Vera Sans', 'Computer Modern Sans Serif', 'Lucida Grande', 'Verdana', 'Geneva', 'Lucid', 'Arial', 'Helvetica', 'Avant Garde', sans-serif; text-anchor: middle" x="422.07" y="151.496562" transform="rotate(-0 422.07 151.496562)">3.141</text>
     </g>
    </g>
    <g id="text_7">
     <text style="font: 10px 'DejaVu Sans', 'Bitstream Vera Sans', 'Computer Modern Sans Serif', 'Lucida Grande', 'Verdana', 'Geneva', 'Lucid', 'Arial', 'Helvetica', 'Avant Garde', sans-serif; text-anchor: middle" x="243.51" y="165.174687" transform="rotate(-0 243.51 165.174687)">Distance (km)</text>
    </g>
   </g>
   <g id="matplotlib.axis_2">
    <g id="ytick_1">
     <g id="line2d_13">
      <path d="M 64.95 127.643839 
L 422.07 127.643839 
" clip-path="url(#pda5ba097fa)" style="fill: none; stroke: #9d9d9c; stroke-width: 0.8; stroke-linecap: square"/>
     </g>
     <g id="line2d_14"/>
     <g id="text_8">
      <text style="font: 10px 'DejaVu Sans', 'Bitstream Vera Sans', 'Computer Modern Sans Serif', 'Lucida Grande', 'Verdana', 'Geneva', 'Lucid', 'Arial', 'Helvetica', 'Avant Garde', sans-serif; text-anchor: end" x="61.45" y="131.443058" transform="rotate(-0 61.45 131.443058)">600</text>
     </g>
    </g>
    <g id="ytick_2">
     <g id="line2d_15">
      <path d="M 64.95 102.135268 
L 422.07 102.135268 
" clip-path="url(#pda5ba097fa)" style="fill: none; stroke: #9d9d9c; stroke-width: 0.8; stroke-linecap: square"/>
     </g>
     <g id="line2d_16"/>
     <g id="text_9">
      <text style="font: 10px 'DejaVu Sans', 'Bitstream Vera Sans', 'Computer Modern Sans Serif', 'Lucida Grande', 'Verdana', 'Geneva', 'Lucid', 'Arial', 'Helvetica', 'Avant Garde', sans-serif; text-anchor: end" x="61.45" y="105.934487" transform="rotate(-0 61.45 105.934487)">800</text>
     </g>
    </g>
    <g id="ytick_3">
     <g id="line2d_17">
      <path d="M 64.95 76.626696 
L 422.07 76.626696 
" clip-path="url(#pda5ba097fa)" style="fill: none; stroke: #9d9d9c; stroke-width: 0.8; stroke-linecap: square"/>
     </g>
     <g id="line2d_18"/>
     <g id="text_10">
      <text style="font: 10px 'DejaVu Sans', 'Bitstream Vera Sans', 'Computer Modern Sans Serif', 'Lucida Grande', 'Verdana', 'Geneva', 'Lucid', 'Arial', 'Helvetica', 'Avant Garde', sans-serif; text-anchor: end" x="61.45" y="80.425915" transform="rotate(-0 61.45 80.425915)">1000</text>
     </g>
    </g>
    <g id="ytick_4">
     <g id="line2d_19">
      <path d="M 64.95 51.118125 
L 422.07 51.118125 
" clip-path="url(#pda5ba097fa)" style="fill: none; stroke: #9d9d9c; stroke-width: 0.8; stroke-linecap: square"/>
     </g>
     <g id="line2d_20"/>
     <g id="text_11">
      <text style="font: 10px 'DejaVu Sans', 'Bitstream Vera Sans', 'Computer Modern Sans Serif', 'Lucida Grande', 'Verdana', 'Geneva', 'Lucid', 'Arial', 'Helvetica', 'Avant Garde', sans-serif; text-anchor: end" x="61.45" y="54.917344" transform="rotate(-0 61.45 54.917344)">1200</text>
     </g>
    </g>
   </g>
   <g id="LineCollection_1">
    <path d="M 121.791689 204.169554 
L 121.791689 135.168868 
" clip-path="url(#pda5ba097fa)" style="fill: none; stroke-dasharray: 7.4,3.2; stroke-dashoffset: 0; stroke: #004a80; stroke-width: 2"/>
    <path d="M 178.633378 204.169554 
L 178.633378 134.403611 
" clip-path="url(#pda5ba097fa)" style="fill: none; stroke-dasharray: 7.4,3.2; stroke-dashoffset: 0; stroke: #004a80; stroke-width: 2"/>
    <path d="M 235.475068 204.169554 
L 235.475068 133.638354 
" clip-path="url(#pda5ba097fa)" style="fill: none; stroke-dasharray: 7.4,3.2; stroke-dashoffset: 0; stroke: #004a80; stroke-width: 2"/>
    <path d="M 292.316757 204.169554 
L 292.316757 132.618011 
" clip-path="url(#pda5ba097fa)" style="fill: none; stroke-dasharray: 7.4,3.2; stroke-dashoffset: 0; stroke: #004a80; stroke-width: 2"/>
    <path d="M 349.158446 204.169554 
L 349.158446 133.638354 
" clip-path="url(#pda5ba097fa)" style="fill: none; stroke-dasharray: 7.4,3.2; stroke-dashoffset: 0; stroke: #004a80; stroke-width: 2"/>
   </g>
   <g id="patch_2">
    <path d="M 121.791689 140.398125 
L 235.475068 140.398125 
L 235.475068 138.484982 
L 121.791689 138.484982 
z
" clip-path="url(#pda5ba097fa)" style="fill: #efefef"/>
   </g>
   <g id="patch_3">
    <path d="M 178.633378 140.398125 
L 349.158446 140.398125 
L 349.158446 138.484982 
L 178.633378 138.484982 
z
" clip-path="url(#pda5ba097fa)" style="fill: #004a80"/>
   </g>
   <g id="patch_4">
    <path d="M 235.475068 140.398125 
L 462.841824 140.398125 
L 462.841824 138.484982 
L 235.475068 138.484982 
z
" clip-path="url(#pda5ba097fa)" style="fill: #efefef"/>
   </g>
   <g id="patch_5">
    <path d="M 292.316757 140.398125 
L 576.525203 140.398125 
L 576.525203 138.484982 
L 292.316757 138.484982 
z
" clip-path="url(#pda5ba097fa)" style="fill: #004a80"/>
   </g>
   <g id="patch_6">
    <path d="M 64.95 140.398125 
L 121.791689 140.398125 
L 121.791689 138.484982 
L 64.95 138.484982 
z
" clip-path="url(#pda5ba097fa)" style="fill: #004a80"/>
   </g>
   <g id="patch_7">
    <path d="M 349.158446 140.398125 
L 706.278446 140.398125 
L 706.278446 138.484982 
L 349.158446 138.484982 
z
" clip-path="url(#pda5ba097fa)" style="fill: #efefef"/>
   </g>
   <g id="text_12">
    <text style="font: 12px 'DejaVu Sans', 'Bitstream Vera Sans', 'Computer Modern Sans Serif', 'Lucida Grande', 'Verdana', 'Geneva', 'Lucid', 'Arial', 'Helvetica', 'Avant Garde', sans-serif; text-anchor: middle" x="243.51" y="45.118125" transform="rotate(-0 243.51 45.118125)">loipe-buchbergl</text>
   </g>
   <g id="line2d_21">
    <path d="M 64.95 134.159457 
L 73.442215 134.19012 
L 89.532728 134.372516 
L 90.873605 134.421608 
L 98.471902 134.918654 
L 100.259737 134.931161 
L 104.282365 134.942017 
L 120.372879 135.182234 
L 133.78164 135.059927 
L 167.750501 134.697808 
L 172.667046 134.484116 
L 181.159262 134.402589 
L 186.075807 134.37898 
L 215.128123 133.886249 
L 223.620338 133.619248 
L 232.112553 133.661374 
L 237.476058 133.24967 
L 241.498686 132.688291 
L 243.286521 132.553873 
L 245.968273 132.690731 
L 250.43786 132.077889 
L 254.460488 131.389253 
L 266.081414 131.702082 
L 268.316208 131.711471 
L 279.490175 132.489688 
L 286.194556 132.649209 
L 290.664143 132.609339 
L 298.709399 133.036296 
L 305.41378 133.42675 
L 308.095532 133.459818 
L 315.69383 133.406552 
L 320.610375 132.823017 
L 324.186045 132.341166 
L 329.996508 131.990749 
L 332.67826 132.030934 
L 339.382641 133.058144 
L 342.064393 133.348739 
L 348.321815 133.737511 
L 353.23836 133.624194 
L 374.692378 134.463113 
L 382.737635 134.328051 
L 398.381189 133.875677 
L 419.835207 133.893439 
L 422.07 133.893439 
L 422.07 133.893439 
" clip-path="url(#pda5ba097fa)" style="fill: none; stroke: #0000ff; stroke-width: 3; stroke-linecap: square"/>
   </g>
  </g>
 </g>
 <defs>
  <clipPath id="pda5ba097fa">
   <rect x="64.95" y="51.118125" width="357.12" height="89.28"/>
  </clipPath>
 </defs>
</svg>
