<?xml version="1.0" encoding="utf-8" standalone="no"?>
<!DOCTYPE svg PUBLIC "-//W3C//DTD SVG 1.1//EN"
  "http://www.w3.org/Graphics/SVG/1.1/DTD/svg11.dtd">
<svg xmlns:xlink="http://www.w3.org/1999/xlink" width="460.8pt" height="345.6pt" viewBox="0 0 460.8 345.6" xmlns="http://www.w3.org/2000/svg" version="1.1">
 <metadata>
  <rdf:RDF xmlns:dc="http://purl.org/dc/elements/1.1/" xmlns:cc="http://creativecommons.org/ns#" xmlns:rdf="http://www.w3.org/1999/02/22-rdf-syntax-ns#">
   <cc:Work>
    <dc:type rdf:resource="http://purl.org/dc/dcmitype/StillImage"/>
    <dc:date>2024-08-26T11:04:20.560961</dc:date>
    <dc:format>image/svg+xml</dc:format>
    <dc:creator>
     <cc:Agent>
      <dc:title>Matplotlib v3.8.4, https://matplotlib.org/</dc:title>
     </cc:Agent>
    </dc:creator>
   </cc:Work>
  </rdf:RDF>
 </metadata>
 <defs>
  <style type="text/css">*{stroke-linejoin: round; stroke-linecap: butt}</style>
 </defs>
 <g id="figure_1">
  <g id="patch_1">
   <path d="M 0 345.6 
L 460.8 345.6 
L 460.8 0 
L 0 0 
z
" style="fill: #ffffff"/>
  </g>
  <g id="axes_1">
   <g id="patch_2">
    <path d="M 57.6 219.168 
L 414.72 219.168 
L 414.72 129.888 
L 57.6 129.888 
z
" style="fill: #ffffff"/>
   </g>
   <g id="PolyCollection_1">
    <defs>
     <path id="m409be40b02" d="M 57.6 -62.660571 
L 57.6 -193.512255 
L 58.058434 -193.390416 
L 58.516868 -193.268577 
L 58.975302 -193.195747 
L 59.433736 -193.207082 
L 59.892169 -193.218417 
L 60.350603 -193.229752 
L 60.809037 -193.241088 
L 61.267471 -193.252423 
L 61.725905 -193.263758 
L 62.184339 -193.288172 
L 62.642773 -193.343792 
L 63.101207 -193.399411 
L 63.559641 -193.455031 
L 64.018074 -193.51065 
L 64.476508 -193.56627 
L 64.934942 -193.621889 
L 65.393376 -193.677509 
L 65.85181 -193.733129 
L 66.310244 -193.799719 
L 66.768678 -193.872296 
L 67.227112 -193.944873 
L 67.685546 -194.01745 
L 68.143979 -194.090027 
L 68.602413 -194.162604 
L 69.060847 -194.235181 
L 69.519281 -194.307758 
L 69.977715 -194.380335 
L 70.436149 -194.45044 
L 70.894583 -194.513423 
L 71.353017 -194.576407 
L 71.811451 -194.639391 
L 72.269884 -194.702374 
L 72.728318 -194.765358 
L 73.186752 -194.828342 
L 73.645186 -194.891325 
L 74.10362 -194.897127 
L 74.562054 -194.86796 
L 75.020488 -194.838792 
L 75.478922 -194.809625 
L 75.937356 -194.780457 
L 76.395789 -194.75129 
L 76.854223 -194.722122 
L 77.312657 -194.692955 
L 77.771091 -194.663788 
L 78.229525 -194.72966 
L 78.687959 -194.795542 
L 79.146393 -194.861424 
L 79.604827 -194.927306 
L 80.063261 -194.993188 
L 80.521694 -195.05907 
L 80.980128 -195.124952 
L 81.438562 -195.193658 
L 81.896996 -195.340344 
L 82.35543 -195.487029 
L 82.813864 -195.633715 
L 83.272298 -195.780401 
L 83.730732 -195.927087 
L 84.189166 -196.450333 
L 84.647599 -196.420284 
L 85.106033 -196.390234 
L 85.564467 -196.360185 
L 86.022901 -196.330135 
L 86.481335 -196.300085 
L 86.939769 -196.271562 
L 87.398203 -196.299651 
L 87.856637 -196.327741 
L 88.315071 -196.355831 
L 88.773504 -196.383921 
L 89.231938 -196.41201 
L 89.690372 -196.4401 
L 90.148806 -196.46819 
L 90.60724 -196.498471 
L 91.065674 -196.535598 
L 91.524108 -196.572726 
L 91.982542 -196.609854 
L 92.440976 -196.646982 
L 92.899409 -196.68411 
L 93.357843 -196.721238 
L 93.816277 -196.758365 
L 94.274711 -196.795493 
L 94.733145 -196.817517 
L 95.191579 -196.837857 
L 95.650013 -196.858197 
L 96.108447 -196.878538 
L 96.566881 -196.898878 
L 97.025315 -196.919218 
L 97.483748 -196.939558 
L 97.942182 -196.959899 
L 98.400616 -196.980239 
L 98.85905 -197.000579 
L 99.317484 -197.015041 
L 99.775918 -196.996285 
L 100.234352 -196.977528 
L 100.692786 -196.958772 
L 101.15122 -196.940015 
L 101.609653 -196.921259 
L 102.068087 -196.902502 
L 102.526521 -196.883746 
L 102.984955 -196.86499 
L 103.443389 -196.846233 
L 103.901823 -196.844781 
L 104.360257 -196.897573 
L 104.818691 -196.950364 
L 105.277125 -197.003156 
L 105.735558 -197.055947 
L 106.193992 -197.108739 
L 106.652426 -197.16153 
L 107.11086 -197.214322 
L 107.569294 -197.267113 
L 108.027728 -197.319905 
L 108.486162 -197.377148 
L 108.944596 -197.444688 
L 109.40303 -197.512228 
L 109.861463 -197.579768 
L 110.319897 -197.647308 
L 110.778331 -197.714848 
L 111.236765 -197.782388 
L 111.695199 -197.849928 
L 112.153633 -197.917468 
L 112.612067 -197.985008 
L 113.070501 -198.052548 
L 113.528935 -198.112948 
L 113.987368 -198.156294 
L 114.445802 -198.199641 
L 114.904236 -198.242988 
L 115.36267 -198.286335 
L 115.821104 -198.329682 
L 116.279538 -198.373029 
L 116.737972 -198.416376 
L 117.196406 -198.459723 
L 117.65484 -198.50307 
L 118.113273 -198.546417 
L 118.571707 -198.589764 
L 119.030141 -198.622351 
L 119.488575 -198.608888 
L 119.947009 -198.595425 
L 120.405443 -198.581962 
L 120.863877 -198.568499 
L 121.322311 -198.555036 
L 121.780745 -198.541573 
L 122.239178 -198.52811 
L 122.697612 -198.514646 
L 123.156046 -198.502405 
L 123.61448 -198.493691 
L 124.072914 -198.484977 
L 124.531348 -198.476263 
L 124.989782 -198.467549 
L 125.448216 -198.458979 
L 125.90665 -198.450867 
L 126.365083 -198.442756 
L 126.823517 -198.434644 
L 127.281951 -198.426532 
L 127.740385 -198.418421 
L 128.198819 -198.410309 
L 128.657253 -198.402198 
L 129.115687 -198.39482 
L 129.574121 -198.387928 
L 130.032555 -198.381035 
L 130.490988 -198.374143 
L 130.949422 -198.367251 
L 131.407856 -198.360359 
L 131.86629 -198.354642 
L 132.324724 -198.352321 
L 132.783158 -198.35 
L 133.241592 -198.347678 
L 133.700026 -198.345357 
L 134.15846 -198.343036 
L 134.616893 -198.340714 
L 135.075327 -198.338393 
L 135.533761 -198.336072 
L 135.992195 -198.33375 
L 136.450629 -198.331429 
L 136.909063 -198.329108 
L 137.367497 -198.326786 
L 137.825931 -198.324465 
L 138.284365 -198.323387 
L 138.742798 -198.330723 
L 139.201232 -198.33806 
L 139.659666 -198.345397 
L 140.1181 -198.352733 
L 140.576534 -198.36007 
L 141.034968 -198.367407 
L 141.493402 -198.374743 
L 141.951836 -198.38208 
L 142.41027 -198.389417 
L 142.868703 -198.396754 
L 143.327137 -198.40409 
L 143.785571 -198.411427 
L 144.244005 -198.418764 
L 144.702439 -198.4261 
L 145.160873 -198.433437 
L 145.619307 -198.440774 
L 146.077741 -198.44811 
L 146.536175 -198.455447 
L 146.994608 -198.462784 
L 147.453042 -198.47012 
L 147.911476 -198.477457 
L 148.36991 -198.484794 
L 148.828344 -198.49213 
L 149.286778 -198.502955 
L 149.745212 -198.522424 
L 150.203646 -198.541894 
L 150.66208 -198.561364 
L 151.120513 -198.580834 
L 151.578947 -198.600303 
L 152.037381 -198.619773 
L 152.495815 -198.639243 
L 152.954249 -198.658713 
L 153.412683 -198.678183 
L 153.871117 -198.697652 
L 154.329551 -198.717122 
L 154.787985 -198.736592 
L 155.246418 -198.752979 
L 155.704852 -198.766945 
L 156.163286 -198.780911 
L 156.62172 -198.794877 
L 157.080154 -198.808843 
L 157.538588 -198.822809 
L 157.997022 -198.836775 
L 158.455456 -198.85074 
L 158.91389 -198.864706 
L 159.372323 -198.878672 
L 159.830757 -198.892638 
L 160.289191 -198.906604 
L 160.747625 -198.91975 
L 161.206059 -198.910719 
L 161.664493 -198.901689 
L 162.122927 -198.892658 
L 162.581361 -198.883628 
L 163.039795 -198.874597 
L 163.498228 -198.865567 
L 163.956662 -198.856536 
L 164.415096 -198.847506 
L 164.87353 -198.838475 
L 165.331964 -198.829445 
L 165.790398 -198.820414 
L 166.248832 -198.811384 
L 166.707266 -198.827389 
L 167.1657 -198.845286 
L 167.624134 -198.863183 
L 168.082567 -198.881079 
L 168.541001 -198.898976 
L 168.999435 -198.916873 
L 169.457869 -198.93477 
L 169.916303 -198.952667 
L 170.374737 -198.970563 
L 170.833171 -198.98846 
L 171.291605 -199.006357 
L 171.750039 -199.024254 
L 172.208472 -199.04215 
L 172.666906 -199.060047 
L 173.12534 -199.079893 
L 173.583774 -199.105027 
L 174.042208 -199.130161 
L 174.500642 -199.155294 
L 174.959076 -199.180428 
L 175.41751 -199.205562 
L 175.875944 -199.230695 
L 176.334377 -199.255829 
L 176.792811 -199.280963 
L 177.251245 -199.306096 
L 177.709679 -199.33123 
L 178.168113 -199.356364 
L 178.626547 -199.381497 
L 179.084981 -199.406631 
L 179.543415 -199.431765 
L 180.001849 -199.457036 
L 180.460282 -199.482457 
L 180.918716 -199.507878 
L 181.37715 -199.533299 
L 181.835584 -199.55872 
L 182.294018 -199.58414 
L 182.752452 -199.609561 
L 183.210886 -199.634982 
L 183.66932 -199.660403 
L 184.127754 -199.685824 
L 184.586187 -199.706205 
L 185.044621 -199.699999 
L 185.503055 -199.693794 
L 185.961489 -199.687588 
L 186.419923 -199.681383 
L 186.878357 -199.675177 
L 187.336791 -199.642585 
L 187.795225 -199.606198 
L 188.253659 -199.56981 
L 188.712092 -199.525916 
L 189.170526 -199.46162 
L 189.62896 -199.397324 
L 190.087394 -199.353495 
L 190.545828 -199.343279 
L 191.004262 -199.333062 
L 191.462696 -199.322846 
L 191.92113 -199.31263 
L 192.379564 -199.302413 
L 192.837997 -199.292197 
L 193.296431 -199.28198 
L 193.754865 -199.271764 
L 194.213299 -199.261548 
L 194.671733 -199.251331 
L 195.130167 -199.241115 
L 195.588601 -199.230898 
L 196.047035 -199.241708 
L 196.505469 -199.270601 
L 196.963902 -199.299494 
L 197.422336 -199.328386 
L 197.88077 -199.234428 
L 198.339204 -199.100365 
L 198.797638 -198.993027 
L 199.256072 -198.915752 
L 199.714506 -198.838477 
L 200.17294 -198.761202 
L 200.631374 -198.683927 
L 201.089807 -198.606652 
L 201.548241 -198.576816 
L 202.006675 -198.554773 
L 202.465109 -198.53273 
L 202.923543 -198.510688 
L 203.381977 -198.488645 
L 203.840411 -198.466602 
L 204.298845 -198.444559 
L 204.757279 -198.422517 
L 205.215712 -198.400474 
L 205.674146 -198.378431 
L 206.13258 -198.356388 
L 206.591014 -198.334346 
L 207.049448 -198.312303 
L 207.507882 -198.29026 
L 207.966316 -198.301658 
L 208.42475 -198.314015 
L 208.883184 -198.326372 
L 209.341617 -198.338729 
L 209.800051 -198.351086 
L 210.258485 -198.363442 
L 210.716919 -198.375799 
L 211.175353 -198.387879 
L 211.633787 -198.371785 
L 212.092221 -198.35569 
L 212.550655 -198.339595 
L 213.009089 -198.323501 
L 213.467522 -198.307406 
L 213.925956 -198.290221 
L 214.38439 -198.272232 
L 214.842824 -198.254243 
L 215.301258 -198.236254 
L 215.759692 -198.218265 
L 216.218126 -198.200276 
L 216.67656 -198.182287 
L 217.134994 -198.170225 
L 217.593427 -198.160849 
L 218.051861 -198.151472 
L 218.510295 -198.142095 
L 218.968729 -198.132718 
L 219.427163 -198.123341 
L 219.885597 -198.113964 
L 220.344031 -198.104587 
L 220.802465 -198.095211 
L 221.260899 -198.086554 
L 221.719332 -198.079169 
L 222.177766 -198.071785 
L 222.6362 -198.064401 
L 223.094634 -198.057017 
L 223.553068 -198.095776 
L 224.011502 -198.138559 
L 224.469936 -198.181342 
L 224.92837 -198.224125 
L 225.386804 -198.266908 
L 225.845237 -198.290474 
L 226.303671 -198.30951 
L 226.762105 -198.328546 
L 227.220539 -198.347582 
L 227.678973 -198.366618 
L 228.137407 -198.385654 
L 228.595841 -198.40469 
L 229.054275 -198.423727 
L 229.512709 -198.442763 
L 229.971142 -198.461799 
L 230.429576 -198.480835 
L 230.88801 -198.499871 
L 231.346444 -198.518907 
L 231.804878 -198.537943 
L 232.263312 -198.556979 
L 232.721746 -198.576015 
L 233.18018 -198.588583 
L 233.638614 -198.595589 
L 234.097047 -198.602595 
L 234.555481 -198.609602 
L 235.013915 -198.616608 
L 235.472349 -198.623614 
L 235.930783 -198.63062 
L 236.389217 -198.637626 
L 236.847651 -198.644632 
L 237.306085 -198.651638 
L 237.764519 -198.658645 
L 238.222953 -198.665651 
L 238.681386 -198.672657 
L 239.13982 -198.679663 
L 239.598254 -198.686669 
L 240.056688 -198.693675 
L 240.515122 -198.700681 
L 240.973556 -198.707688 
L 241.43199 -198.714694 
L 241.890424 -198.7217 
L 242.348858 -198.728706 
L 242.807291 -198.735712 
L 243.265725 -198.742718 
L 243.724159 -198.749725 
L 244.182593 -198.756731 
L 244.641027 -198.763737 
L 245.099461 -198.770743 
L 245.557895 -198.777749 
L 246.016329 -198.784755 
L 246.474763 -198.791761 
L 246.933196 -198.798768 
L 247.39163 -198.802994 
L 247.850064 -198.80158 
L 248.308498 -198.800165 
L 248.766932 -198.79875 
L 249.225366 -198.797335 
L 249.6838 -198.79592 
L 250.142234 -198.794506 
L 250.600668 -198.793091 
L 251.059101 -198.791676 
L 251.517535 -198.790261 
L 251.975969 -198.788847 
L 252.434403 -198.787432 
L 252.892837 -198.786017 
L 253.351271 -198.784602 
L 253.809705 -198.783188 
L 254.268139 -198.781773 
L 254.726573 -198.780358 
L 255.185006 -198.778943 
L 255.64344 -198.777529 
L 256.101874 -198.776114 
L 256.560308 -198.774699 
L 257.018742 -198.773284 
L 257.477176 -198.77187 
L 257.93561 -198.769126 
L 258.394044 -198.758742 
L 258.852478 -198.748358 
L 259.310911 -198.737975 
L 259.769345 -198.727591 
L 260.227779 -198.717208 
L 260.686213 -198.706824 
L 261.144647 -198.69644 
L 261.603081 -198.686057 
L 262.061515 -198.668586 
L 262.519949 -198.648435 
L 262.978383 -198.628283 
L 263.436816 -198.608132 
L 263.89525 -198.58798 
L 264.353684 -198.567828 
L 264.812118 -198.556669 
L 265.270552 -198.552096 
L 265.728986 -198.547524 
L 266.18742 -198.542951 
L 266.645854 -198.538379 
L 267.104288 -198.533807 
L 267.562721 -198.529234 
L 268.021155 -198.524662 
L 268.479589 -198.520089 
L 268.938023 -198.515517 
L 269.396457 -198.510944 
L 269.854891 -198.506372 
L 270.313325 -198.5018 
L 270.771759 -198.497227 
L 271.230193 -198.492655 
L 271.688626 -198.488082 
L 272.14706 -198.48351 
L 272.605494 -198.478937 
L 273.063928 -198.474365 
L 273.522362 -198.474214 
L 273.980796 -198.479468 
L 274.43923 -198.484722 
L 274.897664 -198.489976 
L 275.356098 -198.49523 
L 275.814531 -198.500485 
L 276.272965 -198.505739 
L 276.731399 -198.510993 
L 277.189833 -198.516247 
L 277.648267 -198.521501 
L 278.106701 -198.526756 
L 278.565135 -198.53201 
L 279.023569 -198.537264 
L 279.482003 -198.542518 
L 279.940436 -198.547772 
L 280.39887 -198.553027 
L 280.857304 -198.558281 
L 281.315738 -198.563535 
L 281.774172 -198.568789 
L 282.232606 -198.574043 
L 282.69104 -198.579298 
L 283.149474 -198.565548 
L 283.607908 -198.541258 
L 284.066341 -198.516968 
L 284.524775 -198.492678 
L 284.983209 -198.468387 
L 285.441643 -198.444097 
L 285.900077 -198.419807 
L 286.358511 -198.395517 
L 286.816945 -198.371227 
L 287.275379 -198.346936 
L 287.733813 -198.322646 
L 288.192246 -198.298356 
L 288.65068 -198.274066 
L 289.109114 -198.249775 
L 289.567548 -198.208634 
L 290.025982 -198.114438 
L 290.484416 -198.020242 
L 290.94285 -197.926045 
L 291.401284 -197.831849 
L 291.859718 -197.737653 
L 292.318151 -197.703041 
L 292.776585 -197.669661 
L 293.235019 -197.63628 
L 293.693453 -197.6029 
L 294.151887 -197.56952 
L 294.610321 -197.53614 
L 295.068755 -197.50276 
L 295.527189 -197.469379 
L 295.985623 -197.435999 
L 296.444056 -197.402619 
L 296.90249 -197.394347 
L 297.360924 -197.411228 
L 297.819358 -197.428109 
L 298.277792 -197.444991 
L 298.736226 -197.461872 
L 299.19466 -197.478754 
L 299.653094 -197.495635 
L 300.111528 -197.512517 
L 300.569961 -197.529398 
L 301.028395 -197.54628 
L 301.486829 -197.563161 
L 301.945263 -197.580043 
L 302.403697 -197.596924 
L 302.862131 -197.613806 
L 303.320565 -197.571963 
L 303.778999 -197.523609 
L 304.237433 -197.475255 
L 304.695866 -197.426901 
L 305.1543 -197.378547 
L 305.612734 -197.330194 
L 306.071168 -197.28184 
L 306.529602 -197.233486 
L 306.988036 -197.185132 
L 307.44647 -197.136778 
L 307.904904 -197.088425 
L 308.363338 -196.945051 
L 308.821772 -196.24102 
L 309.280205 -196.172126 
L 309.738639 -196.103232 
L 310.197073 -196.034338 
L 310.655507 -195.965444 
L 311.113941 -195.896551 
L 311.572375 -195.827657 
L 312.030809 -195.758763 
L 312.489243 -195.689869 
L 312.947677 -195.687617 
L 313.40611 -195.706643 
L 313.864544 -195.725669 
L 314.322978 -195.744695 
L 314.781412 -195.763722 
L 315.239846 -195.782748 
L 315.69828 -195.801774 
L 316.156714 -195.8208 
L 316.615148 -195.839827 
L 317.073582 -195.858853 
L 317.532015 -195.877879 
L 317.990449 -195.896905 
L 318.448883 -195.915932 
L 318.907317 -195.90444 
L 319.365751 -195.867209 
L 319.824185 -195.829978 
L 320.282619 -195.792746 
L 320.741053 -195.755515 
L 321.199487 -195.718284 
L 321.65792 -195.681053 
L 322.116354 -195.643822 
L 322.574788 -195.60659 
L 323.033222 -195.569359 
L 323.491656 -195.532128 
L 323.95009 -195.494897 
L 324.408524 -195.45148 
L 324.866958 -195.406489 
L 325.325392 -195.361498 
L 325.783825 -195.316507 
L 326.242259 -195.271517 
L 326.700693 -195.226526 
L 327.159127 -195.181535 
L 327.617561 -195.136544 
L 328.075995 -195.091554 
L 328.534429 -195.046563 
L 328.992863 -195.001572 
L 329.451297 -194.956581 
L 329.90973 -194.911591 
L 330.368164 -194.866512 
L 330.826598 -194.818374 
L 331.285032 -194.770236 
L 331.743466 -194.722098 
L 332.2019 -194.67396 
L 332.660334 -194.625821 
L 333.118768 -194.577683 
L 333.577202 -194.529545 
L 334.035635 -194.481407 
L 334.494069 -194.433268 
L 334.952503 -194.448157 
L 335.410937 -194.466797 
L 335.869371 -194.485438 
L 336.327805 -194.504079 
L 336.786239 -194.52272 
L 337.244673 -194.541361 
L 337.703107 -194.560002 
L 338.16154 -194.578643 
L 338.619974 -194.597284 
L 339.078408 -194.615924 
L 339.536842 -194.634565 
L 339.995276 -194.653206 
L 340.45371 -194.671847 
L 340.912144 -194.662573 
L 341.370578 -194.619873 
L 341.829012 -194.577172 
L 342.287445 -194.534472 
L 342.745879 -194.491772 
L 343.204313 -194.449071 
L 343.662747 -194.406371 
L 344.121181 -194.363671 
L 344.579615 -194.32097 
L 345.038049 -194.27827 
L 345.496483 -194.23557 
L 345.954917 -194.192869 
L 346.41335 -194.150169 
L 346.871784 -194.102942 
L 347.330218 -194.028342 
L 347.788652 -193.953743 
L 348.247086 -193.879143 
L 348.70552 -193.804544 
L 349.163954 -193.729944 
L 349.622388 -193.655344 
L 350.080822 -193.580745 
L 350.539255 -193.506145 
L 350.997689 -193.431546 
L 351.456123 -193.356946 
L 351.914557 -193.296778 
L 352.372991 -193.263842 
L 352.831425 -193.230905 
L 353.289859 -193.197969 
L 353.748293 -193.165033 
L 354.206727 -193.132097 
L 354.66516 -193.099161 
L 355.123594 -193.066225 
L 355.582028 -193.033289 
L 356.040462 -193.000353 
L 356.498896 -192.967416 
L 356.95733 -192.93448 
L 357.415764 -192.901544 
L 357.874198 -192.868608 
L 358.332632 -192.835672 
L 358.791065 -192.802736 
L 359.249499 -192.7698 
L 359.707933 -192.740874 
L 360.166367 -192.754354 
L 360.624801 -192.767834 
L 361.083235 -192.781314 
L 361.541669 -192.794795 
L 362.000103 -192.808275 
L 362.458537 -192.821755 
L 362.91697 -192.835235 
L 363.375404 -192.848715 
L 363.833838 -192.862195 
L 364.292272 -192.875675 
L 364.750706 -192.889155 
L 365.20914 -192.902636 
L 365.667574 -192.898182 
L 366.126008 -192.892201 
L 366.584442 -192.886221 
L 367.042875 -192.880241 
L 367.501309 -192.87426 
L 367.959743 -192.86828 
L 368.418177 -192.862299 
L 368.876611 -192.856319 
L 369.335045 -192.850338 
L 369.793479 -192.844358 
L 370.251913 -192.838378 
L 370.710347 -192.832397 
L 371.16878 -192.826417 
L 371.627214 -192.820436 
L 372.085648 -192.814058 
L 372.544082 -192.80674 
L 373.002516 -192.799423 
L 373.46095 -192.792105 
L 373.919384 -192.784787 
L 374.377818 -192.77747 
L 374.836252 -192.770152 
L 375.294685 -192.762834 
L 375.753119 -192.755517 
L 376.211553 -192.748199 
L 376.669987 -192.740881 
L 377.128421 -192.733564 
L 377.586855 -192.726246 
L 378.045289 -192.718928 
L 378.503723 -192.711611 
L 378.962157 -192.704293 
L 379.420591 -192.696975 
L 379.879024 -192.688741 
L 380.337458 -192.67892 
L 380.795892 -192.669099 
L 381.254326 -192.659278 
L 381.71276 -192.649457 
L 382.171194 -192.639636 
L 382.629628 -192.629814 
L 383.088062 -192.619993 
L 383.546496 -192.610172 
L 384.004929 -192.605252 
L 384.463363 -192.606064 
L 384.921797 -192.606875 
L 385.380231 -192.607687 
L 385.838665 -192.608498 
L 386.297099 -192.609309 
L 386.755533 -192.610121 
L 387.213967 -192.610932 
L 387.672401 -192.611744 
L 388.130834 -192.612555 
L 388.589268 -192.613367 
L 389.047702 -192.614178 
L 389.506136 -192.614989 
L 389.96457 -192.615801 
L 390.423004 -192.618756 
L 390.881438 -192.621738 
L 391.339872 -192.62472 
L 391.798306 -192.627702 
L 392.256739 -192.630683 
L 392.715173 -192.633665 
L 393.173607 -192.636647 
L 393.632041 -192.639629 
L 394.090475 -192.64261 
L 394.548909 -192.645592 
L 395.007343 -192.648574 
L 395.465777 -192.651556 
L 395.924211 -192.654537 
L 396.382644 -192.657519 
L 396.841078 -192.66176 
L 397.299512 -192.668646 
L 397.757946 -192.675532 
L 398.21638 -192.682419 
L 398.674814 -192.689305 
L 399.133248 -192.696191 
L 399.591682 -192.703078 
L 400.050116 -192.709964 
L 400.508549 -192.71685 
L 400.966983 -192.723083 
L 401.425417 -192.727968 
L 401.883851 -192.732853 
L 402.342285 -192.737738 
L 402.800719 -192.742622 
L 403.259153 -192.747507 
L 403.717587 -192.752392 
L 404.176021 -192.757277 
L 404.634454 -192.762162 
L 405.092888 -192.766758 
L 405.551322 -192.770872 
L 406.009756 -192.774986 
L 406.46819 -192.7791 
L 406.926624 -192.783214 
L 407.385058 -192.787328 
L 407.843492 -192.791442 
L 408.301926 -192.795556 
L 408.760359 -192.786888 
L 409.218793 -192.759227 
L 409.677227 -192.731566 
L 410.135661 -192.703905 
L 410.594095 -192.676244 
L 411.052529 -192.648583 
L 411.510963 -192.618912 
L 411.969397 -192.565701 
L 412.427831 -192.51249 
L 412.886264 -192.459278 
L 413.344698 -192.395003 
L 413.803132 -192.320413 
L 414.261566 -192.245823 
L 414.72 -192.171233 
L 414.72 -62.660571 
L 414.72 -62.660571 
L 414.261566 -62.660571 
L 413.803132 -62.660571 
L 413.344698 -62.660571 
L 412.886264 -62.660571 
L 412.427831 -62.660571 
L 411.969397 -62.660571 
L 411.510963 -62.660571 
L 411.052529 -62.660571 
L 410.594095 -62.660571 
L 410.135661 -62.660571 
L 409.677227 -62.660571 
L 409.218793 -62.660571 
L 408.760359 -62.660571 
L 408.301926 -62.660571 
L 407.843492 -62.660571 
L 407.385058 -62.660571 
L 406.926624 -62.660571 
L 406.46819 -62.660571 
L 406.009756 -62.660571 
L 405.551322 -62.660571 
L 405.092888 -62.660571 
L 404.634454 -62.660571 
L 404.176021 -62.660571 
L 403.717587 -62.660571 
L 403.259153 -62.660571 
L 402.800719 -62.660571 
L 402.342285 -62.660571 
L 401.883851 -62.660571 
L 401.425417 -62.660571 
L 400.966983 -62.660571 
L 400.508549 -62.660571 
L 400.050116 -62.660571 
L 399.591682 -62.660571 
L 399.133248 -62.660571 
L 398.674814 -62.660571 
L 398.21638 -62.660571 
L 397.757946 -62.660571 
L 397.299512 -62.660571 
L 396.841078 -62.660571 
L 396.382644 -62.660571 
L 395.924211 -62.660571 
L 395.465777 -62.660571 
L 395.007343 -62.660571 
L 394.548909 -62.660571 
L 394.090475 -62.660571 
L 393.632041 -62.660571 
L 393.173607 -62.660571 
L 392.715173 -62.660571 
L 392.256739 -62.660571 
L 391.798306 -62.660571 
L 391.339872 -62.660571 
L 390.881438 -62.660571 
L 390.423004 -62.660571 
L 389.96457 -62.660571 
L 389.506136 -62.660571 
L 389.047702 -62.660571 
L 388.589268 -62.660571 
L 388.130834 -62.660571 
L 387.672401 -62.660571 
L 387.213967 -62.660571 
L 386.755533 -62.660571 
L 386.297099 -62.660571 
L 385.838665 -62.660571 
L 385.380231 -62.660571 
L 384.921797 -62.660571 
L 384.463363 -62.660571 
L 384.004929 -62.660571 
L 383.546496 -62.660571 
L 383.088062 -62.660571 
L 382.629628 -62.660571 
L 382.171194 -62.660571 
L 381.71276 -62.660571 
L 381.254326 -62.660571 
L 380.795892 -62.660571 
L 380.337458 -62.660571 
L 379.879024 -62.660571 
L 379.420591 -62.660571 
L 378.962157 -62.660571 
L 378.503723 -62.660571 
L 378.045289 -62.660571 
L 377.586855 -62.660571 
L 377.128421 -62.660571 
L 376.669987 -62.660571 
L 376.211553 -62.660571 
L 375.753119 -62.660571 
L 375.294685 -62.660571 
L 374.836252 -62.660571 
L 374.377818 -62.660571 
L 373.919384 -62.660571 
L 373.46095 -62.660571 
L 373.002516 -62.660571 
L 372.544082 -62.660571 
L 372.085648 -62.660571 
L 371.627214 -62.660571 
L 371.16878 -62.660571 
L 370.710347 -62.660571 
L 370.251913 -62.660571 
L 369.793479 -62.660571 
L 369.335045 -62.660571 
L 368.876611 -62.660571 
L 368.418177 -62.660571 
L 367.959743 -62.660571 
L 367.501309 -62.660571 
L 367.042875 -62.660571 
L 366.584442 -62.660571 
L 366.126008 -62.660571 
L 365.667574 -62.660571 
L 365.20914 -62.660571 
L 364.750706 -62.660571 
L 364.292272 -62.660571 
L 363.833838 -62.660571 
L 363.375404 -62.660571 
L 362.91697 -62.660571 
L 362.458537 -62.660571 
L 362.000103 -62.660571 
L 361.541669 -62.660571 
L 361.083235 -62.660571 
L 360.624801 -62.660571 
L 360.166367 -62.660571 
L 359.707933 -62.660571 
L 359.249499 -62.660571 
L 358.791065 -62.660571 
L 358.332632 -62.660571 
L 357.874198 -62.660571 
L 357.415764 -62.660571 
L 356.95733 -62.660571 
L 356.498896 -62.660571 
L 356.040462 -62.660571 
L 355.582028 -62.660571 
L 355.123594 -62.660571 
L 354.66516 -62.660571 
L 354.206727 -62.660571 
L 353.748293 -62.660571 
L 353.289859 -62.660571 
L 352.831425 -62.660571 
L 352.372991 -62.660571 
L 351.914557 -62.660571 
L 351.456123 -62.660571 
L 350.997689 -62.660571 
L 350.539255 -62.660571 
L 350.080822 -62.660571 
L 349.622388 -62.660571 
L 349.163954 -62.660571 
L 348.70552 -62.660571 
L 348.247086 -62.660571 
L 347.788652 -62.660571 
L 347.330218 -62.660571 
L 346.871784 -62.660571 
L 346.41335 -62.660571 
L 345.954917 -62.660571 
L 345.496483 -62.660571 
L 345.038049 -62.660571 
L 344.579615 -62.660571 
L 344.121181 -62.660571 
L 343.662747 -62.660571 
L 343.204313 -62.660571 
L 342.745879 -62.660571 
L 342.287445 -62.660571 
L 341.829012 -62.660571 
L 341.370578 -62.660571 
L 340.912144 -62.660571 
L 340.45371 -62.660571 
L 339.995276 -62.660571 
L 339.536842 -62.660571 
L 339.078408 -62.660571 
L 338.619974 -62.660571 
L 338.16154 -62.660571 
L 337.703107 -62.660571 
L 337.244673 -62.660571 
L 336.786239 -62.660571 
L 336.327805 -62.660571 
L 335.869371 -62.660571 
L 335.410937 -62.660571 
L 334.952503 -62.660571 
L 334.494069 -62.660571 
L 334.035635 -62.660571 
L 333.577202 -62.660571 
L 333.118768 -62.660571 
L 332.660334 -62.660571 
L 332.2019 -62.660571 
L 331.743466 -62.660571 
L 331.285032 -62.660571 
L 330.826598 -62.660571 
L 330.368164 -62.660571 
L 329.90973 -62.660571 
L 329.451297 -62.660571 
L 328.992863 -62.660571 
L 328.534429 -62.660571 
L 328.075995 -62.660571 
L 327.617561 -62.660571 
L 327.159127 -62.660571 
L 326.700693 -62.660571 
L 326.242259 -62.660571 
L 325.783825 -62.660571 
L 325.325392 -62.660571 
L 324.866958 -62.660571 
L 324.408524 -62.660571 
L 323.95009 -62.660571 
L 323.491656 -62.660571 
L 323.033222 -62.660571 
L 322.574788 -62.660571 
L 322.116354 -62.660571 
L 321.65792 -62.660571 
L 321.199487 -62.660571 
L 320.741053 -62.660571 
L 320.282619 -62.660571 
L 319.824185 -62.660571 
L 319.365751 -62.660571 
L 318.907317 -62.660571 
L 318.448883 -62.660571 
L 317.990449 -62.660571 
L 317.532015 -62.660571 
L 317.073582 -62.660571 
L 316.615148 -62.660571 
L 316.156714 -62.660571 
L 315.69828 -62.660571 
L 315.239846 -62.660571 
L 314.781412 -62.660571 
L 314.322978 -62.660571 
L 313.864544 -62.660571 
L 313.40611 -62.660571 
L 312.947677 -62.660571 
L 312.489243 -62.660571 
L 312.030809 -62.660571 
L 311.572375 -62.660571 
L 311.113941 -62.660571 
L 310.655507 -62.660571 
L 310.197073 -62.660571 
L 309.738639 -62.660571 
L 309.280205 -62.660571 
L 308.821772 -62.660571 
L 308.363338 -62.660571 
L 307.904904 -62.660571 
L 307.44647 -62.660571 
L 306.988036 -62.660571 
L 306.529602 -62.660571 
L 306.071168 -62.660571 
L 305.612734 -62.660571 
L 305.1543 -62.660571 
L 304.695866 -62.660571 
L 304.237433 -62.660571 
L 303.778999 -62.660571 
L 303.320565 -62.660571 
L 302.862131 -62.660571 
L 302.403697 -62.660571 
L 301.945263 -62.660571 
L 301.486829 -62.660571 
L 301.028395 -62.660571 
L 300.569961 -62.660571 
L 300.111528 -62.660571 
L 299.653094 -62.660571 
L 299.19466 -62.660571 
L 298.736226 -62.660571 
L 298.277792 -62.660571 
L 297.819358 -62.660571 
L 297.360924 -62.660571 
L 296.90249 -62.660571 
L 296.444056 -62.660571 
L 295.985623 -62.660571 
L 295.527189 -62.660571 
L 295.068755 -62.660571 
L 294.610321 -62.660571 
L 294.151887 -62.660571 
L 293.693453 -62.660571 
L 293.235019 -62.660571 
L 292.776585 -62.660571 
L 292.318151 -62.660571 
L 291.859718 -62.660571 
L 291.401284 -62.660571 
L 290.94285 -62.660571 
L 290.484416 -62.660571 
L 290.025982 -62.660571 
L 289.567548 -62.660571 
L 289.109114 -62.660571 
L 288.65068 -62.660571 
L 288.192246 -62.660571 
L 287.733813 -62.660571 
L 287.275379 -62.660571 
L 286.816945 -62.660571 
L 286.358511 -62.660571 
L 285.900077 -62.660571 
L 285.441643 -62.660571 
L 284.983209 -62.660571 
L 284.524775 -62.660571 
L 284.066341 -62.660571 
L 283.607908 -62.660571 
L 283.149474 -62.660571 
L 282.69104 -62.660571 
L 282.232606 -62.660571 
L 281.774172 -62.660571 
L 281.315738 -62.660571 
L 280.857304 -62.660571 
L 280.39887 -62.660571 
L 279.940436 -62.660571 
L 279.482003 -62.660571 
L 279.023569 -62.660571 
L 278.565135 -62.660571 
L 278.106701 -62.660571 
L 277.648267 -62.660571 
L 277.189833 -62.660571 
L 276.731399 -62.660571 
L 276.272965 -62.660571 
L 275.814531 -62.660571 
L 275.356098 -62.660571 
L 274.897664 -62.660571 
L 274.43923 -62.660571 
L 273.980796 -62.660571 
L 273.522362 -62.660571 
L 273.063928 -62.660571 
L 272.605494 -62.660571 
L 272.14706 -62.660571 
L 271.688626 -62.660571 
L 271.230193 -62.660571 
L 270.771759 -62.660571 
L 270.313325 -62.660571 
L 269.854891 -62.660571 
L 269.396457 -62.660571 
L 268.938023 -62.660571 
L 268.479589 -62.660571 
L 268.021155 -62.660571 
L 267.562721 -62.660571 
L 267.104288 -62.660571 
L 266.645854 -62.660571 
L 266.18742 -62.660571 
L 265.728986 -62.660571 
L 265.270552 -62.660571 
L 264.812118 -62.660571 
L 264.353684 -62.660571 
L 263.89525 -62.660571 
L 263.436816 -62.660571 
L 262.978383 -62.660571 
L 262.519949 -62.660571 
L 262.061515 -62.660571 
L 261.603081 -62.660571 
L 261.144647 -62.660571 
L 260.686213 -62.660571 
L 260.227779 -62.660571 
L 259.769345 -62.660571 
L 259.310911 -62.660571 
L 258.852478 -62.660571 
L 258.394044 -62.660571 
L 257.93561 -62.660571 
L 257.477176 -62.660571 
L 257.018742 -62.660571 
L 256.560308 -62.660571 
L 256.101874 -62.660571 
L 255.64344 -62.660571 
L 255.185006 -62.660571 
L 254.726573 -62.660571 
L 254.268139 -62.660571 
L 253.809705 -62.660571 
L 253.351271 -62.660571 
L 252.892837 -62.660571 
L 252.434403 -62.660571 
L 251.975969 -62.660571 
L 251.517535 -62.660571 
L 251.059101 -62.660571 
L 250.600668 -62.660571 
L 250.142234 -62.660571 
L 249.6838 -62.660571 
L 249.225366 -62.660571 
L 248.766932 -62.660571 
L 248.308498 -62.660571 
L 247.850064 -62.660571 
L 247.39163 -62.660571 
L 246.933196 -62.660571 
L 246.474763 -62.660571 
L 246.016329 -62.660571 
L 245.557895 -62.660571 
L 245.099461 -62.660571 
L 244.641027 -62.660571 
L 244.182593 -62.660571 
L 243.724159 -62.660571 
L 243.265725 -62.660571 
L 242.807291 -62.660571 
L 242.348858 -62.660571 
L 241.890424 -62.660571 
L 241.43199 -62.660571 
L 240.973556 -62.660571 
L 240.515122 -62.660571 
L 240.056688 -62.660571 
L 239.598254 -62.660571 
L 239.13982 -62.660571 
L 238.681386 -62.660571 
L 238.222953 -62.660571 
L 237.764519 -62.660571 
L 237.306085 -62.660571 
L 236.847651 -62.660571 
L 236.389217 -62.660571 
L 235.930783 -62.660571 
L 235.472349 -62.660571 
L 235.013915 -62.660571 
L 234.555481 -62.660571 
L 234.097047 -62.660571 
L 233.638614 -62.660571 
L 233.18018 -62.660571 
L 232.721746 -62.660571 
L 232.263312 -62.660571 
L 231.804878 -62.660571 
L 231.346444 -62.660571 
L 230.88801 -62.660571 
L 230.429576 -62.660571 
L 229.971142 -62.660571 
L 229.512709 -62.660571 
L 229.054275 -62.660571 
L 228.595841 -62.660571 
L 228.137407 -62.660571 
L 227.678973 -62.660571 
L 227.220539 -62.660571 
L 226.762105 -62.660571 
L 226.303671 -62.660571 
L 225.845237 -62.660571 
L 225.386804 -62.660571 
L 224.92837 -62.660571 
L 224.469936 -62.660571 
L 224.011502 -62.660571 
L 223.553068 -62.660571 
L 223.094634 -62.660571 
L 222.6362 -62.660571 
L 222.177766 -62.660571 
L 221.719332 -62.660571 
L 221.260899 -62.660571 
L 220.802465 -62.660571 
L 220.344031 -62.660571 
L 219.885597 -62.660571 
L 219.427163 -62.660571 
L 218.968729 -62.660571 
L 218.510295 -62.660571 
L 218.051861 -62.660571 
L 217.593427 -62.660571 
L 217.134994 -62.660571 
L 216.67656 -62.660571 
L 216.218126 -62.660571 
L 215.759692 -62.660571 
L 215.301258 -62.660571 
L 214.842824 -62.660571 
L 214.38439 -62.660571 
L 213.925956 -62.660571 
L 213.467522 -62.660571 
L 213.009089 -62.660571 
L 212.550655 -62.660571 
L 212.092221 -62.660571 
L 211.633787 -62.660571 
L 211.175353 -62.660571 
L 210.716919 -62.660571 
L 210.258485 -62.660571 
L 209.800051 -62.660571 
L 209.341617 -62.660571 
L 208.883184 -62.660571 
L 208.42475 -62.660571 
L 207.966316 -62.660571 
L 207.507882 -62.660571 
L 207.049448 -62.660571 
L 206.591014 -62.660571 
L 206.13258 -62.660571 
L 205.674146 -62.660571 
L 205.215712 -62.660571 
L 204.757279 -62.660571 
L 204.298845 -62.660571 
L 203.840411 -62.660571 
L 203.381977 -62.660571 
L 202.923543 -62.660571 
L 202.465109 -62.660571 
L 202.006675 -62.660571 
L 201.548241 -62.660571 
L 201.089807 -62.660571 
L 200.631374 -62.660571 
L 200.17294 -62.660571 
L 199.714506 -62.660571 
L 199.256072 -62.660571 
L 198.797638 -62.660571 
L 198.339204 -62.660571 
L 197.88077 -62.660571 
L 197.422336 -62.660571 
L 196.963902 -62.660571 
L 196.505469 -62.660571 
L 196.047035 -62.660571 
L 195.588601 -62.660571 
L 195.130167 -62.660571 
L 194.671733 -62.660571 
L 194.213299 -62.660571 
L 193.754865 -62.660571 
L 193.296431 -62.660571 
L 192.837997 -62.660571 
L 192.379564 -62.660571 
L 191.92113 -62.660571 
L 191.462696 -62.660571 
L 191.004262 -62.660571 
L 190.545828 -62.660571 
L 190.087394 -62.660571 
L 189.62896 -62.660571 
L 189.170526 -62.660571 
L 188.712092 -62.660571 
L 188.253659 -62.660571 
L 187.795225 -62.660571 
L 187.336791 -62.660571 
L 186.878357 -62.660571 
L 186.419923 -62.660571 
L 185.961489 -62.660571 
L 185.503055 -62.660571 
L 185.044621 -62.660571 
L 184.586187 -62.660571 
L 184.127754 -62.660571 
L 183.66932 -62.660571 
L 183.210886 -62.660571 
L 182.752452 -62.660571 
L 182.294018 -62.660571 
L 181.835584 -62.660571 
L 181.37715 -62.660571 
L 180.918716 -62.660571 
L 180.460282 -62.660571 
L 180.001849 -62.660571 
L 179.543415 -62.660571 
L 179.084981 -62.660571 
L 178.626547 -62.660571 
L 178.168113 -62.660571 
L 177.709679 -62.660571 
L 177.251245 -62.660571 
L 176.792811 -62.660571 
L 176.334377 -62.660571 
L 175.875944 -62.660571 
L 175.41751 -62.660571 
L 174.959076 -62.660571 
L 174.500642 -62.660571 
L 174.042208 -62.660571 
L 173.583774 -62.660571 
L 173.12534 -62.660571 
L 172.666906 -62.660571 
L 172.208472 -62.660571 
L 171.750039 -62.660571 
L 171.291605 -62.660571 
L 170.833171 -62.660571 
L 170.374737 -62.660571 
L 169.916303 -62.660571 
L 169.457869 -62.660571 
L 168.999435 -62.660571 
L 168.541001 -62.660571 
L 168.082567 -62.660571 
L 167.624134 -62.660571 
L 167.1657 -62.660571 
L 166.707266 -62.660571 
L 166.248832 -62.660571 
L 165.790398 -62.660571 
L 165.331964 -62.660571 
L 164.87353 -62.660571 
L 164.415096 -62.660571 
L 163.956662 -62.660571 
L 163.498228 -62.660571 
L 163.039795 -62.660571 
L 162.581361 -62.660571 
L 162.122927 -62.660571 
L 161.664493 -62.660571 
L 161.206059 -62.660571 
L 160.747625 -62.660571 
L 160.289191 -62.660571 
L 159.830757 -62.660571 
L 159.372323 -62.660571 
L 158.91389 -62.660571 
L 158.455456 -62.660571 
L 157.997022 -62.660571 
L 157.538588 -62.660571 
L 157.080154 -62.660571 
L 156.62172 -62.660571 
L 156.163286 -62.660571 
L 155.704852 -62.660571 
L 155.246418 -62.660571 
L 154.787985 -62.660571 
L 154.329551 -62.660571 
L 153.871117 -62.660571 
L 153.412683 -62.660571 
L 152.954249 -62.660571 
L 152.495815 -62.660571 
L 152.037381 -62.660571 
L 151.578947 -62.660571 
L 151.120513 -62.660571 
L 150.66208 -62.660571 
L 150.203646 -62.660571 
L 149.745212 -62.660571 
L 149.286778 -62.660571 
L 148.828344 -62.660571 
L 148.36991 -62.660571 
L 147.911476 -62.660571 
L 147.453042 -62.660571 
L 146.994608 -62.660571 
L 146.536175 -62.660571 
L 146.077741 -62.660571 
L 145.619307 -62.660571 
L 145.160873 -62.660571 
L 144.702439 -62.660571 
L 144.244005 -62.660571 
L 143.785571 -62.660571 
L 143.327137 -62.660571 
L 142.868703 -62.660571 
L 142.41027 -62.660571 
L 141.951836 -62.660571 
L 141.493402 -62.660571 
L 141.034968 -62.660571 
L 140.576534 -62.660571 
L 140.1181 -62.660571 
L 139.659666 -62.660571 
L 139.201232 -62.660571 
L 138.742798 -62.660571 
L 138.284365 -62.660571 
L 137.825931 -62.660571 
L 137.367497 -62.660571 
L 136.909063 -62.660571 
L 136.450629 -62.660571 
L 135.992195 -62.660571 
L 135.533761 -62.660571 
L 135.075327 -62.660571 
L 134.616893 -62.660571 
L 134.15846 -62.660571 
L 133.700026 -62.660571 
L 133.241592 -62.660571 
L 132.783158 -62.660571 
L 132.324724 -62.660571 
L 131.86629 -62.660571 
L 131.407856 -62.660571 
L 130.949422 -62.660571 
L 130.490988 -62.660571 
L 130.032555 -62.660571 
L 129.574121 -62.660571 
L 129.115687 -62.660571 
L 128.657253 -62.660571 
L 128.198819 -62.660571 
L 127.740385 -62.660571 
L 127.281951 -62.660571 
L 126.823517 -62.660571 
L 126.365083 -62.660571 
L 125.90665 -62.660571 
L 125.448216 -62.660571 
L 124.989782 -62.660571 
L 124.531348 -62.660571 
L 124.072914 -62.660571 
L 123.61448 -62.660571 
L 123.156046 -62.660571 
L 122.697612 -62.660571 
L 122.239178 -62.660571 
L 121.780745 -62.660571 
L 121.322311 -62.660571 
L 120.863877 -62.660571 
L 120.405443 -62.660571 
L 119.947009 -62.660571 
L 119.488575 -62.660571 
L 119.030141 -62.660571 
L 118.571707 -62.660571 
L 118.113273 -62.660571 
L 117.65484 -62.660571 
L 117.196406 -62.660571 
L 116.737972 -62.660571 
L 116.279538 -62.660571 
L 115.821104 -62.660571 
L 115.36267 -62.660571 
L 114.904236 -62.660571 
L 114.445802 -62.660571 
L 113.987368 -62.660571 
L 113.528935 -62.660571 
L 113.070501 -62.660571 
L 112.612067 -62.660571 
L 112.153633 -62.660571 
L 111.695199 -62.660571 
L 111.236765 -62.660571 
L 110.778331 -62.660571 
L 110.319897 -62.660571 
L 109.861463 -62.660571 
L 109.40303 -62.660571 
L 108.944596 -62.660571 
L 108.486162 -62.660571 
L 108.027728 -62.660571 
L 107.569294 -62.660571 
L 107.11086 -62.660571 
L 106.652426 -62.660571 
L 106.193992 -62.660571 
L 105.735558 -62.660571 
L 105.277125 -62.660571 
L 104.818691 -62.660571 
L 104.360257 -62.660571 
L 103.901823 -62.660571 
L 103.443389 -62.660571 
L 102.984955 -62.660571 
L 102.526521 -62.660571 
L 102.068087 -62.660571 
L 101.609653 -62.660571 
L 101.15122 -62.660571 
L 100.692786 -62.660571 
L 100.234352 -62.660571 
L 99.775918 -62.660571 
L 99.317484 -62.660571 
L 98.85905 -62.660571 
L 98.400616 -62.660571 
L 97.942182 -62.660571 
L 97.483748 -62.660571 
L 97.025315 -62.660571 
L 96.566881 -62.660571 
L 96.108447 -62.660571 
L 95.650013 -62.660571 
L 95.191579 -62.660571 
L 94.733145 -62.660571 
L 94.274711 -62.660571 
L 93.816277 -62.660571 
L 93.357843 -62.660571 
L 92.899409 -62.660571 
L 92.440976 -62.660571 
L 91.982542 -62.660571 
L 91.524108 -62.660571 
L 91.065674 -62.660571 
L 90.60724 -62.660571 
L 90.148806 -62.660571 
L 89.690372 -62.660571 
L 89.231938 -62.660571 
L 88.773504 -62.660571 
L 88.315071 -62.660571 
L 87.856637 -62.660571 
L 87.398203 -62.660571 
L 86.939769 -62.660571 
L 86.481335 -62.660571 
L 86.022901 -62.660571 
L 85.564467 -62.660571 
L 85.106033 -62.660571 
L 84.647599 -62.660571 
L 84.189166 -62.660571 
L 83.730732 -62.660571 
L 83.272298 -62.660571 
L 82.813864 -62.660571 
L 82.35543 -62.660571 
L 81.896996 -62.660571 
L 81.438562 -62.660571 
L 80.980128 -62.660571 
L 80.521694 -62.660571 
L 80.063261 -62.660571 
L 79.604827 -62.660571 
L 79.146393 -62.660571 
L 78.687959 -62.660571 
L 78.229525 -62.660571 
L 77.771091 -62.660571 
L 77.312657 -62.660571 
L 76.854223 -62.660571 
L 76.395789 -62.660571 
L 75.937356 -62.660571 
L 75.478922 -62.660571 
L 75.020488 -62.660571 
L 74.562054 -62.660571 
L 74.10362 -62.660571 
L 73.645186 -62.660571 
L 73.186752 -62.660571 
L 72.728318 -62.660571 
L 72.269884 -62.660571 
L 71.811451 -62.660571 
L 71.353017 -62.660571 
L 70.894583 -62.660571 
L 70.436149 -62.660571 
L 69.977715 -62.660571 
L 69.519281 -62.660571 
L 69.060847 -62.660571 
L 68.602413 -62.660571 
L 68.143979 -62.660571 
L 67.685546 -62.660571 
L 67.227112 -62.660571 
L 66.768678 -62.660571 
L 66.310244 -62.660571 
L 65.85181 -62.660571 
L 65.393376 -62.660571 
L 64.934942 -62.660571 
L 64.476508 -62.660571 
L 64.018074 -62.660571 
L 63.559641 -62.660571 
L 63.101207 -62.660571 
L 62.642773 -62.660571 
L 62.184339 -62.660571 
L 61.725905 -62.660571 
L 61.267471 -62.660571 
L 60.809037 -62.660571 
L 60.350603 -62.660571 
L 59.892169 -62.660571 
L 59.433736 -62.660571 
L 58.975302 -62.660571 
L 58.516868 -62.660571 
L 58.058434 -62.660571 
L 57.6 -62.660571 
z
" style="stroke: #d4edfc; stroke-opacity: 0.9"/>
    </defs>
    <g clip-path="url(#p3c7dfa74f4)">
     <use xlink:href="#m409be40b02" x="0" y="345.6" style="fill: #d4edfc; fill-opacity: 0.9; stroke: #d4edfc; stroke-opacity: 0.9"/>
    </g>
   </g>
   <g id="matplotlib.axis_1">
    <g id="xtick_1">
     <g id="line2d_1">
      <path d="M 122.170486 219.168 
L 122.170486 129.888 
" clip-path="url(#p3c7dfa74f4)" style="fill: none"/>
     </g>
     <g id="line2d_2"/>
     <g id="text_1">
      <text style="fill: #004a80; font: 13px 'DejaVu Sans', 'Bitstream Vera Sans', 'Computer Modern Sans Serif', 'Lucida Grande', 'Verdana', 'Geneva', 'Lucid', 'Arial', 'Helvetica', 'Avant Garde', sans-serif; text-anchor: middle" x="122.170486" y="232.545969" transform="rotate(-0 122.170486 232.545969)">0.500</text>
     </g>
    </g>
    <g id="xtick_2">
     <g id="line2d_3">
      <path d="M 186.740972 219.168 
L 186.740972 129.888 
" clip-path="url(#p3c7dfa74f4)" style="fill: none"/>
     </g>
     <g id="line2d_4"/>
     <g id="text_2">
      <text style="fill: #004a80; font: 13px 'DejaVu Sans', 'Bitstream Vera Sans', 'Computer Modern Sans Serif', 'Lucida Grande', 'Verdana', 'Geneva', 'Lucid', 'Arial', 'Helvetica', 'Avant Garde', sans-serif; text-anchor: middle" x="186.740972" y="232.545969" transform="rotate(-0 186.740972 232.545969)">1.000</text>
     </g>
    </g>
    <g id="xtick_3">
     <g id="line2d_5">
      <path d="M 251.311457 219.168 
L 251.311457 129.888 
" clip-path="url(#p3c7dfa74f4)" style="fill: none"/>
     </g>
     <g id="line2d_6"/>
     <g id="text_3">
      <text style="fill: #004a80; font: 13px 'DejaVu Sans', 'Bitstream Vera Sans', 'Computer Modern Sans Serif', 'Lucida Grande', 'Verdana', 'Geneva', 'Lucid', 'Arial', 'Helvetica', 'Avant Garde', sans-serif; text-anchor: middle" x="251.311457" y="232.545969" transform="rotate(-0 251.311457 232.545969)">1.500</text>
     </g>
    </g>
    <g id="xtick_4">
     <g id="line2d_7">
      <path d="M 315.881943 219.168 
L 315.881943 129.888 
" clip-path="url(#p3c7dfa74f4)" style="fill: none"/>
     </g>
     <g id="line2d_8"/>
     <g id="text_4">
      <text style="fill: #004a80; font: 13px 'DejaVu Sans', 'Bitstream Vera Sans', 'Computer Modern Sans Serif', 'Lucida Grande', 'Verdana', 'Geneva', 'Lucid', 'Arial', 'Helvetica', 'Avant Garde', sans-serif; text-anchor: middle" x="315.881943" y="232.545969" transform="rotate(-0 315.881943 232.545969)">2.000</text>
     </g>
    </g>
    <g id="xtick_5">
     <g id="line2d_9">
      <path d="M 380.452429 219.168 
L 380.452429 129.888 
" clip-path="url(#p3c7dfa74f4)" style="fill: none"/>
     </g>
     <g id="line2d_10"/>
     <g id="text_5">
      <text style="fill: #004a80; font: 13px 'DejaVu Sans', 'Bitstream Vera Sans', 'Computer Modern Sans Serif', 'Lucida Grande', 'Verdana', 'Geneva', 'Lucid', 'Arial', 'Helvetica', 'Avant Garde', sans-serif; text-anchor: middle" x="380.452429" y="232.545969" transform="rotate(-0 380.452429 232.545969)">2.500</text>
     </g>
    </g>
    <g id="xtick_6">
     <g id="line2d_11">
      <path d="M 414.72 219.168 
L 414.72 129.888 
" clip-path="url(#p3c7dfa74f4)" style="fill: none"/>
     </g>
     <g id="line2d_12"/>
     <g id="text_6">
      <text style="fill: #004a80; font: 13px 'DejaVu Sans', 'Bitstream Vera Sans', 'Computer Modern Sans Serif', 'Lucida Grande', 'Verdana', 'Geneva', 'Lucid', 'Arial', 'Helvetica', 'Avant Garde', sans-serif; text-anchor: middle" x="414.72" y="232.545969" transform="rotate(-0 414.72 232.545969)">2.765</text>
     </g>
    </g>
    <g id="text_7">
     <text style="font: 10px 'DejaVu Sans', 'Bitstream Vera Sans', 'Computer Modern Sans Serif', 'Lucida Grande', 'Verdana', 'Geneva', 'Lucid', 'Arial', 'Helvetica', 'Avant Garde', sans-serif; text-anchor: middle" x="236.16" y="246.848" transform="rotate(-0 236.16 246.848)">Distance (km)</text>
    </g>
   </g>
   <g id="matplotlib.axis_2">
    <g id="ytick_1">
     <g id="line2d_13">
      <path d="M 57.6 219.168 
L 414.72 219.168 
" clip-path="url(#p3c7dfa74f4)" style="fill: none; stroke: #9d9d9c; stroke-width: 0.8; stroke-linecap: square"/>
     </g>
     <g id="line2d_14"/>
     <g id="text_8">
      <text style="font: 12px 'DejaVu Sans', 'Bitstream Vera Sans', 'Computer Modern Sans Serif', 'Lucida Grande', 'Verdana', 'Geneva', 'Lucid', 'Arial', 'Helvetica', 'Avant Garde', sans-serif; text-anchor: end" x="54.1" y="223.727062" transform="rotate(-0 54.1 223.727062)">500</text>
     </g>
    </g>
    <g id="ytick_2">
     <g id="line2d_15">
      <path d="M 57.6 187.282286 
L 414.72 187.282286 
" clip-path="url(#p3c7dfa74f4)" style="fill: none; stroke: #9d9d9c; stroke-width: 0.8; stroke-linecap: square"/>
     </g>
     <g id="line2d_16"/>
     <g id="text_9">
      <text style="font: 12px 'DejaVu Sans', 'Bitstream Vera Sans', 'Computer Modern Sans Serif', 'Lucida Grande', 'Verdana', 'Geneva', 'Lucid', 'Arial', 'Helvetica', 'Avant Garde', sans-serif; text-anchor: end" x="54.1" y="191.841348" transform="rotate(-0 54.1 191.841348)">750</text>
     </g>
    </g>
    <g id="ytick_3">
     <g id="line2d_17">
      <path d="M 57.6 155.396571 
L 414.72 155.396571 
" clip-path="url(#p3c7dfa74f4)" style="fill: none; stroke: #9d9d9c; stroke-width: 0.8; stroke-linecap: square"/>
     </g>
     <g id="line2d_18"/>
     <g id="text_10">
      <text style="font: 12px 'DejaVu Sans', 'Bitstream Vera Sans', 'Computer Modern Sans Serif', 'Lucida Grande', 'Verdana', 'Geneva', 'Lucid', 'Arial', 'Helvetica', 'Avant Garde', sans-serif; text-anchor: end" x="54.1" y="159.955634" transform="rotate(-0 54.1 159.955634)">1000</text>
     </g>
    </g>
   </g>
   <g id="LineCollection_1">
    <path d="M 122.170486 282.939429 
L 122.170486 147.106286 
" clip-path="url(#p3c7dfa74f4)" style="fill: none; stroke-dasharray: 7.4,3.2; stroke-dashoffset: 0; stroke: #004a80; stroke-width: 2"/>
    <path d="M 186.740972 282.939429 
L 186.740972 145.9584 
" clip-path="url(#p3c7dfa74f4)" style="fill: none; stroke-dasharray: 7.4,3.2; stroke-dashoffset: 0; stroke: #004a80; stroke-width: 2"/>
    <path d="M 251.311457 282.939429 
L 251.311457 146.8512 
" clip-path="url(#p3c7dfa74f4)" style="fill: none; stroke-dasharray: 7.4,3.2; stroke-dashoffset: 0; stroke: #004a80; stroke-width: 2"/>
    <path d="M 315.881943 282.939429 
L 315.881943 149.784686 
" clip-path="url(#p3c7dfa74f4)" style="fill: none; stroke-dasharray: 7.4,3.2; stroke-dashoffset: 0; stroke: #004a80; stroke-width: 2"/>
    <path d="M 380.452429 282.939429 
L 380.452429 152.973257 
" clip-path="url(#p3c7dfa74f4)" style="fill: none; stroke-dasharray: 7.4,3.2; stroke-dashoffset: 0; stroke: #004a80; stroke-width: 2"/>
   </g>
   <g id="patch_3">
    <path d="M 57.6 219.168 
L 57.6 129.888 
" style="fill: none; stroke: #000000; stroke-width: 0.8; stroke-linejoin: miter; stroke-linecap: square"/>
   </g>
   <g id="patch_4">
    <path d="M 414.72 219.168 
L 414.72 129.888 
" style="fill: none; stroke: #000000; stroke-width: 0.8; stroke-linejoin: miter; stroke-linecap: square"/>
   </g>
   <g id="patch_5">
    <path d="M 57.6 219.168 
L 414.72 219.168 
" style="fill: none; stroke: #000000; stroke-width: 0.8; stroke-linejoin: miter; stroke-linecap: square"/>
   </g>
   <g id="patch_6">
    <path d="M 57.6 129.888 
L 414.72 129.888 
" style="fill: none; stroke: #000000; stroke-width: 0.8; stroke-linejoin: miter; stroke-linecap: square"/>
   </g>
   <g id="patch_7">
    <path d="M 122.170486 219.168 
L 251.311457 219.168 
L 251.311457 217.254857 
L 122.170486 217.254857 
z
" clip-path="url(#p3c7dfa74f4)" style="fill: #efefef"/>
   </g>
   <g id="patch_8">
    <path d="M 186.740972 219.168 
L 380.452429 219.168 
L 380.452429 217.254857 
L 186.740972 217.254857 
z
" clip-path="url(#p3c7dfa74f4)" style="fill: #004a80"/>
   </g>
   <g id="patch_9">
    <path d="M 251.311457 219.168 
L 509.5934 219.168 
L 509.5934 217.254857 
L 251.311457 217.254857 
z
" clip-path="url(#p3c7dfa74f4)" style="fill: #efefef"/>
   </g>
   <g id="patch_10">
    <path d="M 315.881943 219.168 
L 638.734372 219.168 
L 638.734372 217.254857 
L 315.881943 217.254857 
z
" clip-path="url(#p3c7dfa74f4)" style="fill: #004a80"/>
   </g>
   <g id="patch_11">
    <path d="M 57.6 219.168 
L 122.170486 219.168 
L 122.170486 217.254857 
L 57.6 217.254857 
z
" clip-path="url(#p3c7dfa74f4)" style="fill: #004a80"/>
   </g>
   <g id="patch_12">
    <path d="M 380.452429 219.168 
L 737.572429 219.168 
L 737.572429 217.254857 
L 380.452429 217.254857 
z
" clip-path="url(#p3c7dfa74f4)" style="fill: #efefef"/>
   </g>
   <g id="text_11">
    <text style="font: 12px 'DejaVu Sans', 'Bitstream Vera Sans', 'Computer Modern Sans Serif', 'Lucida Grande', 'Verdana', 'Geneva', 'Lucid', 'Arial', 'Helvetica', 'Avant Garde', sans-serif; text-anchor: middle" x="236.16" y="123.888" transform="rotate(-0 236.16 123.888)">loipe-pulverer-mahd</text>
   </g>
   <g id="line2d_19">
    <path d="M 57.6 152.087745 
L 58.975302 152.404253 
L 63.101207 152.200589 
L 68.602413 151.437396 
L 73.645186 150.708675 
L 75.478922 150.790375 
L 78.229525 150.87034 
L 81.896996 150.259656 
L 83.730732 149.672913 
L 84.189166 149.149667 
L 87.398203 149.300349 
L 100.234352 148.622472 
L 104.360257 148.702427 
L 111.695199 147.750072 
L 115.36267 147.313665 
L 119.488575 146.991112 
L 131.86629 147.245358 
L 143.327137 147.19591 
L 152.954249 146.941287 
L 161.206059 146.689281 
L 168.082567 146.718921 
L 180.001849 146.142964 
L 185.961489 145.912412 
L 188.253659 146.03019 
L 191.92113 146.28737 
L 196.963902 146.300506 
L 197.422336 146.271614 
L 201.548241 147.023184 
L 208.883184 147.273628 
L 212.550655 147.260405 
L 223.094634 147.542983 
L 228.137407 147.214346 
L 236.847651 146.955368 
L 252.892837 146.813983 
L 262.519949 146.951565 
L 267.562721 147.070766 
L 278.106701 147.073244 
L 284.524775 147.107322 
L 290.025982 147.485562 
L 292.318151 147.896959 
L 297.360924 148.188772 
L 303.320565 148.028037 
L 308.363338 148.654949 
L 308.821772 149.35898 
L 312.947677 149.912383 
L 319.365751 149.732791 
L 330.368164 150.733488 
L 334.952503 151.151843 
L 341.370578 150.980127 
L 348.247086 151.720857 
L 352.831425 152.369095 
L 360.624801 152.832166 
L 367.501309 152.72574 
L 393.632041 152.960371 
L 411.052529 152.951417 
L 413.344698 153.204997 
L 414.72 153.428767 
L 414.72 153.428767 
" clip-path="url(#p3c7dfa74f4)" style="fill: none; stroke: #0000ff; stroke-width: 3; stroke-linecap: square"/>
   </g>
  </g>
 </g>
 <defs>
  <clipPath id="p3c7dfa74f4">
   <rect x="57.6" y="129.888" width="357.12" height="89.28"/>
  </clipPath>
 </defs>
</svg>
