<?xml version="1.0" encoding="utf-8" standalone="no"?>
<!DOCTYPE svg PUBLIC "-//W3C//DTD SVG 1.1//EN"
  "http://www.w3.org/Graphics/SVG/1.1/DTD/svg11.dtd">
<svg xmlns:xlink="http://www.w3.org/1999/xlink" width="460.8pt" height="345.6pt" viewBox="0 0 460.8 345.6" xmlns="http://www.w3.org/2000/svg" version="1.1">
 <metadata>
  <rdf:RDF xmlns:dc="http://purl.org/dc/elements/1.1/" xmlns:cc="http://creativecommons.org/ns#" xmlns:rdf="http://www.w3.org/1999/02/22-rdf-syntax-ns#">
   <cc:Work>
    <dc:type rdf:resource="http://purl.org/dc/dcmitype/StillImage"/>
    <dc:date>2024-08-26T11:01:59.790695</dc:date>
    <dc:format>image/svg+xml</dc:format>
    <dc:creator>
     <cc:Agent>
      <dc:title>Matplotlib v3.8.4, https://matplotlib.org/</dc:title>
     </cc:Agent>
    </dc:creator>
   </cc:Work>
  </rdf:RDF>
 </metadata>
 <defs>
  <style type="text/css">*{stroke-linejoin: round; stroke-linecap: butt}</style>
 </defs>
 <g id="figure_1">
  <g id="patch_1">
   <path d="M 0 345.6 
L 460.8 345.6 
L 460.8 0 
L 0 0 
z
" style="fill: #ffffff"/>
  </g>
  <g id="axes_1">
   <g id="patch_2">
    <path d="M 57.6 219.168 
L 414.72 219.168 
L 414.72 129.888 
L 57.6 129.888 
z
" style="fill: #ffffff"/>
   </g>
   <g id="PolyCollection_1">
    <defs>
     <path id="m2670ce618b" d="M 57.6 -62.660571 
L 57.6 -183.899167 
L 57.868713 -183.906055 
L 58.137427 -183.912942 
L 58.40614 -183.91983 
L 58.674853 -183.926717 
L 58.943567 -183.933605 
L 59.21228 -183.940492 
L 59.480993 -183.94738 
L 59.749707 -183.954267 
L 60.01842 -183.961154 
L 60.287133 -183.968042 
L 60.555847 -183.974929 
L 60.82456 -183.981817 
L 61.093273 -183.988704 
L 61.361986 -183.995592 
L 61.6307 -184.002479 
L 61.899413 -184.009367 
L 62.168126 -184.016254 
L 62.43684 -184.023142 
L 62.705553 -184.030029 
L 62.974266 -184.036916 
L 63.24298 -184.043804 
L 63.511693 -184.04132 
L 63.780406 -184.037004 
L 64.04912 -184.032688 
L 64.317833 -184.028371 
L 64.586546 -184.024055 
L 64.85526 -184.019739 
L 65.123973 -184.015422 
L 65.392686 -184.011106 
L 65.6614 -183.996745 
L 65.930113 -183.966927 
L 66.198826 -183.937108 
L 66.46754 -183.907289 
L 66.736253 -183.877471 
L 67.004966 -183.847652 
L 67.273679 -183.817833 
L 67.542393 -183.785732 
L 67.811106 -183.718725 
L 68.079819 -183.651717 
L 68.348533 -183.584709 
L 68.617246 -183.517702 
L 68.885959 -183.464639 
L 69.154673 -183.429409 
L 69.423386 -183.394179 
L 69.692099 -183.35895 
L 69.960813 -183.32372 
L 70.229526 -183.28849 
L 70.498239 -183.262077 
L 70.766953 -183.26476 
L 71.035666 -183.267443 
L 71.304379 -183.270125 
L 71.573093 -183.272808 
L 71.841806 -183.275491 
L 72.110519 -183.278174 
L 72.379233 -183.280857 
L 72.647946 -183.283539 
L 72.916659 -183.286222 
L 73.185372 -183.288905 
L 73.454086 -183.291588 
L 73.722799 -183.294271 
L 73.991512 -183.296953 
L 74.260226 -183.299636 
L 74.528939 -183.302319 
L 74.797652 -183.305002 
L 75.066366 -183.307685 
L 75.335079 -183.310367 
L 75.603792 -183.31305 
L 75.872506 -183.315733 
L 76.141219 -183.316114 
L 76.409932 -183.316114 
L 76.678646 -183.316114 
L 76.947359 -183.316114 
L 77.216072 -183.316114 
L 77.484786 -183.316114 
L 77.753499 -183.316114 
L 78.022212 -183.316114 
L 78.290926 -183.316114 
L 78.559639 -183.316114 
L 78.828352 -183.316114 
L 79.097065 -183.316114 
L 79.365779 -183.316114 
L 79.634492 -183.316114 
L 79.903205 -183.316114 
L 80.171919 -183.316114 
L 80.440632 -183.316114 
L 80.709345 -183.316114 
L 80.978059 -183.316114 
L 81.246772 -183.316114 
L 81.515485 -183.316114 
L 81.784199 -183.316114 
L 82.052912 -183.316114 
L 82.321625 -183.316114 
L 82.590339 -183.316114 
L 82.859052 -183.316114 
L 83.127765 -183.316114 
L 83.396479 -183.316114 
L 83.665192 -183.316114 
L 83.933905 -183.316114 
L 84.202619 -183.316114 
L 84.471332 -183.316114 
L 84.740045 -183.316114 
L 85.008758 -183.316114 
L 85.277472 -183.316114 
L 85.546185 -183.316114 
L 85.814898 -183.316114 
L 86.083612 -183.316114 
L 86.352325 -183.316114 
L 86.621038 -183.316114 
L 86.889752 -183.316114 
L 87.158465 -183.316114 
L 87.427178 -183.316114 
L 87.695892 -183.316114 
L 87.964605 -183.316114 
L 88.233318 -183.316114 
L 88.502032 -183.316114 
L 88.770745 -183.316114 
L 89.039458 -183.316114 
L 89.308172 -183.316114 
L 89.576885 -183.316114 
L 89.845598 -183.316114 
L 90.114312 -183.316114 
L 90.383025 -183.316114 
L 90.651738 -183.316114 
L 90.920451 -183.316114 
L 91.189165 -183.316114 
L 91.457878 -183.316114 
L 91.726591 -183.316114 
L 91.995305 -183.316114 
L 92.264018 -183.316114 
L 92.532731 -183.316114 
L 92.801445 -183.316114 
L 93.070158 -183.316114 
L 93.338871 -183.316114 
L 93.607585 -183.318114 
L 93.876298 -183.322642 
L 94.145011 -183.326868 
L 94.413725 -183.320262 
L 94.682438 -183.313655 
L 94.951151 -183.307049 
L 95.219865 -183.300442 
L 95.488578 -183.293836 
L 95.757291 -183.287229 
L 96.026005 -183.280677 
L 96.294718 -183.274202 
L 96.563431 -183.267727 
L 96.832144 -183.261253 
L 97.100858 -183.254778 
L 97.369571 -183.248303 
L 97.638284 -183.241829 
L 97.906998 -183.235354 
L 98.175711 -183.22888 
L 98.444424 -183.222405 
L 98.713138 -183.216359 
L 98.981851 -183.210396 
L 99.250564 -183.204432 
L 99.519278 -183.198468 
L 99.787991 -183.192504 
L 100.056704 -183.18654 
L 100.325418 -183.180577 
L 100.594131 -183.179679 
L 100.862844 -183.183699 
L 101.131558 -183.187719 
L 101.400271 -183.191739 
L 101.668984 -183.195759 
L 101.937698 -183.199779 
L 102.206411 -183.203799 
L 102.475124 -183.207819 
L 102.743837 -183.205699 
L 103.012551 -183.192121 
L 103.281264 -183.178544 
L 103.549977 -183.164966 
L 103.818691 -183.151389 
L 104.087404 -183.137811 
L 104.356117 -183.124234 
L 104.624831 -183.111083 
L 104.893544 -183.097976 
L 105.162257 -183.08487 
L 105.430971 -183.071763 
L 105.699684 -183.058656 
L 105.968397 -183.045549 
L 106.237111 -183.032442 
L 106.505824 -183.019335 
L 106.774537 -183.006228 
L 107.043251 -182.996436 
L 107.311964 -182.990621 
L 107.580677 -182.984806 
L 107.849391 -182.978991 
L 108.118104 -182.973176 
L 108.386817 -182.967362 
L 108.65553 -182.961547 
L 108.924244 -182.955732 
L 109.192957 -182.949917 
L 109.46167 -182.944102 
L 109.730384 -182.938287 
L 109.999097 -182.932472 
L 110.26781 -182.926657 
L 110.536524 -182.920842 
L 110.805237 -182.915027 
L 111.07395 -182.913173 
L 111.342664 -182.916918 
L 111.611377 -182.920663 
L 111.88009 -182.924408 
L 112.148804 -182.928153 
L 112.417517 -182.931898 
L 112.68623 -182.935643 
L 112.954944 -182.939388 
L 113.223657 -182.943133 
L 113.49237 -182.940723 
L 113.761084 -182.935099 
L 114.029797 -182.929474 
L 114.29851 -182.923849 
L 114.567223 -182.918225 
L 114.835937 -182.9126 
L 115.10465 -182.906975 
L 115.373363 -182.901351 
L 115.642077 -182.894441 
L 115.91079 -182.88736 
L 116.179503 -182.880279 
L 116.448217 -182.873198 
L 116.71693 -182.866117 
L 116.985643 -182.859037 
L 117.254357 -182.851956 
L 117.52307 -182.844875 
L 117.791783 -182.838075 
L 118.060497 -182.833101 
L 118.32921 -182.828127 
L 118.597923 -182.823153 
L 118.866637 -182.818179 
L 119.13535 -182.813205 
L 119.404063 -182.80823 
L 119.672777 -182.803256 
L 119.94149 -182.798282 
L 120.210203 -182.796295 
L 120.478916 -182.800048 
L 120.74763 -182.803801 
L 121.016343 -182.807555 
L 121.285056 -182.811308 
L 121.55377 -182.815061 
L 121.822483 -182.813397 
L 122.091196 -182.806664 
L 122.35991 -182.799931 
L 122.628623 -182.793198 
L 122.897336 -182.786465 
L 123.16605 -182.779732 
L 123.434763 -182.772993 
L 123.703476 -182.765993 
L 123.97219 -182.758992 
L 124.240903 -182.751991 
L 124.509616 -182.744991 
L 124.77833 -182.73799 
L 125.047043 -182.730989 
L 125.315756 -182.723989 
L 125.58447 -182.716988 
L 125.853183 -182.70932 
L 126.121896 -182.698454 
L 126.390609 -182.687589 
L 126.659323 -182.676724 
L 126.928036 -182.667784 
L 127.196749 -182.669917 
L 127.465463 -182.672051 
L 127.734176 -182.674184 
L 128.002889 -182.676318 
L 128.271603 -182.6784 
L 128.540316 -182.6784 
L 128.809029 -182.6784 
L 129.077743 -182.6784 
L 129.346456 -182.6784 
L 129.615169 -182.6784 
L 129.883883 -182.6784 
L 130.152596 -182.6784 
L 130.421309 -182.6784 
L 130.690023 -182.6784 
L 130.958736 -182.6784 
L 131.227449 -182.6784 
L 131.496163 -182.6784 
L 131.764876 -182.6784 
L 132.033589 -182.6784 
L 132.302302 -182.6784 
L 132.571016 -182.6784 
L 132.839729 -182.6784 
L 133.108442 -182.6784 
L 133.377156 -182.6784 
L 133.645869 -182.6784 
L 133.914582 -182.6784 
L 134.183296 -182.6784 
L 134.452009 -182.6784 
L 134.720722 -182.6784 
L 134.989436 -182.6784 
L 135.258149 -182.6784 
L 135.526862 -182.6784 
L 135.795576 -182.678854 
L 136.064289 -182.679472 
L 136.333002 -182.68009 
L 136.601716 -182.680708 
L 136.870429 -182.681326 
L 137.139142 -182.681944 
L 137.407856 -182.682562 
L 137.676569 -182.68318 
L 137.945282 -182.683799 
L 138.213995 -182.684417 
L 138.482709 -182.685035 
L 138.751422 -182.685653 
L 139.020135 -182.686271 
L 139.288849 -182.686889 
L 139.557562 -182.687507 
L 139.826275 -182.688125 
L 140.094989 -182.688743 
L 140.363702 -182.689115 
L 140.632415 -182.684532 
L 140.901129 -182.679948 
L 141.169842 -182.675365 
L 141.438555 -182.670781 
L 141.707269 -182.666197 
L 141.975982 -182.661614 
L 142.244695 -182.65703 
L 142.513409 -182.652447 
L 142.782122 -182.647863 
L 143.050835 -182.643529 
L 143.319549 -182.639438 
L 143.588262 -182.635346 
L 143.856975 -182.631255 
L 144.125688 -182.627164 
L 144.394402 -182.623072 
L 144.663115 -182.618981 
L 144.931828 -182.61489 
L 145.200542 -182.610798 
L 145.469255 -182.606707 
L 145.737968 -182.602616 
L 146.006682 -182.598524 
L 146.275395 -182.594433 
L 146.544108 -182.590341 
L 146.812822 -182.58625 
L 147.081535 -182.581461 
L 147.350248 -182.575461 
L 147.618962 -182.569461 
L 147.887675 -182.563462 
L 148.156388 -182.557462 
L 148.425102 -182.551462 
L 148.693815 -182.545462 
L 148.962528 -182.540474 
L 149.231242 -182.547585 
L 149.499955 -182.554696 
L 149.768668 -182.561808 
L 150.037381 -182.568919 
L 150.306095 -182.576031 
L 150.574808 -182.583142 
L 150.843521 -182.590254 
L 151.112235 -182.585813 
L 151.380948 -182.563364 
L 151.649661 -182.540914 
L 151.918375 -182.518464 
L 152.187088 -182.496014 
L 152.455801 -182.473564 
L 152.724515 -182.451114 
L 152.993228 -182.428664 
L 153.261941 -182.402112 
L 153.530655 -182.372818 
L 153.799368 -182.343525 
L 154.068081 -182.314231 
L 154.336795 -182.284938 
L 154.605508 -182.255644 
L 154.874221 -182.226351 
L 155.142935 -182.197057 
L 155.411648 -182.168724 
L 155.680361 -182.146274 
L 155.949074 -182.123824 
L 156.217788 -182.101374 
L 156.486501 -182.078924 
L 156.755214 -182.056474 
L 157.023928 -182.034024 
L 157.292641 -182.011574 
L 157.561354 -182.000882 
L 157.830068 -182.012131 
L 158.098781 -182.02338 
L 158.367494 -182.03463 
L 158.636208 -182.045879 
L 158.904921 -182.057129 
L 159.173634 -182.068378 
L 159.442348 -182.079627 
L 159.711061 -182.070945 
L 159.979774 -182.047497 
L 160.248488 -182.024049 
L 160.517201 -182.000601 
L 160.785914 -181.977152 
L 161.054628 -181.953704 
L 161.323341 -181.930256 
L 161.592054 -181.905118 
L 161.860767 -181.866942 
L 162.129481 -181.828767 
L 162.398194 -181.790591 
L 162.666907 -181.752415 
L 162.935621 -181.71424 
L 163.204334 -181.676064 
L 163.473047 -181.653155 
L 163.741761 -181.639455 
L 164.010474 -181.625755 
L 164.279187 -181.612054 
L 164.547901 -181.598354 
L 164.816614 -181.584653 
L 165.085327 -181.570953 
L 165.354041 -181.557253 
L 165.622754 -181.543552 
L 165.891467 -181.529852 
L 166.160181 -181.516151 
L 166.428894 -181.502451 
L 166.697607 -181.488751 
L 166.966321 -181.491603 
L 167.235034 -181.497228 
L 167.503747 -181.502853 
L 167.77246 -181.508477 
L 168.041174 -181.514102 
L 168.309887 -181.519727 
L 168.5786 -181.525351 
L 168.847314 -181.530514 
L 169.116027 -181.530514 
L 169.38474 -181.530514 
L 169.653454 -181.530514 
L 169.922167 -181.530514 
L 170.19088 -181.530514 
L 170.459594 -181.530514 
L 170.728307 -181.530514 
L 170.99702 -181.530514 
L 171.265734 -181.530514 
L 171.534447 -181.530514 
L 171.80316 -181.530514 
L 172.071874 -181.530514 
L 172.340587 -181.530514 
L 172.6093 -181.530514 
L 172.878014 -181.530514 
L 173.146727 -181.530514 
L 173.41544 -181.530514 
L 173.684153 -181.530514 
L 173.952867 -181.530514 
L 174.22158 -181.530514 
L 174.490293 -181.530514 
L 174.759007 -181.530514 
L 175.02772 -181.530514 
L 175.296433 -181.530514 
L 175.565147 -181.530514 
L 175.83386 -181.530514 
L 176.102573 -181.529907 
L 176.371287 -181.528061 
L 176.64 -181.526215 
L 176.908713 -181.524368 
L 177.177427 -181.522522 
L 177.44614 -181.520676 
L 177.714853 -181.523819 
L 177.983567 -181.534211 
L 178.25228 -181.544604 
L 178.520993 -181.554997 
L 178.789707 -181.564471 
L 179.05842 -181.570271 
L 179.327133 -181.576071 
L 179.595847 -181.58187 
L 179.86456 -181.58767 
L 180.133273 -181.59347 
L 180.401986 -181.59927 
L 180.6707 -181.60507 
L 180.939413 -181.61087 
L 181.208126 -181.61667 
L 181.47684 -181.62247 
L 181.745553 -181.62804 
L 182.014266 -181.633397 
L 182.28298 -181.638754 
L 182.551693 -181.644111 
L 182.820406 -181.649468 
L 183.08912 -181.654825 
L 183.357833 -181.660182 
L 183.626546 -181.665539 
L 183.89526 -181.668111 
L 184.163973 -181.665642 
L 184.432686 -181.663173 
L 184.7014 -181.660704 
L 184.970113 -181.658235 
L 185.238826 -181.655767 
L 185.50754 -181.653298 
L 185.776253 -181.650829 
L 186.044966 -181.64836 
L 186.313679 -181.648525 
L 186.582393 -181.651328 
L 186.851106 -181.654131 
L 187.119819 -181.656934 
L 187.388533 -181.659737 
L 187.657246 -181.66254 
L 187.925959 -181.665343 
L 188.194673 -181.668146 
L 188.463386 -181.670949 
L 188.732099 -181.673752 
L 189.000813 -181.676555 
L 189.269526 -181.679358 
L 189.538239 -181.682161 
L 189.806953 -181.684964 
L 190.075666 -181.687767 
L 190.344379 -181.69057 
L 190.613093 -181.697276 
L 190.881806 -181.704423 
L 191.150519 -181.71157 
L 191.419233 -181.718717 
L 191.687946 -181.725864 
L 191.956659 -181.733011 
L 192.225372 -181.740158 
L 192.494086 -181.747304 
L 192.762799 -181.753961 
L 193.031512 -181.758983 
L 193.300226 -181.764005 
L 193.568939 -181.769026 
L 193.837652 -181.774048 
L 194.106366 -181.77907 
L 194.375079 -181.784091 
L 194.643792 -181.789113 
L 194.912506 -181.794135 
L 195.181219 -181.79583 
L 195.449932 -181.794486 
L 195.718646 -181.793142 
L 195.987359 -181.791798 
L 196.256072 -181.790454 
L 196.524786 -181.78911 
L 196.793499 -181.787766 
L 197.062212 -181.786422 
L 197.330926 -181.785078 
L 197.599639 -181.783734 
L 197.868352 -181.78239 
L 198.137065 -181.781046 
L 198.405779 -181.779703 
L 198.674492 -181.778359 
L 198.943205 -181.777015 
L 199.211919 -181.775671 
L 199.480632 -181.775324 
L 199.749345 -181.777912 
L 200.018059 -181.7805 
L 200.286772 -181.783089 
L 200.555485 -181.785677 
L 200.824199 -181.788265 
L 201.092912 -181.790853 
L 201.361625 -181.793441 
L 201.630339 -181.796029 
L 201.899052 -181.798617 
L 202.167765 -181.801205 
L 202.436479 -181.803793 
L 202.705192 -181.806381 
L 202.973905 -181.808969 
L 203.242619 -181.811557 
L 203.511332 -181.814145 
L 203.780045 -181.816733 
L 204.048758 -181.821108 
L 204.317472 -181.828701 
L 204.586185 -181.836295 
L 204.854898 -181.843888 
L 205.123612 -181.851481 
L 205.392325 -181.859074 
L 205.661038 -181.866667 
L 205.929752 -181.874261 
L 206.198465 -181.880852 
L 206.467178 -181.883402 
L 206.735892 -181.885952 
L 207.004605 -181.888502 
L 207.273318 -181.891052 
L 207.542032 -181.893602 
L 207.810745 -181.896152 
L 208.079458 -181.898702 
L 208.348172 -181.901252 
L 208.616885 -181.903802 
L 208.885598 -181.906352 
L 209.154312 -181.908902 
L 209.423025 -181.911452 
L 209.691738 -181.914002 
L 209.960451 -181.916551 
L 210.229165 -181.919101 
L 210.497878 -181.921651 
L 210.766591 -181.924075 
L 211.035305 -181.924075 
L 211.304018 -181.924075 
L 211.572731 -181.924075 
L 211.841445 -181.924075 
L 212.110158 -181.924075 
L 212.378871 -181.924075 
L 212.647585 -181.924075 
L 212.916298 -181.924075 
L 213.185011 -181.924075 
L 213.453725 -181.920026 
L 213.722438 -181.913781 
L 213.991151 -181.907537 
L 214.259865 -181.901292 
L 214.528578 -181.895047 
L 214.797291 -181.888803 
L 215.066005 -181.882558 
L 215.334718 -181.875346 
L 215.603431 -181.867603 
L 215.872144 -181.85986 
L 216.140858 -181.852117 
L 216.409571 -181.844373 
L 216.678284 -181.83663 
L 216.946998 -181.828887 
L 217.215711 -181.821144 
L 217.484424 -181.816841 
L 217.753138 -181.814429 
L 218.021851 -181.812018 
L 218.290564 -181.809606 
L 218.559278 -181.807194 
L 218.827991 -181.804783 
L 219.096704 -181.802371 
L 219.365418 -181.799959 
L 219.634131 -181.797548 
L 219.902844 -181.795136 
L 220.171558 -181.792725 
L 220.440271 -181.790313 
L 220.708984 -181.787901 
L 220.977698 -181.78549 
L 221.246411 -181.783078 
L 221.515124 -181.780666 
L 221.783837 -181.778255 
L 222.052551 -181.775843 
L 222.321264 -181.775903 
L 222.589977 -181.778312 
L 222.858691 -181.780721 
L 223.127404 -181.78313 
L 223.396117 -181.785539 
L 223.664831 -181.787948 
L 223.933544 -181.790357 
L 224.202257 -181.792767 
L 224.470971 -181.795176 
L 224.739684 -181.794159 
L 225.008397 -181.788726 
L 225.277111 -181.783294 
L 225.545824 -181.777861 
L 225.814537 -181.772429 
L 226.083251 -181.766996 
L 226.351964 -181.761564 
L 226.620677 -181.756131 
L 226.889391 -181.749362 
L 227.158104 -181.740479 
L 227.426817 -181.731595 
L 227.69553 -181.722712 
L 227.964244 -181.713828 
L 228.232957 -181.704944 
L 228.50167 -181.696061 
L 228.770384 -181.688678 
L 229.039097 -181.683422 
L 229.30781 -181.678165 
L 229.576524 -181.672908 
L 229.845237 -181.667652 
L 230.11395 -181.662395 
L 230.382664 -181.657138 
L 230.651377 -181.651882 
L 230.92009 -181.646932 
L 231.188804 -181.644902 
L 231.457517 -181.642873 
L 231.72623 -181.640843 
L 231.994944 -181.638814 
L 232.263657 -181.636784 
L 232.53237 -181.66812 
L 232.801084 -181.713183 
L 233.069797 -181.817821 
L 233.33851 -181.848505 
L 233.607223 -181.849766 
L 233.875937 -181.851026 
L 234.14465 -181.852287 
L 234.413363 -181.853548 
L 234.682077 -181.854809 
L 234.95079 -181.85607 
L 235.219503 -181.857331 
L 235.488217 -181.858592 
L 235.75693 -181.859853 
L 236.025643 -181.861114 
L 236.294357 -181.862374 
L 236.56307 -181.863635 
L 236.831783 -181.864896 
L 237.100497 -181.866157 
L 237.36921 -181.867418 
L 237.637923 -181.868679 
L 237.906637 -181.86994 
L 238.17535 -181.871201 
L 238.444063 -181.872462 
L 238.712777 -181.873722 
L 238.98149 -181.874983 
L 239.250203 -181.876244 
L 239.518916 -181.877505 
L 239.78763 -181.878766 
L 240.056343 -181.880027 
L 240.325056 -181.881288 
L 240.59377 -181.882549 
L 240.862483 -181.88381 
L 241.131196 -181.88507 
L 241.39991 -181.886331 
L 241.668623 -181.887592 
L 241.937336 -181.888853 
L 242.20605 -181.890114 
L 242.474763 -181.891375 
L 242.743476 -181.892636 
L 243.01219 -181.893897 
L 243.280903 -181.895158 
L 243.549616 -181.896419 
L 243.81833 -181.897679 
L 244.087043 -181.89894 
L 244.355756 -181.900201 
L 244.62447 -181.901462 
L 244.893183 -181.902723 
L 245.161896 -181.903984 
L 245.430609 -181.905245 
L 245.699323 -181.906506 
L 245.968036 -181.907767 
L 246.236749 -181.909027 
L 246.505463 -181.910288 
L 246.774176 -181.911549 
L 247.042889 -181.91281 
L 247.311603 -181.914071 
L 247.580316 -181.915332 
L 247.849029 -181.916593 
L 248.117743 -181.917854 
L 248.386456 -181.919115 
L 248.655169 -181.920375 
L 248.923883 -181.921636 
L 249.192596 -181.922897 
L 249.461309 -181.924158 
L 249.730023 -181.925419 
L 249.998736 -181.92668 
L 250.267449 -181.927941 
L 250.536163 -181.929202 
L 250.804876 -181.930463 
L 251.073589 -181.931723 
L 251.342302 -181.932984 
L 251.611016 -181.934245 
L 251.879729 -181.933814 
L 252.148442 -181.930796 
L 252.417156 -181.927778 
L 252.685869 -181.92476 
L 252.954582 -181.921742 
L 253.223296 -181.918724 
L 253.492009 -181.915706 
L 253.760722 -181.912688 
L 254.029436 -181.90967 
L 254.298149 -181.906652 
L 254.566862 -181.903634 
L 254.835576 -181.900616 
L 255.104289 -181.897598 
L 255.373002 -181.89458 
L 255.641716 -181.891562 
L 255.910429 -181.898857 
L 256.179142 -181.907221 
L 256.447856 -181.915584 
L 256.716569 -181.923948 
L 256.985282 -181.932311 
L 257.253995 -181.940675 
L 257.522709 -181.949038 
L 257.791422 -181.957402 
L 258.060135 -181.965765 
L 258.328849 -181.974129 
L 258.597562 -181.98909 
L 258.866275 -182.012144 
L 259.134989 -182.035198 
L 259.403702 -182.058252 
L 259.672415 -182.081306 
L 259.941129 -182.103254 
L 260.209842 -182.111521 
L 260.478555 -182.119789 
L 260.747269 -182.128056 
L 261.015982 -182.136324 
L 261.284695 -182.144592 
L 261.553409 -182.152859 
L 261.822122 -182.161127 
L 262.090835 -182.169394 
L 262.359549 -182.177662 
L 262.628262 -182.185929 
L 262.896975 -182.189785 
L 263.165688 -182.189164 
L 263.434402 -182.188543 
L 263.703115 -182.187923 
L 263.971828 -182.187302 
L 264.240542 -182.186681 
L 264.509255 -182.18606 
L 264.777968 -182.18544 
L 265.046682 -182.184819 
L 265.315395 -182.184198 
L 265.584108 -182.183577 
L 265.852822 -182.182957 
L 266.121535 -182.182336 
L 266.390248 -182.181715 
L 266.658962 -182.181094 
L 266.927675 -182.180474 
L 267.196388 -182.179853 
L 267.465102 -182.179232 
L 267.733815 -182.175278 
L 268.002528 -182.17089 
L 268.271242 -182.166503 
L 268.539955 -182.162115 
L 268.808668 -182.157727 
L 269.077381 -182.15334 
L 269.346095 -182.148952 
L 269.614808 -182.144565 
L 269.883521 -182.140177 
L 270.152235 -182.13579 
L 270.420948 -182.130617 
L 270.689661 -182.125375 
L 270.958375 -182.120133 
L 271.227088 -182.114891 
L 271.495801 -182.109649 
L 271.764515 -182.104407 
L 272.033228 -182.099165 
L 272.301941 -182.093923 
L 272.570655 -182.088681 
L 272.839368 -182.083439 
L 273.108081 -182.078197 
L 273.376795 -182.073205 
L 273.645508 -182.070444 
L 273.914221 -182.067684 
L 274.182935 -182.064924 
L 274.451648 -182.062163 
L 274.720361 -182.059403 
L 274.989074 -182.056643 
L 275.257788 -182.053883 
L 275.526501 -182.051122 
L 275.795214 -182.048362 
L 276.063928 -182.045602 
L 276.332641 -182.042841 
L 276.601354 -182.040081 
L 276.870068 -182.037321 
L 277.138781 -182.03456 
L 277.407494 -182.0318 
L 277.676208 -182.030801 
L 277.944921 -182.034854 
L 278.213634 -182.038906 
L 278.482348 -182.042958 
L 278.751061 -182.047011 
L 279.019774 -182.051063 
L 279.288488 -182.055115 
L 279.557201 -182.059167 
L 279.825914 -182.061109 
L 280.094628 -182.052385 
L 280.363341 -182.043661 
L 280.632054 -182.034937 
L 280.900767 -182.026213 
L 281.169481 -182.017489 
L 281.438194 -182.008765 
L 281.706907 -182.000041 
L 281.975621 -181.991317 
L 282.244334 -181.982593 
L 282.513047 -181.974009 
L 282.781761 -181.966278 
L 283.050474 -181.958547 
L 283.319187 -181.950817 
L 283.587901 -181.943086 
L 283.856614 -181.935355 
L 284.125327 -181.927625 
L 284.394041 -181.919894 
L 284.662754 -181.912164 
L 284.931467 -181.904433 
L 285.200181 -181.896702 
L 285.468894 -181.888972 
L 285.737607 -181.881241 
L 286.006321 -181.873511 
L 286.275034 -181.86578 
L 286.543747 -181.858049 
L 286.81246 -181.850651 
L 287.081174 -181.845861 
L 287.349887 -181.84107 
L 287.6186 -181.836279 
L 287.887314 -181.831488 
L 288.156027 -181.826697 
L 288.42474 -181.821906 
L 288.693454 -181.817115 
L 288.962167 -181.812325 
L 289.23088 -181.807534 
L 289.499594 -181.802743 
L 289.768307 -181.797952 
L 290.03702 -181.793161 
L 290.305734 -181.78837 
L 290.574447 -181.783579 
L 290.84316 -181.778789 
L 291.111874 -181.773998 
L 291.380587 -181.769207 
L 291.6493 -181.764416 
L 291.918014 -181.767808 
L 292.186727 -181.772554 
L 292.45544 -181.7773 
L 292.724153 -181.782046 
L 292.992867 -181.786792 
L 293.26158 -181.791539 
L 293.530293 -181.796285 
L 293.799007 -181.801031 
L 294.06772 -181.805777 
L 294.336433 -181.802686 
L 294.605147 -181.795272 
L 294.87386 -181.787859 
L 295.142573 -181.780445 
L 295.411287 -181.773031 
L 295.68 -181.765617 
L 295.948713 -181.758204 
L 296.217427 -181.75079 
L 296.48614 -181.743376 
L 296.754853 -181.735962 
L 297.023567 -181.728548 
L 297.29228 -181.721135 
L 297.560993 -181.701383 
L 297.829707 -181.679417 
L 298.09842 -181.657451 
L 298.367133 -181.635486 
L 298.635847 -181.61352 
L 298.90456 -181.593703 
L 299.173273 -181.582102 
L 299.441986 -181.570501 
L 299.7107 -181.5589 
L 299.979413 -181.5473 
L 300.248126 -181.535699 
L 300.51684 -181.524098 
L 300.785553 -181.512497 
L 301.054266 -181.511153 
L 301.32298 -181.514897 
L 301.591693 -181.518642 
L 301.860406 -181.522387 
L 302.12912 -181.526131 
L 302.397833 -181.529876 
L 302.666546 -181.533621 
L 302.93526 -181.537366 
L 303.203973 -181.54111 
L 303.472686 -181.536323 
L 303.7414 -181.530694 
L 304.010113 -181.525065 
L 304.278826 -181.519437 
L 304.54754 -181.513808 
L 304.816253 -181.508179 
L 305.084966 -181.50255 
L 305.353679 -181.49653 
L 305.622393 -181.488129 
L 305.891106 -181.479728 
L 306.159819 -181.471327 
L 306.428533 -181.462926 
L 306.697246 -181.454525 
L 306.965959 -181.446124 
L 307.234673 -181.437723 
L 307.503386 -181.432219 
L 307.772099 -181.427594 
L 308.040813 -181.422969 
L 308.309526 -181.418344 
L 308.578239 -181.413719 
L 308.846953 -181.409094 
L 309.115666 -181.404469 
L 309.384379 -181.399844 
L 309.653093 -181.395219 
L 309.921806 -181.388932 
L 310.190519 -181.378987 
L 310.459233 -181.369042 
L 310.727946 -181.359098 
L 310.996659 -181.349153 
L 311.265372 -181.339209 
L 311.534086 -181.329264 
L 311.802799 -181.319319 
L 312.071512 -181.344544 
L 312.340226 -181.391572 
L 312.608939 -181.438599 
L 312.877652 -181.485627 
L 313.146366 -181.532655 
L 313.415079 -181.579683 
L 313.683792 -181.626711 
L 313.952506 -181.670211 
L 314.221219 -181.697472 
L 314.489932 -181.724734 
L 314.758646 -181.751995 
L 315.027359 -181.779257 
L 315.296072 -181.806519 
L 315.564786 -181.83378 
L 315.833499 -181.861042 
L 316.102212 -181.888303 
L 316.370926 -181.915565 
L 316.639639 -181.942827 
L 316.908352 -181.970088 
L 317.177065 -181.99735 
L 317.445779 -182.024611 
L 317.714492 -182.051873 
L 317.983205 -182.079135 
L 318.251919 -182.106396 
L 318.520632 -182.133658 
L 318.789345 -182.160919 
L 319.058059 -182.206609 
L 319.326772 -182.252312 
L 319.595485 -182.298015 
L 319.864199 -182.343718 
L 320.132912 -182.389422 
L 320.401625 -182.435125 
L 320.670339 -182.480828 
L 320.939052 -182.508198 
L 321.207765 -182.500733 
L 321.476479 -182.493268 
L 321.745192 -182.485803 
L 322.013905 -182.478338 
L 322.282619 -182.470873 
L 322.551332 -182.463408 
L 322.820045 -182.455943 
L 323.088758 -182.448478 
L 323.357472 -182.441013 
L 323.626185 -182.433548 
L 323.894898 -182.426083 
L 324.163612 -182.418619 
L 324.432325 -182.411154 
L 324.701038 -182.403689 
L 324.969752 -182.408702 
L 325.238465 -182.419061 
L 325.507178 -182.429421 
L 325.775892 -182.43978 
L 326.044605 -182.450139 
L 326.313318 -182.460498 
L 326.582032 -182.470857 
L 326.850745 -182.481216 
L 327.119458 -182.492494 
L 327.388172 -182.506419 
L 327.656885 -182.520345 
L 327.925598 -182.53427 
L 328.194312 -182.548195 
L 328.463025 -182.56212 
L 328.731738 -182.576046 
L 329.000451 -182.589971 
L 329.269165 -182.603896 
L 329.537878 -182.616539 
L 329.806591 -182.626903 
L 330.075305 -182.637268 
L 330.344018 -182.647632 
L 330.612731 -182.657996 
L 330.881445 -182.66836 
L 331.150158 -182.678724 
L 331.418871 -182.689089 
L 331.687585 -182.699453 
L 331.956298 -182.693799 
L 332.225011 -182.686783 
L 332.493725 -182.679768 
L 332.762438 -182.672753 
L 333.031151 -182.665737 
L 333.299865 -182.658722 
L 333.568578 -182.651707 
L 333.837291 -182.649293 
L 334.106005 -182.677682 
L 334.374718 -182.706072 
L 334.643431 -182.734462 
L 334.912144 -182.762851 
L 335.180858 -182.783973 
L 335.449571 -182.798085 
L 335.718284 -182.812198 
L 335.986998 -182.82631 
L 336.255711 -182.840422 
L 336.524424 -182.854534 
L 336.793138 -182.868646 
L 337.061851 -182.882758 
L 337.330564 -182.89687 
L 337.599278 -182.910982 
L 337.867991 -182.925095 
L 338.136704 -182.939207 
L 338.405418 -182.953319 
L 338.674131 -182.967421 
L 338.942844 -182.981505 
L 339.211558 -182.995588 
L 339.480271 -183.009672 
L 339.748984 -183.023755 
L 340.017698 -183.037839 
L 340.286411 -183.051922 
L 340.555124 -183.066006 
L 340.823837 -183.080089 
L 341.092551 -183.09372 
L 341.361264 -183.08947 
L 341.629977 -183.085219 
L 341.898691 -183.080969 
L 342.167404 -183.076718 
L 342.436117 -183.072467 
L 342.704831 -183.068217 
L 342.973544 -183.063966 
L 343.242257 -183.061029 
L 343.510971 -183.061029 
L 343.779684 -183.061029 
L 344.048397 -183.061029 
L 344.317111 -183.061029 
L 344.585824 -183.061029 
L 344.854537 -183.061029 
L 345.123251 -183.061029 
L 345.391964 -183.061029 
L 345.660677 -183.061029 
L 345.929391 -183.061029 
L 346.198104 -183.061029 
L 346.466817 -183.061029 
L 346.73553 -183.061029 
L 347.004244 -183.061029 
L 347.272957 -183.061029 
L 347.54167 -183.061029 
L 347.810384 -183.061029 
L 348.079097 -183.061029 
L 348.34781 -183.061029 
L 348.616524 -183.061029 
L 348.885237 -183.061029 
L 349.15395 -183.061029 
L 349.422664 -183.061029 
L 349.691377 -183.061029 
L 349.96009 -183.061029 
L 350.228804 -183.061029 
L 350.497517 -183.061029 
L 350.76623 -183.061029 
L 351.034944 -183.061029 
L 351.303657 -183.061029 
L 351.57237 -183.061029 
L 351.841084 -183.061029 
L 352.109797 -183.061029 
L 352.37851 -183.061029 
L 352.647223 -183.061029 
L 352.915937 -183.061029 
L 353.18465 -183.061029 
L 353.453363 -183.061029 
L 353.722077 -183.061029 
L 353.99079 -183.061029 
L 354.259503 -183.061029 
L 354.528217 -183.061029 
L 354.79693 -183.061029 
L 355.065643 -183.061029 
L 355.334357 -183.061029 
L 355.60307 -183.061029 
L 355.871783 -183.061029 
L 356.140497 -183.061029 
L 356.40921 -183.061029 
L 356.677923 -183.061029 
L 356.946637 -183.061029 
L 357.21535 -183.063173 
L 357.484063 -183.068188 
L 357.752777 -183.073202 
L 358.02149 -183.078216 
L 358.290203 -183.08323 
L 358.558916 -183.088245 
L 358.82763 -183.093259 
L 359.096343 -183.08017 
L 359.365056 -183.064777 
L 359.63377 -183.049383 
L 359.902483 -183.033989 
L 360.171196 -183.018595 
L 360.43991 -183.003201 
L 360.708623 -182.987807 
L 360.977336 -182.972414 
L 361.24605 -182.954356 
L 361.514763 -182.931664 
L 361.783476 -182.908972 
L 362.05219 -182.88628 
L 362.320903 -182.863588 
L 362.589616 -182.840896 
L 362.85833 -182.818204 
L 363.127043 -182.795512 
L 363.395756 -182.775236 
L 363.66447 -182.76635 
L 363.933183 -182.757464 
L 364.201896 -182.748578 
L 364.470609 -182.739691 
L 364.739323 -182.730805 
L 365.008036 -182.721919 
L 365.276749 -182.713033 
L 365.545463 -182.704147 
L 365.814176 -182.695261 
L 366.082889 -182.686375 
L 366.351603 -182.677489 
L 366.620316 -182.668603 
L 366.889029 -182.659717 
L 367.157743 -182.650831 
L 367.426456 -182.645056 
L 367.695169 -182.643725 
L 367.963883 -182.642395 
L 368.232596 -182.641065 
L 368.501309 -182.639735 
L 368.770023 -182.638405 
L 369.038736 -182.637074 
L 369.307449 -182.635744 
L 369.576163 -182.634414 
L 369.844876 -182.633084 
L 370.113589 -182.631754 
L 370.382302 -182.630424 
L 370.651016 -182.629093 
L 370.919729 -182.627763 
L 371.188442 -182.626433 
L 371.457156 -182.625103 
L 371.725869 -182.623773 
L 371.994582 -182.636298 
L 372.263296 -182.649186 
L 372.532009 -182.662073 
L 372.800722 -182.67496 
L 373.069436 -182.687847 
L 373.338149 -182.700734 
L 373.606862 -182.713622 
L 373.875576 -182.726509 
L 374.144289 -182.739396 
L 374.413002 -182.752283 
L 374.681716 -182.76517 
L 374.950429 -182.778058 
L 375.219142 -182.790945 
L 375.487856 -182.803832 
L 375.756569 -182.816719 
L 376.025282 -182.829606 
L 376.293995 -182.842736 
L 376.562709 -182.883986 
L 376.831422 -182.925236 
L 377.100135 -182.966485 
L 377.368849 -183.007735 
L 377.637562 -183.048985 
L 377.906275 -183.090235 
L 378.174989 -183.131485 
L 378.443702 -183.168437 
L 378.712415 -183.201082 
L 378.981129 -183.233727 
L 379.249842 -183.266373 
L 379.518555 -183.299018 
L 379.787269 -183.331663 
L 380.055982 -183.364308 
L 380.324695 -183.362839 
L 380.593409 -183.352941 
L 380.862122 -183.343043 
L 381.130835 -183.333146 
L 381.399549 -183.323248 
L 381.668262 -183.31335 
L 381.936975 -183.303453 
L 382.205688 -183.294651 
L 382.474402 -183.300371 
L 382.743115 -183.306091 
L 383.011828 -183.311811 
L 383.280542 -183.317531 
L 383.549255 -183.323251 
L 383.817968 -183.328971 
L 384.086682 -183.334691 
L 384.355395 -183.340411 
L 384.624108 -183.346131 
L 384.892822 -183.351851 
L 385.161535 -183.357571 
L 385.430248 -183.363291 
L 385.698962 -183.369011 
L 385.967675 -183.374731 
L 386.236388 -183.380451 
L 386.505102 -183.388488 
L 386.773815 -183.397176 
L 387.042528 -183.405865 
L 387.311242 -183.414553 
L 387.579955 -183.423241 
L 387.848668 -183.43193 
L 388.117381 -183.440618 
L 388.386095 -183.449306 
L 388.654808 -183.457995 
L 388.923521 -183.466683 
L 389.192235 -183.475371 
L 389.460948 -183.48406 
L 389.729661 -183.492748 
L 389.998375 -183.501436 
L 390.267088 -183.512374 
L 390.535801 -183.525389 
L 390.804515 -183.538403 
L 391.073228 -183.551417 
L 391.341941 -183.564431 
L 391.610655 -183.577446 
L 391.879368 -183.59046 
L 392.148081 -183.591258 
L 392.416795 -183.588999 
L 392.685508 -183.586741 
L 392.954221 -183.584482 
L 393.222935 -183.582223 
L 393.491648 -183.579965 
L 393.760361 -183.577706 
L 394.029074 -183.575448 
L 394.297788 -183.573189 
L 394.566501 -183.5712 
L 394.835214 -183.5712 
L 395.103928 -183.5712 
L 395.372641 -183.5712 
L 395.641354 -183.5712 
L 395.910068 -183.5712 
L 396.178781 -183.5712 
L 396.447494 -183.5712 
L 396.716208 -183.5712 
L 396.984921 -183.5712 
L 397.253634 -183.5712 
L 397.522348 -183.5712 
L 397.791061 -183.5712 
L 398.059774 -183.5712 
L 398.328488 -183.5712 
L 398.597201 -183.5712 
L 398.865914 -183.5712 
L 399.134628 -183.5712 
L 399.403341 -183.5712 
L 399.672054 -183.5712 
L 399.940767 -183.5712 
L 400.209481 -183.5712 
L 400.478194 -183.5712 
L 400.746907 -183.5712 
L 401.015621 -183.5712 
L 401.284334 -183.5712 
L 401.553047 -183.5712 
L 401.821761 -183.5712 
L 402.090474 -183.5712 
L 402.359187 -183.5712 
L 402.627901 -183.5712 
L 402.896614 -183.5712 
L 403.165327 -183.5712 
L 403.434041 -183.5712 
L 403.702754 -183.5712 
L 403.971467 -183.5712 
L 404.240181 -183.5712 
L 404.508894 -183.5712 
L 404.777607 -183.5712 
L 405.046321 -183.5712 
L 405.315034 -183.5712 
L 405.583747 -183.5712 
L 405.85246 -183.5712 
L 406.121174 -183.5712 
L 406.389887 -183.5712 
L 406.6586 -183.5712 
L 406.927314 -183.5712 
L 407.196027 -183.5712 
L 407.46474 -183.5712 
L 407.733454 -183.5712 
L 408.002167 -183.5712 
L 408.27088 -183.5712 
L 408.539594 -183.5712 
L 408.808307 -183.5712 
L 409.07702 -183.5712 
L 409.345734 -183.54932 
L 409.614447 -183.593712 
L 409.88316 -183.670778 
L 410.151874 -183.684074 
L 410.420587 -183.697369 
L 410.6893 -183.710665 
L 410.958014 -183.723961 
L 411.226727 -183.737256 
L 411.49544 -183.750552 
L 411.764153 -183.763848 
L 412.032867 -183.777143 
L 412.30158 -183.790439 
L 412.570293 -183.803734 
L 412.839007 -183.81703 
L 413.10772 -183.830326 
L 413.376433 -183.843621 
L 413.645147 -183.856917 
L 413.91386 -183.870213 
L 414.182573 -183.883508 
L 414.451287 -183.896804 
L 414.72 -183.9101 
L 414.72 -62.660571 
L 414.72 -62.660571 
L 414.451287 -62.660571 
L 414.182573 -62.660571 
L 413.91386 -62.660571 
L 413.645147 -62.660571 
L 413.376433 -62.660571 
L 413.10772 -62.660571 
L 412.839007 -62.660571 
L 412.570293 -62.660571 
L 412.30158 -62.660571 
L 412.032867 -62.660571 
L 411.764153 -62.660571 
L 411.49544 -62.660571 
L 411.226727 -62.660571 
L 410.958014 -62.660571 
L 410.6893 -62.660571 
L 410.420587 -62.660571 
L 410.151874 -62.660571 
L 409.88316 -62.660571 
L 409.614447 -62.660571 
L 409.345734 -62.660571 
L 409.07702 -62.660571 
L 408.808307 -62.660571 
L 408.539594 -62.660571 
L 408.27088 -62.660571 
L 408.002167 -62.660571 
L 407.733454 -62.660571 
L 407.46474 -62.660571 
L 407.196027 -62.660571 
L 406.927314 -62.660571 
L 406.6586 -62.660571 
L 406.389887 -62.660571 
L 406.121174 -62.660571 
L 405.85246 -62.660571 
L 405.583747 -62.660571 
L 405.315034 -62.660571 
L 405.046321 -62.660571 
L 404.777607 -62.660571 
L 404.508894 -62.660571 
L 404.240181 -62.660571 
L 403.971467 -62.660571 
L 403.702754 -62.660571 
L 403.434041 -62.660571 
L 403.165327 -62.660571 
L 402.896614 -62.660571 
L 402.627901 -62.660571 
L 402.359187 -62.660571 
L 402.090474 -62.660571 
L 401.821761 -62.660571 
L 401.553047 -62.660571 
L 401.284334 -62.660571 
L 401.015621 -62.660571 
L 400.746907 -62.660571 
L 400.478194 -62.660571 
L 400.209481 -62.660571 
L 399.940767 -62.660571 
L 399.672054 -62.660571 
L 399.403341 -62.660571 
L 399.134628 -62.660571 
L 398.865914 -62.660571 
L 398.597201 -62.660571 
L 398.328488 -62.660571 
L 398.059774 -62.660571 
L 397.791061 -62.660571 
L 397.522348 -62.660571 
L 397.253634 -62.660571 
L 396.984921 -62.660571 
L 396.716208 -62.660571 
L 396.447494 -62.660571 
L 396.178781 -62.660571 
L 395.910068 -62.660571 
L 395.641354 -62.660571 
L 395.372641 -62.660571 
L 395.103928 -62.660571 
L 394.835214 -62.660571 
L 394.566501 -62.660571 
L 394.297788 -62.660571 
L 394.029074 -62.660571 
L 393.760361 -62.660571 
L 393.491648 -62.660571 
L 393.222935 -62.660571 
L 392.954221 -62.660571 
L 392.685508 -62.660571 
L 392.416795 -62.660571 
L 392.148081 -62.660571 
L 391.879368 -62.660571 
L 391.610655 -62.660571 
L 391.341941 -62.660571 
L 391.073228 -62.660571 
L 390.804515 -62.660571 
L 390.535801 -62.660571 
L 390.267088 -62.660571 
L 389.998375 -62.660571 
L 389.729661 -62.660571 
L 389.460948 -62.660571 
L 389.192235 -62.660571 
L 388.923521 -62.660571 
L 388.654808 -62.660571 
L 388.386095 -62.660571 
L 388.117381 -62.660571 
L 387.848668 -62.660571 
L 387.579955 -62.660571 
L 387.311242 -62.660571 
L 387.042528 -62.660571 
L 386.773815 -62.660571 
L 386.505102 -62.660571 
L 386.236388 -62.660571 
L 385.967675 -62.660571 
L 385.698962 -62.660571 
L 385.430248 -62.660571 
L 385.161535 -62.660571 
L 384.892822 -62.660571 
L 384.624108 -62.660571 
L 384.355395 -62.660571 
L 384.086682 -62.660571 
L 383.817968 -62.660571 
L 383.549255 -62.660571 
L 383.280542 -62.660571 
L 383.011828 -62.660571 
L 382.743115 -62.660571 
L 382.474402 -62.660571 
L 382.205688 -62.660571 
L 381.936975 -62.660571 
L 381.668262 -62.660571 
L 381.399549 -62.660571 
L 381.130835 -62.660571 
L 380.862122 -62.660571 
L 380.593409 -62.660571 
L 380.324695 -62.660571 
L 380.055982 -62.660571 
L 379.787269 -62.660571 
L 379.518555 -62.660571 
L 379.249842 -62.660571 
L 378.981129 -62.660571 
L 378.712415 -62.660571 
L 378.443702 -62.660571 
L 378.174989 -62.660571 
L 377.906275 -62.660571 
L 377.637562 -62.660571 
L 377.368849 -62.660571 
L 377.100135 -62.660571 
L 376.831422 -62.660571 
L 376.562709 -62.660571 
L 376.293995 -62.660571 
L 376.025282 -62.660571 
L 375.756569 -62.660571 
L 375.487856 -62.660571 
L 375.219142 -62.660571 
L 374.950429 -62.660571 
L 374.681716 -62.660571 
L 374.413002 -62.660571 
L 374.144289 -62.660571 
L 373.875576 -62.660571 
L 373.606862 -62.660571 
L 373.338149 -62.660571 
L 373.069436 -62.660571 
L 372.800722 -62.660571 
L 372.532009 -62.660571 
L 372.263296 -62.660571 
L 371.994582 -62.660571 
L 371.725869 -62.660571 
L 371.457156 -62.660571 
L 371.188442 -62.660571 
L 370.919729 -62.660571 
L 370.651016 -62.660571 
L 370.382302 -62.660571 
L 370.113589 -62.660571 
L 369.844876 -62.660571 
L 369.576163 -62.660571 
L 369.307449 -62.660571 
L 369.038736 -62.660571 
L 368.770023 -62.660571 
L 368.501309 -62.660571 
L 368.232596 -62.660571 
L 367.963883 -62.660571 
L 367.695169 -62.660571 
L 367.426456 -62.660571 
L 367.157743 -62.660571 
L 366.889029 -62.660571 
L 366.620316 -62.660571 
L 366.351603 -62.660571 
L 366.082889 -62.660571 
L 365.814176 -62.660571 
L 365.545463 -62.660571 
L 365.276749 -62.660571 
L 365.008036 -62.660571 
L 364.739323 -62.660571 
L 364.470609 -62.660571 
L 364.201896 -62.660571 
L 363.933183 -62.660571 
L 363.66447 -62.660571 
L 363.395756 -62.660571 
L 363.127043 -62.660571 
L 362.85833 -62.660571 
L 362.589616 -62.660571 
L 362.320903 -62.660571 
L 362.05219 -62.660571 
L 361.783476 -62.660571 
L 361.514763 -62.660571 
L 361.24605 -62.660571 
L 360.977336 -62.660571 
L 360.708623 -62.660571 
L 360.43991 -62.660571 
L 360.171196 -62.660571 
L 359.902483 -62.660571 
L 359.63377 -62.660571 
L 359.365056 -62.660571 
L 359.096343 -62.660571 
L 358.82763 -62.660571 
L 358.558916 -62.660571 
L 358.290203 -62.660571 
L 358.02149 -62.660571 
L 357.752777 -62.660571 
L 357.484063 -62.660571 
L 357.21535 -62.660571 
L 356.946637 -62.660571 
L 356.677923 -62.660571 
L 356.40921 -62.660571 
L 356.140497 -62.660571 
L 355.871783 -62.660571 
L 355.60307 -62.660571 
L 355.334357 -62.660571 
L 355.065643 -62.660571 
L 354.79693 -62.660571 
L 354.528217 -62.660571 
L 354.259503 -62.660571 
L 353.99079 -62.660571 
L 353.722077 -62.660571 
L 353.453363 -62.660571 
L 353.18465 -62.660571 
L 352.915937 -62.660571 
L 352.647223 -62.660571 
L 352.37851 -62.660571 
L 352.109797 -62.660571 
L 351.841084 -62.660571 
L 351.57237 -62.660571 
L 351.303657 -62.660571 
L 351.034944 -62.660571 
L 350.76623 -62.660571 
L 350.497517 -62.660571 
L 350.228804 -62.660571 
L 349.96009 -62.660571 
L 349.691377 -62.660571 
L 349.422664 -62.660571 
L 349.15395 -62.660571 
L 348.885237 -62.660571 
L 348.616524 -62.660571 
L 348.34781 -62.660571 
L 348.079097 -62.660571 
L 347.810384 -62.660571 
L 347.54167 -62.660571 
L 347.272957 -62.660571 
L 347.004244 -62.660571 
L 346.73553 -62.660571 
L 346.466817 -62.660571 
L 346.198104 -62.660571 
L 345.929391 -62.660571 
L 345.660677 -62.660571 
L 345.391964 -62.660571 
L 345.123251 -62.660571 
L 344.854537 -62.660571 
L 344.585824 -62.660571 
L 344.317111 -62.660571 
L 344.048397 -62.660571 
L 343.779684 -62.660571 
L 343.510971 -62.660571 
L 343.242257 -62.660571 
L 342.973544 -62.660571 
L 342.704831 -62.660571 
L 342.436117 -62.660571 
L 342.167404 -62.660571 
L 341.898691 -62.660571 
L 341.629977 -62.660571 
L 341.361264 -62.660571 
L 341.092551 -62.660571 
L 340.823837 -62.660571 
L 340.555124 -62.660571 
L 340.286411 -62.660571 
L 340.017698 -62.660571 
L 339.748984 -62.660571 
L 339.480271 -62.660571 
L 339.211558 -62.660571 
L 338.942844 -62.660571 
L 338.674131 -62.660571 
L 338.405418 -62.660571 
L 338.136704 -62.660571 
L 337.867991 -62.660571 
L 337.599278 -62.660571 
L 337.330564 -62.660571 
L 337.061851 -62.660571 
L 336.793138 -62.660571 
L 336.524424 -62.660571 
L 336.255711 -62.660571 
L 335.986998 -62.660571 
L 335.718284 -62.660571 
L 335.449571 -62.660571 
L 335.180858 -62.660571 
L 334.912144 -62.660571 
L 334.643431 -62.660571 
L 334.374718 -62.660571 
L 334.106005 -62.660571 
L 333.837291 -62.660571 
L 333.568578 -62.660571 
L 333.299865 -62.660571 
L 333.031151 -62.660571 
L 332.762438 -62.660571 
L 332.493725 -62.660571 
L 332.225011 -62.660571 
L 331.956298 -62.660571 
L 331.687585 -62.660571 
L 331.418871 -62.660571 
L 331.150158 -62.660571 
L 330.881445 -62.660571 
L 330.612731 -62.660571 
L 330.344018 -62.660571 
L 330.075305 -62.660571 
L 329.806591 -62.660571 
L 329.537878 -62.660571 
L 329.269165 -62.660571 
L 329.000451 -62.660571 
L 328.731738 -62.660571 
L 328.463025 -62.660571 
L 328.194312 -62.660571 
L 327.925598 -62.660571 
L 327.656885 -62.660571 
L 327.388172 -62.660571 
L 327.119458 -62.660571 
L 326.850745 -62.660571 
L 326.582032 -62.660571 
L 326.313318 -62.660571 
L 326.044605 -62.660571 
L 325.775892 -62.660571 
L 325.507178 -62.660571 
L 325.238465 -62.660571 
L 324.969752 -62.660571 
L 324.701038 -62.660571 
L 324.432325 -62.660571 
L 324.163612 -62.660571 
L 323.894898 -62.660571 
L 323.626185 -62.660571 
L 323.357472 -62.660571 
L 323.088758 -62.660571 
L 322.820045 -62.660571 
L 322.551332 -62.660571 
L 322.282619 -62.660571 
L 322.013905 -62.660571 
L 321.745192 -62.660571 
L 321.476479 -62.660571 
L 321.207765 -62.660571 
L 320.939052 -62.660571 
L 320.670339 -62.660571 
L 320.401625 -62.660571 
L 320.132912 -62.660571 
L 319.864199 -62.660571 
L 319.595485 -62.660571 
L 319.326772 -62.660571 
L 319.058059 -62.660571 
L 318.789345 -62.660571 
L 318.520632 -62.660571 
L 318.251919 -62.660571 
L 317.983205 -62.660571 
L 317.714492 -62.660571 
L 317.445779 -62.660571 
L 317.177065 -62.660571 
L 316.908352 -62.660571 
L 316.639639 -62.660571 
L 316.370926 -62.660571 
L 316.102212 -62.660571 
L 315.833499 -62.660571 
L 315.564786 -62.660571 
L 315.296072 -62.660571 
L 315.027359 -62.660571 
L 314.758646 -62.660571 
L 314.489932 -62.660571 
L 314.221219 -62.660571 
L 313.952506 -62.660571 
L 313.683792 -62.660571 
L 313.415079 -62.660571 
L 313.146366 -62.660571 
L 312.877652 -62.660571 
L 312.608939 -62.660571 
L 312.340226 -62.660571 
L 312.071512 -62.660571 
L 311.802799 -62.660571 
L 311.534086 -62.660571 
L 311.265372 -62.660571 
L 310.996659 -62.660571 
L 310.727946 -62.660571 
L 310.459233 -62.660571 
L 310.190519 -62.660571 
L 309.921806 -62.660571 
L 309.653093 -62.660571 
L 309.384379 -62.660571 
L 309.115666 -62.660571 
L 308.846953 -62.660571 
L 308.578239 -62.660571 
L 308.309526 -62.660571 
L 308.040813 -62.660571 
L 307.772099 -62.660571 
L 307.503386 -62.660571 
L 307.234673 -62.660571 
L 306.965959 -62.660571 
L 306.697246 -62.660571 
L 306.428533 -62.660571 
L 306.159819 -62.660571 
L 305.891106 -62.660571 
L 305.622393 -62.660571 
L 305.353679 -62.660571 
L 305.084966 -62.660571 
L 304.816253 -62.660571 
L 304.54754 -62.660571 
L 304.278826 -62.660571 
L 304.010113 -62.660571 
L 303.7414 -62.660571 
L 303.472686 -62.660571 
L 303.203973 -62.660571 
L 302.93526 -62.660571 
L 302.666546 -62.660571 
L 302.397833 -62.660571 
L 302.12912 -62.660571 
L 301.860406 -62.660571 
L 301.591693 -62.660571 
L 301.32298 -62.660571 
L 301.054266 -62.660571 
L 300.785553 -62.660571 
L 300.51684 -62.660571 
L 300.248126 -62.660571 
L 299.979413 -62.660571 
L 299.7107 -62.660571 
L 299.441986 -62.660571 
L 299.173273 -62.660571 
L 298.90456 -62.660571 
L 298.635847 -62.660571 
L 298.367133 -62.660571 
L 298.09842 -62.660571 
L 297.829707 -62.660571 
L 297.560993 -62.660571 
L 297.29228 -62.660571 
L 297.023567 -62.660571 
L 296.754853 -62.660571 
L 296.48614 -62.660571 
L 296.217427 -62.660571 
L 295.948713 -62.660571 
L 295.68 -62.660571 
L 295.411287 -62.660571 
L 295.142573 -62.660571 
L 294.87386 -62.660571 
L 294.605147 -62.660571 
L 294.336433 -62.660571 
L 294.06772 -62.660571 
L 293.799007 -62.660571 
L 293.530293 -62.660571 
L 293.26158 -62.660571 
L 292.992867 -62.660571 
L 292.724153 -62.660571 
L 292.45544 -62.660571 
L 292.186727 -62.660571 
L 291.918014 -62.660571 
L 291.6493 -62.660571 
L 291.380587 -62.660571 
L 291.111874 -62.660571 
L 290.84316 -62.660571 
L 290.574447 -62.660571 
L 290.305734 -62.660571 
L 290.03702 -62.660571 
L 289.768307 -62.660571 
L 289.499594 -62.660571 
L 289.23088 -62.660571 
L 288.962167 -62.660571 
L 288.693454 -62.660571 
L 288.42474 -62.660571 
L 288.156027 -62.660571 
L 287.887314 -62.660571 
L 287.6186 -62.660571 
L 287.349887 -62.660571 
L 287.081174 -62.660571 
L 286.81246 -62.660571 
L 286.543747 -62.660571 
L 286.275034 -62.660571 
L 286.006321 -62.660571 
L 285.737607 -62.660571 
L 285.468894 -62.660571 
L 285.200181 -62.660571 
L 284.931467 -62.660571 
L 284.662754 -62.660571 
L 284.394041 -62.660571 
L 284.125327 -62.660571 
L 283.856614 -62.660571 
L 283.587901 -62.660571 
L 283.319187 -62.660571 
L 283.050474 -62.660571 
L 282.781761 -62.660571 
L 282.513047 -62.660571 
L 282.244334 -62.660571 
L 281.975621 -62.660571 
L 281.706907 -62.660571 
L 281.438194 -62.660571 
L 281.169481 -62.660571 
L 280.900767 -62.660571 
L 280.632054 -62.660571 
L 280.363341 -62.660571 
L 280.094628 -62.660571 
L 279.825914 -62.660571 
L 279.557201 -62.660571 
L 279.288488 -62.660571 
L 279.019774 -62.660571 
L 278.751061 -62.660571 
L 278.482348 -62.660571 
L 278.213634 -62.660571 
L 277.944921 -62.660571 
L 277.676208 -62.660571 
L 277.407494 -62.660571 
L 277.138781 -62.660571 
L 276.870068 -62.660571 
L 276.601354 -62.660571 
L 276.332641 -62.660571 
L 276.063928 -62.660571 
L 275.795214 -62.660571 
L 275.526501 -62.660571 
L 275.257788 -62.660571 
L 274.989074 -62.660571 
L 274.720361 -62.660571 
L 274.451648 -62.660571 
L 274.182935 -62.660571 
L 273.914221 -62.660571 
L 273.645508 -62.660571 
L 273.376795 -62.660571 
L 273.108081 -62.660571 
L 272.839368 -62.660571 
L 272.570655 -62.660571 
L 272.301941 -62.660571 
L 272.033228 -62.660571 
L 271.764515 -62.660571 
L 271.495801 -62.660571 
L 271.227088 -62.660571 
L 270.958375 -62.660571 
L 270.689661 -62.660571 
L 270.420948 -62.660571 
L 270.152235 -62.660571 
L 269.883521 -62.660571 
L 269.614808 -62.660571 
L 269.346095 -62.660571 
L 269.077381 -62.660571 
L 268.808668 -62.660571 
L 268.539955 -62.660571 
L 268.271242 -62.660571 
L 268.002528 -62.660571 
L 267.733815 -62.660571 
L 267.465102 -62.660571 
L 267.196388 -62.660571 
L 266.927675 -62.660571 
L 266.658962 -62.660571 
L 266.390248 -62.660571 
L 266.121535 -62.660571 
L 265.852822 -62.660571 
L 265.584108 -62.660571 
L 265.315395 -62.660571 
L 265.046682 -62.660571 
L 264.777968 -62.660571 
L 264.509255 -62.660571 
L 264.240542 -62.660571 
L 263.971828 -62.660571 
L 263.703115 -62.660571 
L 263.434402 -62.660571 
L 263.165688 -62.660571 
L 262.896975 -62.660571 
L 262.628262 -62.660571 
L 262.359549 -62.660571 
L 262.090835 -62.660571 
L 261.822122 -62.660571 
L 261.553409 -62.660571 
L 261.284695 -62.660571 
L 261.015982 -62.660571 
L 260.747269 -62.660571 
L 260.478555 -62.660571 
L 260.209842 -62.660571 
L 259.941129 -62.660571 
L 259.672415 -62.660571 
L 259.403702 -62.660571 
L 259.134989 -62.660571 
L 258.866275 -62.660571 
L 258.597562 -62.660571 
L 258.328849 -62.660571 
L 258.060135 -62.660571 
L 257.791422 -62.660571 
L 257.522709 -62.660571 
L 257.253995 -62.660571 
L 256.985282 -62.660571 
L 256.716569 -62.660571 
L 256.447856 -62.660571 
L 256.179142 -62.660571 
L 255.910429 -62.660571 
L 255.641716 -62.660571 
L 255.373002 -62.660571 
L 255.104289 -62.660571 
L 254.835576 -62.660571 
L 254.566862 -62.660571 
L 254.298149 -62.660571 
L 254.029436 -62.660571 
L 253.760722 -62.660571 
L 253.492009 -62.660571 
L 253.223296 -62.660571 
L 252.954582 -62.660571 
L 252.685869 -62.660571 
L 252.417156 -62.660571 
L 252.148442 -62.660571 
L 251.879729 -62.660571 
L 251.611016 -62.660571 
L 251.342302 -62.660571 
L 251.073589 -62.660571 
L 250.804876 -62.660571 
L 250.536163 -62.660571 
L 250.267449 -62.660571 
L 249.998736 -62.660571 
L 249.730023 -62.660571 
L 249.461309 -62.660571 
L 249.192596 -62.660571 
L 248.923883 -62.660571 
L 248.655169 -62.660571 
L 248.386456 -62.660571 
L 248.117743 -62.660571 
L 247.849029 -62.660571 
L 247.580316 -62.660571 
L 247.311603 -62.660571 
L 247.042889 -62.660571 
L 246.774176 -62.660571 
L 246.505463 -62.660571 
L 246.236749 -62.660571 
L 245.968036 -62.660571 
L 245.699323 -62.660571 
L 245.430609 -62.660571 
L 245.161896 -62.660571 
L 244.893183 -62.660571 
L 244.62447 -62.660571 
L 244.355756 -62.660571 
L 244.087043 -62.660571 
L 243.81833 -62.660571 
L 243.549616 -62.660571 
L 243.280903 -62.660571 
L 243.01219 -62.660571 
L 242.743476 -62.660571 
L 242.474763 -62.660571 
L 242.20605 -62.660571 
L 241.937336 -62.660571 
L 241.668623 -62.660571 
L 241.39991 -62.660571 
L 241.131196 -62.660571 
L 240.862483 -62.660571 
L 240.59377 -62.660571 
L 240.325056 -62.660571 
L 240.056343 -62.660571 
L 239.78763 -62.660571 
L 239.518916 -62.660571 
L 239.250203 -62.660571 
L 238.98149 -62.660571 
L 238.712777 -62.660571 
L 238.444063 -62.660571 
L 238.17535 -62.660571 
L 237.906637 -62.660571 
L 237.637923 -62.660571 
L 237.36921 -62.660571 
L 237.100497 -62.660571 
L 236.831783 -62.660571 
L 236.56307 -62.660571 
L 236.294357 -62.660571 
L 236.025643 -62.660571 
L 235.75693 -62.660571 
L 235.488217 -62.660571 
L 235.219503 -62.660571 
L 234.95079 -62.660571 
L 234.682077 -62.660571 
L 234.413363 -62.660571 
L 234.14465 -62.660571 
L 233.875937 -62.660571 
L 233.607223 -62.660571 
L 233.33851 -62.660571 
L 233.069797 -62.660571 
L 232.801084 -62.660571 
L 232.53237 -62.660571 
L 232.263657 -62.660571 
L 231.994944 -62.660571 
L 231.72623 -62.660571 
L 231.457517 -62.660571 
L 231.188804 -62.660571 
L 230.92009 -62.660571 
L 230.651377 -62.660571 
L 230.382664 -62.660571 
L 230.11395 -62.660571 
L 229.845237 -62.660571 
L 229.576524 -62.660571 
L 229.30781 -62.660571 
L 229.039097 -62.660571 
L 228.770384 -62.660571 
L 228.50167 -62.660571 
L 228.232957 -62.660571 
L 227.964244 -62.660571 
L 227.69553 -62.660571 
L 227.426817 -62.660571 
L 227.158104 -62.660571 
L 226.889391 -62.660571 
L 226.620677 -62.660571 
L 226.351964 -62.660571 
L 226.083251 -62.660571 
L 225.814537 -62.660571 
L 225.545824 -62.660571 
L 225.277111 -62.660571 
L 225.008397 -62.660571 
L 224.739684 -62.660571 
L 224.470971 -62.660571 
L 224.202257 -62.660571 
L 223.933544 -62.660571 
L 223.664831 -62.660571 
L 223.396117 -62.660571 
L 223.127404 -62.660571 
L 222.858691 -62.660571 
L 222.589977 -62.660571 
L 222.321264 -62.660571 
L 222.052551 -62.660571 
L 221.783837 -62.660571 
L 221.515124 -62.660571 
L 221.246411 -62.660571 
L 220.977698 -62.660571 
L 220.708984 -62.660571 
L 220.440271 -62.660571 
L 220.171558 -62.660571 
L 219.902844 -62.660571 
L 219.634131 -62.660571 
L 219.365418 -62.660571 
L 219.096704 -62.660571 
L 218.827991 -62.660571 
L 218.559278 -62.660571 
L 218.290564 -62.660571 
L 218.021851 -62.660571 
L 217.753138 -62.660571 
L 217.484424 -62.660571 
L 217.215711 -62.660571 
L 216.946998 -62.660571 
L 216.678284 -62.660571 
L 216.409571 -62.660571 
L 216.140858 -62.660571 
L 215.872144 -62.660571 
L 215.603431 -62.660571 
L 215.334718 -62.660571 
L 215.066005 -62.660571 
L 214.797291 -62.660571 
L 214.528578 -62.660571 
L 214.259865 -62.660571 
L 213.991151 -62.660571 
L 213.722438 -62.660571 
L 213.453725 -62.660571 
L 213.185011 -62.660571 
L 212.916298 -62.660571 
L 212.647585 -62.660571 
L 212.378871 -62.660571 
L 212.110158 -62.660571 
L 211.841445 -62.660571 
L 211.572731 -62.660571 
L 211.304018 -62.660571 
L 211.035305 -62.660571 
L 210.766591 -62.660571 
L 210.497878 -62.660571 
L 210.229165 -62.660571 
L 209.960451 -62.660571 
L 209.691738 -62.660571 
L 209.423025 -62.660571 
L 209.154312 -62.660571 
L 208.885598 -62.660571 
L 208.616885 -62.660571 
L 208.348172 -62.660571 
L 208.079458 -62.660571 
L 207.810745 -62.660571 
L 207.542032 -62.660571 
L 207.273318 -62.660571 
L 207.004605 -62.660571 
L 206.735892 -62.660571 
L 206.467178 -62.660571 
L 206.198465 -62.660571 
L 205.929752 -62.660571 
L 205.661038 -62.660571 
L 205.392325 -62.660571 
L 205.123612 -62.660571 
L 204.854898 -62.660571 
L 204.586185 -62.660571 
L 204.317472 -62.660571 
L 204.048758 -62.660571 
L 203.780045 -62.660571 
L 203.511332 -62.660571 
L 203.242619 -62.660571 
L 202.973905 -62.660571 
L 202.705192 -62.660571 
L 202.436479 -62.660571 
L 202.167765 -62.660571 
L 201.899052 -62.660571 
L 201.630339 -62.660571 
L 201.361625 -62.660571 
L 201.092912 -62.660571 
L 200.824199 -62.660571 
L 200.555485 -62.660571 
L 200.286772 -62.660571 
L 200.018059 -62.660571 
L 199.749345 -62.660571 
L 199.480632 -62.660571 
L 199.211919 -62.660571 
L 198.943205 -62.660571 
L 198.674492 -62.660571 
L 198.405779 -62.660571 
L 198.137065 -62.660571 
L 197.868352 -62.660571 
L 197.599639 -62.660571 
L 197.330926 -62.660571 
L 197.062212 -62.660571 
L 196.793499 -62.660571 
L 196.524786 -62.660571 
L 196.256072 -62.660571 
L 195.987359 -62.660571 
L 195.718646 -62.660571 
L 195.449932 -62.660571 
L 195.181219 -62.660571 
L 194.912506 -62.660571 
L 194.643792 -62.660571 
L 194.375079 -62.660571 
L 194.106366 -62.660571 
L 193.837652 -62.660571 
L 193.568939 -62.660571 
L 193.300226 -62.660571 
L 193.031512 -62.660571 
L 192.762799 -62.660571 
L 192.494086 -62.660571 
L 192.225372 -62.660571 
L 191.956659 -62.660571 
L 191.687946 -62.660571 
L 191.419233 -62.660571 
L 191.150519 -62.660571 
L 190.881806 -62.660571 
L 190.613093 -62.660571 
L 190.344379 -62.660571 
L 190.075666 -62.660571 
L 189.806953 -62.660571 
L 189.538239 -62.660571 
L 189.269526 -62.660571 
L 189.000813 -62.660571 
L 188.732099 -62.660571 
L 188.463386 -62.660571 
L 188.194673 -62.660571 
L 187.925959 -62.660571 
L 187.657246 -62.660571 
L 187.388533 -62.660571 
L 187.119819 -62.660571 
L 186.851106 -62.660571 
L 186.582393 -62.660571 
L 186.313679 -62.660571 
L 186.044966 -62.660571 
L 185.776253 -62.660571 
L 185.50754 -62.660571 
L 185.238826 -62.660571 
L 184.970113 -62.660571 
L 184.7014 -62.660571 
L 184.432686 -62.660571 
L 184.163973 -62.660571 
L 183.89526 -62.660571 
L 183.626546 -62.660571 
L 183.357833 -62.660571 
L 183.08912 -62.660571 
L 182.820406 -62.660571 
L 182.551693 -62.660571 
L 182.28298 -62.660571 
L 182.014266 -62.660571 
L 181.745553 -62.660571 
L 181.47684 -62.660571 
L 181.208126 -62.660571 
L 180.939413 -62.660571 
L 180.6707 -62.660571 
L 180.401986 -62.660571 
L 180.133273 -62.660571 
L 179.86456 -62.660571 
L 179.595847 -62.660571 
L 179.327133 -62.660571 
L 179.05842 -62.660571 
L 178.789707 -62.660571 
L 178.520993 -62.660571 
L 178.25228 -62.660571 
L 177.983567 -62.660571 
L 177.714853 -62.660571 
L 177.44614 -62.660571 
L 177.177427 -62.660571 
L 176.908713 -62.660571 
L 176.64 -62.660571 
L 176.371287 -62.660571 
L 176.102573 -62.660571 
L 175.83386 -62.660571 
L 175.565147 -62.660571 
L 175.296433 -62.660571 
L 175.02772 -62.660571 
L 174.759007 -62.660571 
L 174.490293 -62.660571 
L 174.22158 -62.660571 
L 173.952867 -62.660571 
L 173.684153 -62.660571 
L 173.41544 -62.660571 
L 173.146727 -62.660571 
L 172.878014 -62.660571 
L 172.6093 -62.660571 
L 172.340587 -62.660571 
L 172.071874 -62.660571 
L 171.80316 -62.660571 
L 171.534447 -62.660571 
L 171.265734 -62.660571 
L 170.99702 -62.660571 
L 170.728307 -62.660571 
L 170.459594 -62.660571 
L 170.19088 -62.660571 
L 169.922167 -62.660571 
L 169.653454 -62.660571 
L 169.38474 -62.660571 
L 169.116027 -62.660571 
L 168.847314 -62.660571 
L 168.5786 -62.660571 
L 168.309887 -62.660571 
L 168.041174 -62.660571 
L 167.77246 -62.660571 
L 167.503747 -62.660571 
L 167.235034 -62.660571 
L 166.966321 -62.660571 
L 166.697607 -62.660571 
L 166.428894 -62.660571 
L 166.160181 -62.660571 
L 165.891467 -62.660571 
L 165.622754 -62.660571 
L 165.354041 -62.660571 
L 165.085327 -62.660571 
L 164.816614 -62.660571 
L 164.547901 -62.660571 
L 164.279187 -62.660571 
L 164.010474 -62.660571 
L 163.741761 -62.660571 
L 163.473047 -62.660571 
L 163.204334 -62.660571 
L 162.935621 -62.660571 
L 162.666907 -62.660571 
L 162.398194 -62.660571 
L 162.129481 -62.660571 
L 161.860767 -62.660571 
L 161.592054 -62.660571 
L 161.323341 -62.660571 
L 161.054628 -62.660571 
L 160.785914 -62.660571 
L 160.517201 -62.660571 
L 160.248488 -62.660571 
L 159.979774 -62.660571 
L 159.711061 -62.660571 
L 159.442348 -62.660571 
L 159.173634 -62.660571 
L 158.904921 -62.660571 
L 158.636208 -62.660571 
L 158.367494 -62.660571 
L 158.098781 -62.660571 
L 157.830068 -62.660571 
L 157.561354 -62.660571 
L 157.292641 -62.660571 
L 157.023928 -62.660571 
L 156.755214 -62.660571 
L 156.486501 -62.660571 
L 156.217788 -62.660571 
L 155.949074 -62.660571 
L 155.680361 -62.660571 
L 155.411648 -62.660571 
L 155.142935 -62.660571 
L 154.874221 -62.660571 
L 154.605508 -62.660571 
L 154.336795 -62.660571 
L 154.068081 -62.660571 
L 153.799368 -62.660571 
L 153.530655 -62.660571 
L 153.261941 -62.660571 
L 152.993228 -62.660571 
L 152.724515 -62.660571 
L 152.455801 -62.660571 
L 152.187088 -62.660571 
L 151.918375 -62.660571 
L 151.649661 -62.660571 
L 151.380948 -62.660571 
L 151.112235 -62.660571 
L 150.843521 -62.660571 
L 150.574808 -62.660571 
L 150.306095 -62.660571 
L 150.037381 -62.660571 
L 149.768668 -62.660571 
L 149.499955 -62.660571 
L 149.231242 -62.660571 
L 148.962528 -62.660571 
L 148.693815 -62.660571 
L 148.425102 -62.660571 
L 148.156388 -62.660571 
L 147.887675 -62.660571 
L 147.618962 -62.660571 
L 147.350248 -62.660571 
L 147.081535 -62.660571 
L 146.812822 -62.660571 
L 146.544108 -62.660571 
L 146.275395 -62.660571 
L 146.006682 -62.660571 
L 145.737968 -62.660571 
L 145.469255 -62.660571 
L 145.200542 -62.660571 
L 144.931828 -62.660571 
L 144.663115 -62.660571 
L 144.394402 -62.660571 
L 144.125688 -62.660571 
L 143.856975 -62.660571 
L 143.588262 -62.660571 
L 143.319549 -62.660571 
L 143.050835 -62.660571 
L 142.782122 -62.660571 
L 142.513409 -62.660571 
L 142.244695 -62.660571 
L 141.975982 -62.660571 
L 141.707269 -62.660571 
L 141.438555 -62.660571 
L 141.169842 -62.660571 
L 140.901129 -62.660571 
L 140.632415 -62.660571 
L 140.363702 -62.660571 
L 140.094989 -62.660571 
L 139.826275 -62.660571 
L 139.557562 -62.660571 
L 139.288849 -62.660571 
L 139.020135 -62.660571 
L 138.751422 -62.660571 
L 138.482709 -62.660571 
L 138.213995 -62.660571 
L 137.945282 -62.660571 
L 137.676569 -62.660571 
L 137.407856 -62.660571 
L 137.139142 -62.660571 
L 136.870429 -62.660571 
L 136.601716 -62.660571 
L 136.333002 -62.660571 
L 136.064289 -62.660571 
L 135.795576 -62.660571 
L 135.526862 -62.660571 
L 135.258149 -62.660571 
L 134.989436 -62.660571 
L 134.720722 -62.660571 
L 134.452009 -62.660571 
L 134.183296 -62.660571 
L 133.914582 -62.660571 
L 133.645869 -62.660571 
L 133.377156 -62.660571 
L 133.108442 -62.660571 
L 132.839729 -62.660571 
L 132.571016 -62.660571 
L 132.302302 -62.660571 
L 132.033589 -62.660571 
L 131.764876 -62.660571 
L 131.496163 -62.660571 
L 131.227449 -62.660571 
L 130.958736 -62.660571 
L 130.690023 -62.660571 
L 130.421309 -62.660571 
L 130.152596 -62.660571 
L 129.883883 -62.660571 
L 129.615169 -62.660571 
L 129.346456 -62.660571 
L 129.077743 -62.660571 
L 128.809029 -62.660571 
L 128.540316 -62.660571 
L 128.271603 -62.660571 
L 128.002889 -62.660571 
L 127.734176 -62.660571 
L 127.465463 -62.660571 
L 127.196749 -62.660571 
L 126.928036 -62.660571 
L 126.659323 -62.660571 
L 126.390609 -62.660571 
L 126.121896 -62.660571 
L 125.853183 -62.660571 
L 125.58447 -62.660571 
L 125.315756 -62.660571 
L 125.047043 -62.660571 
L 124.77833 -62.660571 
L 124.509616 -62.660571 
L 124.240903 -62.660571 
L 123.97219 -62.660571 
L 123.703476 -62.660571 
L 123.434763 -62.660571 
L 123.16605 -62.660571 
L 122.897336 -62.660571 
L 122.628623 -62.660571 
L 122.35991 -62.660571 
L 122.091196 -62.660571 
L 121.822483 -62.660571 
L 121.55377 -62.660571 
L 121.285056 -62.660571 
L 121.016343 -62.660571 
L 120.74763 -62.660571 
L 120.478916 -62.660571 
L 120.210203 -62.660571 
L 119.94149 -62.660571 
L 119.672777 -62.660571 
L 119.404063 -62.660571 
L 119.13535 -62.660571 
L 118.866637 -62.660571 
L 118.597923 -62.660571 
L 118.32921 -62.660571 
L 118.060497 -62.660571 
L 117.791783 -62.660571 
L 117.52307 -62.660571 
L 117.254357 -62.660571 
L 116.985643 -62.660571 
L 116.71693 -62.660571 
L 116.448217 -62.660571 
L 116.179503 -62.660571 
L 115.91079 -62.660571 
L 115.642077 -62.660571 
L 115.373363 -62.660571 
L 115.10465 -62.660571 
L 114.835937 -62.660571 
L 114.567223 -62.660571 
L 114.29851 -62.660571 
L 114.029797 -62.660571 
L 113.761084 -62.660571 
L 113.49237 -62.660571 
L 113.223657 -62.660571 
L 112.954944 -62.660571 
L 112.68623 -62.660571 
L 112.417517 -62.660571 
L 112.148804 -62.660571 
L 111.88009 -62.660571 
L 111.611377 -62.660571 
L 111.342664 -62.660571 
L 111.07395 -62.660571 
L 110.805237 -62.660571 
L 110.536524 -62.660571 
L 110.26781 -62.660571 
L 109.999097 -62.660571 
L 109.730384 -62.660571 
L 109.46167 -62.660571 
L 109.192957 -62.660571 
L 108.924244 -62.660571 
L 108.65553 -62.660571 
L 108.386817 -62.660571 
L 108.118104 -62.660571 
L 107.849391 -62.660571 
L 107.580677 -62.660571 
L 107.311964 -62.660571 
L 107.043251 -62.660571 
L 106.774537 -62.660571 
L 106.505824 -62.660571 
L 106.237111 -62.660571 
L 105.968397 -62.660571 
L 105.699684 -62.660571 
L 105.430971 -62.660571 
L 105.162257 -62.660571 
L 104.893544 -62.660571 
L 104.624831 -62.660571 
L 104.356117 -62.660571 
L 104.087404 -62.660571 
L 103.818691 -62.660571 
L 103.549977 -62.660571 
L 103.281264 -62.660571 
L 103.012551 -62.660571 
L 102.743837 -62.660571 
L 102.475124 -62.660571 
L 102.206411 -62.660571 
L 101.937698 -62.660571 
L 101.668984 -62.660571 
L 101.400271 -62.660571 
L 101.131558 -62.660571 
L 100.862844 -62.660571 
L 100.594131 -62.660571 
L 100.325418 -62.660571 
L 100.056704 -62.660571 
L 99.787991 -62.660571 
L 99.519278 -62.660571 
L 99.250564 -62.660571 
L 98.981851 -62.660571 
L 98.713138 -62.660571 
L 98.444424 -62.660571 
L 98.175711 -62.660571 
L 97.906998 -62.660571 
L 97.638284 -62.660571 
L 97.369571 -62.660571 
L 97.100858 -62.660571 
L 96.832144 -62.660571 
L 96.563431 -62.660571 
L 96.294718 -62.660571 
L 96.026005 -62.660571 
L 95.757291 -62.660571 
L 95.488578 -62.660571 
L 95.219865 -62.660571 
L 94.951151 -62.660571 
L 94.682438 -62.660571 
L 94.413725 -62.660571 
L 94.145011 -62.660571 
L 93.876298 -62.660571 
L 93.607585 -62.660571 
L 93.338871 -62.660571 
L 93.070158 -62.660571 
L 92.801445 -62.660571 
L 92.532731 -62.660571 
L 92.264018 -62.660571 
L 91.995305 -62.660571 
L 91.726591 -62.660571 
L 91.457878 -62.660571 
L 91.189165 -62.660571 
L 90.920451 -62.660571 
L 90.651738 -62.660571 
L 90.383025 -62.660571 
L 90.114312 -62.660571 
L 89.845598 -62.660571 
L 89.576885 -62.660571 
L 89.308172 -62.660571 
L 89.039458 -62.660571 
L 88.770745 -62.660571 
L 88.502032 -62.660571 
L 88.233318 -62.660571 
L 87.964605 -62.660571 
L 87.695892 -62.660571 
L 87.427178 -62.660571 
L 87.158465 -62.660571 
L 86.889752 -62.660571 
L 86.621038 -62.660571 
L 86.352325 -62.660571 
L 86.083612 -62.660571 
L 85.814898 -62.660571 
L 85.546185 -62.660571 
L 85.277472 -62.660571 
L 85.008758 -62.660571 
L 84.740045 -62.660571 
L 84.471332 -62.660571 
L 84.202619 -62.660571 
L 83.933905 -62.660571 
L 83.665192 -62.660571 
L 83.396479 -62.660571 
L 83.127765 -62.660571 
L 82.859052 -62.660571 
L 82.590339 -62.660571 
L 82.321625 -62.660571 
L 82.052912 -62.660571 
L 81.784199 -62.660571 
L 81.515485 -62.660571 
L 81.246772 -62.660571 
L 80.978059 -62.660571 
L 80.709345 -62.660571 
L 80.440632 -62.660571 
L 80.171919 -62.660571 
L 79.903205 -62.660571 
L 79.634492 -62.660571 
L 79.365779 -62.660571 
L 79.097065 -62.660571 
L 78.828352 -62.660571 
L 78.559639 -62.660571 
L 78.290926 -62.660571 
L 78.022212 -62.660571 
L 77.753499 -62.660571 
L 77.484786 -62.660571 
L 77.216072 -62.660571 
L 76.947359 -62.660571 
L 76.678646 -62.660571 
L 76.409932 -62.660571 
L 76.141219 -62.660571 
L 75.872506 -62.660571 
L 75.603792 -62.660571 
L 75.335079 -62.660571 
L 75.066366 -62.660571 
L 74.797652 -62.660571 
L 74.528939 -62.660571 
L 74.260226 -62.660571 
L 73.991512 -62.660571 
L 73.722799 -62.660571 
L 73.454086 -62.660571 
L 73.185372 -62.660571 
L 72.916659 -62.660571 
L 72.647946 -62.660571 
L 72.379233 -62.660571 
L 72.110519 -62.660571 
L 71.841806 -62.660571 
L 71.573093 -62.660571 
L 71.304379 -62.660571 
L 71.035666 -62.660571 
L 70.766953 -62.660571 
L 70.498239 -62.660571 
L 70.229526 -62.660571 
L 69.960813 -62.660571 
L 69.692099 -62.660571 
L 69.423386 -62.660571 
L 69.154673 -62.660571 
L 68.885959 -62.660571 
L 68.617246 -62.660571 
L 68.348533 -62.660571 
L 68.079819 -62.660571 
L 67.811106 -62.660571 
L 67.542393 -62.660571 
L 67.273679 -62.660571 
L 67.004966 -62.660571 
L 66.736253 -62.660571 
L 66.46754 -62.660571 
L 66.198826 -62.660571 
L 65.930113 -62.660571 
L 65.6614 -62.660571 
L 65.392686 -62.660571 
L 65.123973 -62.660571 
L 64.85526 -62.660571 
L 64.586546 -62.660571 
L 64.317833 -62.660571 
L 64.04912 -62.660571 
L 63.780406 -62.660571 
L 63.511693 -62.660571 
L 63.24298 -62.660571 
L 62.974266 -62.660571 
L 62.705553 -62.660571 
L 62.43684 -62.660571 
L 62.168126 -62.660571 
L 61.899413 -62.660571 
L 61.6307 -62.660571 
L 61.361986 -62.660571 
L 61.093273 -62.660571 
L 60.82456 -62.660571 
L 60.555847 -62.660571 
L 60.287133 -62.660571 
L 60.01842 -62.660571 
L 59.749707 -62.660571 
L 59.480993 -62.660571 
L 59.21228 -62.660571 
L 58.943567 -62.660571 
L 58.674853 -62.660571 
L 58.40614 -62.660571 
L 58.137427 -62.660571 
L 57.868713 -62.660571 
L 57.6 -62.660571 
z
" style="stroke: #d4edfc; stroke-opacity: 0.9"/>
    </defs>
    <g clip-path="url(#p3a4e433eff)">
     <use xlink:href="#m2670ce618b" x="0" y="345.6" style="fill: #d4edfc; fill-opacity: 0.9; stroke: #d4edfc; stroke-opacity: 0.9"/>
    </g>
   </g>
   <g id="matplotlib.axis_1">
    <g id="xtick_1">
     <g id="line2d_1">
      <path d="M 115.386972 219.168 
L 115.386972 129.888 
" clip-path="url(#p3a4e433eff)" style="fill: none"/>
     </g>
     <g id="line2d_2"/>
     <g id="text_1">
      <text style="fill: #004a80; font: 13px 'DejaVu Sans', 'Bitstream Vera Sans', 'Computer Modern Sans Serif', 'Lucida Grande', 'Verdana', 'Geneva', 'Lucid', 'Arial', 'Helvetica', 'Avant Garde', sans-serif; text-anchor: middle" x="115.386972" y="232.545969" transform="rotate(-0 115.386972 232.545969)">0.50</text>
     </g>
    </g>
    <g id="xtick_2">
     <g id="line2d_3">
      <path d="M 173.173944 219.168 
L 173.173944 129.888 
" clip-path="url(#p3a4e433eff)" style="fill: none"/>
     </g>
     <g id="line2d_4"/>
     <g id="text_2">
      <text style="fill: #004a80; font: 13px 'DejaVu Sans', 'Bitstream Vera Sans', 'Computer Modern Sans Serif', 'Lucida Grande', 'Verdana', 'Geneva', 'Lucid', 'Arial', 'Helvetica', 'Avant Garde', sans-serif; text-anchor: middle" x="173.173944" y="232.545969" transform="rotate(-0 173.173944 232.545969)">1.00</text>
     </g>
    </g>
    <g id="xtick_3">
     <g id="line2d_5">
      <path d="M 230.960916 219.168 
L 230.960916 129.888 
" clip-path="url(#p3a4e433eff)" style="fill: none"/>
     </g>
     <g id="line2d_6"/>
     <g id="text_3">
      <text style="fill: #004a80; font: 13px 'DejaVu Sans', 'Bitstream Vera Sans', 'Computer Modern Sans Serif', 'Lucida Grande', 'Verdana', 'Geneva', 'Lucid', 'Arial', 'Helvetica', 'Avant Garde', sans-serif; text-anchor: middle" x="230.960916" y="232.545969" transform="rotate(-0 230.960916 232.545969)">1.50</text>
     </g>
    </g>
    <g id="xtick_4">
     <g id="line2d_7">
      <path d="M 288.747888 219.168 
L 288.747888 129.888 
" clip-path="url(#p3a4e433eff)" style="fill: none"/>
     </g>
     <g id="line2d_8"/>
     <g id="text_4">
      <text style="fill: #004a80; font: 13px 'DejaVu Sans', 'Bitstream Vera Sans', 'Computer Modern Sans Serif', 'Lucida Grande', 'Verdana', 'Geneva', 'Lucid', 'Arial', 'Helvetica', 'Avant Garde', sans-serif; text-anchor: middle" x="288.747888" y="232.545969" transform="rotate(-0 288.747888 232.545969)">2.00</text>
     </g>
    </g>
    <g id="xtick_5">
     <g id="line2d_9">
      <path d="M 346.53486 219.168 
L 346.53486 129.888 
" clip-path="url(#p3a4e433eff)" style="fill: none"/>
     </g>
     <g id="line2d_10"/>
     <g id="text_5">
      <text style="fill: #004a80; font: 13px 'DejaVu Sans', 'Bitstream Vera Sans', 'Computer Modern Sans Serif', 'Lucida Grande', 'Verdana', 'Geneva', 'Lucid', 'Arial', 'Helvetica', 'Avant Garde', sans-serif; text-anchor: middle" x="346.53486" y="232.545969" transform="rotate(-0 346.53486 232.545969)">2.50</text>
     </g>
    </g>
    <g id="xtick_6">
     <g id="line2d_11">
      <path d="M 414.72 219.168 
L 414.72 129.888 
" clip-path="url(#p3a4e433eff)" style="fill: none"/>
     </g>
     <g id="line2d_12"/>
     <g id="text_6">
      <text style="fill: #004a80; font: 13px 'DejaVu Sans', 'Bitstream Vera Sans', 'Computer Modern Sans Serif', 'Lucida Grande', 'Verdana', 'Geneva', 'Lucid', 'Arial', 'Helvetica', 'Avant Garde', sans-serif; text-anchor: middle" x="414.72" y="232.545969" transform="rotate(-0 414.72 232.545969)">3.09</text>
     </g>
    </g>
    <g id="text_7">
     <text style="font: 10px 'DejaVu Sans', 'Bitstream Vera Sans', 'Computer Modern Sans Serif', 'Lucida Grande', 'Verdana', 'Geneva', 'Lucid', 'Arial', 'Helvetica', 'Avant Garde', sans-serif; text-anchor: middle" x="236.16" y="246.848" transform="rotate(-0 236.16 246.848)">Distance (km)</text>
    </g>
   </g>
   <g id="matplotlib.axis_2">
    <g id="ytick_1">
     <g id="line2d_13">
      <path d="M 57.6 219.168 
L 414.72 219.168 
" clip-path="url(#p3a4e433eff)" style="fill: none; stroke: #9d9d9c; stroke-width: 0.8; stroke-linecap: square"/>
     </g>
     <g id="line2d_14"/>
     <g id="text_8">
      <text style="font: 12px 'DejaVu Sans', 'Bitstream Vera Sans', 'Computer Modern Sans Serif', 'Lucida Grande', 'Verdana', 'Geneva', 'Lucid', 'Arial', 'Helvetica', 'Avant Garde', sans-serif; text-anchor: end" x="54.1" y="223.727062" transform="rotate(-0 54.1 223.727062)">500</text>
     </g>
    </g>
    <g id="ytick_2">
     <g id="line2d_15">
      <path d="M 57.6 187.282286 
L 414.72 187.282286 
" clip-path="url(#p3a4e433eff)" style="fill: none; stroke: #9d9d9c; stroke-width: 0.8; stroke-linecap: square"/>
     </g>
     <g id="line2d_16"/>
     <g id="text_9">
      <text style="font: 12px 'DejaVu Sans', 'Bitstream Vera Sans', 'Computer Modern Sans Serif', 'Lucida Grande', 'Verdana', 'Geneva', 'Lucid', 'Arial', 'Helvetica', 'Avant Garde', sans-serif; text-anchor: end" x="54.1" y="191.841348" transform="rotate(-0 54.1 191.841348)">750</text>
     </g>
    </g>
    <g id="ytick_3">
     <g id="line2d_17">
      <path d="M 57.6 155.396571 
L 414.72 155.396571 
" clip-path="url(#p3a4e433eff)" style="fill: none; stroke: #9d9d9c; stroke-width: 0.8; stroke-linecap: square"/>
     </g>
     <g id="line2d_18"/>
     <g id="text_10">
      <text style="font: 12px 'DejaVu Sans', 'Bitstream Vera Sans', 'Computer Modern Sans Serif', 'Lucida Grande', 'Verdana', 'Geneva', 'Lucid', 'Arial', 'Helvetica', 'Avant Garde', sans-serif; text-anchor: end" x="54.1" y="159.955634" transform="rotate(-0 54.1 159.955634)">1000</text>
     </g>
    </g>
   </g>
   <g id="LineCollection_1">
    <path d="M 115.386972 282.939429 
L 115.386972 162.666514 
" clip-path="url(#p3a4e433eff)" style="fill: none; stroke-dasharray: 7.4,3.2; stroke-dashoffset: 0; stroke: #004a80; stroke-width: 2"/>
    <path d="M 173.173944 282.939429 
L 173.173944 164.069486 
" clip-path="url(#p3a4e433eff)" style="fill: none; stroke-dasharray: 7.4,3.2; stroke-dashoffset: 0; stroke: #004a80; stroke-width: 2"/>
    <path d="M 230.960916 282.939429 
L 230.960916 163.941943 
" clip-path="url(#p3a4e433eff)" style="fill: none; stroke-dasharray: 7.4,3.2; stroke-dashoffset: 0; stroke: #004a80; stroke-width: 2"/>
    <path d="M 288.747888 282.939429 
L 288.747888 163.8144 
" clip-path="url(#p3a4e433eff)" style="fill: none; stroke-dasharray: 7.4,3.2; stroke-dashoffset: 0; stroke: #004a80; stroke-width: 2"/>
    <path d="M 346.53486 282.939429 
L 346.53486 162.538971 
" clip-path="url(#p3a4e433eff)" style="fill: none; stroke-dasharray: 7.4,3.2; stroke-dashoffset: 0; stroke: #004a80; stroke-width: 2"/>
   </g>
   <g id="patch_3">
    <path d="M 57.6 219.168 
L 57.6 129.888 
" style="fill: none; stroke: #000000; stroke-width: 0.8; stroke-linejoin: miter; stroke-linecap: square"/>
   </g>
   <g id="patch_4">
    <path d="M 414.72 219.168 
L 414.72 129.888 
" style="fill: none; stroke: #000000; stroke-width: 0.8; stroke-linejoin: miter; stroke-linecap: square"/>
   </g>
   <g id="patch_5">
    <path d="M 57.6 219.168 
L 414.72 219.168 
" style="fill: none; stroke: #000000; stroke-width: 0.8; stroke-linejoin: miter; stroke-linecap: square"/>
   </g>
   <g id="patch_6">
    <path d="M 57.6 129.888 
L 414.72 129.888 
" style="fill: none; stroke: #000000; stroke-width: 0.8; stroke-linejoin: miter; stroke-linecap: square"/>
   </g>
   <g id="patch_7">
    <path d="M 115.386972 219.168 
L 230.960916 219.168 
L 230.960916 217.254857 
L 115.386972 217.254857 
z
" clip-path="url(#p3a4e433eff)" style="fill: #efefef"/>
   </g>
   <g id="patch_8">
    <path d="M 173.173944 219.168 
L 346.53486 219.168 
L 346.53486 217.254857 
L 173.173944 217.254857 
z
" clip-path="url(#p3a4e433eff)" style="fill: #004a80"/>
   </g>
   <g id="patch_9">
    <path d="M 230.960916 219.168 
L 462.108804 219.168 
L 462.108804 217.254857 
L 230.960916 217.254857 
z
" clip-path="url(#p3a4e433eff)" style="fill: #efefef"/>
   </g>
   <g id="patch_10">
    <path d="M 288.747888 219.168 
L 577.682748 219.168 
L 577.682748 217.254857 
L 288.747888 217.254857 
z
" clip-path="url(#p3a4e433eff)" style="fill: #004a80"/>
   </g>
   <g id="patch_11">
    <path d="M 57.6 219.168 
L 115.386972 219.168 
L 115.386972 217.254857 
L 57.6 217.254857 
z
" clip-path="url(#p3a4e433eff)" style="fill: #004a80"/>
   </g>
   <g id="patch_12">
    <path d="M 346.53486 219.168 
L 703.65486 219.168 
L 703.65486 217.254857 
L 346.53486 217.254857 
z
" clip-path="url(#p3a4e433eff)" style="fill: #efefef"/>
   </g>
   <g id="text_11">
    <text style="font: 12px 'DejaVu Sans', 'Bitstream Vera Sans', 'Computer Modern Sans Serif', 'Lucida Grande', 'Verdana', 'Geneva', 'Lucid', 'Arial', 'Helvetica', 'Avant Garde', sans-serif; text-anchor: middle" x="236.16" y="123.888" transform="rotate(-0 236.16 123.888)">loipe-laerchenwiese</text>
   </g>
   <g id="line2d_19">
    <path d="M 57.6 161.700833 
L 65.6614 161.603255 
L 68.079819 161.948283 
L 69.692099 162.24105 
L 71.035666 162.332557 
L 86.889752 162.283886 
L 98.981851 162.389604 
L 128.002889 162.923682 
L 141.438555 162.929219 
L 153.530655 163.227182 
L 157.830068 163.587869 
L 160.248488 163.575951 
L 167.235034 164.102772 
L 173.952867 164.069486 
L 182.28298 163.961246 
L 195.449932 163.805514 
L 205.123612 163.748519 
L 211.572731 163.675925 
L 217.753138 163.785571 
L 232.801084 163.886817 
L 233.33851 163.751495 
L 259.672415 163.518694 
L 262.090835 163.430606 
L 266.121535 163.417664 
L 275.526501 163.548878 
L 290.305734 163.81163 
L 312.877652 164.114373 
L 315.296072 163.793481 
L 320.401625 163.164875 
L 321.207765 163.099267 
L 326.313318 163.139502 
L 344.585824 162.538971 
L 361.24605 162.645644 
L 365.276749 162.886967 
L 371.188442 162.973567 
L 373.606862 162.886378 
L 377.100135 162.633515 
L 380.324695 162.237161 
L 384.086682 162.265309 
L 400.209481 162.0288 
L 409.88316 161.929222 
L 414.72 161.6899 
L 414.72 161.6899 
" clip-path="url(#p3a4e433eff)" style="fill: none; stroke: #0000ff; stroke-width: 3; stroke-linecap: square"/>
   </g>
  </g>
 </g>
 <defs>
  <clipPath id="p3a4e433eff">
   <rect x="57.6" y="129.888" width="357.12" height="89.28"/>
  </clipPath>
 </defs>
</svg>
